<?xml version="1.0" encoding="UTF-8" standalone="no"?>
<svg
   width="32"
   height="32"
   viewBox="0 0 8.4666665 8.4666669"
   version="1.1"
   id="svg847"
   inkscape:version="1.1.1 (3bf5ae0d25, 2021-09-20, custom)"
   sodipodi:docname="activities.svg"
   xmlns:inkscape="http://www.inkscape.org/namespaces/inkscape"
   xmlns:sodipodi="http://sodipodi.sourceforge.net/DTD/sodipodi-0.dtd"
   xmlns="http://www.w3.org/2000/svg"
   xmlns:svg="http://www.w3.org/2000/svg"
   xmlns:rdf="http://www.w3.org/1999/02/22-rdf-syntax-ns#"
   xmlns:cc="http://creativecommons.org/ns#"
   xmlns:dc="http://purl.org/dc/elements/1.1/">
  <defs
     id="defs841" />
  <sodipodi:namedview
     id="base"
     pagecolor="#c8c8c8"
     bordercolor="#000000"
     borderopacity="1"
     inkscape:pageopacity="0"
     inkscape:pageshadow="2"
     inkscape:zoom="11.2"
     inkscape:cx="23.973214"
     inkscape:cy="13.392857"
     inkscape:document-units="px"
     inkscape:current-layer="layer1"
     inkscape:document-rotation="0"
     showgrid="true"
     units="px"
     inkscape:window-width="1920"
     inkscape:window-height="1005"
     inkscape:window-x="0"
     inkscape:window-y="0"
     inkscape:window-maximized="1"
     inkscape:snap-bbox="true"
     inkscape:bbox-nodes="true"
     inkscape:showpageshadow="false"
     inkscape:lockguides="false"
     inkscape:pagecheckerboard="0"
     inkscape:snap-smooth-nodes="true">
    <inkscape:grid
       type="xygrid"
       id="grid1410"
       originx="-8.4666677"
       originy="-2.6458333" />
  </sodipodi:namedview>
  <metadata
     id="metadata844">
    <rdf:RDF>
      <cc:Work
         rdf:about="">
        <dc:format>image/svg+xml</dc:format>
        <dc:type
           rdf:resource="http://purl.org/dc/dcmitype/StillImage" />
      </cc:Work>
    </rdf:RDF>
    <style
       id="current-color-scheme" />
  </metadata>
  <g
     inkscape:label="Layer 1"
     inkscape:groupmode="layer"
     id="layer1"
     transform="translate(-8.4666681,-2.6458333)">
    <g
       id="activities">
      <rect
         y="2.6458335"
         x="8.4666681"
         height="8.4666662"
         width="8.4666662"
         id="rect1430"
         style="opacity:0.003;fill:#000000;stroke-width:0.529167" />
      <g
         id="g4607"
         transform="translate(8.9958344)">
        <path
           id="rect856"
           style="opacity:1;fill:#fefefe;fill-opacity:1;fill-rule:evenodd;stroke-width:3.77998;stroke-linecap:round;stroke-linejoin:round"
           d="M 13,4 C 11.129588,4 9.5669024,5.2710683 9.125,7 h 2.140625 C 11.610398,6.4011422 12.256641,6 13,6 h 11 c 1.107999,0 2,0.8920005 2,2 v 11 c 0,0.742776 -0.401923,1.387446 -1,1.732422 v 2.138672 C 26.728116,22.428636 28,20.869836 28,19 V 8 C 28,5.7840003 26.216001,4 24,4 Z"
           transform="matrix(0.26458333,0,0,0.26458333,-0.5291663,2.6458333)" />
        <path
           id="path4601"
           style="opacity:1;fill:#fefefe;fill-opacity:1;fill-rule:evenodd;stroke-width:1.00012;stroke-linecap:round;stroke-linejoin:round"
           d="m 1.5874998,5.0270833 c -0.5863155,0 -1.05833254,0.4720167 -1.05833254,1.0583333 v 2.9104167 c 0,0.5863166 0.47201704,1.0583337 1.05833254,1.0583337 h 2.910417 c 0.586317,0 1.058333,-0.4720171 1.058333,-1.0583337 V 6.0854166 c 0,-0.5863166 -0.472016,-1.0583333 -1.058333,-1.0583333 z m 0,0.5291667 h 2.910417 c 0.293158,0 0.529167,0.2360084 0.529167,0.5291666 v 2.9104167 c 0,0.2931583 -0.236009,0.5291666 -0.529167,0.5291666 h -2.910417 c -0.293158,0 -0.529166,-0.2360083 -0.529166,-0.5291666 V 6.0854166 c 0,-0.2931582 0.236008,-0.5291666 0.529166,-0.5291666 z" />
      </g>
      <rect
         style="opacity:1;fill:#000000;fill-rule:evenodd;stroke-width:0.0264583;stroke-linecap:round;stroke-linejoin:round;paint-order:stroke fill markers;fill-opacity:1"
         id="rect878"
         width="5.0270834"
         height="5.0270834"
         x="9.5250006"
         y="5.0270834"
         ry="1.0583333" />
      <path
         id="rect2972"
         style="opacity:1;fill:#000000;fill-opacity:1;fill-rule:evenodd;stroke-width:0.0999999;stroke-linecap:round;stroke-linejoin:round;paint-order:stroke fill markers"
         d="M 13 4 C 11.129586 4 9.5669021 5.2710682 9.125 7 L 21 7 C 23.216 7 25 8.7840001 25 11 L 25 22.875 C 26.728932 22.433098 28 20.870414 28 19 L 28 8 C 28 5.7840001 26.216 4 24 4 L 13 4 z "
         transform="matrix(0.26458333,0,0,0.26458333,8.4666681,2.6458333)" />
    </g>
    <g
       id="22-22-activities">
      <rect
         style="opacity:0.003;fill:#000000;stroke-width:0.363802"
         id="rect1430-3-7-5"
         width="5.8208323"
         height="5.8208323"
         x="18.520836"
         y="2.6458333" />
      <rect
         style="opacity:1;fill:#000000;fill-opacity:1;fill-rule:evenodd;stroke-width:0.0264583;stroke-linecap:round;stroke-linejoin:round;paint-order:stroke fill markers"
         id="rect3758"
         width="3.4395833"
         height="3.4395833"
         x="19.314583"
         y="4.2333331"
         ry="0.52916694" />
      <path
         id="rect3859"
         style="opacity:1;fill:#000000;fill-opacity:1;fill-rule:evenodd;stroke-width:0.0999999;stroke-linecap:round;stroke-linejoin:round;paint-order:stroke fill markers"
         d="M 46 3 C 44.891999 3 44 3.8919994 44 5 L 53 5 C 54.108 5 55 5.8919999 55 7 L 55 16 C 56.108001 16 57 15.108001 57 14 L 57 5 C 57 3.8919994 56.108001 3 55 3 L 46 3 z "
         transform="matrix(0.26458333,0,0,0.26458333,8.4666681,2.6458333)" />
    </g>
  </g>
</svg>
