<?xml version="1.0" encoding="UTF-8" standalone="no"?>
<svg
   id="svg17"
   viewBox="0 0 54 32"
   version="1.1"
   sodipodi:docname="akregator.svg"
   inkscape:version="1.2.1 (9c6d41e410, 2022-07-14)"
   xmlns:inkscape="http://www.inkscape.org/namespaces/inkscape"
   xmlns:sodipodi="http://sodipodi.sourceforge.net/DTD/sodipodi-0.dtd"
   xmlns="http://www.w3.org/2000/svg"
   xmlns:svg="http://www.w3.org/2000/svg"
   xmlns:rdf="http://www.w3.org/1999/02/22-rdf-syntax-ns#"
   xmlns:cc="http://creativecommons.org/ns#"
   xmlns:dc="http://purl.org/dc/elements/1.1/">
  <sodipodi:namedview
     id="namedview12"
     pagecolor="#ffffff"
     bordercolor="#999999"
     borderopacity="1"
     inkscape:showpageshadow="0"
     inkscape:pageopacity="0"
     inkscape:pagecheckerboard="0"
     inkscape:deskcolor="#d1d1d1"
     showgrid="false"
     inkscape:zoom="12.111111"
     inkscape:cx="18.990826"
     inkscape:cy="25.678899"
     inkscape:window-width="1920"
     inkscape:window-height="1002"
     inkscape:window-x="0"
     inkscape:window-y="0"
     inkscape:window-maximized="1"
     inkscape:current-layer="svg17" />
  <metadata
     id="metadata19">
    <rdf:RDF>
      <cc:Work
         rdf:about="">
        <dc:format>image/svg+xml</dc:format>
        <dc:type
           rdf:resource="http://purl.org/dc/dcmitype/StillImage" />
        <dc:title />
      </cc:Work>
    </rdf:RDF>
  </metadata>
  <defs
     id="defs5">
    <style
       type="text/css"
       id="current-color-scheme"> .ColorScheme-Text { color:#363636; } </style>
  </defs>
  <g
     id="22-22-akregator">
    <path
       id="path7"
       fill="none"
       d="m0 10v22h22v-22h-22z" />
    <path
       id="path9"
       d="m3 13v3a13 13 0 0 1 13 13h3a16 16 0 0 0-16-16zm0 6v3a7 7 0 0 1 7 7h3a10 10 0 0 0-10-10zm2 6a2 2 0 0 0-2 2 2 2 0 0 0 2 2 2 2 0 0 0 2-2 2 2 0 0 0-2-2z"
       class="ColorScheme-Text"
       style="fill:#000000;fill-opacity:1" />
  </g>
  <g
     id="akregator">
    <path
       id="path12"
       d="m26 4v4a20 20 0 0 1 20 20h4a24 24 0 0 0-24-24zm0 8v4a12 12 0 0 1 12 12h4a16 16 0 0 0-16-16zm3.5 9a3.5 3.5 0 0 0-3.5 3.5 3.5 3.5 0 0 0 3.5 3.5 3.5 3.5 0 0 0 3.5-3.5 3.5 3.5 0 0 0-3.5-3.5z"
       class="ColorScheme-Text"
       style="fill:#000000;fill-opacity:1" />
    <path
       id="path14"
       fill="none"
       d="m22 0v32h32v-32h-32z" />
  </g>
</svg>
