<?xml version="1.0" encoding="UTF-8" standalone="no"?>
<svg
   id="svg19"
   viewBox="0 0 32 32"
   version="1.1"
   sodipodi:docname="apport.svg"
   inkscape:version="1.1.1 (3bf5ae0d25, 2021-09-20, custom)"
   width="32"
   height="32"
   xmlns:inkscape="http://www.inkscape.org/namespaces/inkscape"
   xmlns:sodipodi="http://sodipodi.sourceforge.net/DTD/sodipodi-0.dtd"
   xmlns="http://www.w3.org/2000/svg"
   xmlns:svg="http://www.w3.org/2000/svg"
   xmlns:rdf="http://www.w3.org/1999/02/22-rdf-syntax-ns#"
   xmlns:cc="http://creativecommons.org/ns#"
   xmlns:dc="http://purl.org/dc/elements/1.1/">
  <sodipodi:namedview
     pagecolor="#329632"
     bordercolor="#666666"
     borderopacity="1"
     objecttolerance="10"
     gridtolerance="10"
     guidetolerance="10"
     inkscape:pageopacity="0"
     inkscape:pageshadow="2"
     inkscape:window-width="1920"
     inkscape:window-height="965"
     id="namedview13"
     showgrid="true"
     inkscape:zoom="7.5359248"
     inkscape:cx="-13.070725"
     inkscape:cy="9.9523287"
     inkscape:window-x="0"
     inkscape:window-y="40"
     inkscape:window-maximized="1"
     inkscape:current-layer="svg19"
     inkscape:document-rotation="0"
     inkscape:pagecheckerboard="0"
     inkscape:snap-bbox="true">
    <inkscape:grid
       type="xygrid"
       id="grid829" />
  </sodipodi:namedview>
  <metadata
     id="metadata21">
    <rdf:RDF>
      <cc:Work
         rdf:about="">
        <dc:format>image/svg+xml</dc:format>
        <dc:type
           rdf:resource="http://purl.org/dc/dcmitype/StillImage" />
      </cc:Work>
    </rdf:RDF>
  </metadata>
  <defs
     id="defs5">
    <style
       type="text/css"
       id="current-color-scheme"> .ColorScheme-Text { color:#363636; } </style>
  </defs>
  <g
     id="apport">
    <path
       id="path3657"
       style="fill:#fbfbfb;fill-opacity:1;fill-rule:evenodd;stroke-width:0.7;stroke-linecap:round;stroke-linejoin:round;paint-order:stroke fill markers"
       d="M 7,4 C 6.896125,4 6.794456,4.0054194 6.693359,4.015625 6.592263,4.0258306 6.492354,4.0406309 6.394531,4.0605469 6.296709,4.0804629 6.199522,4.1056343 6.105469,4.1347656 6.011416,4.163897 5.919867,4.1965234 5.830078,4.234375 5.740289,4.2722266 5.653389,4.3152515 5.568359,4.3613281 5.48333,4.4074048 5.400088,4.4579121 5.320312,4.5117188 5.240538,4.5655254 5.16387,4.6225522 5.089844,4.6835938 5.015818,4.7446352 4.944734,4.8091719 4.876953,4.8769531 4.809172,4.9447344 4.744635,5.0158179 4.683594,5.0898438 4.622552,5.1638696 4.565525,5.2405371 4.511719,5.3203125 4.457912,5.4000879 4.407405,5.4833296 4.361328,5.5683594 4.315251,5.6533892 4.272227,5.7402891 4.234375,5.8300781 4.196523,5.9198672 4.163897,6.0114155 4.134766,6.1054688 4.105634,6.199522 4.080463,6.296709 4.060547,6.3945312 4.040631,6.4923535 4.025831,6.5922632 4.015625,6.6933594 4.005419,6.7944556 4,6.896125 4,7 v 18 c 0,0.103875 0.00542,0.205544 0.015625,0.306641 0.010206,0.101096 0.025006,0.201005 0.044922,0.298828 0.019916,0.09782 0.045087,0.195009 0.074219,0.289062 0.029131,0.09405 0.061757,0.185602 0.099609,0.275391 0.037852,0.08979 0.080876,0.176689 0.126953,0.261719 0.046077,0.08503 0.096584,0.16827 0.150391,0.248047 0.053806,0.07978 0.110833,0.156442 0.171875,0.230468 0.061041,0.07403 0.125578,0.14511 0.193359,0.212891 0.067781,0.06778 0.138865,0.132318 0.212891,0.193359 0.074026,0.06104 0.150694,0.118069 0.230468,0.171875 0.079776,0.05381 0.163018,0.104314 0.248047,0.150391 0.08503,0.04608 0.17193,0.0891 0.261719,0.126953 0.089789,0.03785 0.181338,0.07048 0.275391,0.09961 0.094053,0.02913 0.19124,0.0543 0.289062,0.07422 0.097823,0.01992 0.197732,0.03472 0.298828,0.04492 C 6.794456,27.994581 6.896125,28 7,28 h 18 c 0.103875,0 0.205544,-0.0054 0.306641,-0.01563 0.101096,-0.01021 0.201005,-0.02501 0.298828,-0.04492 0.09782,-0.01992 0.195009,-0.04509 0.289062,-0.07422 0.09405,-0.02913 0.185602,-0.06176 0.275391,-0.09961 0.08979,-0.03785 0.176689,-0.08088 0.261719,-0.126953 0.08503,-0.04608 0.168271,-0.09658 0.248047,-0.150391 0.07977,-0.05381 0.156442,-0.110833 0.230468,-0.171875 0.07403,-0.06104 0.14511,-0.125578 0.212891,-0.193359 0.06778,-0.06778 0.132318,-0.138865 0.193359,-0.212891 0.06104,-0.07403 0.118069,-0.150693 0.171875,-0.230468 0.05381,-0.07978 0.104314,-0.163018 0.150391,-0.248047 0.04608,-0.08503 0.0891,-0.17193 0.126953,-0.261719 0.03785,-0.08979 0.07048,-0.181338 0.09961,-0.275391 0.02913,-0.09405 0.0543,-0.19124 0.07422,-0.289062 0.01992,-0.09782 0.03472,-0.197732 0.04492,-0.298828 C 27.994581,25.205544 28,25.103875 28,25 V 7 C 28,6.896125 27.994581,6.7944556 27.984375,6.6933594 27.974169,6.5922632 27.959369,6.4923536 27.939453,6.3945312 27.919537,6.296709 27.894366,6.199522 27.865234,6.1054688 27.836103,6.0114155 27.803477,5.9198672 27.765625,5.8300781 27.727773,5.7402891 27.684749,5.6533892 27.638672,5.5683594 27.592595,5.4833296 27.542088,5.4000879 27.488281,5.3203125 27.434475,5.2405371 27.377448,5.1638696 27.316406,5.0898438 27.255365,5.0158179 27.190828,4.9447344 27.123047,4.8769531 27.055266,4.8091719 26.984182,4.7446353 26.910156,4.6835938 26.83613,4.6225522 26.759462,4.5655254 26.679688,4.5117188 26.599912,4.4579121 26.51667,4.4074048 26.431641,4.3613281 26.346611,4.3152515 26.259711,4.2722266 26.169922,4.234375 26.080133,4.1965234 25.988584,4.163897 25.894531,4.1347656 25.800478,4.1056343 25.703291,4.0804629 25.605469,4.0605469 25.507646,4.0406309 25.407737,4.0258306 25.306641,4.015625 25.205544,4.0054194 25.103875,4 25,4 Z m 8,4 h 2 c 0.06925,0 0.135957,0.00625 0.201172,0.019531 0.06522,0.013277 0.129594,0.033359 0.189453,0.058594 0.05986,0.025234 0.116738,0.055926 0.169922,0.091797 0.05318,0.035871 0.101297,0.077859 0.146484,0.1230469 0.04519,0.045187 0.08718,0.093301 0.123047,0.1464843 0.03587,0.053184 0.06656,0.1100625 0.0918,0.1699219 0.02523,0.059859 0.04532,0.1242383 0.05859,0.1894531 C 17.993746,8.864043 18,8.93075 18,9 v 8 c 0,0.06925 -0.0063,0.135957 -0.01953,0.201172 -0.01328,0.06522 -0.03336,0.129594 -0.05859,0.189453 -0.02523,0.05986 -0.05593,0.116738 -0.0918,0.169922 -0.03587,0.05318 -0.07786,0.101297 -0.123047,0.146484 -0.04519,0.04519 -0.0933,0.08718 -0.146484,0.123047 -0.05318,0.03587 -0.110063,0.06656 -0.169922,0.0918 -0.05986,0.02523 -0.124238,0.04532 -0.189453,0.05859 C 17.135957,17.993746 17.06925,18 17,18 h -2 c -0.06925,0 -0.135957,-0.0063 -0.201172,-0.01953 -0.06522,-0.01328 -0.129594,-0.03336 -0.189453,-0.05859 -0.05986,-0.02523 -0.116738,-0.05593 -0.169922,-0.0918 -0.05318,-0.03587 -0.101297,-0.07786 -0.146484,-0.123047 -0.04519,-0.04519 -0.08718,-0.0933 -0.123047,-0.146484 -0.03587,-0.05318 -0.06656,-0.110063 -0.0918,-0.169922 -0.02523,-0.05986 -0.04532,-0.124238 -0.05859,-0.189453 C 14.006254,17.135957 14,17.06925 14,17 V 9 c 0,-0.06925 0.0063,-0.135957 0.01953,-0.2011719 0.01328,-0.065215 0.03336,-0.1295937 0.05859,-0.1894531 0.02523,-0.059859 0.05593,-0.1167383 0.0918,-0.1699219 0.03587,-0.053184 0.07786,-0.1012968 0.123047,-0.1464843 0.04519,-0.045188 0.0933,-0.087176 0.146484,-0.1230469 0.05318,-0.035871 0.110063,-0.066562 0.169922,-0.091797 0.05986,-0.025234 0.124238,-0.045316 0.189453,-0.058594 C 14.864043,8.006254 14.93075,8 15,8 Z m 0,12 h 2 c 0.06925,0 0.135957,0.0063 0.201172,0.01953 0.06522,0.01328 0.129594,0.03336 0.189453,0.05859 0.05986,0.02523 0.116738,0.05593 0.169922,0.0918 0.05318,0.03587 0.101297,0.07786 0.146484,0.123047 0.04519,0.04519 0.08718,0.0933 0.123047,0.146484 0.03587,0.05318 0.06656,0.110063 0.0918,0.169922 0.02523,0.05986 0.04532,0.124238 0.05859,0.189453 C 17.993746,20.864043 18,20.93075 18,21 v 2 c 0,0.06925 -0.0063,0.135957 -0.01953,0.201172 -0.01328,0.06522 -0.03336,0.129594 -0.05859,0.189453 -0.02523,0.05986 -0.05593,0.116738 -0.0918,0.169922 -0.03587,0.05318 -0.07786,0.101297 -0.123047,0.146484 -0.04519,0.04519 -0.0933,0.08718 -0.146484,0.123047 -0.05318,0.03587 -0.110063,0.06656 -0.169922,0.0918 -0.05986,0.02523 -0.124238,0.04532 -0.189453,0.05859 C 17.135957,23.993746 17.06925,24 17,24 h -2 c -0.06925,0 -0.135957,-0.0063 -0.201172,-0.01953 -0.06522,-0.01328 -0.129594,-0.03336 -0.189453,-0.05859 -0.05986,-0.02523 -0.116738,-0.05593 -0.169922,-0.0918 -0.05318,-0.03587 -0.101297,-0.07786 -0.146484,-0.123047 -0.04519,-0.04519 -0.08718,-0.0933 -0.123047,-0.146484 -0.03587,-0.05318 -0.06656,-0.110063 -0.0918,-0.169922 -0.02523,-0.05986 -0.04532,-0.124238 -0.05859,-0.189453 C 14.006254,23.135957 14,23.06925 14,23 v -2 c 0,-0.06925 0.0063,-0.135957 0.01953,-0.201172 0.01328,-0.06522 0.03336,-0.129594 0.05859,-0.189453 0.02523,-0.05986 0.05593,-0.116738 0.0918,-0.169922 0.03587,-0.05318 0.07786,-0.101297 0.123047,-0.146484 0.04519,-0.04519 0.0933,-0.08718 0.146484,-0.123047 0.05318,-0.03587 0.110063,-0.06656 0.169922,-0.0918 0.05986,-0.02523 0.124238,-0.04532 0.189453,-0.05859 C 14.864043,20.006254 14.93075,20 15,20 Z" />
    <path
       id="path7"
       fill="none"
       d="M 0,0 V 32 H 32 V 0 Z" />
  </g>
  <g
     id="22-22-apport">
    <path
       id="path4579"
       style="fill:#fbfbfb;fill-opacity:1;fill-rule:evenodd;stroke-width:0.7;stroke-linecap:round;stroke-linejoin:round;paint-order:stroke fill markers"
       d="m -17,13 c -0.06925,0 -0.137681,0.003 -0.205078,0.0098 -0.0674,0.0068 -0.134004,0.01797 -0.199219,0.03125 -0.06522,0.01328 -0.128704,0.02941 -0.191406,0.04883 -0.0627,0.01942 -0.123734,0.04117 -0.183594,0.06641 -0.05986,0.02523 -0.119095,0.05327 -0.175781,0.08398 -0.05669,0.03072 -0.110879,0.06374 -0.164063,0.09961 -0.05318,0.03587 -0.104945,0.07454 -0.154297,0.115234 -0.04935,0.04069 -0.09739,0.08372 -0.142578,0.128906 -0.04519,0.04519 -0.08821,0.09323 -0.128906,0.142578 -0.04069,0.04935 -0.07936,0.101114 -0.115234,0.154297 -0.03587,0.05318 -0.06889,0.107376 -0.09961,0.164063 -0.03072,0.05669 -0.05875,0.115922 -0.08398,0.175781 -0.02523,0.05986 -0.04698,0.120892 -0.06641,0.183594 -0.01942,0.0627 -0.03555,0.126191 -0.04883,0.191406 -0.01328,0.06522 -0.02445,0.131821 -0.03125,0.199219 C -18.997038,14.862319 -19,14.93075 -19,15 v 12 c 0,0.06925 0.003,0.137681 0.0098,0.205078 0.0068,0.0674 0.01797,0.134004 0.03125,0.199219 0.01328,0.06522 0.02941,0.128704 0.04883,0.191406 0.01942,0.0627 0.04117,0.123735 0.06641,0.183594 0.02523,0.05986 0.05327,0.119095 0.08398,0.175781 0.03072,0.05669 0.06374,0.110879 0.09961,0.164063 0.03587,0.05318 0.07454,0.104946 0.115234,0.154297 0.04069,0.04935 0.08372,0.09739 0.128906,0.142578 0.04519,0.04519 0.09323,0.08821 0.142578,0.128906 0.04935,0.04069 0.101114,0.07936 0.154297,0.115234 0.05318,0.03587 0.107376,0.06889 0.164063,0.09961 0.05669,0.03072 0.115922,0.05875 0.175781,0.08398 0.05986,0.02523 0.120892,0.04698 0.183594,0.06641 0.0627,0.01942 0.126191,0.03555 0.191406,0.04883 0.06521,0.01328 0.131821,0.02445 0.199219,0.03125 C -17.137681,28.997038 -17.06925,29 -17,29 h 12 c 0.06925,0 0.137681,-0.003 0.205078,-0.0098 0.067398,-0.0068 0.134004,-0.01797 0.199219,-0.03125 0.065215,-0.01328 0.128704,-0.02941 0.191406,-0.04883 0.062702,-0.01942 0.123735,-0.04117 0.183594,-0.06641 0.059859,-0.02523 0.119095,-0.05327 0.175781,-0.08398 0.056687,-0.03072 0.110879,-0.06374 0.164063,-0.09961 0.053183,-0.03587 0.104946,-0.07454 0.154297,-0.115234 0.04935,-0.04069 0.09739,-0.08372 0.142578,-0.128906 0.045187,-0.04519 0.088212,-0.09323 0.128906,-0.142578 0.040694,-0.04935 0.079363,-0.101114 0.115234,-0.154297 0.035871,-0.05318 0.068892,-0.107376 0.09961,-0.164063 0.030717,-0.05669 0.05875,-0.115922 0.083984,-0.175781 0.025234,-0.05986 0.046985,-0.120892 0.066406,-0.183594 0.019421,-0.0627 0.035551,-0.126191 0.048828,-0.191406 0.013278,-0.06521 0.024447,-0.131821 0.03125,-0.199219 C -3.002962,27.137681 -3,27.06925 -3,27 V 15 c 0,-0.06925 -0.00296,-0.137681 -0.00977,-0.205078 -0.0068,-0.0674 -0.017972,-0.134004 -0.03125,-0.199219 -0.013277,-0.06522 -0.029407,-0.128704 -0.048828,-0.191406 -0.019421,-0.0627 -0.041172,-0.123734 -0.066406,-0.183594 -0.025234,-0.05986 -0.053267,-0.119095 -0.083984,-0.175781 -0.030718,-0.05669 -0.063739,-0.110879 -0.09961,-0.164063 -0.035871,-0.05318 -0.07454,-0.104946 -0.115234,-0.154297 -0.040694,-0.04935 -0.083719,-0.09739 -0.128906,-0.142578 -0.045188,-0.04519 -0.093228,-0.08821 -0.142578,-0.128906 -0.049351,-0.04069 -0.101114,-0.07936 -0.154297,-0.115234 -0.053184,-0.03587 -0.107376,-0.06889 -0.164063,-0.09961 -0.056686,-0.03072 -0.115922,-0.05875 -0.175781,-0.08398 -0.059859,-0.02523 -0.120892,-0.04698 -0.183594,-0.06641 -0.062702,-0.01942 -0.126191,-0.03555 -0.191406,-0.04883 -0.065215,-0.01328 -0.131821,-0.02445 -0.199219,-0.03125 C -4.862319,13.002962 -4.93075,13 -5,13 Z m 6,3 c 0.06925,0 0.135957,0.0063 0.201172,0.01953 0.06522,0.01328 0.129594,0.03336 0.189453,0.05859 0.05986,0.02523 0.116738,0.05593 0.169922,0.0918 0.05318,0.03587 0.101297,0.07786 0.146484,0.123047 0.04519,0.04519 0.08718,0.0933 0.123047,0.146484 0.03587,0.05318 0.06656,0.110063 0.0918,0.169922 0.02523,0.05986 0.04532,0.124238 0.05859,0.189453 C -10.006254,16.864043 -10,16.93075 -10,17 v 5 c 0,0.06925 -0.0063,0.135957 -0.01953,0.201172 -0.01328,0.06522 -0.03336,0.129594 -0.05859,0.189453 -0.02523,0.05986 -0.05593,0.116738 -0.0918,0.169922 -0.03587,0.05318 -0.07786,0.101297 -0.123047,0.146484 -0.04519,0.04519 -0.0933,0.08718 -0.146484,0.123047 -0.05318,0.03587 -0.110063,0.06656 -0.169922,0.0918 -0.05986,0.02523 -0.124238,0.04532 -0.189453,0.05859 C -10.864043,22.993746 -10.93075,23 -11,23 c -0.06925,0 -0.135957,-0.0063 -0.201172,-0.01953 -0.06522,-0.01328 -0.129594,-0.03336 -0.189453,-0.05859 -0.05986,-0.02523 -0.116738,-0.05593 -0.169922,-0.0918 -0.05318,-0.03587 -0.101297,-0.07786 -0.146484,-0.123047 -0.04519,-0.04519 -0.08718,-0.0933 -0.123047,-0.146484 -0.03587,-0.05318 -0.06656,-0.110063 -0.0918,-0.169922 -0.02523,-0.05986 -0.04532,-0.124238 -0.05859,-0.189453 C -11.993746,22.135957 -12,22.06925 -12,22 v -5 c 0,-0.06925 0.0063,-0.135957 0.01953,-0.201172 0.01328,-0.06522 0.03336,-0.129594 0.05859,-0.189453 0.02523,-0.05986 0.05593,-0.116738 0.0918,-0.169922 0.03587,-0.05318 0.07786,-0.101297 0.123047,-0.146484 0.04519,-0.04519 0.0933,-0.08718 0.146484,-0.123047 0.05318,-0.03587 0.110063,-0.06656 0.169922,-0.0918 0.05986,-0.02523 0.124238,-0.04532 0.189453,-0.05859 C -11.135957,16.006254 -11.06925,16 -11,16 Z m 0,8 a 1,1 0 0 1 0.130859,0.0078 1,1 0 0 1 0.128907,0.02539 1,1 0 0 1 0.123046,0.04297 1,1 0 0 1 0.117188,0.05859 1,1 0 0 1 0.109375,0.07227 1,1 0 0 1 0.09766,0.08594 1,1 0 0 1 0.08594,0.09766 1,1 0 0 1 0.07226,0.109375 1,1 0 0 1 0.05859,0.117188 1,1 0 0 1 0.04297,0.123046 1,1 0 0 1 0.02539,0.128907 A 1,1 0 0 1 -10,25 a 1,1 0 0 1 -0.07617,0.382812 1,1 0 0 1 -0.216797,0.324219 1,1 0 0 1 -0.324219,0.216797 A 1,1 0 0 1 -11,26 1,1 0 0 1 -11.382812,25.923828 1,1 0 0 1 -11.707031,25.707031 1,1 0 0 1 -11.923828,25.382812 1,1 0 0 1 -12,25 a 1,1 0 0 1 0.07617,-0.382812 1,1 0 0 1 0.216797,-0.324219 1,1 0 0 1 0.324219,-0.216797 A 1,1 0 0 1 -11,24 Z" />
    <path
       id="path12"
       fill="none"
       d="M -22,10 V 32 H 0 V 10 Z" />
  </g>
</svg>
