<?xml version="1.0" encoding="UTF-8" standalone="no"?>
<svg
   xmlns:dc="http://purl.org/dc/elements/1.1/"
   xmlns:cc="http://creativecommons.org/ns#"
   xmlns:rdf="http://www.w3.org/1999/02/22-rdf-syntax-ns#"
   xmlns:svg="http://www.w3.org/2000/svg"
   xmlns="http://www.w3.org/2000/svg"
   xmlns:sodipodi="http://sodipodi.sourceforge.net/DTD/sodipodi-0.dtd"
   xmlns:inkscape="http://www.inkscape.org/namespaces/inkscape"
   id="svg7384"
   width="22"
   height="22"
   enable-background="new"
   inkscape:version="1.0.1 (3bc2e813f5, 2020-09-07)"
   sodipodi:docname="document.svg"
   version="1.1">
  <metadata
     id="metadata47">
    <rdf:RDF>
      <cc:Work
         rdf:about="">
        <dc:format>image/svg+xml</dc:format>
        <dc:type
           rdf:resource="http://purl.org/dc/dcmitype/StillImage" />
        <dc:title></dc:title>
      </cc:Work>
    </rdf:RDF>
  </metadata>
  <sodipodi:namedview
     id="namedview26"
     bordercolor="#666666"
     borderopacity="1"
     gridtolerance="10"
     guidetolerance="10"
     inkscape:current-layer="svg7384"
     inkscape:cx="106.55895"
     inkscape:cy="7.0724993"
     inkscape:pageopacity="0"
     inkscape:pageshadow="2"
     inkscape:window-height="932"
     inkscape:window-maximized="1"
     inkscape:window-width="1920"
     inkscape:window-x="0"
     inkscape:window-y="36"
     inkscape:zoom="14.903983"
     objecttolerance="10"
     pagecolor="#329632"
     showgrid="true"
     inkscape:document-rotation="0">
    <inkscape:grid
       id="grid58"
       type="xygrid" />
  </sodipodi:namedview>
  <defs
     id="defs7386">
    <style
       id="current-color-scheme"
       type="text/css">.ColorScheme-Text { color:#333333; } .ColorScheme-Highlight { color:#5294e2; } .ColorScheme-ButtonBackground { color:#333333; }</style>
  </defs>
  <g
     id="22-22-document-open-recent">
    <path
       id="rect1049"
       style="opacity:1;fill:#ffffff;fill-opacity:1;stroke-width:4.648;stroke-linecap:round"
       d="M 115.75977 8.0292969 C 115.66337 8.0548969 115.57501 8.1100969 115.50977 8.1855469 L 113.35352 10.341797 L 111.69727 8.6855469 C 111.54009 8.4285669 111.12903 8.3787669 110.91602 8.5917969 C 110.70301 8.8048069 110.75281 9.2158669 111.00977 9.3730469 L 113.00977 11.373047 C 113.19327 11.546747 113.51377 11.546747 113.69727 11.373047 L 116.19727 8.8730469 C 116.49014 8.5745969 116.17247 7.9619069 115.75977 8.0292969 z " />
    <path
       id="rect1037"
       style="opacity:1;fill:#ffffff;fill-opacity:1;stroke-width:4.648;stroke-linecap:round"
       d="M 113.34961 3.8496094 A 7 7 0 0 0 106.34961 10.849609 A 7 7 0 0 0 113.34961 17.849609 A 7 7 0 0 0 120.34961 10.849609 A 7 7 0 0 0 113.34961 3.8496094 z M 113.34961 5.8496094 A 5 5 0 0 1 118.34961 10.849609 A 5 5 0 0 1 113.34961 15.849609 A 5 5 0 0 1 108.34961 10.849609 A 5 5 0 0 1 113.34961 5.8496094 z " />
    <rect
       id="rect4214"
       x="102.35"
       y="-0.15625"
       width="22"
       height="22"
       opacity="0" />
    <rect
       id="rect7713-2"
       x="105.35"
       y="2.8499999"
       width="16"
       height="16"
       color="#000000"
       enable-background="new"
       fill="none" />
  </g>
  <g
     id="document-open-recent">
    <path
       id="rect1028"
       style="opacity:1;fill:#ffffff;fill-opacity:1;stroke-width:4.648;stroke-linecap:round"
       d="M 85.019531 1.9902344 C 84.826731 2.0414344 84.650011 2.1518344 84.519531 2.3027344 L 80.207031 6.6152344 L 76.894531 3.3027344 C 76.580171 2.7887744 75.758051 2.6891744 75.332031 3.1152344 C 74.906011 3.5412544 75.005611 4.3633744 75.519531 4.6777344 L 79.519531 8.6777344 C 79.886531 9.0251344 80.527531 9.0251344 80.894531 8.6777344 L 85.894531 3.6777344 C 86.480271 3.0808344 85.844931 1.8554544 85.019531 1.9902344 z " />
    <path
       id="rect1021"
       style="opacity:1;fill:#ffffff;fill-opacity:1;stroke-width:4.648;stroke-linecap:round"
       d="M 80.199219 -6.3691406 A 14 14 0 0 0 66.199219 7.6308594 A 14 14 0 0 0 80.199219 21.630859 A 14 14 0 0 0 94.199219 7.6308594 A 14 14 0 0 0 80.199219 -6.3691406 z M 80.181641 -2.3691406 A 10 10 0 0 1 80.199219 -2.3691406 A 10 10 0 0 1 90.199219 7.6308594 A 10 10 0 0 1 80.199219 17.630859 A 10 10 0 0 1 70.199219 7.6308594 A 10 10 0 0 1 80.181641 -2.3691406 z " />
    <rect
       id="rect116"
       x="64.199997"
       y="-8.3699999"
       width="32"
       height="32"
       color="#000000"
       enable-background="new"
       fill="none"
       style="stroke-width:1" />
  </g>
  <g
     id="document-encrypt">
    <path
       id="rect971"
       style="opacity:0.75;fill:#ffffff;fill-opacity:1;stroke-width:4.648;stroke-linecap:round"
       d="M 11 2 C 8.23 2 6 4.23 6 7 L 6 10 L 8 10 L 8 7 C 8 5.338 9.338 4 11 4 C 12.662 4 14 5.338 14 7 L 14 10 L 16 10 L 16 7 C 16 4.23 13.77 2 11 2 z " />
    <path
       id="rect963"
       style="opacity:0.35;fill:#ffffff;fill-opacity:1;stroke-width:4.648;stroke-linecap:round"
       d="M 11 10 A 2.0032 2.0032 0 0 0 8.9960938 12.003906 A 2.0032 2.0032 0 0 0 10 13.738281 L 10 16 C 10 16.554 10.446 17 11 17 C 11.554 17 12 16.554 12 16 L 12 13.736328 A 2.0032 2.0032 0 0 0 13.003906 12.003906 A 2.0032 2.0032 0 0 0 11 10 z " />
    <path
       id="rect958"
       style="opacity:1;fill:#ffffff;fill-opacity:1;stroke-width:4.648;stroke-linecap:round"
       d="M 11 11 A 1.0032001 1.0032001 0 0 0 9.9960938 12.003906 A 1.0032001 1.0032001 0 0 0 11 13.005859 A 1.0032001 1.0032001 0 0 0 12.003906 12.003906 A 1.0032001 1.0032001 0 0 0 11 11 z " />
    <path
       id="rect954"
       style="opacity:1;fill:#ffffff;fill-opacity:1;stroke-width:4.648;stroke-linecap:round"
       d="M 5 8 C 3.892 8 3 8.892 3 10 L 3 17 C 3 18.108 3.892 19 5 19 L 17 19 C 18.108 19 19 18.108 19 17 L 19 10 C 19 8.892 18.108 8 17 8 L 7 8 L 5 8 z M 10.960938 10 A 2.0032 2.0032 0 0 1 11 10 A 2.0032 2.0032 0 0 1 11.158203 10.007812 A 2.0032 2.0032 0 0 1 11.292969 10.023438 A 2.0032 2.0032 0 0 1 11.361328 10.033203 A 2.0032 2.0032 0 0 1 11.460938 10.056641 A 2.0032 2.0032 0 0 1 11.578125 10.085938 A 2.0032 2.0032 0 0 1 11.634766 10.105469 A 2.0032 2.0032 0 0 1 11.753906 10.148438 A 2.0032 2.0032 0 0 1 11.857422 10.195312 A 2.0032 2.0032 0 0 1 11.923828 10.226562 A 2.0032 2.0032 0 0 1 12.039062 10.292969 A 2.0032 2.0032 0 0 1 12.107422 10.335938 A 2.0032 2.0032 0 0 1 12.175781 10.384766 A 2.0032 2.0032 0 0 1 12.271484 10.455078 A 2.0032 2.0032 0 0 1 12.341797 10.517578 A 2.0032 2.0032 0 0 1 12.416016 10.587891 A 2.0032 2.0032 0 0 1 12.486328 10.662109 A 2.0032 2.0032 0 0 1 12.548828 10.732422 A 2.0032 2.0032 0 0 1 12.619141 10.828125 A 2.0032 2.0032 0 0 1 12.667969 10.896484 A 2.0032 2.0032 0 0 1 12.710938 10.964844 A 2.0032 2.0032 0 0 1 12.777344 11.080078 A 2.0032 2.0032 0 0 1 12.808594 11.146484 A 2.0032 2.0032 0 0 1 12.855469 11.25 A 2.0032 2.0032 0 0 1 12.898438 11.369141 A 2.0032 2.0032 0 0 1 12.917969 11.425781 A 2.0032 2.0032 0 0 1 12.947266 11.542969 A 2.0032 2.0032 0 0 1 12.970703 11.642578 A 2.0032 2.0032 0 0 1 12.980469 11.710938 A 2.0032 2.0032 0 0 1 12.996094 11.845703 A 2.0032 2.0032 0 0 1 13.003906 12.003906 A 2.0032 2.0032 0 0 1 12.996094 12.152344 A 2.0032 2.0032 0 0 1 12.988281 12.246094 A 2.0032 2.0032 0 0 1 12.970703 12.353516 A 2.0032 2.0032 0 0 1 12.947266 12.464844 A 2.0032 2.0032 0 0 1 12.941406 12.492188 A 2.0032 2.0032 0 0 1 12.933594 12.513672 A 2.0032 2.0032 0 0 1 12.890625 12.658203 A 2.0032 2.0032 0 0 1 12.863281 12.732422 A 2.0032 2.0032 0 0 1 12.830078 12.810547 A 2.0032 2.0032 0 0 1 12.773438 12.929688 A 2.0032 2.0032 0 0 1 12.738281 12.994141 A 2.0032 2.0032 0 0 1 12.675781 13.095703 A 2.0032 2.0032 0 0 1 12.626953 13.167969 A 2.0032 2.0032 0 0 1 12.560547 13.255859 A 2.0032 2.0032 0 0 1 12.5 13.328125 A 2.0032 2.0032 0 0 1 12.435547 13.396484 A 2.0032 2.0032 0 0 1 12.355469 13.472656 A 2.0032 2.0032 0 0 1 12.287109 13.533203 A 2.0032 2.0032 0 0 1 12.193359 13.607422 A 2.0032 2.0032 0 0 1 12.134766 13.648438 A 2.0032 2.0032 0 0 1 12 13.736328 L 12 16 C 12 16.554 11.554 17 11 17 C 10.8615 17 10.729085 16.972345 10.609375 16.921875 C 10.250215 16.770475 10 16.4155 10 16 L 10 13.738281 A 2.0032 2.0032 0 0 1 9.8535156 13.642578 A 2.0032 2.0032 0 0 1 9.8085938 13.609375 A 2.0032 2.0032 0 0 1 9.7207031 13.541016 A 2.0032 2.0032 0 0 1 9.6269531 13.458984 A 2.0032 2.0032 0 0 1 9.5820312 13.414062 A 2.0032 2.0032 0 0 1 9.4980469 13.324219 A 2.0032 2.0032 0 0 1 9.4433594 13.261719 A 2.0032 2.0032 0 0 1 9.3613281 13.154297 A 2.0032 2.0032 0 0 1 9.3339844 13.113281 A 2.0032 2.0032 0 0 1 9.2597656 12.994141 A 2.0032 2.0032 0 0 1 9.2246094 12.927734 A 2.0032 2.0032 0 0 1 9.1738281 12.824219 A 2.0032 2.0032 0 0 1 9.1308594 12.71875 A 2.0032 2.0032 0 0 1 9.109375 12.660156 A 2.0032 2.0032 0 0 1 9.0683594 12.525391 A 2.0032 2.0032 0 0 1 9.0507812 12.455078 A 2.0032 2.0032 0 0 1 9.03125 12.361328 A 2.0032 2.0032 0 0 1 9.0117188 12.242188 A 2.0032 2.0032 0 0 1 9.0039062 12.15625 A 2.0032 2.0032 0 0 1 8.9960938 12.003906 A 2.0032 2.0032 0 0 1 9.0039062 11.845703 A 2.0032 2.0032 0 0 1 9.0195312 11.710938 A 2.0032 2.0032 0 0 1 9.0292969 11.642578 A 2.0032 2.0032 0 0 1 9.0527344 11.542969 A 2.0032 2.0032 0 0 1 9.0820312 11.425781 A 2.0032 2.0032 0 0 1 9.1015625 11.369141 A 2.0032 2.0032 0 0 1 9.1445312 11.25 A 2.0032 2.0032 0 0 1 9.1914062 11.146484 A 2.0032 2.0032 0 0 1 9.2226562 11.080078 A 2.0032 2.0032 0 0 1 9.2890625 10.964844 A 2.0032 2.0032 0 0 1 9.3320312 10.896484 A 2.0032 2.0032 0 0 1 9.3808594 10.828125 A 2.0032 2.0032 0 0 1 9.4511719 10.732422 A 2.0032 2.0032 0 0 1 9.5136719 10.662109 A 2.0032 2.0032 0 0 1 9.5839844 10.587891 A 2.0032 2.0032 0 0 1 9.6582031 10.517578 A 2.0032 2.0032 0 0 1 9.7285156 10.455078 A 2.0032 2.0032 0 0 1 9.8242188 10.384766 A 2.0032 2.0032 0 0 1 9.8925781 10.335938 A 2.0032 2.0032 0 0 1 9.9609375 10.292969 A 2.0032 2.0032 0 0 1 10.076172 10.226562 A 2.0032 2.0032 0 0 1 10.142578 10.195312 A 2.0032 2.0032 0 0 1 10.246094 10.148438 A 2.0032 2.0032 0 0 1 10.365234 10.105469 A 2.0032 2.0032 0 0 1 10.421875 10.085938 A 2.0032 2.0032 0 0 1 10.539062 10.056641 A 2.0032 2.0032 0 0 1 10.638672 10.033203 A 2.0032 2.0032 0 0 1 10.707031 10.023438 A 2.0032 2.0032 0 0 1 10.841797 10.007812 A 2.0032 2.0032 0 0 1 10.960938 10 z " />
    <rect
       id="rect4192-3"
       x="-4.2691999e-11"
       y="-2.6673001e-11"
       width="22"
       height="22"
       opacity="0" />
    <rect
       id="rect5737-9-6"
       transform="rotate(-90)"
       x="-18.997"
       y="2.9976001"
       width="16"
       height="16"
       color="#bebebe"
       fill="none" />
  </g>
  <g
     id="16-16-document-decrypt">
    <path
       id="rect907"
       style="opacity:0.75;fill:#ffffff;fill-opacity:1;stroke-width:4.648;stroke-linecap:round"
       d="M 11 -28 C 8.8051 -28 7.0394594 -26.2114 7.0058594 -24 L 9 -24 C 9 -25.108 9.892 -26 11 -26 C 12.108 -26 13 -25.108 13 -24 L 13 -22 L 15 -22 L 15 -23.9375 C 15 -26.1775 13.216 -28 11 -28 z " />
    <path
       id="rect884"
       style="fill:#ffffff;fill-opacity:1;stroke-width:4.648;stroke-linecap:round"
       d="M 5 -22 C 4.446 -22 4 -21.554 4 -21 L 4 -15 C 4 -14.446 4.446 -14 5 -14 L 17 -14 C 17.554 -14 18 -14.446 18 -15 L 18 -21 C 18 -21.554 17.554 -22 17 -22 L 15 -22 L 13 -22 L 9 -22 L 7 -22 L 5 -22 z M 10.951172 -20 A 2 2 0 0 1 11 -20 A 2 2 0 0 1 13 -18 A 2 2 0 0 1 11 -16 A 2 2 0 0 1 9 -18 A 2 2 0 0 1 10.951172 -20 z " />
    <rect
       id="rect892"
       transform="rotate(-90)"
       x="13.003"
       y="2.9970016"
       width="16"
       height="16"
       color="#bebebe"
       fill="none" />
    <path
       id="rect899"
       style="fill:#ffffff;fill-opacity:1;stroke-width:4.648;stroke-linecap:round;opacity:0.35"
       d="M 10.951172 -20 A 2 2 0 0 0 9 -18 A 2 2 0 0 0 11 -16 A 2 2 0 0 0 13 -18 A 2 2 0 0 0 11 -20 A 2 2 0 0 0 10.951172 -20 z " />
    <path
       id="rect894"
       style="fill:#ffffff;fill-opacity:1;stroke-width:4.648;stroke-linecap:round"
       d="M 11 -19 A 1 1 0 0 0 10 -18 A 1 1 0 0 0 11 -17 A 1 1 0 0 0 12 -18 A 1 1 0 0 0 11 -19 z " />
  </g>
  <g
     id="16-16-document-encrypt">
    <path
       id="rect935"
       style="opacity:0.75;fill:#ffffff;fill-opacity:1;stroke-width:4.648;stroke-linecap:round"
       d="M 34 -28 C 31.784 -28 30 -26.1784 30 -23.9375 L 30 -22 L 32 -22 L 32 -24 C 32 -25.108 32.892 -26 34 -26 C 35.108 -26 36 -25.108 36 -24 L 36 -22 L 38 -22 L 38 -23.9375 C 38 -26.1775 36.216 -28 34 -28 z " />
    <rect
       id="rect67-5"
       transform="rotate(-90)"
       x="13.003"
       y="25.997002"
       width="16"
       height="16"
       color="#bebebe"
       fill="none" />
    <path
       id="path913"
       style="fill:#ffffff;fill-opacity:1;stroke-width:4.648;stroke-linecap:round"
       d="m 28,-22 c -0.554,0 -1,0.446 -1,1 v 6 c 0,0.554 0.446,1 1,1 h 12 c 0.554,0 1,-0.446 1,-1 v -6 c 0,-0.554 -0.446,-1 -1,-1 h -2 -2 -4 -2 z m 5.951172,2 a 2,2 0 0 1 0.04883,0 2,2 0 0 1 2,2 2,2 0 0 1 -2,2 2,2 0 0 1 -2,-2 2,2 0 0 1 1.951172,-2 z" />
    <path
       id="path915"
       style="opacity:0.35;fill:#ffffff;fill-opacity:1;stroke-width:4.648;stroke-linecap:round"
       d="M 33.951172,-20 A 2,2 0 0 0 32,-18 a 2,2 0 0 0 2,2 2,2 0 0 0 2,-2 2,2 0 0 0 -2,-2 2,2 0 0 0 -0.04883,0 z" />
    <path
       id="path917"
       style="fill:#ffffff;fill-opacity:1;stroke-width:4.648;stroke-linecap:round"
       d="m 34,-19 a 1,1 0 0 0 -1,1 1,1 0 0 0 1,1 1,1 0 0 0 1,-1 1,1 0 0 0 -1,-1 z" />
  </g>
  <g
     id="document-decrypt">
    <path
       id="rect1009"
       style="opacity:0.75;fill:#ffffff;fill-opacity:1;stroke-width:4.648;stroke-linecap:round"
       d="M 11 34 C 8.5728 34 6.5606094 35.7126 6.0996094 38 L 8.1816406 38 C 8.5932006 36.8353 9.6909 36 11 36 C 12.662 36 14 37.338 14 39 L 14 42 L 16 42 L 16 39 C 16 36.23 13.77 34 11 34 z M 6 40 L 6 42 L 8 42 L 8 40 L 6 40 z " />
    <rect
       id="rect861"
       x="-4.2691999e-11"
       y="32"
       width="22"
       height="22"
       opacity="0" />
    <rect
       id="rect863"
       transform="rotate(-90)"
       x="-50.997002"
       y="2.9976001"
       width="16"
       height="16"
       color="#bebebe"
       fill="none" />
    <path
       id="path985"
       style="opacity:0.35;fill:#ffffff;fill-opacity:1;stroke-width:4.648;stroke-linecap:round"
       d="m 11.058586,42 a 2.0032,2.0032 0 0 0 -2.003906,2.003906 2.0032,2.0032 0 0 0 1.003906,1.734375 V 48 c 0,0.554 0.446,1 1,1 0.554,0 1,-0.446 1,-1 V 45.736328 A 2.0032,2.0032 0 0 0 13.062492,44.003906 2.0032,2.0032 0 0 0 11.058586,42 Z" />
    <path
       id="path987"
       style="fill:#ffffff;fill-opacity:1;stroke-width:4.648;stroke-linecap:round"
       d="m 11.058586,43 a 1.0032001,1.0032001 0 0 0 -1.003906,1.003906 1.0032001,1.0032001 0 0 0 1.003906,1.001953 1.0032001,1.0032001 0 0 0 1.003906,-1.001953 A 1.0032001,1.0032001 0 0 0 11.058586,43 Z" />
    <path
       id="path989"
       style="fill:#ffffff;fill-opacity:1;stroke-width:4.648;stroke-linecap:round"
       d="m 5.058586,40 c -1.108,0 -2,0.892 -2,2 v 7 c 0,1.108 0.892,2 2,2 h 12 c 1.108,0 2,-0.892 2,-2 v -7 c 0,-1.108 -0.892,-2 -2,-2 h -10 z m 5.960938,2 a 2.0032,2.0032 0 0 1 0.03906,0 2.0032,2.0032 0 0 1 0.158203,0.0078 2.0032,2.0032 0 0 1 0.134766,0.01563 2.0032,2.0032 0 0 1 0.06836,0.0098 2.0032,2.0032 0 0 1 0.09961,0.02344 2.0032,2.0032 0 0 1 0.117187,0.0293 2.0032,2.0032 0 0 1 0.05664,0.01953 2.0032,2.0032 0 0 1 0.11914,0.04297 2.0032,2.0032 0 0 1 0.103516,0.04687 2.0032,2.0032 0 0 1 0.06641,0.03125 2.0032,2.0032 0 0 1 0.115234,0.06641 2.0032,2.0032 0 0 1 0.06836,0.04297 2.0032,2.0032 0 0 1 0.06836,0.04883 2.0032,2.0032 0 0 1 0.0957,0.07031 2.0032,2.0032 0 0 1 0.07031,0.0625 2.0032,2.0032 0 0 1 0.07422,0.07031 2.0032,2.0032 0 0 1 0.07031,0.07422 2.0032,2.0032 0 0 1 0.0625,0.07031 2.0032,2.0032 0 0 1 0.07031,0.0957 2.0032,2.0032 0 0 1 0.04883,0.06836 2.0032,2.0032 0 0 1 0.04297,0.06836 2.0032,2.0032 0 0 1 0.06641,0.115234 2.0032,2.0032 0 0 1 0.03125,0.06641 2.0032,2.0032 0 0 1 0.04687,0.103516 2.0032,2.0032 0 0 1 0.04297,0.119141 2.0032,2.0032 0 0 1 0.01953,0.05664 2.0032,2.0032 0 0 1 0.0293,0.117188 2.0032,2.0032 0 0 1 0.02344,0.09961 2.0032,2.0032 0 0 1 0.0098,0.06836 2.0032,2.0032 0 0 1 0.01563,0.134765 2.0032,2.0032 0 0 1 0.0078,0.158203 2.0032,2.0032 0 0 1 -0.0078,0.148438 2.0032,2.0032 0 0 1 -0.0078,0.09375 2.0032,2.0032 0 0 1 -0.01758,0.107422 2.0032,2.0032 0 0 1 -0.02344,0.111328 2.0032,2.0032 0 0 1 -0.0059,0.02734 2.0032,2.0032 0 0 1 -0.0078,0.02148 2.0032,2.0032 0 0 1 -0.04297,0.144531 2.0032,2.0032 0 0 1 -0.02734,0.07422 2.0032,2.0032 0 0 1 -0.0332,0.07813 2.0032,2.0032 0 0 1 -0.05664,0.119141 2.0032,2.0032 0 0 1 -0.03516,0.06445 2.0032,2.0032 0 0 1 -0.0625,0.101562 2.0032,2.0032 0 0 1 -0.04883,0.07227 2.0032,2.0032 0 0 1 -0.06641,0.08789 2.0032,2.0032 0 0 1 -0.06055,0.07227 2.0032,2.0032 0 0 1 -0.06445,0.06836 2.0032,2.0032 0 0 1 -0.08008,0.07617 2.0032,2.0032 0 0 1 -0.06836,0.06055 2.0032,2.0032 0 0 1 -0.09375,0.07422 2.0032,2.0032 0 0 1 -0.05859,0.04102 2.0032,2.0032 0 0 1 -0.134784,0.08785 V 48 c 0,0.554 -0.446,1 -1,1 -0.1385,0 -0.270915,-0.02765 -0.390625,-0.07813 C 10.308801,48.770475 10.058586,48.4155 10.058586,48 v -2.261719 a 2.0032,2.0032 0 0 1 -0.146484,-0.0957 2.0032,2.0032 0 0 1 -0.04492,-0.0332 2.0032,2.0032 0 0 1 -0.08789,-0.06836 2.0032,2.0032 0 0 1 -0.09375,-0.08203 2.0032,2.0032 0 0 1 -0.04492,-0.04492 2.0032,2.0032 0 0 1 -0.08398,-0.08984 2.0032,2.0032 0 0 1 -0.05469,-0.0625 2.0032,2.0032 0 0 1 -0.08203,-0.107422 2.0032,2.0032 0 0 1 -0.02734,-0.04102 2.0032,2.0032 0 0 1 -0.07422,-0.11914 2.0032,2.0032 0 0 1 -0.03516,-0.06641 2.0032,2.0032 0 0 1 -0.05078,-0.103515 2.0032,2.0032 0 0 1 -0.04297,-0.105469 2.0032,2.0032 0 0 1 -0.02148,-0.05859 2.0032,2.0032 0 0 1 -0.04102,-0.134765 2.0032,2.0032 0 0 1 -0.01758,-0.07031 2.0032,2.0032 0 0 1 -0.01953,-0.09375 2.0032,2.0032 0 0 1 -0.01953,-0.11914 2.0032,2.0032 0 0 1 -0.0078,-0.08594 2.0032,2.0032 0 0 1 -0.0078,-0.152344 2.0032,2.0032 0 0 1 0.0078,-0.158203 2.0032,2.0032 0 0 1 0.01563,-0.134765 2.0032,2.0032 0 0 1 0.0098,-0.06836 2.0032,2.0032 0 0 1 0.02344,-0.09961 2.0032,2.0032 0 0 1 0.0293,-0.117188 2.0032,2.0032 0 0 1 0.01953,-0.05664 2.0032,2.0032 0 0 1 0.04297,-0.119141 2.0032,2.0032 0 0 1 0.04687,-0.103516 2.0032,2.0032 0 0 1 0.03125,-0.06641 2.0032,2.0032 0 0 1 0.06641,-0.115234 2.0032,2.0032 0 0 1 0.04297,-0.06836 2.0032,2.0032 0 0 1 0.04883,-0.06836 2.0032,2.0032 0 0 1 0.07031,-0.0957 2.0032,2.0032 0 0 1 0.0625,-0.07031 2.0032,2.0032 0 0 1 0.07031,-0.07422 2.0032,2.0032 0 0 1 0.07422,-0.07031 2.0032,2.0032 0 0 1 0.07031,-0.0625 2.0032,2.0032 0 0 1 0.0957,-0.07031 2.0032,2.0032 0 0 1 0.06836,-0.04883 2.0032,2.0032 0 0 1 0.06836,-0.04297 2.0032,2.0032 0 0 1 0.115234,-0.06641 2.0032,2.0032 0 0 1 0.06641,-0.03125 2.0032,2.0032 0 0 1 0.103516,-0.04687 2.0032,2.0032 0 0 1 0.11914,-0.04297 2.0032,2.0032 0 0 1 0.05664,-0.01953 2.0032,2.0032 0 0 1 0.117187,-0.0293 2.0032,2.0032 0 0 1 0.09961,-0.02344 2.0032,2.0032 0 0 1 0.06836,-0.0098 2.0032,2.0032 0 0 1 0.134766,-0.01563 2.0032,2.0032 0 0 1 0.119132,-0.0078 z" />
  </g>
</svg>
