<?xml version="1.0" encoding="UTF-8" standalone="no"?>
<svg
   width="32"
   height="32"
   version="1.1"
   id="svg16"
   sodipodi:docname="dropbox.svg"
   inkscape:version="1.1.1 (3bf5ae0d25, 2021-09-20, custom)"
   xmlns:inkscape="http://www.inkscape.org/namespaces/inkscape"
   xmlns:sodipodi="http://sodipodi.sourceforge.net/DTD/sodipodi-0.dtd"
   xmlns="http://www.w3.org/2000/svg"
   xmlns:svg="http://www.w3.org/2000/svg"
   xmlns:rdf="http://www.w3.org/1999/02/22-rdf-syntax-ns#"
   xmlns:cc="http://creativecommons.org/ns#"
   xmlns:dc="http://purl.org/dc/elements/1.1/">
  <metadata
     id="metadata22">
    <rdf:RDF>
      <cc:Work
         rdf:about="">
        <dc:format>image/svg+xml</dc:format>
        <dc:type
           rdf:resource="http://purl.org/dc/dcmitype/StillImage" />
      </cc:Work>
    </rdf:RDF>
  </metadata>
  <defs
     id="defs20">
    <linearGradient
       id="oomox"
       x1="131.53468"
       x2="131.53468"
       y1="146.39674"
       y2="160.8511"
       gradientTransform="scale(1.0377491,0.96362406)"
       gradientUnits="userSpaceOnUse">
      <stop
         offset="0%"
         style="stop-color:#303b3d; stop-opacity:1"
         id="stop18" />
      <stop
         offset="100%"
         style="stop-color:#bc985d; stop-opacity:1"
         id="stop20" />
    </linearGradient>
  </defs>
  <sodipodi:namedview
     pagecolor="#c8c8c8"
     bordercolor="#666666"
     borderopacity="1"
     objecttolerance="10"
     gridtolerance="10"
     guidetolerance="10"
     inkscape:pageopacity="0"
     inkscape:pageshadow="2"
     inkscape:window-width="1920"
     inkscape:window-height="965"
     id="namedview18"
     showgrid="true"
     inkscape:zoom="11.313709"
     inkscape:cx="22.229668"
     inkscape:cy="18.473164"
     inkscape:window-x="0"
     inkscape:window-y="40"
     inkscape:window-maximized="1"
     inkscape:current-layer="svg16"
     inkscape:document-rotation="0"
     inkscape:pagecheckerboard="0"
     inkscape:snap-bbox="true"
     inkscape:bbox-nodes="true"
     inkscape:snap-bbox-edge-midpoints="true"
     inkscape:snap-nodes="false">
    <inkscape:grid
       type="xygrid"
       id="grid876"
       originx="0"
       originy="0" />
  </sodipodi:namedview>
  <g
     id="22-22-dropbox">
    <rect
       style="opacity:0.00100002"
       width="22"
       height="22"
       x="32"
       y="10"
       id="rect2" />
    <path
       id="path3965"
       style="color:#000000;fill:#000000;fill-opacity:1;fill-rule:evenodd;stroke:none;stroke-width:0.792725;stroke-linecap:round;stroke-linejoin:round;-inkscape-stroke:none;paint-order:stroke fill markers"
       d="m 40.313324,13.202523 a 0.396402,0.396402 0 0 0 -0.249938,0.05087 l -4.861632,2.809042 a 0.396402,0.396402 0 0 0 -0.08184,0.62374 l 1.362496,1.362495 a 0.396402,0.396402 0 0 0 0.47997,0.06193 l 4.863844,-2.806829 a 0.396402,0.396402 0 0 0 0.08184,-0.623741 l -1.364707,-1.364702 a 0.396402,0.396402 0 0 0 -0.230033,-0.112805 z m 5.379203,0 a 0.396402,0.396402 0 0 0 -0.230031,0.112805 l -1.366919,1.36692 a 0.396402,0.396402 0 0 0 0.08184,0.62374 l 4.857207,2.802405 a 0.396402,0.396402 0 0 0 0.02212,0.0111 l 0.0044,0.0023 A 0.396402,0.396402 0 0 0 49.519,18.048803 l 1.364698,-1.362496 a 0.396402,0.396402 0 0 0 -0.08183,-0.62374 L 45.942452,13.25343 a 0.396402,0.396402 0 0 0 -0.249939,-0.05087 z m -2.758169,2.530349 a 0.396402,0.396402 0 0 0 -0.128286,0.04645 l -1.174489,0.674612 a 0.396402,0.396402 0 0 0 -0.0023,0 l -3.51462,2.02826 a 0.396402,0.396402 0 0 0 0,0.685672 l 4.689109,2.705085 a 0.396402,0.396402 0 0 0 0.398132,0 l 4.680257,-2.705085 a 0.396402,0.396402 0 0 0 0,-0.685672 l -4.680257,-2.702872 a 0.396402,0.396402 0 0 0 -0.267634,-0.04645 z m -6.221915,3.753499 a 0.396402,0.396402 0 0 0 -0.230032,0.112804 l -1.366919,1.369132 a 0.396402,0.396402 0 0 0 0.08405,0.62374 l 4.861632,2.802405 a 0.396402,0.396402 0 0 0 0.477758,-0.06193 L 41.90364,22.965603 A 0.396402,0.396402 0 0 0 41.8218,22.341864 l -4.859421,-2.804617 a 0.396402,0.396402 0 0 0 -0.249938,-0.05087 z m 12.572114,0.0044 a 0.396402,0.396402 0 0 0 -0.249935,0.05087 l -4.857207,2.804619 a 0.396402,0.396402 0 0 0 -0.08184,0.623739 l 1.364708,1.364708 a 0.396402,0.396402 0 0 0 0.479969,0.06193 l 4.859427,-2.802405 a 0.396402,0.396402 0 0 0 0.08183,-0.62374 L 49.51459,19.603593 a 0.396402,0.396402 0 0 0 -0.230038,-0.112805 z m -11.884231,4.518797 a 0.396402,0.396402 0 0 0 -0.130499,0.04644 0.396402,0.396402 0 0 0 -0.196854,0.342836 v 1.298352 a 0.396402,0.396402 0 0 0 0.196854,0.342835 l 4.684685,2.707297 a 0.396402,0.396402 0 0 0 0.594986,-0.342835 V 24.553691 A 0.396402,0.396402 0 0 0 41.872673,24.272788 L 40.71588,25.42737 c -0.0024,0.0011 -0.0076,0.0025 -0.0067,0.0023 -0.01873,0.0062 -0.07373,0.01554 -0.161464,0.04203 a 0.396402,0.396402 0 0 0 -0.06193,0.05751 0.396402,0.396402 0 0 0 0,0.0023 0.396402,0.396402 0 0 0 -0.01991,0.0177 0.396402,0.396402 0 0 0 0,0.0023 0.396402,0.396402 0 0 0 -0.0067,0.0044 0.396402,0.396402 0 0 0 -0.0023,0 c -0.0028,-10e-5 -0.0083,-1.72e-4 -0.01327,0 v -0.0023 h 0.0023 c 0,0 0.0023,-0.0023 0.0023,-0.0023 v -0.0023 l -0.0067,0.0023 h -0.0067 c -0.01151,0.0019 -0.0246,0.0058 -0.01548,0.0044 -0.02031,0.0029 -0.02367,0.0049 -0.01991,0.0044 -0.0028,1.31e-4 -0.0072,-8.3e-5 -0.0088,0 -0.0017,8.2e-5 -0.0087,-1.4e-5 -0.0088,0 -0.01242,-4.54e-4 -0.02502,-0.0024 -0.04203,-0.0044 -0.02428,-0.0029 -0.04512,-0.0051 -0.05971,-0.0088 -0.01657,-0.0042 -0.03267,-0.01042 -0.0553,-0.01991 -0.02181,-0.0092 -0.04264,-0.01952 -0.05751,-0.02875 a 0.396402,0.396402 0 0 0 -0.207913,-0.05973 h 0.10396 l -2.395455,-1.382442 a 0.396402,0.396402 0 0 0 -0.267633,-0.04644 z m 11.061428,0 a 0.396402,0.396402 0 0 0 -0.128286,0.04644 l -2.501594,1.442122 a 0.396402,0.396402 0 0 0 -0.0044,0.0023 c -0.02049,0.01205 -0.03935,0.02002 -0.0553,0.02655 -0.01536,0.0063 -0.03557,0.01206 -0.05751,0.0177 -0.0182,0.0046 -0.0344,0.0085 -0.0553,0.0111 -0.01964,0.0025 -0.04021,0.0044 -0.05751,0.0044 -5.79e-4,0 -0.01707,-0.0028 -0.02875,-0.0044 a 0.396402,0.396402 0 0 0 -0.119439,-0.08184 c -0.08838,-0.02719 -0.144504,-0.03725 -0.165888,-0.04423 -0.0049,-0.0016 -0.0017,0.001 -0.0044,0 a 0.396402,0.396402 0 0 0 0,-0.0023 l -1.154582,-1.156795 a 0.396402,0.396402 0 0 0 -0.676824,0.280904 v 3.85082 a 0.396402,0.396402 0 0 0 0.594985,0.342835 L 48.72943,26.04009 a 0.396402,0.396402 0 0 0 0.196856,-0.342836 v -1.298351 a 0.396402,0.396402 0 0 0 -0.464491,-0.389285 z m -3.10985,1.486359 a 0.396402,0.396402 0 0 1 0.117228,0.03096 l 0.06857,0.0177 c -9.52e-4,-2.78e-4 0.0065,0.0023 0.0067,0.0023 1.5e-4,-7e-6 0.002,0.0014 0.0044,0.0023 0.0024,8.81e-4 -0.0016,-2.35e-4 0.0044,0.0023 v 0.0023 l 0.0067,0.02654 a 0.396402,0.396402 0 0 0 -0.09069,-0.05308 z m -4.910292,0.05751 c -0.0011,3.67e-4 -0.0096,0.0032 -0.01327,0.0044 -0.0011,3.62e-4 -0.0032,-4.22e-4 -0.0044,0 2.92e-4,-1.24e-4 0.0044,-0.0023 0.0044,-0.0023 z m 0,0.0044 c 0.0046,-1.62e-4 0.01164,-7.7e-5 0.01327,0 a 0.396402,0.396402 0 0 0 -0.02654,0.02654 z m -0.132712,0.04645 c -0.01752,0.01098 -0.03471,0.02254 -0.03982,0.02654 -0.0084,0.0066 0.02684,-0.0201 0.02654,-0.01991 -3e-5,2.1e-5 0.01076,-0.0055 0.01327,-0.0067 z m -0.0067,0.225608 a 0.396402,0.396402 0 0 0 -0.0044,0.119439 c -0.0015,-1.71e-4 -0.0029,1.78e-4 -0.0044,0 -0.0043,-5.19e-4 -0.0089,-0.0016 -0.01327,-0.0023 v -0.07299 z" />
  </g>
  <g
     id="dropbox">
    <rect
       style="opacity:0.00100002"
       width="32"
       height="32"
       x="0"
       y="0"
       id="rect9" />
    <path
       id="path2420"
       style="color:#000000;opacity:1;fill:#000000;fill-opacity:1;fill-rule:evenodd;stroke-width:1.06309;stroke-linecap:round;stroke-linejoin:round;-inkscape-stroke:none;paint-order:stroke fill markers"
       d="M 19.648112,5.371574 A 0.531596,0.531596 0 0 0 19.34289,5.5210705 l -1.968369,1.9538353 a 0.531596,0.531596 0 0 0 0.110045,0.8388409 l 6.685813,3.8266933 a 0.531596,0.531596 0 0 0 0.01038,0.0042 l 0.06437,0.0353 a 0.531596,0.531596 0 0 0 0.629131,-0.08721 l 1.968371,-1.945529 A 0.531596,0.531596 0 0 0 26.732581,9.3083133 L 19.980326,5.4380169 A 0.531596,0.531596 0 0 0 19.648112,5.371574 Z m -7.294181,0.00208 a 0.531596,0.531596 0 0 0 -0.33429,0.066439 L 5.2673866,9.3083133 a 0.531596,0.531596 0 0 0 -0.110046,0.8388417 l 1.9662933,1.945529 a 0.531596,0.531596 0 0 0 0.6374361,0.08305 l 6.752254,-3.8640636 a 0.531596,0.531596 0 0 0 0.110047,-0.838841 L 12.657078,5.5231468 A 0.531596,0.531596 0 0 0 12.353931,5.3736503 Z m 3.554693,3.4155782 a 0.531596,0.531596 0 0 0 -0.172336,0.06229 l -1.636154,0.936425 -4.8897792,2.7989048 a 0.531596,0.531596 0 0 0 0,0.921895 l 6.5259332,3.737411 a 0.531596,0.531596 0 0 0 0.527391,0 l 6.521781,-3.739487 a 0.531596,0.531596 0 0 0 0,-0.921895 L 16.263679,8.8515186 a 0.531596,0.531596 0 0 0 -0.355055,-0.06229 z M 7.4288557,13.851344 A 0.531596,0.531596 0 0 0 7.1236339,14.00084 l -1.9662933,1.953835 a 0.531596,0.531596 0 0 0 0.110046,0.838841 l 6.7481024,3.861991 a 0.531596,0.531596 0 0 0 0.637435,-0.08305 l 1.96837,-1.951758 A 0.531596,0.531596 0 0 0 14.511248,17.781853 L 7.76107,13.917787 a 0.531596,0.531596 0 0 0 -0.3322143,-0.06644 z m 17.1360283,0.0021 a 0.531596,0.531596 0 0 0 -0.334291,0.06644 l -6.748103,3.866144 a 0.531596,0.531596 0 0 0 -0.110046,0.83884 l 1.966293,1.947606 a 0.531596,0.531596 0 0 0 0.637436,0.08305 l 6.75018,-3.861991 a 0.531596,0.531596 0 0 0 0.110045,-0.838841 L 24.868029,14.002916 A 0.531596,0.531596 0 0 0 24.564884,13.85342 Z M 8.2988419,19.910101 a 0.531596,0.531596 0 0 0 -0.4381076,0.523238 v 1.926843 a 0.531596,0.531596 0 0 0 0.2678477,0.460947 l 6.53424,3.741563 a 0.531596,0.531596 0 0 0 0.795237,-0.460947 v -5.514757 a 0.531596,0.531596 0 0 0 -0.905284,-0.377894 l -1.679758,1.665225 c -0.02817,0.0065 -0.0827,0.01451 -0.188947,0.05814 a 0.531596,0.531596 0 0 0 -0.0042,0.0021 c -0.06559,0.02639 -0.07318,0.02902 -0.02492,0.01246 a 0.531596,0.531596 0 0 0 -0.01246,0.01246 0.531596,0.531596 0 0 0 -0.124581,0.08098 l 0.0083,0.0083 0.01453,0.01661 a 0.531596,0.531596 0 0 0 -0.0083,0.0042 l -0.01246,-0.02076 -0.0042,-0.0062 -0.0021,-0.0021 c -0.0024,0.0019 -0.0032,0.0011 -0.0042,0.0021 -0.0053,0.0037 -0.0064,0.0041 -0.01246,0.0083 -0.0061,0.0042 -0.0032,0.0028 -0.0083,0.0062 a 0.531596,0.531596 0 0 1 0.0083,-0.0021 c -0.01497,0.0085 -0.01616,0.0093 -0.02492,0.01453 0,0 -0.0021,0.0021 -0.0021,0.0021 -0.02473,0.0148 -0.02347,0.01318 0.01453,-0.01246 -0.03636,0.01183 0.02442,-0.004 -0.01661,0.0042 -0.01701,0.0034 -0.0193,0.0043 -0.0062,0.0021 -0.0053,6.14e-4 0.0065,-0.0014 -0.0042,0 0,0 -0.0021,0 -0.0021,0 -0.04614,0 -0.09451,-0.0048 -0.139115,-0.01661 -0.04433,-0.01175 -0.08962,-0.03209 -0.134962,-0.06021 a 0.531596,0.531596 0 0 0 -0.01661,-0.0083 L 8.6559723,19.972391 a 0.531596,0.531596 0 0 0 -0.3571304,-0.06229 z m 4.2191201,2.130325 c 0.01939,-0.01848 0.03133,-0.02681 0.03945,-0.03322 -0.0078,0.0054 -0.01666,0.0101 -0.04153,0.03115 z m 10.990064,-2.130325 a 0.531596,0.531596 0 0 0 -0.172335,0.06229 L 19.8246,21.982288 a 0.531596,0.531596 0 0 0 -0.01869,0.01038 c -0.03976,0.02291 -0.08473,0.04148 -0.132885,0.05398 -0.04593,0.01192 -0.09197,0.0182 -0.13081,0.01869 -0.0089,-0.0018 -0.0039,4e-4 -0.0062,0 0,0 -0.0021,0 -0.0021,0 -4.46e-4,-1.6e-5 -0.0063,-0.0017 -0.0083,-0.0021 0,0 -0.0021,0 -0.0021,0 0,0 -0.0021,0 -0.0021,0 0,0 -0.0021,0 -0.0021,0 -0.003,-2.71e-4 -0.0037,-0.0016 -0.0042,-0.0021 0,0 -0.0021,0 -0.0021,0 0,0 -0.0021,0 -0.0021,0 0,0 -0.0021,-0.0021 -0.0021,-0.0021 h -0.0021 l -0.0042,-0.0021 a 0.531596,0.531596 0 0 0 -0.0021,0 0.531596,0.531596 0 0 0 0,0.0021 c -0.0085,-0.0054 0.02707,0.01597 0.0062,0.0021 l 0.0021,0.0042 a 0.531596,0.531596 0 0 0 -0.0083,-0.0062 0.531596,0.531596 0 0 0 -0.0062,0.0021 0.531596,0.531596 0 0 0 -0.0042,-0.0021 v 0.0042 a 0.531596,0.531596 0 0 0 -0.450566,0.224244 c -0.03434,-0.03188 -0.09344,-0.08721 -0.09344,-0.08721 l 0.09136,-0.0789 0.02492,-0.01661 c -3.2e-5,1.6e-5 0.157855,-0.0623 0.157802,-0.06229 -5.3e-5,1.2e-5 0.06655,-0.01038 0.06644,-0.01038 -1.38e-4,1.3e-5 0.06884,8e-6 0.06852,0 -4.36e-4,-1.8e-5 0.04724,0.0021 0.06021,0.0042 0.04773,0.0075 0.05789,0.0127 0.06852,0.01661 a 0.531596,0.531596 0 0 0 -0.03737,-0.02699 c 0.01148,0.005 0.0063,5.34e-4 0.03737,0.02076 a 0.531596,0.531596 0 0 0 -0.01038,-0.01038 c -0.02977,-0.01666 -0.02568,-0.0139 -0.03737,-0.01869 a 0.531596,0.531596 0 0 0 -0.09343,-0.06852 l -0.0021,-0.0021 a 0.531596,0.531596 0 0 0 -0.0021,-0.0021 c 0.0011,5.53e-4 -0.0072,-0.0036 -0.0083,-0.0042 a 0.531596,0.531596 0 0 0 -0.01661,-0.0062 0.531596,0.531596 0 0 0 -0.0021,-0.0021 c -0.108785,-0.04539 -0.166652,-0.05586 -0.195175,-0.06229 l -1.671453,-1.661071 a 0.531596,0.531596 0 0 0 -0.905285,0.377894 v 5.514757 a 0.531596,0.531596 0 0 0 0.795238,0.460947 l 6.528011,-3.73741 a 0.531596,0.531596 0 0 0 0.267849,-0.460948 v -1.930995 a 0.531596,0.531596 0 0 0 -0.622903,-0.523238 z m -4.007334,2.146935 a 0.531596,0.531596 0 0 0 -0.0083,-0.0083 c -5.42e-4,-5.44e-4 0.01307,0.0097 -0.0042,-0.0042 v 0.0042 l 0.0042,0.0042 v 0.0021 c 0.01446,0.0088 0.0132,0.0048 0.0083,0.0021 z m -6.991034,-0.01246 a 0.531596,0.531596 0 0 0 0,0.0083 0.531596,0.531596 0 0 0 -0.0042,0.0436 0.531596,0.531596 0 0 0 -0.0062,0.0062 l 0.0083,-0.04983 z m 6.831155,0.514932 v 0.0042 h -0.0021 l -0.0042,-0.0021 c 0,0 0.0062,-0.002 0.0062,-0.0021 z" />
  </g>
</svg>
