<?xml version="1.0" encoding="UTF-8" standalone="no"?>
<svg
   inkscape:version="1.1.1 (3bf5ae0d25, 2021-09-20, custom)"
   sodipodi:docname="kaffeine.svg"
   id="svg44"
   version="1.1"
   height="32"
   width="32"
   style="enable-background:new"
   xmlns:inkscape="http://www.inkscape.org/namespaces/inkscape"
   xmlns:sodipodi="http://sodipodi.sourceforge.net/DTD/sodipodi-0.dtd"
   xmlns="http://www.w3.org/2000/svg"
   xmlns:svg="http://www.w3.org/2000/svg"
   xmlns:rdf="http://www.w3.org/1999/02/22-rdf-syntax-ns#"
   xmlns:cc="http://creativecommons.org/ns#"
   xmlns:dc="http://purl.org/dc/elements/1.1/">
  <metadata
     id="metadata48">
    <rdf:RDF>
      <cc:Work
         rdf:about="">
        <dc:format>image/svg+xml</dc:format>
        <dc:type
           rdf:resource="http://purl.org/dc/dcmitype/StillImage" />
      </cc:Work>
    </rdf:RDF>
  </metadata>
  <sodipodi:namedview
     showguides="false"
     inkscape:current-layer="svg44"
     inkscape:window-maximized="1"
     inkscape:window-y="0"
     inkscape:window-x="0"
     inkscape:cy="16.705397"
     inkscape:cx="4.110058"
     inkscape:zoom="11.313709"
     showgrid="true"
     id="namedview46"
     inkscape:window-height="1005"
     inkscape:window-width="1920"
     inkscape:pageshadow="2"
     inkscape:pageopacity="0"
     guidetolerance="10"
     gridtolerance="10"
     objecttolerance="10"
     borderopacity="1"
     bordercolor="#000000"
     pagecolor="#c8c8c8"
     inkscape:document-rotation="0"
     inkscape:pagecheckerboard="0"
     inkscape:snap-bbox="true"
     inkscape:bbox-nodes="true">
    <inkscape:grid
       id="grid845"
       type="xygrid"
       originx="0"
       originy="0" />
  </sodipodi:namedview>
  <defs
     id="defs4">
    <linearGradient
       id="linearGradient5606"
       inkscape:swatch="solid">
      <stop
         style="stop-color:#000000"
         offset="0"
         id="stop5608" />
    </linearGradient>
  </defs>
  <g
     id="g128"
     transform="matrix(0,0.23269337,-0.3257329,0,32.286645,4.6684123)">
    <g
       id="g126">
      <g
         id="g124">
        <g
           id="g122">
          <g
             id="g120">
            <g
               id="g118">
              <g
                 id="g116">
                <g
                   id="g114" />
              </g>
            </g>
          </g>
        </g>
      </g>
    </g>
  </g>
  <g
     id="g146"
     transform="matrix(0,0.23269337,-0.3257329,0,32.286645,4.6684123)">
    <g
       id="g144">
      <g
         id="g142">
        <g
           id="g140">
          <g
             id="g138">
            <g
               id="g136">
              <g
                 id="g134">
                <g
                   id="g132" />
              </g>
            </g>
          </g>
        </g>
      </g>
    </g>
  </g>
  <g
     id="kaffeine">
    <rect
       id="rect11"
       style="opacity:0.00100002"
       y="0"
       x="0"
       height="32"
       width="32" />
    <path
       id="rect879"
       style="fill:#000000;fill-rule:evenodd;stroke-width:0.109388;stroke-linecap:round;stroke-linejoin:round;paint-order:stroke fill markers;fill-opacity:1"
       d="M 5,6 C 3.338,6 2,7.338 2,9 v 3 h 9 V 6 Z m 7,0 v 6 h 8 V 6 Z m 9,0 v 6 h 9 V 9 C 30,7.338 28.662,6 27,6 Z M 2,13 v 10 c 0,1.662 1.338,3 3,3 h 22 c 1.662,0 3,-1.338 3,-3 V 13 Z m 12.550781,3 c 0.01927,-0.001 0.03915,-9.43e-4 0.05859,0 0.103708,0.005 0.208668,0.03964 0.304687,0.107422 l 4.134766,2.919922 c 0.327248,0.23101 0.327248,0.714301 0,0.945312 l -4.134766,2.919922 C 14.529987,23.163701 14,22.890154 14,22.419922 V 16.580078 C 14,16.249519 14.261668,16.015486 14.550781,16 Z" />
  </g>
  <g
     id="22-22-kaffeine"
     transform="translate(1)">
    <path
       id="path6"
       d="m 32,10 h 22 c 0,0 0,0 0,0 v 22 c 0,0 0,0 0,0 H 32 c 0,0 0,0 0,0 V 10 c 0,0 0,0 0,0 z"
       style="opacity:0" />
    <path
       id="rect1993"
       style="fill:#000000;fill-opacity:1;fill-rule:evenodd;stroke-width:0.1;stroke-linecap:round;stroke-linejoin:round;paint-order:stroke fill markers"
       d="m 35,13 c -1.662,0 -3,1.338 -3,3 v 2 h 7 v -5 z m 5,0 v 5 h 6 v -5 z m 7,0 v 5 h 7 v -2 c 0,-1.662 -1.338,-3 -3,-3 z m -15,6 v 8 c 0,1.662 1.338,3 3,3 h 16 c 1.662,0 3,-1.338 3,-3 v -8 z m 9.611328,3 c 0.01377,-7.37e-4 0.02713,-6.73e-4 0.04102,0 0.07408,0.0036 0.15016,0.02776 0.21875,0.07617 l 2.953125,2.085937 c 0.233749,0.165008 0.233749,0.510773 0,0.675782 l -2.953125,2.085937 c -0.274339,0.193659 -0.652344,-0.002 -0.652344,-0.33789 V 22.41406 c 0,-0.236113 0.186069,-0.403 0.392578,-0.414062 z" />
  </g>
</svg>
