<?xml version="1.0" encoding="UTF-8" standalone="no"?>
<svg
   id="svg19"
   viewBox="0 0 32 32"
   version="1.1"
   sodipodi:docname="kate.svg"
   inkscape:version="1.2.1 (9c6d41e410, 2022-07-14)"
   xmlns:inkscape="http://www.inkscape.org/namespaces/inkscape"
   xmlns:sodipodi="http://sodipodi.sourceforge.net/DTD/sodipodi-0.dtd"
   xmlns="http://www.w3.org/2000/svg"
   xmlns:svg="http://www.w3.org/2000/svg"
   xmlns:rdf="http://www.w3.org/1999/02/22-rdf-syntax-ns#"
   xmlns:cc="http://creativecommons.org/ns#"
   xmlns:dc="http://purl.org/dc/elements/1.1/">
  <sodipodi:namedview
     pagecolor="#c8c8c8"
     bordercolor="#666666"
     borderopacity="1"
     objecttolerance="10"
     gridtolerance="10"
     guidetolerance="10"
     inkscape:pageopacity="0"
     inkscape:pageshadow="2"
     inkscape:window-width="1920"
     inkscape:window-height="1004"
     id="namedview13"
     showgrid="true"
     inkscape:snap-smooth-nodes="true"
     inkscape:zoom="6.0546875"
     inkscape:cx="13.708387"
     inkscape:cy="20.645161"
     inkscape:window-x="0"
     inkscape:window-y="0"
     inkscape:window-maximized="1"
     inkscape:current-layer="svg19"
     inkscape:pagecheckerboard="0"
     inkscape:showpageshadow="0"
     inkscape:deskcolor="#c8c8c8">
    <inkscape:grid
       type="xygrid"
       id="grid838" />
  </sodipodi:namedview>
  <metadata
     id="metadata21">
    <rdf:RDF>
      <cc:Work
         rdf:about="">
        <dc:format>image/svg+xml</dc:format>
        <dc:type
           rdf:resource="http://purl.org/dc/dcmitype/StillImage" />
        <dc:title />
      </cc:Work>
    </rdf:RDF>
  </metadata>
  <defs
     id="defs5">
    <style
       type="text/css"
       id="current-color-scheme"> .ColorScheme-Text { color:#363636; } </style>
  </defs>
  <g
     fill="currentColor"
     class="ColorScheme-Text"
     id="22-22-kate">
    <path
       id="path7"
       fill="none"
       d="m49 5h22v22h-22z" />
    <path
       id="path9"
       d="m59.098 7.004c-1.3134 0.043481-2.7956 0.45116-4.2359 1.4945-1.4953 1.0832-2.1517 1.3791-2.877 1.7392 0.64623 0.04931 4.5128-0.50253 5.1969 1.7687 0.03186-0.0098 0.16724-0.04853 0.21224-0.06191-2.7813 0.77408-4.3328 2.554-3.157 5.0259 1.18 2.4809 3.2189 2.5402 5.7363 4.2241 1.9653 1.3146 2.4461 1.9834 3.7142 3.8055-0.26371-2.5177-1.4821-5.7628-2.0516-7.1925 2.1987 1.3151 3.3134 1.6097 6.3789 1.9308-3.978-2.8317-4.7328-3.3857-7.0098-5.3266-1.5276 0.07701-1.3601 0.06329-2.2609 0.11496 1.1859 1.6735 1.6553 4.1327-0.51291 4.5838-2.0295 0.42222-3.9876-1.3308-3.4312-3.2072 0.60416-2.0375 3.2127-1.6451 5.9486-1.9986 2.7358-0.35344 5.2351-3.037 6.7386-5.023-2.1468 0.73248-4.9009 1.5683-7.9353 2.4378-0.61458-1.2-1.401-3.4673 2.7679-3.6257-0.76362-0.41434-1.9085-0.73326-3.2219-0.68977z"
       style="fill:#000000;fill-opacity:1" />
  </g>
  <path
     id="path832"
     d="m -52.90724,7.6845 c -1.3134,0.04348 -2.7956,0.45116 -4.2359,1.4945 -1.4953,1.0832 -2.1517,1.3791 -2.877,1.7392 0.64623,0.04931 4.5128,-0.50253 5.1969,1.7687 0.03186,-0.0098 0.16724,-0.04853 0.21224,-0.06191 -2.7813,0.77408 -4.3328,2.554 -3.157,5.0259 1.18,2.4809 3.2189,2.5402 5.7363,4.2241 1.9653,1.3146 2.4461,1.9834 3.7142,3.8055 -0.26371,-2.5177 -1.4821,-5.7628 -2.0516,-7.1925 2.1987,1.3151 3.3134,1.6097 6.3789,1.9308 -3.978,-2.8317 -4.7328,-3.3857 -7.0098,-5.3266 -1.5276,0.07701 -1.3601,0.06329 -2.2609,0.11496 1.1859,1.6735 1.6553,4.1327 -0.51291,4.5838 -2.0295,0.42222 -3.9876,-1.3308 -3.4312,-3.2072 0.60416,-2.0375 3.2127,-1.6451 5.9486,-1.9986 2.7358,-0.35344 5.2351,-3.037 6.7386,-5.023 -2.1468,0.73248 -4.9009,1.5683 -7.9353,2.4378 -0.61458,-1.2 -1.401,-3.4673 2.7679,-3.6257 -0.76362,-0.41434 -1.9085,-0.73326 -3.2219,-0.68977 z"
     style="color:#363636;fill:#ffffff;fill-opacity:1" />
  <circle
     style="fill:none;fill-opacity:1;stroke:#ffffff;stroke-width:2;stroke-linecap:round;stroke-linejoin:round;stroke-miterlimit:4;stroke-dasharray:none;stroke-opacity:1;paint-order:stroke fill markers"
     id="circle834"
     cx="-52.005169"
     cy="16"
     r="14" />
  <g
     id="kate">
    <rect
       id="rect12"
       fill="none"
       height="32"
       width="32"
       y="-1e-06"
       x="-2.8954e-08"
       style="color:#363636" />
    <path
       id="path991"
       style="opacity:1;fill:#000000;fill-opacity:1;fill-rule:evenodd;stroke-width:0.6;stroke-linecap:round;stroke-linejoin:round;paint-order:stroke fill markers"
       d="M 16,1 A 15,15 0 0 0 1,16 15,15 0 0 0 16,31 15,15 0 0 0 31,16 15,15 0 0 0 16,1 Z M 15.546875,7.683594 C 16.860275,7.640104 18.003958,7.96066 18.767578,8.375 14.598678,8.5334 15.38542,10.8 16,12 c 3.0344,-0.8695 5.788747,-1.70502 7.935547,-2.4375 -1.5035,1.986 -4.002481,4.669998 -6.738281,5.023438 -2.7359,0.3535 -5.345059,-0.03945 -5.949219,1.998046 -0.5564,1.8764 1.402141,3.629252 3.431641,3.207032 2.16821,-0.4511 1.697618,-2.910485 0.511718,-4.583985 0.9008,-0.05167 0.734119,-0.03822 2.261719,-0.115234 2.277,1.9409 3.031766,2.494472 7.009766,5.326172 -3.0655,-0.3211 -4.180207,-0.614588 -6.378907,-1.929688 0.5695,1.4297 1.787072,4.673706 2.050782,7.191407 -1.2681,-1.8221 -1.747591,-2.490088 -3.712891,-3.804688 -2.5174,-1.6839 -4.556328,-1.743709 -5.736328,-4.224609 -1.1758,-2.4719 0.37495,-4.251311 3.15625,-5.025391 -0.045,0.01338 -0.179078,0.0527 -0.210938,0.0625 -0.6841,-2.27123 -4.551035,-1.720221 -5.197265,-1.769531 0.7253,-0.3601 1.381653,-0.655082 2.876953,-1.738281 1.4403,-1.04334 2.922928,-1.452614 4.236328,-1.496094 z" />
  </g>
</svg>
