<?xml version="1.0" encoding="UTF-8" standalone="no"?>
<svg
   xmlns:dc="http://purl.org/dc/elements/1.1/"
   xmlns:cc="http://creativecommons.org/ns#"
   xmlns:rdf="http://www.w3.org/1999/02/22-rdf-syntax-ns#"
   xmlns:svg="http://www.w3.org/2000/svg"
   xmlns="http://www.w3.org/2000/svg"
   xmlns:sodipodi="http://sodipodi.sourceforge.net/DTD/sodipodi-0.dtd"
   xmlns:inkscape="http://www.inkscape.org/namespaces/inkscape"
   id="svg30"
   viewBox="0 0 32 32"
   version="1.1"
   sodipodi:docname="kdeconnect.svg"
   inkscape:version="1.0.2 (e86c870879, 2021-01-15)">
  <sodipodi:namedview
     pagecolor="#ffffff"
     bordercolor="#666666"
     borderopacity="1"
     objecttolerance="10"
     gridtolerance="10"
     guidetolerance="10"
     inkscape:pageopacity="0"
     inkscape:pageshadow="2"
     inkscape:window-width="1920"
     inkscape:window-height="960"
     id="namedview20"
     showgrid="true"
     inkscape:snap-smooth-nodes="true"
     inkscape:snap-bbox="true"
     inkscape:snap-bbox-edge-midpoints="true"
     inkscape:bbox-nodes="true"
     inkscape:zoom="24.78125"
     inkscape:cx="31.26577"
     inkscape:cy="14.501596"
     inkscape:window-x="0"
     inkscape:window-y="38"
     inkscape:window-maximized="1"
     inkscape:current-layer="svg30">
    <inkscape:grid
       type="xygrid"
       id="grid845" />
  </sodipodi:namedview>
  <metadata
     id="metadata34">
    <rdf:RDF>
      <cc:Work
         rdf:about="">
        <dc:format>image/svg+xml</dc:format>
        <dc:type
           rdf:resource="http://purl.org/dc/dcmitype/StillImage" />
        <dc:title />
      </cc:Work>
    </rdf:RDF>
  </metadata>
  <defs
     id="defs3">
    <style
       type="text/css"
       id="current-color-scheme">.ColorScheme-Text { color:#363636; }</style>
  </defs>
  <g
     fill="currentColor"
     class="ColorScheme-Text"
     transform="translate(-321,-529.36)"
     id="16-16-kdeconnect">
    <path
       id="path5"
       d="m308 539.36c-0.554 0-1 0.446-1 1v10c0 0.554 0.446 1 1 1h1v-2h-1v-7h6v1h1v-3c0-0.554-0.446-1-1-1zm2 1h2v1h-2zm2.5 3-0.27734 1.1074a3 3 0 0 0-0.72071 0.29688l-0.97656-0.58594-0.70703 0.70703 0.58594 0.97656a3 3 0 0 0-0.30078 0.72266l-1.1035 0.27539v1l1.1074 0.27734a3 3 0 0 0 0.29688 0.72071l-0.58594 0.97656 0.70703 0.70703 0.97656-0.58594a3 3 0 0 0 0.72266 0.30078l0.27539 1.1035h1l0.27734-1.1074a3 3 0 0 0 0.72071-0.29688l0.97656 0.58594 0.70703-0.70703-0.58594-0.97656a3 3 0 0 0 0.30078-0.72266l1.1035-0.27539v-1l-1.1074-0.27734a3 3 0 0 0-0.29688-0.72071l0.58594-0.97656-0.70703-0.70703-0.97656 0.58594a3 3 0 0 0-0.72266-0.30078l-0.27539-1.1035zm0.5 2a2 2 0 0 1 0.19922 0.01 2 2 0 0 1 0.19726 0.0293 2 2 0 0 1 0.19532 0.0508 2 2 0 0 1 0.1875 0.0684 2 2 0 0 1 0.17968 0.0859 2 2 0 0 1 0.16993 0.10547 2 2 0 0 1 0.16015 0.12109 2 2 0 0 1 0.14649 0.13672 2 2 0 0 1 0.13086 0.14844 2 2 0 0 1 0.11718 0.16406 2 2 0 0 1 0.0996 0.17383 2 2 0 0 1 0.0801 0.18164 2 2 0 0 1 0.0645 0.18945 2 2 0 0 1 0.043 0.19531 2 2 0 0 1 0.0234 0.19922 2 2 0 0 1 6e-3 0.14059 2 2 0 0 1-0.01 0.19922 2 2 0 0 1-0.0293 0.19726 2 2 0 0 1-0.0508 0.19532 2 2 0 0 1-0.0684 0.1875 2 2 0 0 1-0.0859 0.17968 2 2 0 0 1-0.10547 0.16993 2 2 0 0 1-0.1211 0.16015 2 2 0 0 1-0.13672 0.14649 2 2 0 0 1-0.14843 0.13086 2 2 0 0 1-0.16407 0.11718 2 2 0 0 1-0.17382 0.0996 2 2 0 0 1-0.18164 0.0801 2 2 0 0 1-0.18946 0.0644 2 2 0 0 1-0.19531 0.043 2 2 0 0 1-0.19922 0.0234 2 2 0 0 1-0.084 0.01h-0.13672a2 2 0 0 1-0.11914-0.01 2 2 0 0 1-0.19727-0.0293 2 2 0 0 1-0.19531-0.0508 2 2 0 0 1-0.1875-0.0684 2 2 0 0 1-0.17969-0.0859 2 2 0 0 1-0.16992-0.10546 2 2 0 0 1-0.16016-0.1211 2 2 0 0 1-0.0879-0.082l-0.0879-0.0879a2 2 0 0 1-0.10156-0.11523 2 2 0 0 1-0.11719-0.16407 2 2 0 0 1-0.0996-0.17382 2 2 0 0 1-0.0801-0.18164 2 2 0 0 1-0.0645-0.18946 2 2 0 0 1-0.043-0.19531 2 2 0 0 1-0.0234-0.19922 2 2 0 0 1-6e-3 -0.14062 2 2 0 0 1 0.01-0.19922 2 2 0 0 1 0.0293-0.19727 2 2 0 0 1 0.0508-0.19531 2 2 0 0 1 0.0684-0.1875 2 2 0 0 1 0.0859-0.17969 2 2 0 0 1 0.10547-0.16992 2 2 0 0 1 0.1211-0.16016 2 2 0 0 1 0.13672-0.14648 2 2 0 0 1 0.14843-0.13086 2 2 0 0 1 0.16407-0.11719 2 2 0 0 1 0.17382-0.0996 2 2 0 0 1 0.18164-0.0801 2 2 0 0 1 0.18946-0.0644 2 2 0 0 1 0.19531-0.043 2 2 0 0 1 0.19922-0.0234 2 2 0 0 1 0.14062-0.01z"
       fill="currentColor"
       class="ColorScheme-Text" />
    <rect
       id="rect7"
       fill="none"
       height="16"
       width="16"
       y="537.36"
       x="303" />
  </g>
  <g
     fill="currentColor"
     class="ColorScheme-Text"
     transform="translate(-321,-529.36)"
     id="22-22-kdeconnect">
    <rect
       id="rect10"
       fill="none"
       height="22"
       width="22"
       y="534.36"
       x="355" />
    <rect
       id="rect12"
       opacity="0.5"
       ry="0.49996999"
       height="0.99993998"
       width="5"
       y="551.35999"
       x="363"
       style="stroke-width:0.912871" />
    <rect
       id="rect16"
       ry="1"
       height="2"
       width="5"
       y="537.35999"
       x="363"
       style="stroke-width:0.912871" />
    <path
       id="path18"
       d="m 362,536.36 c -1.662,0 -3,1.338 -3,3 v 13 c 0,1.662 1.338,3 3,3 h 7 c 1.662,0 3,-1.338 3,-3 v -13 c 0,-1.662 -1.338,-3 -3,-3 z m 0,2 h 7 c 0.55399,0 1,0.44601 1,1 v 13 c 0,0.55399 -0.44601,1 -1,1 h -7 c -0.55399,0 -1,-0.44601 -1,-1 v -13 c 0,-0.55399 0.44601,-1 1,-1 z"
       sodipodi:nodetypes="ssssssssssssssssss" />
  </g>
  <g
     fill="currentColor"
     class="ColorScheme-Text"
     transform="translate(-321,-529.36)"
     id="kdeconnect">
    <path
       id="path21"
       fill="currentColor"
       d="M 11,2 C 9.338,2 8,3.338 8,5 v 22 c 0,1.662 1.338,3 3,3 h 10 c 1.662,0 3,-1.338 3,-3 V 5 C 24,3.338 22.662,2 21,2 Z m 0,2 h 1.4922 l 0.49023,0.65234 C 13.09835,4.80615 13.13748,5 13.33009,5 h 5.3398 C 18.8625,5 18.90163,4.80615 19.01755,4.65234 L 19.50778,4 h 1.4922 c 0.55399,0 1,0.44601 1,1 v 22 c 0,0.55399 -0.44601,1 -1,1 h -10 c -0.55399,0 -1,-0.44601 -1,-1 V 5 c 0,-0.55399 0.44601,-1 1,-1 z"
       transform="translate(321,529.36)"
       class="ColorScheme-Text" />
    <rect
       id="rect23"
       fill="none"
       height="32"
       width="32"
       y="529.35999"
       x="321" />
    <rect
       id="rect25"
       opacity="0.5"
       ry="0.5"
       height="1"
       width="8"
       y="555.35999"
       x="333" />
    <path
       id="path27"
       fill="currentColor"
       d="m 336.5,541.36 -0.27734,1.1074 c -0.25213,0.0672 -0.49441,0.167 -0.72071,0.29688 l -0.97656,-0.58594 -0.70703,0.70703 0.58594,0.97656 c -0.13139,0.22672 -0.23251,0.46967 -0.30078,0.72266 l -1.1035,0.27539 v 1 l 1.1074,0.27734 c 0.0672,0.25213 0.167,0.49441 0.29688,0.72071 l -0.58594,0.97656 0.70703,0.70703 0.97656,-0.58594 c 0.22672,0.13139 0.46967,0.23251 0.72266,0.30078 l 0.27539,1.1035 h 1 l 0.27734,-1.1074 c 0.25213,-0.0672 0.49441,-0.167 0.72071,-0.29688 l 0.97656,0.58594 0.70703,-0.70703 -0.58594,-0.97656 c 0.13139,-0.22672 0.23251,-0.46967 0.30078,-0.72266 l 1.1035,-0.27539 v -1 l -1.1074,-0.27734 c -0.0672,-0.25213 -0.167,-0.49441 -0.29688,-0.72071 l 0.58594,-0.97656 -0.70703,-0.70703 -0.97656,0.58594 c -0.22672,-0.13139 -0.46967,-0.23251 -0.72266,-0.30078 L 337.5,541.36 Z m 0.5,2 c 0.0665,2e-5 0.13302,0.003 0.19922,0.01 0.0662,0.006 0.13203,0.0163 0.19726,0.0293 0.0659,0.0136 0.13111,0.0306 0.19532,0.0508 0.0636,0.0197 0.12618,0.0425 0.1875,0.0684 0.0613,0.0256 0.12125,0.0543 0.17968,0.0859 0.0584,0.0323 0.11508,0.0675 0.16993,0.10547 0.0554,0.0377 0.10883,0.0781 0.16015,0.12109 0.0511,0.0431 0.1,0.0887 0.14649,0.13672 0.046,0.0473 0.0897,0.0968 0.13086,0.14844 0.0418,0.0527 0.0809,0.10744 0.11718,0.16406 0.0361,0.0562 0.0693,0.11426 0.0996,0.17383 0.0297,0.0592 0.0564,0.1198 0.0801,0.18164 0.0247,0.062 0.0462,0.12526 0.0645,0.18945 0.0176,0.0643 0.0319,0.12954 0.043,0.19532 0.0111,0.066 0.0189,0.13246 0.0234,0.19921 0.004,0.0468 0.006,0.0937 0.006,0.14059 -2e-5,0.0665 -0.003,0.13302 -0.01,0.19922 -0.006,0.0662 -0.0163,0.13203 -0.0293,0.19726 -0.0136,0.0659 -0.0306,0.13111 -0.0508,0.19532 -0.0197,0.0636 -0.0425,0.12618 -0.0684,0.1875 -0.0256,0.0613 -0.0543,0.12125 -0.0859,0.17968 -0.0323,0.0584 -0.0675,0.11508 -0.10547,0.16993 -0.0377,0.0554 -0.0781,0.10883 -0.1211,0.16015 -0.0431,0.0511 -0.0887,0.1 -0.13672,0.14649 -0.0473,0.046 -0.0968,0.0897 -0.14843,0.13086 -0.0527,0.0418 -0.10744,0.0809 -0.16407,0.11718 -0.0562,0.0361 -0.11425,0.0693 -0.17382,0.0996 -0.0592,0.0297 -0.1198,0.0564 -0.18164,0.0801 -0.062,0.0246 -0.12527,0.0461 -0.18946,0.0644 -0.0643,0.0176 -0.12953,0.0319 -0.19531,0.043 -0.066,0.0111 -0.13246,0.0189 -0.19922,0.0234 -0.0279,0.004 -0.0559,0.007 -0.084,0.01 h -0.13672 c -0.0398,-0.002 -0.0795,-0.005 -0.11914,-0.01 -0.0662,-0.006 -0.13204,-0.0163 -0.19727,-0.0293 -0.0659,-0.0136 -0.1311,-0.0306 -0.19531,-0.0508 -0.0636,-0.0197 -0.12618,-0.0425 -0.1875,-0.0684 -0.0613,-0.0256 -0.12126,-0.0543 -0.17969,-0.0859 -0.0584,-0.0323 -0.11507,-0.0675 -0.16992,-0.10546 -0.0554,-0.0377 -0.10883,-0.0781 -0.16016,-0.1211 -0.0301,-0.0265 -0.0594,-0.0538 -0.0879,-0.082 l -0.0879,-0.0879 c -0.0353,-0.0371 -0.0692,-0.0755 -0.10156,-0.11523 -0.0418,-0.0527 -0.0809,-0.10744 -0.11719,-0.16407 -0.0361,-0.0562 -0.0693,-0.11425 -0.0996,-0.17382 -0.0297,-0.0592 -0.0564,-0.1198 -0.0801,-0.18164 -0.0247,-0.062 -0.0462,-0.12527 -0.0645,-0.18946 -0.0176,-0.0643 -0.0319,-0.12953 -0.043,-0.19531 -0.0111,-0.066 -0.0189,-0.13246 -0.0234,-0.19922 -0.004,-0.0468 -0.006,-0.0937 -0.006,-0.14062 2e-5,-0.0665 0.003,-0.13302 0.01,-0.19922 0.006,-0.0662 0.0163,-0.13204 0.0293,-0.19727 0.0136,-0.0659 0.0306,-0.1311 0.0508,-0.19531 0.0197,-0.0636 0.0425,-0.12618 0.0684,-0.1875 0.0256,-0.0613 0.0543,-0.12126 0.0859,-0.17969 0.0323,-0.0584 0.0675,-0.11507 0.10547,-0.16992 0.0377,-0.0554 0.0781,-0.10883 0.1211,-0.16016 0.0431,-0.0511 0.0887,-0.1 0.13672,-0.14648 0.0473,-0.046 0.0968,-0.0897 0.14843,-0.13086 0.0527,-0.0418 0.10744,-0.0809 0.16407,-0.11719 0.0562,-0.0361 0.11425,-0.0693 0.17382,-0.0996 0.0592,-0.0297 0.1198,-0.0564 0.18164,-0.0801 0.062,-0.0246 0.12527,-0.0462 0.18946,-0.0645 0.0643,-0.0176 0.12953,-0.0319 0.19531,-0.043 0.066,-0.0111 0.13246,-0.0189 0.19922,-0.0234 0.0467,-0.005 0.0936,-0.008 0.14062,-0.01 z"
       class="ColorScheme-Text" />
  </g>
</svg>
