<?xml version="1.0" encoding="UTF-8" standalone="no"?>
<svg
   width="22"
   height="22"
   version="1.1"
   id="svg21"
   sodipodi:docname="kdf.svg"
   inkscape:version="1.1 (c4e8f9ed74, 2021-05-24)"
   xmlns:inkscape="http://www.inkscape.org/namespaces/inkscape"
   xmlns:sodipodi="http://sodipodi.sourceforge.net/DTD/sodipodi-0.dtd"
   xmlns="http://www.w3.org/2000/svg"
   xmlns:svg="http://www.w3.org/2000/svg"
   xmlns:rdf="http://www.w3.org/1999/02/22-rdf-syntax-ns#"
   xmlns:cc="http://creativecommons.org/ns#"
   xmlns:dc="http://purl.org/dc/elements/1.1/">
  <metadata
     id="metadata25">
    <rdf:RDF>
      <cc:Work
         rdf:about="">
        <dc:format>image/svg+xml</dc:format>
        <dc:type
           rdf:resource="http://purl.org/dc/dcmitype/StillImage" />
        <dc:title />
      </cc:Work>
    </rdf:RDF>
  </metadata>
  <sodipodi:namedview
     pagecolor="#329632"
     bordercolor="#666666"
     borderopacity="1"
     objecttolerance="10"
     gridtolerance="10"
     guidetolerance="10"
     inkscape:pageopacity="0"
     inkscape:pageshadow="2"
     inkscape:window-width="1920"
     inkscape:window-height="954"
     id="namedview23"
     showgrid="false"
     inkscape:zoom="12.294016"
     inkscape:cx="-16.552768"
     inkscape:cy="11.957037"
     inkscape:window-x="0"
     inkscape:window-y="40"
     inkscape:window-maximized="1"
     inkscape:current-layer="svg21"
     inkscape:document-rotation="0"
     inkscape:pagecheckerboard="0" />
  <defs
     id="defs3">
    <style
       id="current-color-scheme"
       type="text/css">.ColorScheme-Text { color:#333333; } .ColorScheme-Highlight { color:#5294e2; } .ColorScheme-ButtonBackground { color:#333333; }</style>
  </defs>
  <rect
     class="ColorScheme-Text"
     x="-20.43"
     y="-19.39"
     width="16"
     height="16"
     ry="0"
     opacity="0"
     id="rect5" />
  <g
     inkscape:label="#g1069"
     transform="translate(25.365228,-7.672183)"
     id="16-16-kdf">
    <path
       inkscape:connector-curvature="0"
       style="opacity:1;fill:none"
       d="m -41.365228,13.672183 v 16 h 16 v -16 z"
       id="path17-3" />
    <g
       transform="translate(-397.36523,-496.69002)"
       id="g1041">
      <g
         transform="translate(-86,334.3622)"
         id="g1037"
         style="fill:#ebebeb;fill-opacity:1">
        <g
           style="fill:#ebebeb;fill-opacity:1;fill-rule:evenodd"
           id="g1035">
          <path
             inkscape:connector-curvature="0"
             d="m 446,176 c -1.108,0 -1.8626,0.90056 -2,2 l -1,8 v 4 c 0,1.108 0.892,2 2,2 h 10 c 1.108,0 2,-0.892 2,-2 v -4 l -1,-8 c -0.13743,-1.0994 -0.892,-2 -2,-2 z m 0,1 h 8 c 0.554,0 0.93128,0.45028 1,1 l 1,8 v 4 c 0,0.554 -0.446,1 -1,1 h -10 c -0.554,0 -1,-0.446 -1,-1 v -4 l 1,-8 c 0.0687,-0.54972 0.446,-1 1,-1 z"
             style="fill:#ffffff;fill-opacity:1;paint-order:fill markers stroke"
             id="path1029" />
          <path
             inkscape:connector-curvature="0"
             d="m 444,186 -0.1355,1 c -0.0744,0.54898 0.45608,1 1.0226,1 h 10.226 c 0.56651,0 1.097,-0.45102 1.0226,-1 l -0.13549,-1 c 0,0.554 -0.32058,1 -0.88709,1 h -10.226 c -0.56651,0 -0.88709,-0.446 -0.88709,-1 z"
             style="fill:#ffffff;fill-opacity:1;paint-order:fill markers stroke"
             id="path1031" />
          <rect
             x="454"
             y="189"
             width="1"
             height="1"
             style="fill:#ffffff;fill-opacity:1;paint-order:fill markers stroke"
             id="rect1033" />
        </g>
      </g>
      <path
         transform="translate(400,524.3622)"
         inkscape:connector-curvature="0"
         id="path1039"
         d="m -41,-13 c 0,0 -2,9 -1,10 1,1 11,1 12,0 1,-1 -1,-10 -1,-10 z m 2.880859,0.996094 0.705079,0.658203 -1.414063,1.314453 -0.707031,-0.65625 z m 4.240235,0 1.414062,1.316406 -0.707031,0.65625 -1.414063,-1.314453 z m -2.119141,1.429687 c 1.098,0 2,0.835469 2,1.855469 0,1.02 -0.902,1.859375 -2,1.859375 -1.1,0 -2,-0.839375 -2,-1.859375 0,-1.02 0.9,-1.855469 2,-1.855469 z m 0,0.9277346 c -0.559,0 -1,0.4097344 -1,0.9277344 0,0.519 0.441,0.9296875 1,0.9296875 0.557,0 1,-0.4107344 1,-0.9277344 0,-0.52 -0.443,-0.9296875 -1,-0.9296875 z m -1,3.7148438 h 2 v 0.9277344 h -2 z"
         style="opacity:1;fill:#ffffff;fill-opacity:1;stroke:none;stroke-width:1;stroke-linecap:round;stroke-miterlimit:4;stroke-dasharray:none;stroke-opacity:1" />
    </g>
  </g>
  <g
     id="kdf"
     transform="translate(22,-10.000001)">
    <path
       inkscape:connector-curvature="0"
       style="fill:none"
       d="M -22,10 V 32 H 0 V 10 Z"
       id="path9-3" />
    <rect
       y="10.000003"
       x="-22"
       height="22"
       width="22"
       id="rect817-1"
       style="clip-rule:evenodd;fill:#ffffff;fill-opacity:0;fill-rule:evenodd;stroke-width:0.546348;stroke-linejoin:round;stroke-miterlimit:1.41421" />
    <path
       id="path1095"
       style="fill:#ffffff;fill-opacity:1;fill-rule:evenodd;paint-order:fill markers stroke"
       d="m -10.998047,17.353516 c -0.06987,0 -0.137568,0.0073 -0.203125,0.01953 -0.06556,0.01222 -0.129476,0.02948 -0.189453,0.05273 -0.05998,0.02325 -0.116787,0.05087 -0.169922,0.08398 -0.05314,0.03311 -0.101453,0.07149 -0.146484,0.113281 -0.04503,0.0418 -0.08543,0.08742 -0.121094,0.136719 -0.03567,0.0493 -0.06676,0.102575 -0.0918,0.158203 -0.02504,0.05563 -0.04544,0.11305 -0.05859,0.173828 -0.01315,0.06078 -0.01953,0.124703 -0.01953,0.189453 0,0.06488 0.0064,0.128553 0.01953,0.189453 0.01315,0.0609 0.03356,0.118085 0.05859,0.173828 0.02504,0.05574 0.05613,0.108798 0.0918,0.158203 0.03567,0.04941 0.07606,0.09679 0.121094,0.138672 0.04503,0.04189 0.09335,0.07814 0.146484,0.111328 0.05313,0.03319 0.109945,0.06263 0.169922,0.08594 0.05998,0.02331 0.123896,0.04049 0.189453,0.05273 0.06556,0.01224 0.13325,0.01953 0.203125,0.01953 0.06963,0 0.137705,-0.0073 0.203125,-0.01953 0.06542,-0.01224 0.12757,-0.02944 0.1875,-0.05273 0.05993,-0.02329 0.116768,-0.05083 0.169922,-0.08398 0.05315,-0.03315 0.103344,-0.07146 0.148438,-0.113282 0.04509,-0.04183 0.08535,-0.08741 0.121093,-0.136718 0.03575,-0.04931 0.06668,-0.102599 0.0918,-0.158204 0.02512,-0.0556 0.04539,-0.115071 0.05859,-0.175781 0.0132,-0.06071 0.019531,-0.122875 0.019531,-0.1875 0,-0.065 -0.00633,-0.128485 -0.019531,-0.189453 -0.0132,-0.06097 -0.03348,-0.120015 -0.05859,-0.175781 -0.02512,-0.05577 -0.05605,-0.108808 -0.0918,-0.158203 -0.03575,-0.0494 -0.076,-0.09486 -0.121093,-0.136719 -0.04509,-0.04186 -0.09528,-0.08014 -0.148438,-0.113281 -0.05315,-0.03315 -0.109992,-0.06072 -0.169922,-0.08398 -0.05993,-0.02327 -0.12208,-0.04052 -0.1875,-0.05273 -0.06542,-0.01222 -0.1335,-0.01953 -0.203125,-0.01953 z" />
    <path
       id="path1087"
       style="fill:#ffffff;fill-opacity:1;fill-rule:evenodd;paint-order:fill markers stroke"
       d="m -16,12 c -1.108,0 -1.8626,0.90056 -2,2 l -1,10 v 4 c 0,1.108 0.892,2 2,2 h 12 c 1.108,0 2,-0.892 2,-2 V 24 L -4,14 c -0.13743,-1.0994 -0.892,-2 -2,-2 z m 2.880859,2.996094 0.705079,0.658203 -1.414063,1.314453 -0.707031,-0.65625 z m 4.2402348,0 1.4140624,1.316406 -0.7070312,0.65625 -1.4140625,-1.314453 z m -2.1191408,1.429687 c 0.06862,0 0.136204,0.0034 0.203125,0.0098 0.06692,0.0064 0.132393,0.01493 0.197266,0.02734 0.06487,0.01242 0.128926,0.02873 0.191406,0.04687 0.06248,0.01815 0.123852,0.03893 0.183594,0.0625 0.05974,0.02357 0.119121,0.04946 0.175781,0.07813 0.05666,0.02866 0.1108301,0.06031 0.1640625,0.09375 0.053232,0.03344 0.1048364,0.06952 0.1542969,0.107421 0.04946,0.0379 0.097234,0.07709 0.1425781,0.119141 0.045344,0.04205 0.088024,0.08694 0.1289063,0.132813 0.040882,0.04587 0.079158,0.0932 0.1152343,0.142578 0.036076,0.04938 0.070637,0.09978 0.1015625,0.152344 0.030925,0.05257 0.058555,0.106668 0.083984,0.162109 0.02543,0.05544 0.04877,0.111927 0.068359,0.169922 0.019589,0.058 0.035424,0.117503 0.048828,0.177734 0.013404,0.06023 0.024375,0.121444 0.03125,0.183594 0.00687,0.06215 0.00977,0.125703 0.00977,0.189453 0,0.06375 -0.00289,0.127275 -0.00977,0.189453 -0.00687,0.06218 -0.017846,0.123309 -0.03125,0.183594 -0.013404,0.06028 -0.029239,0.119665 -0.048828,0.177734 -0.019589,0.05807 -0.04293,0.11439 -0.068359,0.169922 -0.02543,0.05553 -0.053059,0.109436 -0.083984,0.162109 -0.030925,0.05267 -0.065486,0.104804 -0.1015625,0.154297 -0.036076,0.04949 -0.074352,0.09659 -0.1152343,0.142579 -0.040882,0.04599 -0.083563,0.09064 -0.1289063,0.132812 -0.045344,0.04217 -0.093118,0.08112 -0.1425781,0.119141 -0.049461,0.03802 -0.1010645,0.07387 -0.1542969,0.107421 -0.053232,0.03356 -0.1074028,0.06498 -0.1640625,0.09375 -0.05666,0.02877 -0.116039,0.05642 -0.175781,0.08008 -0.05974,0.02366 -0.121114,0.04427 -0.183594,0.0625 -0.06248,0.01823 -0.126533,0.0344 -0.191406,0.04687 -0.06487,0.01247 -0.130344,0.02095 -0.197266,0.02734 -0.06692,0.0064 -0.1345,0.0098 -0.203125,0.0098 -0.06875,0 -0.136108,-0.0034 -0.203125,-0.0098 -0.06702,-0.0064 -0.134277,-0.01487 -0.199219,-0.02734 -0.06494,-0.01247 -0.128881,-0.02866 -0.191406,-0.04687 -0.06252,-0.01823 -0.123828,-0.03884 -0.183594,-0.0625 -0.05976,-0.02366 -0.117163,-0.05131 -0.173828,-0.08008 -0.05667,-0.02877 -0.112793,-0.06019 -0.166015,-0.09375 -0.05322,-0.03355 -0.102906,-0.0694 -0.152344,-0.107421 -0.04944,-0.03802 -0.09727,-0.07697 -0.142578,-0.119141 -0.04531,-0.04217 -0.08806,-0.08682 -0.128906,-0.132812 -0.04085,-0.04599 -0.08115,-0.09308 -0.117188,-0.142579 -0.03604,-0.04949 -0.06873,-0.101623 -0.09961,-0.154297 -0.03088,-0.05267 -0.05859,-0.106577 -0.08399,-0.162109 -0.02539,-0.05553 -0.0488,-0.111853 -0.06836,-0.169922 -0.01956,-0.05807 -0.03545,-0.11745 -0.04883,-0.177734 -0.01338,-0.06029 -0.02439,-0.121416 -0.03125,-0.183594 -0.0069,-0.06218 -0.0098,-0.125703 -0.0098,-0.189453 0,-0.06375 0.0029,-0.127304 0.0098,-0.189453 0.0069,-0.06215 0.01787,-0.123363 0.03125,-0.183594 0.01338,-0.06023 0.02927,-0.119739 0.04883,-0.177734 0.01956,-0.05799 0.04297,-0.114481 0.06836,-0.169922 0.02539,-0.05544 0.05309,-0.109541 0.08399,-0.162109 0.03088,-0.05257 0.06357,-0.102965 0.09961,-0.152344 0.03604,-0.04938 0.07634,-0.09671 0.117188,-0.142578 0.04084,-0.04587 0.08359,-0.09077 0.128906,-0.132813 0.04531,-0.04205 0.09314,-0.08124 0.142578,-0.119141 0.04944,-0.0379 0.09912,-0.07398 0.152344,-0.107421 0.05322,-0.03344 0.10935,-0.06509 0.166015,-0.09375 0.05666,-0.02866 0.114063,-0.05456 0.173828,-0.07813 0.05977,-0.02357 0.12107,-0.04435 0.183594,-0.0625 0.06252,-0.01815 0.126465,-0.03446 0.191406,-0.04687 0.06494,-0.01242 0.132203,-0.02098 0.199219,-0.02734 0.06702,-0.0064 0.134375,-0.0098 0.203125,-0.0098 z m -1,4.642578 h 2.0000001 v 0.927735 H -11.998047 Z M -18,24 c 0.5,0.5 3.75,0.75 7,0.75 3.25,0 6.5,-0.25 7,-0.75 v 4 c 0,0.554 -0.446,1 -1,1 h -12 c -0.554,0 -1,-0.446 -1,-1 z" />
    <path
       inkscape:connector-curvature="0"
       d="m -17.8645,23.00002 -0.1355,1 c -0.0744,0.54898 0.45608,1 1.0226,1 h 11.9548 c 0.56651,0 1.097,-0.45102 1.0226,-1 l -0.13549,-1 c 0,0.554 -0.32058,1 -0.88709,1 h -11.9548 c -0.56651,0 -0.88709,-0.446 -0.88709,-1 z"
       style="fill:#ffffff;fill-opacity:1;fill-rule:evenodd;paint-order:fill markers stroke"
       id="path871"
       sodipodi:nodetypes="ccssccsscc" />
    <rect
       x="-7"
       y="26.000019"
       width="1"
       height="1"
       style="fill:#ffffff;fill-opacity:1;fill-rule:evenodd;paint-order:fill markers stroke"
       id="rect873" />
  </g>
</svg>
