<?xml version="1.0" encoding="UTF-8" standalone="no"?>
<svg
   viewBox="0 0 22 22"
   version="1.1"
   id="svg"
   sodipodi:docname="list.svg"
   inkscape:version="1.2.1 (9c6d41e410, 2022-07-14)"
   xmlns:inkscape="http://www.inkscape.org/namespaces/inkscape"
   xmlns:sodipodi="http://sodipodi.sourceforge.net/DTD/sodipodi-0.dtd"
   xmlns="http://www.w3.org/2000/svg"
   xmlns:svg="http://www.w3.org/2000/svg"
   xmlns:rdf="http://www.w3.org/1999/02/22-rdf-syntax-ns#"
   xmlns:cc="http://creativecommons.org/ns#"
   xmlns:dc="http://purl.org/dc/elements/1.1/">
  <sodipodi:namedview
     id="namedview12"
     pagecolor="#ffffff"
     bordercolor="#999999"
     borderopacity="1"
     inkscape:showpageshadow="0"
     inkscape:pageopacity="0"
     inkscape:pagecheckerboard="0"
     inkscape:deskcolor="#d1d1d1"
     showgrid="false"
     inkscape:zoom="13.627876"
     inkscape:cx="5.5034255"
     inkscape:cy="11.153609"
     inkscape:window-width="1920"
     inkscape:window-height="1002"
     inkscape:window-x="0"
     inkscape:window-y="0"
     inkscape:window-maximized="1"
     inkscape:current-layer="svg" />
  <metadata
     id="metadata18">
    <rdf:RDF>
      <cc:Work
         rdf:about="">
        <dc:format>image/svg+xml</dc:format>
        <dc:type
           rdf:resource="http://purl.org/dc/dcmitype/StillImage" />
        <dc:title />
      </cc:Work>
    </rdf:RDF>
  </metadata>
  <defs
     id="defs3">
    <style
       type="text/css"
       id="current-color-scheme">.ColorScheme-Text {
        color:#363636;
      }
      .ColorScheme-Background{
        color:#efefef;
      }
      .ColorScheme-Highlight{
        color:#3DAEE6;
      }
      .ColorScheme-ViewText {
        color:#7B7C7E;
      }
      .ColorScheme-ViewBackground{
        color:#FCFCFC;
      }
      .ColorScheme-ViewHover {
        color:#3DAEE6;
      }
      .ColorScheme-ViewFocus{
        color:#1E92FF;
      }
      .ColorScheme-ButtonText {
        color:#363636;
      }
      .ColorScheme-ButtonBackground{
        color:#efefef;
      }
      .ColorScheme-ButtonHover {
        color:#3DAEE6;
      }
      .ColorScheme-ButtonFocus{
        color:#1E92FF;
      }</style>
  </defs>
  <g
     id="list-add">
    <path
       id="path5"
       d="m10 3v7h-7v2.1h7v6.9h2v-6.9h7v-2.1h-7v-7z"
       class="ColorScheme-Text"
       style="fill:#000000;fill-opacity:1" />
    <rect
       id="rect7"
       fill-opacity="0"
       height="22"
       width="22" />
  </g>
  <g
     transform="translate(22)"
     id="list-remove">
    <path
       id="path10"
       fill="#e74c3c"
       d="m11 3c-4.4183 0-8 3.5817-8 8s3.5817 8 8 8 8-3.5817 8-8-3.5817-8-8-8zm0 1c3.866 0 7 3.134 7 7 0 1.7617-0.64446 3.3633-1.7188 4.5938l-9.875-9.875c1.2304-1.0743 2.8321-1.7188 4.5938-1.7188zm-5.2812 2.4062 9.875 9.875c-1.2304 1.0743-2.8321 1.7188-4.5938 1.7188-3.866 0-7-3.134-7-7 0-1.7617 0.64446-3.3633 1.7188-4.5938z" />
    <rect
       id="rect12"
       fill-opacity="0"
       height="22"
       width="22" />
  </g>
</svg>
