<?xml version="1.0" encoding="UTF-8" standalone="no"?>
<svg
   version="1.1"
   viewBox="0 0 22 22"
   id="svg12"
   sodipodi:docname="notifications.svg"
   inkscape:version="1.2 (dc2aedaf03, 2022-05-15)"
   xmlns:inkscape="http://www.inkscape.org/namespaces/inkscape"
   xmlns:sodipodi="http://sodipodi.sourceforge.net/DTD/sodipodi-0.dtd"
   xmlns="http://www.w3.org/2000/svg"
   xmlns:svg="http://www.w3.org/2000/svg"
   xmlns:rdf="http://www.w3.org/1999/02/22-rdf-syntax-ns#"
   xmlns:cc="http://creativecommons.org/ns#"
   xmlns:dc="http://purl.org/dc/elements/1.1/">
  <metadata
     id="metadata16">
    <rdf:RDF>
      <cc:Work
         rdf:about="">
        <dc:format>image/svg+xml</dc:format>
        <dc:type
           rdf:resource="http://purl.org/dc/dcmitype/StillImage" />
        <dc:title />
      </cc:Work>
    </rdf:RDF>
  </metadata>
  <sodipodi:namedview
     pagecolor="#c8c8c8"
     bordercolor="#666666"
     borderopacity="1"
     objecttolerance="10"
     gridtolerance="10"
     guidetolerance="10"
     inkscape:pageopacity="0"
     inkscape:pageshadow="2"
     inkscape:window-width="1920"
     inkscape:window-height="1001"
     id="namedview14"
     showgrid="false"
     inkscape:zoom="13.21004"
     inkscape:cx="0.30279999"
     inkscape:cy="17.44885"
     inkscape:window-x="0"
     inkscape:window-y="0"
     inkscape:window-maximized="1"
     inkscape:current-layer="svg12"
     inkscape:document-rotation="0"
     inkscape:pagecheckerboard="0"
     inkscape:showpageshadow="0"
     inkscape:deskcolor="#c8c8c8" />
  <defs
     id="defs3">
    <style
       id="current-color-scheme"
       type="text/css">.ColorScheme-Text { color:#363636; }</style>
  </defs>
  <g
     inkscape:label="#g1421"
     id="notification-disabled"
     transform="translate(0,-40)">
    <rect
       y="40"
       x="0"
       height="22"
       width="22"
       id="rect1023"
       style="fill:#ffffff;fill-opacity:0;stroke:none" />
    <path
       style="color:#000000;font-style:normal;font-variant:normal;font-weight:normal;font-stretch:normal;font-size:medium;line-height:normal;font-family:sans-serif;font-variant-ligatures:normal;font-variant-position:normal;font-variant-caps:normal;font-variant-numeric:normal;font-variant-alternates:normal;font-feature-settings:normal;text-indent:0;text-align:start;text-decoration:none;text-decoration-line:none;text-decoration-style:solid;text-decoration-color:#000000;letter-spacing:normal;word-spacing:normal;text-transform:none;writing-mode:lr-tb;direction:ltr;text-orientation:mixed;dominant-baseline:auto;baseline-shift:baseline;text-anchor:start;white-space:normal;shape-padding:0;clip-rule:nonzero;display:inline;overflow:visible;visibility:visible;opacity:1;isolation:auto;mix-blend-mode:normal;color-interpolation:sRGB;color-interpolation-filters:linearRGB;solid-color:#000000;solid-opacity:1;vector-effect:none;fill:#ffffff;fill-opacity:1;fill-rule:nonzero;stroke:none;stroke-width:0.661223;stroke-linecap:butt;stroke-linejoin:miter;stroke-miterlimit:4;stroke-dasharray:none;stroke-dashoffset:0;stroke-opacity:1;color-rendering:auto;image-rendering:auto;shape-rendering:auto;text-rendering:auto;enable-background:accumulate"
       d="m 4.0000008,42.997997 c -1.108,0 -2,0.892 -2,2 v 0.341797 5.658203 4.660156 0.339844 c 0,1.108 0.892,2 2,2 h 0.316406 c 0.0067,6.6e-5 0.012841,0.0019 0.019531,0.002 h 3.1679689 l 0.5292969,1.275391 c 0.124214,0.2962 0.3700192,0.526404 0.6757812,0.626953 0.114582,0.03834 0.2327722,0.05469 0.3476562,0.05469 0.198675,0 0.3959325,-0.0533 0.5703126,-0.160156 L 12.613282,58 h 5.052734 c 0.0067,0 0.01285,-0.0019 0.01953,-0.002 h 0.314453 c 1.108,0 2,-0.892 2,-2 v -0.339847 -4.660156 -5.658203 -0.341797 c 0,-1.108 -0.892,-2 -2,-2 H 17.664063 4.3359378 Z m 3.5039059,6.617188 a 0.99990208,0.99990208 0 0 1 1.0273437,1 1,1 0 0 1 -2,0 0.99990208,0.99990208 0 0 1 0.9726563,-1 z m 3.5078123,0 a 0.99990233,0.99990233 0 0 1 0.04297,0 0.99990233,0.99990233 0 0 1 0.933594,0.769531 0.99990233,0.99990233 0 1 1 -1.945314,0.460937 0.99990233,0.99990233 0 0 1 0.96875,-1.230468 z m 3.478516,0 a 0.99990208,0.99990208 0 0 1 0.945312,0.617187 1.0000019,1.0000019 0 1 1 -1.847656,0.765625 0.99990208,0.99990208 0 0 1 0.902344,-1.382812 z"
       id="path1026"
       inkscape:connector-curvature="0" />
  </g>
</svg>
