<?xml version="1.0" encoding="UTF-8" standalone="no"?>
<svg
   width="22"
   height="22"
   version="1.1"
   id="svg21"
   sodipodi:docname="pamac.svg"
   inkscape:version="1.2 (dc2aedaf03, 2022-05-15)"
   xmlns:inkscape="http://www.inkscape.org/namespaces/inkscape"
   xmlns:sodipodi="http://sodipodi.sourceforge.net/DTD/sodipodi-0.dtd"
   xmlns="http://www.w3.org/2000/svg"
   xmlns:svg="http://www.w3.org/2000/svg">
  <sodipodi:namedview
     id="namedview23"
     pagecolor="#c8c8c8"
     bordercolor="#666666"
     borderopacity="1.0"
     inkscape:pageshadow="2"
     inkscape:pageopacity="0"
     inkscape:pagecheckerboard="0"
     showgrid="true"
     inkscape:snap-bbox="true"
     inkscape:bbox-nodes="true"
     inkscape:snap-bbox-edge-midpoints="true"
     inkscape:snap-nodes="true"
     inkscape:zoom="5.6568543"
     inkscape:cx="-12.020815"
     inkscape:cy="38.272155"
     inkscape:window-width="1920"
     inkscape:window-height="1001"
     inkscape:window-x="0"
     inkscape:window-y="0"
     inkscape:window-maximized="1"
     inkscape:current-layer="svg21"
     inkscape:object-paths="true"
     inkscape:snap-intersection-paths="true"
     inkscape:snap-global="true"
     inkscape:showpageshadow="0"
     inkscape:deskcolor="#c8c8c8">
    <inkscape:grid
       type="xygrid"
       id="grid1777" />
  </sodipodi:namedview>
  <defs
     id="defs3">
    <style
       id="current-color-scheme"
       type="text/css">.ColorScheme-Text{color:#dfdfdf;}.ColorScheme-Highlight{color:#5294e2;}</style>
  </defs>
  <defs
     id="defs7">
    <style
       type="text/css"
       id="style5" />
  </defs>
  <g
     id="22-22-pamac-tray-no-update">
    <rect
       width="22"
       height="22"
       opacity="0"
       id="rect9"
       x="0"
       y="0" />
    <path
       id="path1339"
       style="color:#000000;fill:#000000;fill-opacity:1;stroke-width:0.940301;stroke-linejoin:round;-inkscape-stroke:none"
       d="m 11,2 a 0.46671333,0.47370786 0 0 0 -0.34375,0.15625 l -0.363281,0.4042969 c -0.01411,0.014661 -0.03447,0.034027 -0.05469,0.052734 -0.04552,0.042181 -0.117454,0.1030801 -0.216797,0.1796876 -0.198687,0.1532149 -0.507832,0.361057 -0.935546,0.5664062 -0.85543,0.4106983 -2.186432,0.8162763 -4.09375,0.75 L 4.482422,4.0898438 A 0.46671333,0.47370786 0 0 0 4,4.5644531 v 7.6933589 c 0,1.059365 0.183732,2.420315 1.126953,3.783204 0.943221,1.362888 2.620459,2.708846 5.527344,3.855468 l 0.175781,0.07031 a 0.46671333,0.47370786 0 0 0 0.339844,0 l 0.175781,-0.07031 c 2.906885,-1.146622 4.584123,-2.492579 5.527344,-3.855468 C 17.816268,14.678127 18,13.31718 18,12.257812 V 4.5644531 A 0.46671333,0.47370786 0 0 0 17.517578,4.0898438 l -0.509766,0.019531 c -0.136516,0.00497 -0.271012,0.00781 -0.404296,0.00781 h -0.002 c -1.742249,0 -2.973749,-0.4041031 -3.769531,-0.8007813 -0.397892,-0.1983388 -0.684649,-0.3968428 -0.871093,-0.5410156 -0.09322,-0.072086 -0.162265,-0.1306107 -0.205079,-0.1699218 -0.01792,-0.016452 -0.03542,-0.03317 -0.04687,-0.044922 l -0.002,-0.00195 -0.002,-0.00195 v -0.00195 L 11.345703,2.15625 A 0.46671333,0.47370786 0 0 0 11,2 Z m 0,5.2070312 c 0.03195,0 0.06422,0.00368 0.0957,0.00977 0.03148,0.00608 0.06172,0.015154 0.0918,0.027344 0.03008,0.01219 0.06014,0.026598 0.08789,0.044922 0.02775,0.018324 0.05364,0.03997 0.07813,0.064453 l 2.828125,2.8281254 c 0.195868,0.195868 0.195868,0.511162 0,0.707031 -0.195869,0.195868 -0.511163,0.195868 -0.707032,0 L 11.5,8.9140625 V 14.5 c 0,0.277 -0.223,0.5 -0.5,0.5 -0.277,0 -0.5,-0.223 -0.5,-0.5 V 8.9140625 L 8.525391,10.888672 c -0.195869,0.195868 -0.511163,0.195868 -0.707032,0 -0.195868,-0.195869 -0.195868,-0.511163 0,-0.707031 l 2.792969,-2.791016 c 0.01071,-0.013116 0.02291,-0.024868 0.03516,-0.037109 0.02448,-0.024483 0.05038,-0.046129 0.07813,-0.064453 0.02775,-0.018324 0.05781,-0.032732 0.08789,-0.044922 0.03008,-0.01219 0.06031,-0.021262 0.0918,-0.027344 0.03148,-0.00608 0.06375,-0.00977 0.0957,-0.00977 z" />
  </g>
  <g
     id="g1685"
     transform="translate(-23,1)">
    <g
       id="g1683"
       transform="translate(0.70710691)" />
  </g>
  <g
     id="22-22-pamac-tray-update"
     transform="translate(-17.990082)">
    <rect
       width="22"
       height="22"
       opacity="0"
       id="rect3177"
       x="57.990082"
       y="0" />
    <path
       id="path3179"
       style="color:#000000;fill:#000000;fill-opacity:1;stroke-width:0.940301;stroke-linejoin:round;-inkscape-stroke:none"
       d="m 68.990234,2 a 0.46671333,0.47370786 0 0 0 -0.34375,0.15625 l -0.363281,0.4042969 c -0.01411,0.014661 -0.03447,0.034027 -0.05469,0.052734 -0.04552,0.042181 -0.117454,0.1030801 -0.216797,0.1796876 -0.198687,0.1532149 -0.507833,0.361057 -0.935547,0.5664062 -0.85543,0.4106983 -2.186432,0.8162763 -4.09375,0.75 L 62.472653,4.0898437 A 0.46671333,0.47370786 0 0 0 61.990231,4.564453 v 7.693359 c 0,1.059365 0.183732,2.420315 1.126954,3.783204 0.94322,1.362888 2.620458,2.708846 5.527343,3.855468 l 0.175781,0.07031 a 0.46671333,0.47370786 0 0 0 0.339844,0 l 0.175782,-0.07031 c 0.368503,-0.145356 0.716883,-0.29392 1.046874,-0.445312 A 3,3 0 0 1 70,18 a 3,3 0 0 1 3,-3 3,3 0 0 1 2.029297,0.789062 c 0.799332,-1.277623 0.960937,-2.537154 0.960937,-3.53125 V 4.5644531 A 0.46671333,0.47370786 0 0 0 75.507812,4.0898438 l -0.509765,0.019531 c -0.136516,0.00497 -0.271013,0.00781 -0.404297,0.00781 h -0.002 c -1.742249,0 -2.973749,-0.4041031 -3.769531,-0.8007813 -0.397892,-0.1983388 -0.68465,-0.3968428 -0.871094,-0.5410156 -0.09322,-0.072086 -0.162264,-0.1306107 -0.205078,-0.1699218 -0.01792,-0.016452 -0.03543,-0.03317 -0.04687,-0.044922 l -0.002,-0.00195 -0.002,-0.00195 v -0.00195 L 69.335938,2.15625 A 0.46671333,0.47370786 0 0 0 68.990234,2 Z m 0,5.2070312 c 0.03195,0 0.06422,0.00368 0.0957,0.00977 0.03148,0.00608 0.06172,0.015154 0.0918,0.027344 0.03008,0.01219 0.06014,0.026598 0.08789,0.044922 0.02775,0.018324 0.05363,0.03997 0.07813,0.064453 l 2.828125,2.8281258 c 0.195868,0.195868 0.195868,0.511162 0,0.707031 -0.195869,0.195868 -0.511162,0.195868 -0.707031,0 L 69.490234,8.9140625 V 14.5 c 0,0.277 -0.223,0.5 -0.5,0.5 -0.277,0 -0.5,-0.223 -0.5,-0.5 V 8.9140625 l -1.974609,1.9746095 c -0.195869,0.195868 -0.511162,0.195868 -0.707031,0 -0.195868,-0.195869 -0.195868,-0.511163 0,-0.707031 l 2.792968,-2.791016 c 0.01071,-0.013116 0.02291,-0.024868 0.03516,-0.037109 0.02448,-0.024483 0.05038,-0.046129 0.07813,-0.064453 0.02775,-0.018324 0.05781,-0.032732 0.08789,-0.044922 0.03008,-0.01219 0.06031,-0.021262 0.0918,-0.027344 0.03148,-0.00608 0.06375,-0.00977 0.0957,-0.00977 z" />
    <circle
       style="fill:#00a0ff;fill-opacity:1;fill-rule:evenodd;stroke:none;stroke-width:3;stroke-linecap:round;stroke-linejoin:round;paint-order:stroke fill markers"
       id="circle3199"
       cx="73"
       cy="18"
       r="2" />
  </g>
  <g
     id="pamac-tray-no-update">
    <rect
       style="fill:none;fill-opacity:1;stroke:none;stroke-width:2.11786;stroke-linecap:round;stroke-linejoin:round;stroke-miterlimit:4;stroke-dasharray:none;stroke-opacity:1;paint-order:stroke fill markers;stop-color:#000000"
       id="rect1079"
       width="32"
       height="32"
       x="-5"
       y="30.050793"
       rx="0"
       ry="0" />
    <path
       id="path3649"
       style="color:#000000;opacity:1;fill:#000000;fill-opacity:1;stroke-width:1.15385;stroke-linejoin:round;-inkscape-stroke:none"
       d="m 11.002253,31 a 1.1539635,1.1539635 0 0 0 -0.827074,0.349309 L 9.5329006,32.00511 c -0.023654,0.02271 -0.047665,0.04452 -0.072115,0.06535 -0.0729,0.06212 -0.1912814,0.156491 -0.358324,0.274941 -0.3340852,0.2369 -0.8599203,0.563151 -1.5955561,0.887922 -1.4712705,0.649542 -3.7810644,1.298533 -7.11013758,1.192159 l -0.89919033,-0.0293 A 1.1539635,1.1539635 0 0 0 -1.6923282,35.55003 v 12.491758 c 0,1.772114 0.3470925,4.107371 2.07106725,6.397997 1.72397475,2.290626 4.74471905,4.502858 9.91362795,6.377716 l 0.313251,0.112684 a 1.1539635,1.1539635 0 0 0 0.788764,0 l 0.313251,-0.112684 c 5.168909,-1.874858 8.189654,-4.08709 9.913628,-6.377716 1.723975,-2.290685 2.071068,-4.625884 2.071068,-6.397997 V 35.550037 a 1.1539635,1.1539635 0 0 0 -1.189906,-1.153848 l -0.89919,0.0293 a 1.1539635,1.1539635 0 0 0 -0.0023,0 c -0.237319,0.008 -0.472374,0.01131 -0.70538,0.01131 h -0.0023 c -3.038153,0 -5.169458,-0.648367 -6.537722,-1.275543 -0.684132,-0.313588 -1.178313,-0.62213 -1.49189,-0.845104 -0.156787,-0.111485 -0.267181,-0.20124 -0.335787,-0.259165 -0.0343,-0.02896 -0.08554,-0.07725 -0.110423,-0.101411 L 11.827075,31.349309 A 1.1539635,1.1539635 0 0 0 11.002253,31 Z m -0.0023,9.323182 c 0.07374,0 0.148202,0.0062 0.220853,0.02028 0.217954,0.0421 0.425452,0.148257 0.594953,0.317759 l 4.079034,4.081287 c 0.452004,0.452005 0.452004,1.179609 0,1.631614 -0.452005,0.452005 -1.179609,0.452005 -1.631614,0 l -2.109324,-2.111635 v 7.506773 c 0,0.639232 -0.514616,1.153848 -1.153848,1.153848 -0.639232,0 -1.1538481,-0.514616 -1.1538481,-1.153848 v -7.506773 l -2.1093785,2.111632 c -0.4520049,0.452005 -1.1796077,0.452005 -1.6316138,0 -0.4520038,-0.452005 -0.4520038,-1.179609 0,-1.631614 l 4.0790344,-4.081286 c 0.169501,-0.169502 0.376999,-0.275654 0.594953,-0.317759 0.07265,-0.01403 0.147116,-0.02029 0.220853,-0.02029 z" />
  </g>
  <g
     id="pamac-tray-update">
    <rect
       style="fill:none;fill-opacity:1;stroke:none;stroke-width:2.11786;stroke-linecap:round;stroke-linejoin:round;stroke-miterlimit:4;stroke-dasharray:none;stroke-opacity:1;paint-order:stroke fill markers;stop-color:#000000"
       id="rect3729"
       width="32"
       height="32"
       x="35.000004"
       y="30.050793"
       rx="0"
       ry="0" />
    <path
       id="path9162"
       style="color:#000000;opacity:1;fill:#000000;fill-opacity:1;stroke-width:1.15385;stroke-linejoin:round;-inkscape-stroke:none"
       d="m 51.002253,31 a 1.1539635,1.1539635 0 0 0 -0.827074,0.349309 l -0.642278,0.655801 c -0.02365,0.02271 -0.04767,0.04452 -0.07212,0.06535 -0.0729,0.06212 -0.191281,0.156491 -0.358324,0.274941 -0.334085,0.2369 -0.85992,0.563151 -1.595556,0.887922 -1.471271,0.649542 -3.781065,1.298533 -7.110138,1.19216 l -0.89919,-0.0293 a 1.1539635,1.1539635 0 0 0 -1.189906,1.153848 v 12.491758 c 0,1.772115 0.347093,4.107372 2.071067,6.397998 1.723975,2.290626 4.744719,4.502857 9.913629,6.377715 l 0.313251,0.11268 a 1.1539635,1.1539635 0 0 0 0.788764,0 l 0.313251,-0.11268 c 0.833675,-0.302389 1.60567,-0.614386 2.330232,-0.932995 a 6.3461645,6.3461645 0 0 1 -0.730169,-2.922931 6.3461645,6.3461645 0 0 1 6.346165,-6.346164 6.3461645,6.3461645 0 0 1 3.457037,1.027645 c 0.453822,-1.312827 0.581431,-2.555542 0.581431,-3.601268 V 35.550037 a 1.1539635,1.1539635 0 0 0 -1.189906,-1.153848 l -0.89919,0.0293 a 1.1539635,1.1539635 0 0 0 -0.0023,0 c -0.237319,0.008 -0.472374,0.01127 -0.705379,0.01127 h -0.0023 c -3.038152,0 -5.169457,-0.648367 -6.537722,-1.275543 -0.684131,-0.313589 -1.178313,-0.62213 -1.491889,-0.845104 -0.156788,-0.111485 -0.267182,-0.20124 -0.335787,-0.259165 -0.0343,-0.02896 -0.08554,-0.07725 -0.110427,-0.101413 l -0.59035,-0.606225 A 1.1539635,1.1539635 0 0 0 51.002253,31 Z M 51,40.323183 c 0.07374,0 0.148203,0.0062 0.220853,0.02028 0.217954,0.0421 0.425452,0.148257 0.594953,0.317759 l 4.079035,4.081287 c 0.452003,0.452005 0.452001,1.179609 0,1.631614 -0.452005,0.452005 -1.179609,0.452005 -1.631614,0 l -2.109379,-2.111632 v 7.506773 c 0,0.639231 -0.514616,1.153848 -1.153848,1.153848 -0.639232,0 -1.153848,-0.514617 -1.153848,-1.153848 v -7.506773 l -2.109379,2.111632 c -0.452005,0.452005 -1.179606,0.452005 -1.631614,0 -0.452003,-0.452005 -0.452002,-1.179609 0,-1.631614 l 4.079035,-4.081287 c 0.169501,-0.169502 0.376999,-0.275654 0.594953,-0.317759 0.07265,-0.01403 0.147116,-0.02028 0.220853,-0.02028 z" />
    <circle
       style="fill:#00a0ff;fill-opacity:1;fill-rule:evenodd;stroke:none;stroke-width:6;stroke-linecap:round;stroke-linejoin:round;paint-order:stroke fill markers"
       id="path3769"
       cx="60"
       cy="57"
       r="4.9999981" />
  </g>
</svg>
