<?xml version="1.0" encoding="UTF-8" standalone="no"?>
<svg
   xmlns:dc="http://purl.org/dc/elements/1.1/"
   xmlns:cc="http://creativecommons.org/ns#"
   xmlns:rdf="http://www.w3.org/1999/02/22-rdf-syntax-ns#"
   xmlns:svg="http://www.w3.org/2000/svg"
   xmlns="http://www.w3.org/2000/svg"
   xmlns:sodipodi="http://sodipodi.sourceforge.net/DTD/sodipodi-0.dtd"
   xmlns:inkscape="http://www.inkscape.org/namespaces/inkscape"
   version="1.1"
   viewBox="0 0 22 22"
   id="svg27"
   sodipodi:docname="printer.svg"
   inkscape:version="1.0.1 (3bc2e813f5, 2020-09-07)">
  <metadata
     id="metadata31">
    <rdf:RDF>
      <cc:Work
         rdf:about="">
        <dc:format>image/svg+xml</dc:format>
        <dc:type
           rdf:resource="http://purl.org/dc/dcmitype/StillImage" />
        <dc:title />
      </cc:Work>
    </rdf:RDF>
  </metadata>
  <sodipodi:namedview
     pagecolor="#ffffff"
     bordercolor="#666666"
     borderopacity="1"
     objecttolerance="10"
     gridtolerance="10"
     guidetolerance="10"
     inkscape:pageopacity="0"
     inkscape:pageshadow="2"
     inkscape:window-width="1920"
     inkscape:window-height="932"
     id="namedview29"
     showgrid="true"
     inkscape:snap-intersection-paths="true"
     inkscape:snap-smooth-nodes="true"
     inkscape:snap-bbox="true"
     inkscape:bbox-nodes="true"
     inkscape:snap-bbox-edge-midpoints="true"
     inkscape:zoom="17.386364"
     inkscape:cx="4.8015482"
     inkscape:cy="14.019742"
     inkscape:window-x="0"
     inkscape:window-y="36"
     inkscape:window-maximized="1"
     inkscape:current-layer="svg27"
     inkscape:pagecheckerboard="true"
     inkscape:document-rotation="0">
    <inkscape:grid
       type="xygrid"
       id="grid856" />
  </sodipodi:namedview>
  <defs
     id="defs3">
    <style
       id="current-color-scheme"
       type="text/css">.ColorScheme-Text { color:#363636; }</style>
  </defs>
  <g
     id="22-22-printer"
     class="ColorScheme-Text"
     fill="currentColor">
    <path
       d="m7 2c-1.108 0-2 0.892-2 2v1c-1.662 0-3 1.338-3 3v6c0 1.662 1.338 3 3 3v1c0 1.108 0.892 2 2 2h8c1.108 0 2-0.892 2-2v-1c1.662 0 3-1.338 3-3v-6c0-1.662-1.338-3-3-3v-1c0-1.108-0.892-2-2-2h-8zm0 2h8v1h-8v-1zm-2 3h12c0.554 0 1 0.446 1 1v6c0 0.554-0.446 1-1 1v-4c0-1.108-0.892-2-2-2h-8c-1.108 0-2 0.892-2 2v4c-0.554 0-1-0.446-1-1v-6c0-0.554 0.446-1 1-1zm2 4h8v4 3h-8v-1-2-4zm1 2v1h6v-1h-6zm0 2v1h6v-1h-6z"
       id="path5"
       style="fill:#ffffff;fill-opacity:1" />
    <rect
       width="22"
       height="22"
       fill-opacity="0"
       id="rect7" />
  </g>
  <g
     id="printer">
    <g
       transform="translate(-81,5)"
       id="g22"
       style="color:#363636;fill:#ffffff;fill-opacity:1">
      <path
         d="m 45,15 c 0,0.554 0.446,1 1,1 h 1 v -1 z m 16,0 v 1 h 1 c 0.554,0 1,-0.446 1,-1 z"
         id="path10"
         style="fill:#ffffff;fill-opacity:1" />
      <path
         d="m 46,14 v 3 c 0,1.108 0.892,2 2,2 h 12 c 1.108,0 2,-0.892 2,-2 v -3 h -1 v 3 c 0,0.554 -0.446,1 -1,1 H 48 c -0.554,0 -1,-0.446 -1,-1 v -3 z"
         id="path12"
         style="fill:#ffffff;fill-opacity:1" />
      <rect
         x="47"
         y="5"
         width="14"
         height="7"
         ry="1"
         opacity="0.5"
         id="rect14"
         style="fill:#ffffff;fill-opacity:1" />
      <path
         d="m 49,-6 c -1.108,0 -2,0.892 -2,2 v 7.3047 c 0,0.74358 0.4067,1.3838 1.0059,1.7285 C 48.005504,5.021581 48,5.011716 48,4.999997 v -9 c 0,-0.554 0.446,-1 1,-1 h 10 c 0.554,0 1,0.446 1,1 v 9 C 60,5.011716 59.9945,5.021581 59.9941,5.0332 60.5933,4.6885 61,4.04827 61,3.3047 V -4 c 0,-1.108 -0.892,-2 -2,-2 z"
         id="path16"
         style="fill:#ffffff;fill-opacity:1" />
      <path
         d="m 47,-1 c -1.108,0 -2,0.892 -2,2 v 5 h 4 C 48.446,6 48,5.554 48,5 v -6 z m 13,0 v 6 c 0,0.554 -0.446,1 -1,1 h 4 V 1 c 0,-1.108 -0.892,-2 -2,-2 z"
         id="path18"
         style="fill:#ffffff;fill-opacity:1" />
      <path
         d="m 44,5 c -1.108,0 -2,0.892 -2,2 v 6 c 0,1.108 0.892,2 2,2 h 20 c 1.108,0 2,-0.892 2,-2 V 7 C 66,5.892 65.108,5 64,5 Z m 0,1 h 20 c 0.554,0 1,0.446 1,1 v 6 c 0,0.554 -0.446,1 -1,1 H 44 c -0.554,0 -1,-0.446 -1,-1 V 7 c 0,-0.554 0.446,-1 1,-1 z"
         id="path20"
         style="fill:#ffffff;fill-opacity:1" />
    </g>
    <rect
       x="-43"
       y="-5"
       width="32"
       height="32"
       fill-opacity="0"
       id="rect24"
       style="color:#363636;fill:#363636" />
    <path
       id="rect860"
       style="fill:#ffffff;fill-opacity:1;stroke:none;stroke-width:2"
       d="m -37,11 c -0.554,0 -1,0.446 -1,1 v 6 c 0,0.554 0.446,1 1,1 h 20 c 0.554,0 1,-0.446 1,-1 v -6 c 0,-0.554 -0.446,-1 -1,-1 z m 1,1 h 18 c 0.554,0 1,0.446 1,1 v 4 c 0,0.554 -0.446,1 -1,1 h -18 c -0.554,0 -1,-0.446 -1,-1 v -4 c 0,-0.554 0.446,-1 1,-1 z" />
    <path
       id="rect867"
       style="fill:#ffffff;fill-opacity:1;stroke:none;stroke-width:2"
       d="m -32,0 c -0.553998,0 -1,0.44600165 -1,1 v 9 c 0,0.553998 0.446002,1 1,1 h 1 c -0.554,0 -1,-0.446 -1,-1 V 2 c 0,-0.554 0.446,-1 1,-1 h 8 c 0.554,0 1,0.446 1,1 v 8 c 0,0.554 -0.446,1 -1,1 h 1 c 0.553998,0 1,-0.446002 1,-1 V 1 c 0,-0.55399835 -0.446002,-1 -1,-1 z" />
    <path
       id="rect877"
       style="fill:#ffffff;fill-opacity:1;stroke:none;stroke-width:2"
       d="m -34,19 v 4 h 14 v -4 h -2 c 0.554,0 1,0.446 1,1 v 1 c 0,0.554 -0.446,1 -1,1 h -10 c -0.554,0 -1,-0.446 -1,-1 v -1 c 0,-0.554 0.446,-1 1,-1 z" />
  </g>
</svg>
