<?xml version="1.0" encoding="UTF-8" standalone="no"?>
<svg
   xmlns:dc="http://purl.org/dc/elements/1.1/"
   xmlns:cc="http://creativecommons.org/ns#"
   xmlns:rdf="http://www.w3.org/1999/02/22-rdf-syntax-ns#"
   xmlns:svg="http://www.w3.org/2000/svg"
   xmlns="http://www.w3.org/2000/svg"
   xmlns:xlink="http://www.w3.org/1999/xlink"
   xmlns:sodipodi="http://sodipodi.sourceforge.net/DTD/sodipodi-0.dtd"
   xmlns:inkscape="http://www.inkscape.org/namespaces/inkscape"
   version="1.1"
   viewBox="0 0 32 32"
   id="svg161"
   sodipodi:docname="system.svg"
   width="32"
   height="32"
   inkscape:version="1.0.2 (e86c870879, 2021-01-15)">
  <g
     id="22-22-system-suspend"
     transform="translate(-87.025055)">
    <rect
       id="rect4222"
       width="22"
       height="22"
       x="-71.974945"
       y="40"
       style="opacity:0.00100002;fill:currentColor;fill-opacity:1;stroke:none;stroke-width:2;stroke-linecap:round;stroke-linejoin:round;stroke-miterlimit:4;stroke-dasharray:none;stroke-opacity:1" />
    <g
       id="g3305"
       transform="translate(-22.443855,-27.119187)">
      <path
         style="fill:none;fill-opacity:1;stroke:#ffffff;stroke-width:2;stroke-linecap:round;stroke-linejoin:round;stroke-miterlimit:4;stroke-dasharray:none;stroke-opacity:1;paint-order:stroke fill markers"
         id="path3301"
         sodipodi:type="arc"
         sodipodi:cx="-39"
         sodipodi:cy="78"
         sodipodi:rx="7"
         sodipodi:ry="7"
         sodipodi:start="4.9741884"
         sodipodi:end="2.6179939"
         sodipodi:open="true"
         sodipodi:arc-type="arc"
         d="M -37.188266,71.238519 A 7,7 0 0 1 -32,78 7,7 0 0 1 -37.188267,84.761481 7,7 0 0 1 -45.062178,81.5" />
      <path
         style="fill:none;fill-opacity:1;stroke:#ffffff;stroke-width:2;stroke-linecap:round;stroke-linejoin:round;stroke-miterlimit:4;stroke-dasharray:none;stroke-opacity:1;paint-order:stroke fill markers"
         id="path3303"
         sodipodi:type="arc"
         sodipodi:cx="-43.250446"
         sodipodi:cy="74.738518"
         sodipodi:rx="7"
         sodipodi:ry="7"
         sodipodi:start="5.7595865"
         sodipodi:end="1.8325957"
         sodipodi:open="true"
         sodipodi:arc-type="arc"
         d="m -37.188269,71.238518 a 7,7 0 0 1 -0.508704,7.76133 7,7 0 0 1 -7.365207,2.500151" />
    </g>
  </g>
  <g
     id="22-22-system-reboot"
     transform="translate(-86.025053)">
    <rect
       transform="rotate(-90)"
       id="rect4235"
       width="22"
       height="22"
       x="-62"
       y="-31.974947"
       style="opacity:0.00100002;fill:currentColor;fill-opacity:1;stroke:none;stroke-width:2;stroke-linecap:round;stroke-linejoin:round;stroke-miterlimit:4;stroke-dasharray:none;stroke-opacity:1" />
    <g
       id="g3329"
       transform="translate(2,-26.761482)">
      <path
         style="fill:none;fill-opacity:1;stroke:#ffffff;stroke-width:2;stroke-linecap:round;stroke-linejoin:round;stroke-miterlimit:4;stroke-dasharray:none;stroke-opacity:1;paint-order:stroke fill markers"
         id="path3251"
         sodipodi:type="arc"
         sodipodi:cx="23"
         sodipodi:cy="77.761482"
         sodipodi:rx="7"
         sodipodi:ry="7"
         sodipodi:start="3.6651914"
         sodipodi:end="2.6179939"
         sodipodi:open="true"
         sodipodi:arc-type="arc"
         d="M 16.937822,74.261482 A 7,7 0 0 1 24.811733,71.000001 7,7 0 0 1 30,77.761482 7,7 0 0 1 24.811733,84.522963 7,7 0 0 1 16.937822,81.261482"
         transform="scale(-1,1)" />
      <rect
         style="opacity:1;fill:#ffffff;fill-opacity:1;stroke:none;stroke-width:2.19089;stroke-linecap:round;stroke-linejoin:round;stroke-miterlimit:4;stroke-dasharray:none;stroke-opacity:1;paint-order:stroke fill markers"
         id="rect3322"
         width="6"
         height="2"
         x="15"
         y="74"
         ry="1"
         transform="scale(-1,1)" />
      <rect
         style="opacity:1;fill:#ffffff;fill-opacity:1;stroke:none;stroke-width:2.19089;stroke-linecap:round;stroke-linejoin:round;stroke-miterlimit:4;stroke-dasharray:none;stroke-opacity:1;paint-order:stroke fill markers"
         id="rect3324"
         width="6"
         height="2"
         x="70"
         y="-17"
         ry="1"
         transform="matrix(0,1,1,0,0,0)" />
    </g>
  </g>
  <g
     id="22-22-system-shutdown"
     transform="translate(-82.025055)">
    <rect
       id="rect4229"
       width="22"
       height="22"
       x="5.0250545"
       y="40"
       style="opacity:0.00100002;fill:currentColor;fill-opacity:1;stroke:none;stroke-width:2;stroke-linecap:round;stroke-linejoin:round;stroke-miterlimit:4;stroke-dasharray:none;stroke-opacity:1" />
    <g
       id="g3367"
       transform="translate(1.0250545,-26)">
      <path
         style="fill:none;fill-opacity:1;stroke:#ffffff;stroke-width:2;stroke-linecap:round;stroke-linejoin:round;stroke-miterlimit:4;stroke-dasharray:none;stroke-opacity:1;paint-order:stroke fill markers"
         id="path3313"
         sodipodi:type="arc"
         sodipodi:cx="15"
         sodipodi:cy="77.761482"
         sodipodi:rx="7"
         sodipodi:ry="7"
         sodipodi:start="5.2359878"
         sodipodi:end="4.1887902"
         sodipodi:open="true"
         sodipodi:arc-type="arc"
         d="M 18.5,71.699305 A 7,7 0 0 1 21.761481,79.573216 7,7 0 0 1 15,84.761482 7,7 0 0 1 8.2385192,79.573216 7,7 0 0 1 11.5,71.699304" />
      <rect
         style="opacity:1;fill:#ffffff;fill-opacity:1;stroke:none;stroke-width:2;stroke-linecap:round;stroke-linejoin:round;stroke-miterlimit:4;stroke-dasharray:none;stroke-opacity:1;paint-order:stroke fill markers"
         id="rect3363"
         width="2"
         height="9"
         x="14"
         y="69"
         ry="1" />
    </g>
  </g>
  <g
     id="22-22-system-suspend-hibernate"
     transform="translate(35.974945)">
    <rect
       id="rect3395"
       width="22"
       height="22"
       x="-71.974945"
       y="40"
       style="opacity:0.00100002;fill:currentColor;fill-opacity:1;stroke:none;stroke-width:2;stroke-linecap:round;stroke-linejoin:round;stroke-miterlimit:4;stroke-dasharray:none;stroke-opacity:1" />
    <g
       id="g3401"
       transform="translate(-22.443855,-27.119187)">
      <path
         style="fill:none;fill-opacity:1;stroke:#ffffff;stroke-width:2;stroke-linecap:round;stroke-linejoin:round;stroke-miterlimit:4;stroke-dasharray:none;stroke-opacity:1;paint-order:stroke fill markers"
         id="path3397"
         sodipodi:type="arc"
         sodipodi:cx="-39"
         sodipodi:cy="78"
         sodipodi:rx="7"
         sodipodi:ry="7"
         sodipodi:start="4.9741884"
         sodipodi:end="2.6179939"
         sodipodi:open="true"
         sodipodi:arc-type="arc"
         d="M -37.188266,71.238519 A 7,7 0 0 1 -32,78 7,7 0 0 1 -37.188267,84.761481 7,7 0 0 1 -45.062178,81.5" />
      <path
         style="fill:none;fill-opacity:1;stroke:#ffffff;stroke-width:2;stroke-linecap:round;stroke-linejoin:round;stroke-miterlimit:4;stroke-dasharray:none;stroke-opacity:1;paint-order:stroke fill markers"
         id="path3399"
         sodipodi:type="arc"
         sodipodi:cx="-43.250446"
         sodipodi:cy="74.738518"
         sodipodi:rx="7"
         sodipodi:ry="7"
         sodipodi:start="5.7595865"
         sodipodi:end="1.8325957"
         sodipodi:open="true"
         sodipodi:arc-type="arc"
         d="m -37.188269,71.238518 a 7,7 0 0 1 -0.508704,7.76133 7,7 0 0 1 -7.365207,2.500151" />
    </g>
  </g>
  <g
     id="22-22-system-lock-screen"
     transform="translate(-81.025047)">
    <rect
       id="rect4255"
       width="22"
       height="22"
       x="127.02505"
       y="40"
       style="opacity:0.00100002;fill:currentColor;fill-opacity:1;stroke:none;stroke-width:2;stroke-linecap:round;stroke-linejoin:round;stroke-miterlimit:4;stroke-dasharray:none;stroke-opacity:1" />
    <g
       id="g3466"
       transform="translate(-0.9749527,-11)">
      <path
         id="rect3451"
         style="opacity:1;fill:#ffffff;fill-opacity:1;stroke:none;stroke-width:2;stroke-linecap:round;stroke-linejoin:round;stroke-miterlimit:4;stroke-dasharray:none;stroke-opacity:1;paint-order:stroke fill markers"
         d="m 133,60 c -1.108,0 -2,0.892 -2,2 v 6 c 0,1.108 0.892,2 2,2 h 12 c 1.108,0 2,-0.892 2,-2 v -6 c 0,-1.108 -0.892,-2 -2,-2 z m 1,2 h 10 c 0.554,0 1,0.446 1,1 v 4 c 0,0.554 -0.446,1 -1,1 h -10 c -0.554,0 -1,-0.446 -1,-1 v -4 c 0,-0.554 0.446,-1 1,-1 z" />
      <path
         id="rect3456"
         style="opacity:1;fill:#ffffff;fill-opacity:1;stroke:none;stroke-width:2.73862;stroke-linecap:round;stroke-linejoin:round;stroke-miterlimit:4;stroke-dasharray:none;stroke-opacity:1;paint-order:stroke fill markers"
         d="m 139,54 c -2.77,0 -5,2.23 -5,5 v 1 h 2 v -1 c 0,-1.662003 1.338,-3 3,-3 1.662,0 3,1.337997 3,3 v 1 h 1 c 0.34745,0 0.679,0.05617 1,0.138672 V 59 c 0,-2.77 -2.23,-5 -5,-5 z" />
    </g>
  </g>
  <g
     id="22-22-system-switch-user"
     transform="translate(-83.025055)">
    <rect
       id="rect4220"
       width="22"
       height="22"
       x="170.02505"
       y="40"
       style="opacity:0.00100002;fill:currentColor;fill-opacity:1;stroke:none;stroke-width:2;stroke-linecap:round;stroke-linejoin:round;stroke-miterlimit:4;stroke-dasharray:none;stroke-opacity:1" />
    <g
       id="g3494"
       transform="translate(1.4939575,-19.5)">
      <path
         style="fill:none;fill-opacity:1;stroke:#ffffff;stroke-width:2;stroke-linecap:round;stroke-linejoin:round;stroke-miterlimit:4;stroke-dasharray:none;stroke-opacity:1;paint-order:stroke fill markers"
         id="path3405"
         sodipodi:type="arc"
         sodipodi:cx="179.5311"
         sodipodi:cy="78"
         sodipodi:rx="7"
         sodipodi:ry="7"
         sodipodi:start="3.1415927"
         sodipodi:end="0"
         sodipodi:arc-type="arc"
         sodipodi:open="true"
         d="m 172.5311,78 a 7,7 0 0 1 7,-7 7,7 0 0 1 7,7" />
      <circle
         style="opacity:1;fill:none;fill-opacity:1;stroke:#ffffff;stroke-width:2;stroke-linecap:round;stroke-linejoin:round;stroke-miterlimit:4;stroke-dasharray:none;stroke-opacity:1;paint-order:stroke fill markers"
         id="path3490"
         cx="179.49844"
         cy="67"
         r="4" />
    </g>
  </g>
  <metadata
     id="metadata167">
    <rdf:RDF>
      <cc:Work
         rdf:about="">
        <dc:format>image/svg+xml</dc:format>
        <dc:type
           rdf:resource="http://purl.org/dc/dcmitype/StillImage" />
        <dc:title />
      </cc:Work>
    </rdf:RDF>
  </metadata>
  <defs
     id="defs165">
    <linearGradient
       y2="-1.974026"
       y1="132.29518"
       x2="47.061718"
       x1="44.670544"
       gradientUnits="userSpaceOnUse"
       id="a"
       gradientTransform="matrix(-0.12499062,0,0,0.12499062,21.982161,7.93888)">
      <stop
         id="stop2"
         stop-color="#566069"
         offset="0" />
      <stop
         id="stop4"
         stop-color="#6c7884"
         offset="1" />
    </linearGradient>
    <style
       id="current-color-scheme-7"
       type="text/css">.ColorScheme-Text {
        color:#31363b;
      }
      .ColorScheme-Background{
        color:#E9E8E8;
      }
      .ColorScheme-ViewText {
        color:#000000;
      }
      .ColorScheme-ViewBackground{
        color:#ffffff;
      }
      .ColorScheme-ViewHover {
        color:#000000;
      }
      .ColorScheme-ViewFocus{
        color:#5a5a5a;
      }
      .ColorScheme-ButtonText {
        color:#000000;
      }
      .ColorScheme-ButtonBackground{
        color:#E9E8E8;
      }
      .ColorScheme-ButtonHover {
        color:#1489ff;
      }
      .ColorScheme-ButtonFocus{
        color:#2B74C7;
      }</style>
    <linearGradient
       gradientTransform="matrix(0.04836713,0,0,0.04836713,6.757719,6.7179417)"
       id="b"
       gradientUnits="userSpaceOnUse"
       x1="167.45781"
       x2="167.45781"
       y1="569.97095"
       y2="-138.89499">
      <stop
         offset="0"
         stop-color="#566069"
         id="stop7" />
      <stop
         offset="1"
         stop-color="#6c7884"
         id="stop9" />
    </linearGradient>
    <filter
       style="color-interpolation-filters:sRGB"
       height="1.048"
       width="1.048"
       y="-0.024"
       x="-0.024"
       id="filter11290-9">
      <feGaussianBlur
         id="feGaussianBlur2429"
         stdDeviation="0.15875313" />
    </filter>
    <linearGradient
       gradientUnits="userSpaceOnUse"
       gradientTransform="matrix(3.779602,0,0,3.779602,-113.72773,-93.746109)"
       y2="16.258831"
       y1="0.66125214"
       x2="0.96273035"
       x1="16.56031"
       id="linearGradient1005-3">
      <stop
         id="stop2432"
         offset="0"
         stop-color="#ff963c" />
      <stop
         id="stop2434"
         offset="1"
         stop-color="#ffdc55" />
    </linearGradient>
    <linearGradient
       gradientTransform="matrix(0.03686754,0,0,0.03686754,-112.0988,5.9011367)"
       id="c"
       gradientUnits="userSpaceOnUse"
       x1="287.5155"
       x2="281.45969"
       xlink:href="#d"
       y1="711.76459"
       y2="-158.68048" />
    <linearGradient
       id="d">
      <stop
         offset="0"
         stop-color="#566069"
         id="stop9-3" />
      <stop
         offset="1"
         stop-color="#6c7884"
         id="stop11" />
    </linearGradient>
    <linearGradient
       y2="-158.68048"
       y1="711.76459"
       xlink:href="#d"
       x2="281.45969"
       x1="287.5155"
       gradientUnits="userSpaceOnUse"
       id="c-7"
       gradientTransform="matrix(0.03686754,0,0,0.03686754,-101.29932,5.9011367)" />
    <linearGradient
       inkscape:collect="always"
       id="linearGradient1724">
      <stop
         style="stop-color:#323232;stop-opacity:1"
         offset="0"
         id="stop1720" />
      <stop
         style="stop-color:#464646;stop-opacity:0.99607843"
         offset="1"
         id="stop1722" />
    </linearGradient>
    <linearGradient
       inkscape:collect="always"
       xlink:href="#linearGradient1724"
       id="linearGradient1016"
       gradientUnits="userSpaceOnUse"
       gradientTransform="translate(-78)"
       x1="16"
       y1="25"
       x2="16"
       y2="0" />
  </defs>
  <sodipodi:namedview
     pagecolor="#c8c8c8"
     bordercolor="#666666"
     borderopacity="1"
     objecttolerance="10"
     gridtolerance="10"
     guidetolerance="10"
     inkscape:pageopacity="0"
     inkscape:pageshadow="2"
     inkscape:window-width="1920"
     inkscape:window-height="942"
     id="namedview163"
     showgrid="true"
     inkscape:snap-bbox="true"
     inkscape:bbox-nodes="true"
     inkscape:zoom="1.4142136"
     inkscape:cx="-197.84687"
     inkscape:cy="72.658293"
     inkscape:window-x="0"
     inkscape:window-y="38"
     inkscape:window-maximized="1"
     inkscape:current-layer="svg161"
     inkscape:object-nodes="true"
     inkscape:snap-bbox-edge-midpoints="true"
     inkscape:document-rotation="0"
     showguides="true"
     inkscape:guide-bbox="true"
     inkscape:snap-smooth-nodes="true">
    <inkscape:grid
       type="xygrid"
       id="grid1006" />
  </sodipodi:namedview>
  <style
     id="current-color-scheme"
     type="text/css">.ColorScheme-Text { color:#333333; }</style>
  <circle
     cx="98"
     cy="-162"
     r="0"
     id="circle88"
     style="fill:url(#a)" />
  <g
     id="g1071"
     transform="translate(-76.000003,-32.000456)" />
  <g
     id="system-log-out">
    <circle
       style="opacity:0.00100002;fill:none;fill-opacity:1;stroke:#323232;stroke-width:2.00013;stroke-miterlimit:4;stroke-dasharray:none;stroke-opacity:1"
       id="path6762"
       cx="16"
       cy="16"
       r="14.999935" />
    <path
       id="path1118"
       style="fill:#ffffff;stroke-width:1.33333"
       d="M 16,0 A 16,16 0 0 0 0,16 16,16 0 0 0 16,32 16,16 0 0 0 32,16 16,16 0 0 0 16,0 Z m 0,2 A 14,14 0 0 1 30,16 14,14 0 0 1 16,30 14,14 0 0 1 2,16 14,14 0 0 1 16,2 Z" />
    <g
       id="g1286"
       transform="translate(-3.9999995,26)">
      <rect
         style="fill:#ffffff;fill-opacity:1;stroke:none;stroke-width:0.292448;stroke-linecap:round;stroke-linejoin:round;stroke-miterlimit:4;stroke-dasharray:none;stroke-opacity:1"
         id="rect1249"
         width="2"
         height="13"
         x="23.748737"
         y="-11.605315"
         ry="1"
         transform="matrix(0.70710678,-0.70710678,-0.70710678,-0.70710678,0,0)"
         rx="0" />
      <rect
         style="fill:#ffffff;fill-opacity:1;stroke:none;stroke-width:0.292448;stroke-linecap:round;stroke-linejoin:round;stroke-miterlimit:4;stroke-dasharray:none;stroke-opacity:1"
         id="rect1282"
         width="2"
         height="13"
         x="9.6066008"
         y="-25.747452"
         ry="1"
         transform="rotate(45)"
         rx="0" />
    </g>
  </g>
  <g
     id="system-lock-screen"
     transform="translate(-1)">
    <circle
       r="14.999935"
       cy="16"
       cx="58"
       id="circle1008"
       style="opacity:0.00100002;fill:none;fill-opacity:1;stroke:#323232;stroke-width:2.00013;stroke-miterlimit:4;stroke-dasharray:none;stroke-opacity:1" />
    <g
       id="g1486"
       transform="translate(2,40)">
      <path
         id="path1410"
         style="fill:#ffffff;stroke-width:1.33333"
         d="M 56,-40 A 16,16 0 0 0 40,-24 16,16 0 0 0 56,-8 16,16 0 0 0 72,-24 16,16 0 0 0 56,-40 Z m 0,2 a 14,14 0 0 1 14,14 14,14 0 0 1 -14,14 14,14 0 0 1 -14,-14 14,14 0 0 1 14,-14 z" />
      <g
         transform="translate(-84.5,-3)"
         id="g1480"
         style="fill:#ffffff;fill-opacity:1">
        <rect
           style="fill:#ffffff;fill-opacity:1;stroke:none;stroke-width:2.31451;stroke-miterlimit:4;stroke-dasharray:none;stroke-opacity:1"
           id="rect1476"
           width="13"
           height="8"
           x="134"
           y="-21"
           ry="1.3333333" />
        <path
           sodipodi:nodetypes="ssscssscsss"
           style="fill:#ffffff;fill-opacity:1;stroke:none;stroke-width:2.13809;stroke-miterlimit:4;stroke-dasharray:none;stroke-opacity:1"
           d="m 140.51675,-29 c -2.216,0 -4,1.560999 -4,3.5 v 4.328124 c 0,1.399387 0.64981,2.591425 2,3.152343 V -25.5 c 0,-0.830999 1.05029,-1.5 2,-1.5 0.94971,0 2,0.669001 2,1.5 v 7.480469 c 1.35019,-0.560919 2,-1.752957 2,-3.152344 v -4.328124 c 0,-1.939 -1.784,-3.5 -4,-3.500001 z"
           id="path1478"
           inkscape:connector-curvature="0" />
      </g>
    </g>
  </g>
  <g
     id="system-switch-user"
     transform="translate(-3.0000001)">
    <circle
       style="opacity:0.00100002;fill:none;fill-opacity:1;stroke:#323232;stroke-width:2.00013;stroke-miterlimit:4;stroke-dasharray:none;stroke-opacity:1"
       id="circle1016"
       cx="101"
       cy="16"
       r="14.999935" />
    <g
       id="g1542"
       transform="translate(0,40)">
      <path
         id="path1453"
         style="fill:#ffffff;stroke-width:1.33333"
         d="m 101,-40 a 16,16 0 0 0 -16,16 16,16 0 0 0 16,16 16,16 0 0 0 16,-16 16,16 0 0 0 -16,-16 z m 0,2 a 14,14 0 0 1 14,14 14,14 0 0 1 -14,14 14,14 0 0 1 -14,-14 14,14 0 0 1 14,-14 z" />
      <g
         id="g1518"
         style="fill:#ffffff;fill-opacity:1"
         transform="translate(1,2.5)">
        <path
           style="color:#000000;font-style:normal;font-variant:normal;font-weight:normal;font-stretch:normal;font-size:medium;line-height:normal;font-family:sans-serif;font-variant-ligatures:normal;font-variant-position:normal;font-variant-caps:normal;font-variant-numeric:normal;font-variant-alternates:normal;font-variant-east-asian:normal;font-feature-settings:normal;font-variation-settings:normal;text-indent:0;text-align:start;text-decoration:none;text-decoration-line:none;text-decoration-style:solid;text-decoration-color:#000000;letter-spacing:normal;word-spacing:normal;text-transform:none;writing-mode:lr-tb;direction:ltr;text-orientation:mixed;dominant-baseline:auto;baseline-shift:baseline;text-anchor:start;white-space:normal;shape-padding:0;shape-margin:0;inline-size:0;clip-rule:nonzero;display:inline;overflow:visible;visibility:visible;opacity:1;isolation:auto;mix-blend-mode:normal;color-interpolation:sRGB;color-interpolation-filters:linearRGB;solid-color:#000000;solid-opacity:1;vector-effect:none;fill:#ffffff;fill-opacity:1;fill-rule:nonzero;stroke:none;stroke-width:1.9999;stroke-linecap:round;stroke-linejoin:miter;stroke-miterlimit:4;stroke-dasharray:none;stroke-dashoffset:0;stroke-opacity:1;color-rendering:auto;image-rendering:auto;shape-rendering:auto;text-rendering:auto;enable-background:accumulate;stop-color:#000000;stop-opacity:1"
           d="m 100,-35 c -2.74958,0 -5,2.25042 -5,5 0,2.74958 2.25042,5 5,5 2.74958,-1e-6 5,-2.25042 5,-5 0,-2.74958 -2.25042,-4.999999 -5,-5 z m 0,2 c 1.66875,0 3,1.331246 3,3 0,1.668754 -1.33125,3 -3,3 -1.668754,0 -3,-1.331246 -3,-3 0,-1.668754 1.331246,-3 3,-3 z"
           id="path1528" />
        <path
           style="color:#000000;font-style:normal;font-variant:normal;font-weight:normal;font-stretch:normal;font-size:medium;line-height:normal;font-family:sans-serif;font-variant-ligatures:normal;font-variant-position:normal;font-variant-caps:normal;font-variant-numeric:normal;font-variant-alternates:normal;font-variant-east-asian:normal;font-feature-settings:normal;font-variation-settings:normal;text-indent:0;text-align:start;text-decoration:none;text-decoration-line:none;text-decoration-style:solid;text-decoration-color:#000000;letter-spacing:normal;word-spacing:normal;text-transform:none;writing-mode:lr-tb;direction:ltr;text-orientation:mixed;dominant-baseline:auto;baseline-shift:baseline;text-anchor:start;white-space:normal;shape-padding:0;shape-margin:0;inline-size:0;clip-rule:nonzero;display:inline;overflow:visible;visibility:visible;opacity:1;isolation:auto;mix-blend-mode:normal;color-interpolation:sRGB;color-interpolation-filters:linearRGB;solid-color:#000000;solid-opacity:1;vector-effect:none;fill:#ffffff;fill-opacity:1;fill-rule:nonzero;stroke:none;stroke-width:1.7777;stroke-linecap:round;stroke-linejoin:miter;stroke-miterlimit:4;stroke-dasharray:none;stroke-dashoffset:0;stroke-opacity:1;color-rendering:auto;image-rendering:auto;shape-rendering:auto;text-rendering:auto;enable-background:accumulate;stop-color:#000000;stop-opacity:1"
           d="m 100,-26.888672 c -4.40775,0 -8,3.59225 -8,8 A 0.88884997,0.88884997 0 0 0 92.888672,-18 a 0.88884997,0.88884997 0 0 0 0.888672,-0.888672 c 0,-3.44701 2.775646,-6.222656 6.222656,-6.222656 3.44701,0 6.22266,2.775646 6.22266,6.222656 A 0.88884997,0.88884997 0 0 0 107.11133,-18 0.88884997,0.88884997 0 0 0 108,-18.888672 c 0,-4.40775 -3.59225,-7.999999 -8,-8 z"
           id="path1523" />
      </g>
    </g>
  </g>
  <g
     id="system-suspend"
     transform="translate(-84,72)">
    <rect
       style="opacity:0;fill:#000000;fill-opacity:1;fill-rule:evenodd;stroke:none;stroke-width:2;stroke-linecap:round;stroke-linejoin:round;stroke-miterlimit:4;stroke-dasharray:none;stroke-opacity:1;paint-order:fill markers stroke"
       id="rect3642"
       width="32"
       height="32"
       x="-80"
       y="-72"
       rx="0"
       ry="0" />
    <circle
       style="opacity:1;fill:none;fill-opacity:1;stroke:#ffffff;stroke-width:2;stroke-linecap:round;stroke-linejoin:round;stroke-miterlimit:4;stroke-dasharray:none;stroke-opacity:1;paint-order:stroke fill markers"
       id="path3264"
       cx="-64"
       cy="-56"
       r="14" />
    <path
       style="opacity:1;fill:none;fill-opacity:1;stroke:#ffffff;stroke-width:2;stroke-linecap:round;stroke-linejoin:round;stroke-miterlimit:4;stroke-dasharray:none;stroke-opacity:1;paint-order:stroke fill markers"
       id="path3276"
       sodipodi:type="arc"
       sodipodi:cx="-64"
       sodipodi:cy="-56"
       sodipodi:rx="8"
       sodipodi:ry="8"
       sodipodi:start="4.9741884"
       sodipodi:end="2.6179939"
       sodipodi:open="true"
       sodipodi:arc-type="arc"
       d="M -61.929447,-63.727407 A 8,8 0 0 1 -56,-56 8,8 0 0 1 -61.929448,-48.272593 8,8 0 0 1 -70.928203,-52" />
    <path
       style="opacity:1;fill:none;fill-opacity:1;stroke:#ffffff;stroke-width:2;stroke-linecap:round;stroke-linejoin:round;stroke-miterlimit:4;stroke-dasharray:none;stroke-opacity:1;paint-order:stroke fill markers"
       id="path3286"
       sodipodi:type="arc"
       sodipodi:cx="-68.857651"
       sodipodi:cy="-59.727406"
       sodipodi:rx="8"
       sodipodi:ry="8"
       sodipodi:start="5.7595865"
       sodipodi:end="1.8325957"
       sodipodi:open="true"
       sodipodi:arc-type="arc"
       d="m -61.929448,-63.727406 a 8,8 0 0 1 -0.581376,8.870092 8,8 0 0 1 -8.417379,2.857315" />
  </g>
  <g
     id="system-shutdown"
     transform="translate(-82.000001,72)">
    <rect
       style="opacity:0;fill:#000000;fill-opacity:1;fill-rule:evenodd;stroke:none;stroke-width:2;stroke-linecap:round;stroke-linejoin:round;stroke-miterlimit:4;stroke-dasharray:none;stroke-opacity:1;paint-order:fill markers stroke"
       id="rect3699"
       width="32"
       height="32"
       x="6.2499998e-07"
       y="-72"
       rx="0"
       ry="0" />
    <rect
       style="fill:#ffffff;fill-opacity:1;stroke:none;stroke-width:2;stroke-linecap:butt;stroke-linejoin:bevel;stroke-miterlimit:4;stroke-dasharray:none;stroke-opacity:1"
       id="rect3705"
       width="2"
       height="8"
       x="15"
       y="-64.5"
       ry="1" />
    <circle
       style="opacity:1;fill:none;fill-opacity:1;stroke:#ffffff;stroke-width:2;stroke-linecap:round;stroke-linejoin:round;stroke-miterlimit:4;stroke-dasharray:none;stroke-opacity:1;paint-order:stroke fill markers"
       id="circle3288"
       cx="16"
       cy="-56"
       r="14" />
    <path
       style="fill:none;fill-opacity:1;stroke:#ffffff;stroke-width:2;stroke-linecap:round;stroke-linejoin:round;stroke-miterlimit:4;stroke-dasharray:none;stroke-opacity:1;paint-order:stroke fill markers"
       id="path3320"
       sodipodi:type="arc"
       sodipodi:cx="16"
       sodipodi:cy="-56"
       sodipodi:rx="8"
       sodipodi:ry="8"
       sodipodi:start="5.2359878"
       sodipodi:end="4.1887902"
       sodipodi:open="true"
       sodipodi:arc-type="arc"
       d="m 20,-62.928203 a 8,8 0 0 1 3.727407,8.998756 A 8,8 0 0 1 16,-48 8,8 0 0 1 8.2725934,-53.929448 8,8 0 0 1 12,-62.928203" />
  </g>
  <g
     id="system-reboot"
     transform="translate(-83,72)">
    <rect
       ry="0"
       rx="0"
       y="-72"
       x="-40"
       height="32"
       width="32"
       id="rect3663"
       style="opacity:0;fill:#000000;fill-opacity:1;fill-rule:evenodd;stroke:none;stroke-width:2;stroke-linecap:round;stroke-linejoin:round;stroke-miterlimit:4;stroke-dasharray:none;stroke-opacity:1;paint-order:fill markers stroke" />
    <rect
       style="fill:#ffffff;fill-opacity:1;stroke:none;stroke-width:2.19089;stroke-linecap:butt;stroke-linejoin:bevel;stroke-miterlimit:4;stroke-dasharray:none;stroke-opacity:1"
       id="rect3669"
       width="6"
       height="2"
       x="-21.999996"
       y="-60.999996"
       ry="1" />
    <rect
       transform="rotate(90)"
       ry="1"
       y="16"
       x="-65"
       height="2"
       width="6"
       id="rect3671"
       style="fill:#ffffff;fill-opacity:1;stroke:none;stroke-width:2.19089;stroke-linecap:butt;stroke-linejoin:bevel;stroke-miterlimit:4;stroke-dasharray:none;stroke-opacity:1" />
    <circle
       style="fill:none;fill-opacity:1;stroke:#ffffff;stroke-width:2;stroke-linecap:round;stroke-linejoin:round;stroke-miterlimit:4;stroke-dasharray:none;stroke-opacity:1;paint-order:stroke fill markers"
       id="circle3266"
       cx="-24"
       cy="-56"
       r="14" />
    <path
       style="fill:none;fill-opacity:1;stroke:#ffffff;stroke-width:2;stroke-linecap:round;stroke-linejoin:round;stroke-miterlimit:4;stroke-dasharray:none;stroke-opacity:1;paint-order:stroke fill markers"
       id="path3347"
       sodipodi:type="arc"
       sodipodi:cx="-24"
       sodipodi:cy="-56"
       sodipodi:rx="8"
       sodipodi:ry="8"
       sodipodi:start="0.52359878"
       sodipodi:end="5.7595865"
       sodipodi:open="true"
       sodipodi:arc-type="arc"
       d="m -17.071797,-52 a 8,8 0 0 1 -8.998755,3.727407 A 8,8 0 0 1 -32,-56 8,8 0 0 1 -26.070553,-63.727407 8,8 0 0 1 -17.071797,-60" />
  </g>
  <g
     id="system-suspend-hibernate"
     transform="translate(39,72)">
    <rect
       style="opacity:0;fill:#000000;fill-opacity:1;fill-rule:evenodd;stroke:none;stroke-width:2;stroke-linecap:round;stroke-linejoin:round;stroke-miterlimit:4;stroke-dasharray:none;stroke-opacity:1;paint-order:fill markers stroke"
       id="rect3439"
       width="32"
       height="32"
       x="-80"
       y="-72"
       rx="0"
       ry="0" />
    <circle
       style="opacity:1;fill:none;fill-opacity:1;stroke:#ffffff;stroke-width:2;stroke-linecap:round;stroke-linejoin:round;stroke-miterlimit:4;stroke-dasharray:none;stroke-opacity:1;paint-order:stroke fill markers"
       id="circle3441"
       cx="-64"
       cy="-56"
       r="14" />
    <path
       style="opacity:1;fill:none;fill-opacity:1;stroke:#ffffff;stroke-width:2;stroke-linecap:round;stroke-linejoin:round;stroke-miterlimit:4;stroke-dasharray:none;stroke-opacity:1;paint-order:stroke fill markers"
       id="path3443"
       sodipodi:type="arc"
       sodipodi:cx="64"
       sodipodi:cy="-56"
       sodipodi:rx="8"
       sodipodi:ry="8"
       sodipodi:start="4.9741884"
       sodipodi:end="2.6179939"
       sodipodi:open="true"
       sodipodi:arc-type="arc"
       transform="scale(-1,1)"
       d="M 66.070553,-63.727407 A 8,8 0 0 1 72,-56 8,8 0 0 1 66.070552,-48.272593 8,8 0 0 1 57.071797,-52" />
    <path
       style="opacity:1;fill:none;fill-opacity:1;stroke:#ffffff;stroke-width:2;stroke-linecap:round;stroke-linejoin:round;stroke-miterlimit:4;stroke-dasharray:none;stroke-opacity:1;paint-order:stroke fill markers"
       id="path3445"
       sodipodi:type="arc"
       sodipodi:cx="59.142349"
       sodipodi:cy="-59.727406"
       sodipodi:rx="8"
       sodipodi:ry="8"
       sodipodi:start="5.7595865"
       sodipodi:end="1.8325957"
       sodipodi:open="true"
       sodipodi:arc-type="arc"
       transform="scale(-1,1)"
       d="m 66.070552,-63.727406 a 8,8 0 0 1 -0.581376,8.870092 8,8 0 0 1 -8.417379,2.857315" />
  </g>
  <g
     id="22-22-system-log-out"
     transform="translate(-80.025047,-4.58e-4)">
    <rect
       transform="scale(-1,1)"
       id="rect4242"
       width="22"
       height="22"
       x="-107.02505"
       y="40"
       style="opacity:0.00100002;fill:currentColor;fill-opacity:1;stroke:none;stroke-width:2;stroke-linecap:round;stroke-linejoin:round;stroke-miterlimit:4;stroke-dasharray:none;stroke-opacity:1" />
    <g
       id="g3422"
       transform="translate(4.0250469,-14.999542)">
      <rect
         style="opacity:1;fill:#ffffff;fill-opacity:1;stroke:none;stroke-width:2;stroke-linecap:round;stroke-linejoin:round;stroke-miterlimit:4;stroke-dasharray:none;stroke-opacity:1;paint-order:stroke fill markers"
         id="rect3415"
         width="10"
         height="2"
         x="104.84355"
         y="-21.506744"
         ry="1"
         transform="rotate(45)" />
      <rect
         style="opacity:1;fill:#ffffff;fill-opacity:1;stroke:none;stroke-width:2;stroke-linecap:round;stroke-linejoin:round;stroke-miterlimit:4;stroke-dasharray:none;stroke-opacity:1;paint-order:stroke fill markers"
         id="rect3417"
         width="10"
         height="2"
         x="11.506102"
         y="-114.84418"
         ry="1"
         transform="matrix(0.70710678,-0.70710678,-0.70710678,-0.70710678,0,0)" />
    </g>
  </g>
</svg>
