<?xml version="1.0" encoding="UTF-8" standalone="no"?>
<svg
   xmlns:dc="http://purl.org/dc/elements/1.1/"
   xmlns:cc="http://creativecommons.org/ns#"
   xmlns:rdf="http://www.w3.org/1999/02/22-rdf-syntax-ns#"
   xmlns:svg="http://www.w3.org/2000/svg"
   xmlns="http://www.w3.org/2000/svg"
   xmlns:xlink="http://www.w3.org/1999/xlink"
   xmlns:sodipodi="http://sodipodi.sourceforge.net/DTD/sodipodi-0.dtd"
   xmlns:inkscape="http://www.inkscape.org/namespaces/inkscape"
   version="1.0"
   inkscape:export-ydpi="90"
   inkscape:export-xdpi="90"
   inkscape:export-filename="/home/pinheiro/Documents/pics/estilo/plasma/wether.png"
   inkscape:output_extension="org.inkscape.output.svgz.inkscape"
   sodipodi:docname="lineedit.svg"
   height="57"
   width="17"
   inkscape:version="1.0.2 (e86c870879, 2021-01-15)"
   sodipodi:version="0.32"
   id="svg2">
  <sodipodi:namedview
     inkscape:document-rotation="0"
     inkscape:snap-nodes="false"
     inkscape:snap-bbox-edge-midpoints="true"
     inkscape:window-maximized="1"
     inkscape:object-nodes="true"
     inkscape:snap-global="true"
     inkscape:bbox-nodes="true"
     inkscape:object-paths="true"
     inkscape:snap-bbox="true"
     inkscape:snap-guide="false"
     inkscape:guide-bbox="true"
     showguides="true"
     showgrid="true"
     inkscape:current-layer="svg2"
     inkscape:window-y="38"
     inkscape:window-x="0"
     inkscape:cy="85.698631"
     inkscape:cx="62.251876"
     inkscape:zoom="3.9999998"
     id="base"
     pagecolor="#3a3a3a"
     bordercolor="#666666"
     borderopacity="1.0"
     objecttolerance="10.0"
     gridtolerance="10.0"
     guidetolerance="10.0"
     inkscape:pageopacity="1"
     inkscape:pageshadow="2"
     inkscape:window-width="1920"
     inkscape:window-height="960">
    <inkscape:grid
       empopacity="0.09411765"
       empcolor="#ffffff"
       opacity="0.04705882"
       color="#8d8dff"
       snapvisiblegridlinesonly="true"
       empspacing="5"
       enabled="true"
       visible="true"
       id="grid5592"
       type="xygrid" />
  </sodipodi:namedview>
  <metadata
     id="metadata7">
    <rdf:RDF>
      <cc:Work
         rdf:about="">
        <dc:format>image/svg+xml</dc:format>
        <dc:type
           rdf:resource="http://purl.org/dc/dcmitype/StillImage" />
        <dc:title />
      </cc:Work>
      <cc:Work
         rdf:about="">
        <dc:format>image/svg+xml</dc:format>
        <dc:type
           rdf:resource="http://purl.org/dc/dcmitype/StillImage" />
      </cc:Work>
    </rdf:RDF>
  </metadata>
  <defs
     id="defs5">
    <linearGradient
       id="linearGradient4119">
      <stop
         id="stop4121"
         offset="0"
         style="stop-color:#3daee9;stop-opacity:0.40000001;" />
      <stop
         id="stop4123"
         offset="1"
         style="stop-color:#3daee9;stop-opacity:0;" />
    </linearGradient>
    <linearGradient
       id="linearGradient4079">
      <stop
         style="stop-color:#3daee9;stop-opacity:0.80000001;"
         offset="0"
         id="stop4081" />
      <stop
         style="stop-color:#3daee9;stop-opacity:0;"
         offset="1"
         id="stop4083" />
    </linearGradient>
    <linearGradient
       id="linearGradient3990">
      <stop
         id="stop3992"
         offset="0"
         style="stop-color:#232629;stop-opacity:0.2;" />
      <stop
         id="stop3994"
         offset="1"
         style="stop-color:#232629;stop-opacity:0;" />
    </linearGradient>
    <linearGradient
       id="linearGradient6038">
      <stop
         id="stop6040"
         offset="0"
         style="stop-color:#0626a8;stop-opacity:0.79607844;" />
      <stop
         id="stop6042"
         offset="1"
         style="stop-color:#0626a8;stop-opacity:0;" />
    </linearGradient>
    <linearGradient
       id="linearGradient5085">
      <stop
         style="stop-color:#71dbff;stop-opacity:0.58823532;"
         offset="0"
         id="stop5087" />
      <stop
         style="stop-color:#71dbff;stop-opacity:0;"
         offset="1"
         id="stop5089" />
    </linearGradient>
    <linearGradient
       id="linearGradient4932">
      <stop
         id="stop4934"
         offset="0"
         style="stop-color:#000000;stop-opacity:0.00392157;" />
      <stop
         id="stop4936"
         offset="1"
         style="stop-color:#000000;stop-opacity:0;" />
    </linearGradient>
    <linearGradient
       id="linearGradient8746">
      <stop
         style="stop-color:#ffffff;stop-opacity:0.83464569;"
         offset="0"
         id="stop8748" />
      <stop
         style="stop-color:#ffffff;stop-opacity:0.43307087;"
         offset="1"
         id="stop8750" />
    </linearGradient>
    <linearGradient
       inkscape:collect="always"
       id="linearGradient8734">
      <stop
         style="stop-color:#ffffff;stop-opacity:1;"
         offset="0"
         id="stop8736" />
      <stop
         style="stop-color:#ffffff;stop-opacity:0;"
         offset="1"
         id="stop8738" />
    </linearGradient>
    <radialGradient
       r="70"
       fy="134.42079"
       fx="356.92679"
       cy="132.71753"
       cx="354.30826"
       gradientTransform="matrix(0.9448618,0,0,0.2065601,-7.370926,65.82164)"
       gradientUnits="userSpaceOnUse"
       id="radialGradient4717"
       xlink:href="#linearGradient8734"
       inkscape:collect="always" />
    <radialGradient
       r="70"
       fy="134.42079"
       fx="356.92679"
       cy="132.71753"
       cx="354.30826"
       gradientTransform="matrix(3.6063428e-2,0,0,0.2065601,253.64233,65.82164)"
       gradientUnits="userSpaceOnUse"
       id="radialGradient4729"
       xlink:href="#linearGradient8734"
       inkscape:collect="always" />
    <mask
       id="mask3902"
       maskUnits="userSpaceOnUse">
      <rect
         style="fill:#ffffff;fill-opacity:1;fill-rule:nonzero;stroke:none"
         id="rect3904"
         width="32"
         height="17"
         x="-55"
         y="10"
         ry="2.077126"
         rx="2.077126" />
    </mask>
    <linearGradient
       inkscape:collect="always"
       xlink:href="#linearGradient8746"
       id="linearGradient5007"
       gradientUnits="userSpaceOnUse"
       gradientTransform="translate(-285,-161)"
       x1="333.51367"
       y1="149.98631"
       x2="333.51367"
       y2="210.10277" />
    <radialGradient
       inkscape:collect="always"
       xlink:href="#linearGradient8734"
       id="radialGradient5009"
       gradientUnits="userSpaceOnUse"
       gradientTransform="matrix(1.7796094,-1.5772391e-7,2.5458663e-8,0.2845765,-562.13461,-41.27396)"
       cx="355.5"
       cy="231.10249"
       fx="355.5"
       fy="231.10249"
       r="70" />
    <radialGradient
       inkscape:collect="always"
       xlink:href="#linearGradient8734"
       id="radialGradient5011"
       gradientUnits="userSpaceOnUse"
       gradientTransform="matrix(0.9448618,0,0,0.2065601,-266.37093,-33.17836)"
       cx="354.30826"
       cy="132.71753"
       fx="356.92679"
       fy="134.42079"
       r="70" />
    <linearGradient
       y2="36"
       x2="34"
       y1="27"
       x1="34"
       gradientUnits="userSpaceOnUse"
       id="linearGradient5614"
       xlink:href="#linearGradient5085"
       inkscape:collect="always" />
    <linearGradient
       y2="36"
       x2="34"
       y1="27"
       x1="34"
       gradientUnits="userSpaceOnUse"
       id="linearGradient5616"
       xlink:href="#linearGradient5085"
       inkscape:collect="always" />
    <linearGradient
       y2="-33"
       x2="186"
       y1="-35"
       x1="186"
       gradientUnits="userSpaceOnUse"
       id="linearGradient4117"
       xlink:href="#linearGradient4119"
       inkscape:collect="always" />
    <style
       type="text/css"
       id="current-color-scheme">      .ColorScheme-Text {
        color:#31363b;
      }
      .ColorScheme-Background{
        color:#eff0f1;
      }
      .ColorScheme-ViewText {
        color:#31363b;
      }
      .ColorScheme-ViewBackground{
        color:#fcfcfc;
      }
      .ColorScheme-ViewHover {
        color:#3daee9;
      }
      .ColorScheme-ViewFocus{
        color:#3daee9;
      }
      .ColorScheme-ButtonText {
        color:#31363b;
      }
      .ColorScheme-ButtonBackground{
        color:#eff0f1;
      }
      .ColorScheme-ButtonHover {
        color:#3daee9;
      }
      .ColorScheme-ButtonFocus{
        color:#3daee9;
      }</style>
    <linearGradient
       id="linearGradient4932-7">
      <stop
         id="stop4934-5"
         offset="0"
         style="stop-color:#000000;stop-opacity:0.25098041;" />
      <stop
         id="stop4936-1"
         offset="1"
         style="stop-color:#000000;stop-opacity:0;" />
    </linearGradient>
    <linearGradient
       id="linearGradient4932-6">
      <stop
         id="stop4934-1"
         offset="0"
         style="stop-color:#000000;stop-opacity:0.25098041;" />
      <stop
         id="stop4936-2"
         offset="1"
         style="stop-color:#000000;stop-opacity:0;" />
    </linearGradient>
  </defs>
  <rect
     style="opacity:1;fill:#4e9a06;fill-opacity:1;fill-rule:nonzero;stroke:none;stroke-width:6;stroke-linecap:round;stroke-linejoin:round;stroke-miterlimit:4;stroke-dasharray:none;stroke-dashoffset:0;stroke-opacity:1"
     id="hint-tile-center"
     width="2.0329318"
     height="2.077126"
     x="1.9670682"
     y="5"
     rx="0"
     ry="2.077126" />
  <rect
     style="opacity:0.98999999;fill:#4e9a06;fill-opacity:1;fill-rule:nonzero;stroke:none"
     id="hint-focus-over-base"
     y="11"
     x="1.9670681"
     ry="2.077126"
     rx="0"
     height="2.077126"
     width="2.0329318" />
  <path
     id="hover-center"
     class="ColorScheme-Highlight"
     d="m 51.000032,64.100072 v 35.999918 h 48 V 64.100072 Z"
     inkscape:connector-curvature="0"
     style="color:#3daee6;opacity:0.05;fill:#ffffff;stroke-width:0.86602437;fill-opacity:1" />
  <g
     style="opacity:1"
     id="hover-topleft"
     transform="translate(-140.14,-766.86)">
    <path
       inkscape:connector-curvature="0"
       id="path5201"
       d="m 190.14,824.86 c -2.77,0 -5,2.23 -5,5 h 5 z"
       style="color:#3daee6;opacity:0.05;fill:#ffffff;stroke-width:1.25000024;fill-opacity:1" />
    <path
       id="path2151"
       transform="translate(81.139996,758.86)"
       d="m 109,65 c -3.324,0 -6,2.676 -6,6 h 2 c 0,-2.216 1.784,-4 4,-4 z"
       style="color:#3daee6;opacity:1;fill:none;stroke-width:1.5"
       inkscape:connector-curvature="0" />
    <path
       id="path10-91"
       transform="translate(81.139996,758.86)"
       d="m 109,66 c -2.77,0 -5,2.23 -5,5 h 2 c 0,-1.662 1.338,-3 3,-3 z"
       style="color:#3daee6;opacity:0.3;fill:#1464dc;fill-opacity:1;stroke-width:1.25"
       inkscape:connector-curvature="0" />
  </g>
  <g
     style="opacity:1"
     id="hover-top"
     transform="matrix(0.3664122,0,0,0.99999999,-18.669587,-766.85996)">
    <path
       class="ColorScheme-Highlight"
       d="m 190.14,825.86 v 4 h 131 v -4 z"
       id="path13-26"
       inkscape:connector-curvature="0"
       style="color:#3daee6;opacity:0.05;fill:#ffffff;fill-opacity:1" />
    <path
       style="color:#3daee6;opacity:1;fill:none;stroke-width:0.70711237"
       inkscape:connector-curvature="0"
       id="path2149"
       d="M 190.14,823.85997 V 825.86 h 131 v -2.00003 z"
       class="ColorScheme-Highlight" />
    <path
       class="ColorScheme-Highlight"
       d="m 190.14,824.85994 v 2.00003 h 131 v -2.00003 z"
       id="path4403"
       inkscape:connector-curvature="0"
       style="color:#3daee6;opacity:0.3;fill:#1464dc;fill-opacity:1;stroke-width:0.70711237" />
  </g>
  <use
     height="100%"
     width="100%"
     transform="matrix(-1,0,0,1,150,-2.385998e-7)"
     id="hover-topright"
     xlink:href="#hover-topleft"
     y="0"
     x="0" />
  <use
     height="100%"
     width="100%"
     transform="matrix(0,-0.74999998,1,0,-13.000019,138.35001)"
     id="hover-left"
     xlink:href="#hover-top"
     y="0"
     x="0" />
  <use
     height="100%"
     width="100%"
     transform="matrix(0,0.74999992,-1,0,163.00002,25.849979)"
     id="hover-right"
     xlink:href="#hover-top"
     y="0"
     x="0" />
  <use
     height="100%"
     width="100%"
     transform="matrix(1,0,0,-1,-2.4e-5,164.10002)"
     id="hover-bottom"
     xlink:href="#hover-top"
     y="0"
     x="0" />
  <use
     height="100%"
     width="100%"
     transform="matrix(1,0,0,-1,-4e-6,164.09999)"
     id="hover-bottomleft"
     xlink:href="#hover-topleft"
     y="0"
     x="0" />
  <use
     height="100%"
     width="100%"
     transform="rotate(-180,75.000002,82.049992)"
     id="hover-bottomright"
     xlink:href="#hover-topleft"
     y="0"
     x="0" />
  <path
     id="focus-center"
     class="ColorScheme-Highlight"
     d="m 127.00004,64.00007 v 35.999922 h 48 V 64.00007 Z"
     inkscape:connector-curvature="0"
     style="color:#3daee6;opacity:0.05;fill:#ffffff;stroke-width:0.8660242;fill-opacity:1" />
  <g
     style="opacity:1"
     id="focus-topleft"
     transform="translate(-64.139996,-766.86)">
    <path
       inkscape:connector-curvature="0"
       id="path5201-5"
       d="m 190.14,824.86 c -2.77,0 -5,2.23 -5,5 h 5 z"
       style="color:#3daee6;opacity:0.05;fill:#ffffff;stroke-width:1.25000024;fill-opacity:1" />
    <path
       id="path2151-9"
       transform="translate(81.139996,758.86)"
       d="m 109,65 c -3.324,0 -6,2.676 -6,6 h 2 c 0,-2.216 1.784,-4 4,-4 z"
       style="color:#3daee6;opacity:1;fill:none;stroke-width:1.5"
       inkscape:connector-curvature="0" />
    <path
       id="path10-91-4"
       transform="translate(81.139996,758.86)"
       d="m 109,66 c -2.77,0 -5,2.23 -5,5 h 2 c 0,-1.662 1.338,-3 3,-3 z"
       style="color:#3daee6;opacity:1;fill:#1464dc;fill-opacity:1;stroke-width:1.25"
       inkscape:connector-curvature="0" />
  </g>
  <g
     style="opacity:1"
     id="focus-top"
     transform="matrix(0.3664122,0,0,0.99999999,57.330404,-766.85996)">
    <path
       class="ColorScheme-Highlight"
       d="m 190.14,825.86 v 4 h 131 v -4 z"
       id="path13-26-7"
       inkscape:connector-curvature="0"
       style="color:#3daee6;opacity:0.05;fill:#ffffff;fill-opacity:1" />
    <path
       style="color:#3daee6;opacity:1;fill:none;stroke-width:0.70711237"
       inkscape:connector-curvature="0"
       id="path2149-6"
       d="M 190.14,823.85997 V 825.86 h 131 v -2.00003 z"
       class="ColorScheme-Highlight" />
    <path
       class="ColorScheme-Highlight"
       d="m 190.14,824.85994 v 2.00003 h 131 v -2.00003 z"
       id="path4403-5"
       inkscape:connector-curvature="0"
       style="color:#3daee6;opacity:1;fill:#1464dc;fill-opacity:1;stroke-width:0.70711237" />
  </g>
  <g
     transform="matrix(-0.99999999,0,0,0.99999999,366.14,-766.86001)"
     id="focus-topright"
     style="opacity:1">
    <path
       style="color:#3daee6;opacity:0.05;fill:#ffffff;stroke-width:1.25000024;fill-opacity:1"
       d="m 190.14,824.86 c -2.77,0 -5,2.23 -5,5 h 5 z"
       id="path1691"
       inkscape:connector-curvature="0" />
    <path
       inkscape:connector-curvature="0"
       style="color:#3daee6;opacity:1;fill:none;stroke-width:1.5"
       d="m 109,65 c -3.324,0 -6,2.676 -6,6 h 2 c 0,-2.216 1.784,-4 4,-4 z"
       transform="translate(81.139996,758.86)"
       id="path1693" />
    <path
       inkscape:connector-curvature="0"
       style="color:#3daee6;opacity:1;fill:#1464dc;fill-opacity:1;stroke-width:1.25"
       d="m 109,66 c -2.77,0 -5,2.23 -5,5 h 2 c 0,-1.662 1.338,-3 3,-3 z"
       transform="translate(81.139996,758.86)"
       id="path1695" />
  </g>
  <g
     transform="matrix(0,-0.27480905,0.99999999,0,-703.85997,152.25217)"
     id="focus-left"
     style="opacity:1">
    <path
       style="color:#3daee6;opacity:0.05;fill:#ffffff;fill-opacity:1"
       inkscape:connector-curvature="0"
       id="path1675"
       d="m 190.14,825.86 v 4 h 131 v -4 z"
       class="ColorScheme-Highlight" />
    <path
       class="ColorScheme-Highlight"
       d="M 190.14,823.85997 V 825.86 h 131 v -2.00003 z"
       id="path1677"
       inkscape:connector-curvature="0"
       style="color:#3daee6;opacity:1;fill:none;stroke-width:0.70711237" />
    <path
       style="color:#3daee6;opacity:1;fill:#1464dc;fill-opacity:1;stroke-width:0.70711237"
       inkscape:connector-curvature="0"
       id="path1679"
       d="m 190.14,824.85994 v 2.00003 h 131 v -2.00003 z"
       class="ColorScheme-Highlight" />
  </g>
  <g
     transform="matrix(0,0.27480899,-0.99999999,0,1005.8599,11.747822)"
     id="focus-right"
     style="opacity:1">
    <path
       style="color:#3daee6;opacity:0.05;fill:#ffffff;fill-opacity:1"
       inkscape:connector-curvature="0"
       id="path1683"
       d="m 190.14,825.86 v 4 h 131 v -4 z"
       class="ColorScheme-Highlight" />
    <path
       class="ColorScheme-Highlight"
       d="M 190.14,823.85997 V 825.86 h 131 v -2.00003 z"
       id="path1685"
       inkscape:connector-curvature="0"
       style="color:#3daee6;opacity:1;fill:none;stroke-width:0.70711237" />
    <path
       style="color:#3daee6;opacity:1;fill:#1464dc;fill-opacity:1;stroke-width:0.70711237"
       inkscape:connector-curvature="0"
       id="path1687"
       d="m 190.14,824.85994 v 2.00003 h 131 v -2.00003 z"
       class="ColorScheme-Highlight" />
  </g>
  <g
     transform="matrix(0.3664122,0,0,-0.99999999,57.330384,930.85995)"
     id="focus-bottom"
     style="opacity:1">
    <path
       style="color:#3daee6;opacity:0.05;fill:#ffffff;fill-opacity:1"
       inkscape:connector-curvature="0"
       id="path1657"
       d="m 190.14,825.86 v 4 h 131 v -4 z"
       class="ColorScheme-Highlight" />
    <path
       class="ColorScheme-Highlight"
       d="M 190.14,823.85997 V 825.86 h 131 v -2.00003 z"
       id="path1659"
       inkscape:connector-curvature="0"
       style="color:#3daee6;opacity:1;fill:none;stroke-width:0.70711237" />
    <path
       style="color:#3daee6;opacity:1;fill:#1464dc;fill-opacity:1;stroke-width:0.70711237"
       inkscape:connector-curvature="0"
       id="path1661"
       d="m 190.14,824.85994 v 2.00003 h 131 v -2.00003 z"
       class="ColorScheme-Highlight" />
  </g>
  <g
     transform="matrix(0.99999999,0,0,-0.99999999,-64.139996,930.85995)"
     id="focus-bottomleft"
     style="opacity:1">
    <path
       style="color:#3daee6;opacity:0.05;fill:#ffffff;stroke-width:1.25000024;fill-opacity:1"
       d="m 190.14,824.86 c -2.77,0 -5,2.23 -5,5 h 5 z"
       id="path1665"
       inkscape:connector-curvature="0" />
    <path
       inkscape:connector-curvature="0"
       style="color:#3daee6;opacity:1;fill:none;stroke-width:1.5"
       d="m 109,65 c -3.324,0 -6,2.676 -6,6 h 2 c 0,-2.216 1.784,-4 4,-4 z"
       transform="translate(81.139996,758.86)"
       id="path1667" />
    <path
       inkscape:connector-curvature="0"
       style="color:#3daee6;opacity:1;fill:#1464dc;fill-opacity:1;stroke-width:1.25"
       d="m 109,66 c -2.77,0 -5,2.23 -5,5 h 2 c 0,-1.662 1.338,-3 3,-3 z"
       transform="translate(81.139996,758.86)"
       id="path1669" />
  </g>
  <g
     transform="rotate(180,183.07001,465.42998)"
     id="focus-bottomright"
     style="opacity:1">
    <path
       style="color:#3daee6;opacity:0.05;fill:#ffffff;stroke-width:1.25000024;fill-opacity:1"
       d="m 190.14,824.86 c -2.77,0 -5,2.23 -5,5 h 5 z"
       id="path1647"
       inkscape:connector-curvature="0" />
    <path
       inkscape:connector-curvature="0"
       style="color:#3daee6;opacity:1;fill:none;stroke-width:1.5"
       d="m 109,65 c -3.324,0 -6,2.676 -6,6 h 2 c 0,-2.216 1.784,-4 4,-4 z"
       transform="translate(81.139996,758.86)"
       id="path1649" />
    <path
       inkscape:connector-curvature="0"
       style="color:#3daee6;opacity:1;fill:#1464dc;fill-opacity:1;stroke-width:1.25"
       d="m 109,66 c -2.77,0 -5,2.23 -5,5 h 2 c 0,-1.662 1.338,-3 3,-3 z"
       transform="translate(81.139996,758.86)"
       id="path1651" />
  </g>
  <path
     id="base-center"
     class="ColorScheme-Highlight"
     d="M 51.00003,-5.999886 V 30.000036 H 99.00005 V -5.999886 Z"
     inkscape:connector-curvature="0"
     style="color:#3daee6;opacity:0.15;fill:#ffffff;stroke-width:0.8660242;fill-opacity:1" />
  <g
     style="opacity:1"
     id="base-topleft"
     transform="translate(-140.13999,-836.85996)">
    <path
       inkscape:connector-curvature="0"
       id="path5201-0"
       d="m 190.14,824.85996 c -2.77002,0 -5.00004,2.23002 -5.00004,5.00004 H 190.14 Z"
       style="color:#3daee6;opacity:0.15;fill:#ffffff;stroke-width:1.25001156;fill-opacity:1" />
    <path
       id="path2151-5"
       transform="translate(81.139996,758.86)"
       d="m 109,65 c -3.324,0 -6,2.676 -6,6 h 2 c 0,-2.216 1.784,-4 4,-4 z"
       style="color:#3daee6;opacity:1;fill:none;stroke-width:1.5"
       inkscape:connector-curvature="0" />
    <path
       id="path10-91-2"
       transform="translate(81.139996,758.86)"
       d="m 109,66 c -2.77,0 -5,2.23 -5,5 h 2 c 0,-1.662 1.338,-3 3,-3 z"
       style="color:#3daee6;opacity:1;fill:none;fill-opacity:1;stroke-width:1.25"
       inkscape:connector-curvature="0" />
  </g>
  <g
     style="opacity:1"
     id="base-top"
     transform="matrix(0.3664122,0,0,0.99999999,-18.669598,-836.85992)">
    <path
       class="ColorScheme-Highlight"
       d="M 190.14,824.85993 V 829.86 h 131 v -5.00007 z"
       id="path13-26-0"
       inkscape:connector-curvature="0"
       style="color:#3daee6;opacity:0.15;fill:#ffffff;stroke-width:1.11804199;fill-opacity:1" />
    <path
       style="color:#3daee6;opacity:1;fill:none;stroke-width:0.70711237"
       inkscape:connector-curvature="0"
       id="path2149-4"
       d="M 190.14,823.85997 V 825.86 h 131 v -2.00003 z"
       class="ColorScheme-Highlight" />
    <path
       class="ColorScheme-Highlight"
       d="m 190.14,824.85994 v 2.00003 h 131 v -2.00003 z"
       id="path4403-9"
       inkscape:connector-curvature="0"
       style="color:#3daee6;opacity:1;fill:none;fill-opacity:1;stroke-width:0.70711237" />
  </g>
  <g
     transform="matrix(-0.99999999,0,0,0.99999999,290.14001,-836.85997)"
     id="base-topright"
     style="opacity:1">
    <path
       style="color:#3daee6;opacity:0.15;fill:#ffffff;stroke-width:1.25000465;fill-opacity:1"
       d="m 190.14,824.85998 c -2.77001,0 -5.00002,2.23001 -5.00002,5.00002 H 190.14 Z"
       id="path1691-2"
       inkscape:connector-curvature="0" />
    <path
       inkscape:connector-curvature="0"
       style="color:#3daee6;opacity:1;fill:none;stroke-width:1.5"
       d="m 109,65 c -3.324,0 -6,2.676 -6,6 h 2 c 0,-2.216 1.784,-4 4,-4 z"
       transform="translate(81.139996,758.86)"
       id="path1693-3" />
    <path
       inkscape:connector-curvature="0"
       style="color:#3daee6;opacity:1;fill:none;fill-opacity:1;stroke-width:1.25"
       d="m 109,66 c -2.77,0 -5,2.23 -5,5 h 2 c 0,-1.662 1.338,-3 3,-3 z"
       transform="translate(81.139996,758.86)"
       id="path1695-4" />
  </g>
  <g
     transform="matrix(0,-0.27480905,0.99999999,0,-779.85996,82.252215)"
     id="base-left"
     style="opacity:1">
    <path
       style="color:#3daee6;opacity:0.15;fill:#ffffff;stroke-width:1.11804068;fill-opacity:1"
       inkscape:connector-curvature="0"
       id="path1675-1"
       d="M 190.14,824.85994 V 829.86 h 131 v -5.00006 z"
       class="ColorScheme-Highlight" />
    <path
       class="ColorScheme-Highlight"
       d="M 190.14,823.85997 V 825.86 h 131 v -2.00003 z"
       id="path1677-9"
       inkscape:connector-curvature="0"
       style="color:#3daee6;opacity:1;fill:none;stroke-width:0.70711237" />
    <path
       style="color:#3daee6;opacity:1;fill:none;fill-opacity:1;stroke-width:0.70711237"
       inkscape:connector-curvature="0"
       id="path1679-4"
       d="m 190.14,824.85994 v 2.00003 h 131 v -2.00003 z"
       class="ColorScheme-Highlight" />
  </g>
  <g
     transform="matrix(0,0.27480899,-0.99999999,0,929.86,-58.25213)"
     id="base-right"
     style="opacity:1">
    <path
       style="color:#3daee6;opacity:0.15;fill:#ffffff;stroke-width:1.11804068;fill-opacity:1"
       inkscape:connector-curvature="0"
       id="path1683-9"
       d="M 190.14,824.85994 V 829.86 h 131 v -5.00006 z"
       class="ColorScheme-Highlight" />
    <path
       class="ColorScheme-Highlight"
       d="M 190.14,823.85997 V 825.86 h 131 v -2.00003 z"
       id="path1685-8"
       inkscape:connector-curvature="0"
       style="color:#3daee6;opacity:1;fill:none;stroke-width:0.70711237" />
    <path
       style="color:#3daee6;opacity:1;fill:none;fill-opacity:1;stroke-width:0.70711237"
       inkscape:connector-curvature="0"
       id="path1687-6"
       d="m 190.14,824.85994 v 2.00003 h 131 v -2.00003 z"
       class="ColorScheme-Highlight" />
  </g>
  <g
     transform="matrix(0.3664122,0,0,-0.99999999,-18.669618,860.85999)"
     id="base-bottom"
     style="opacity:1">
    <path
       style="color:#3daee6;opacity:0.15;fill:#ffffff;stroke-width:1.11803436;fill-opacity:1"
       inkscape:connector-curvature="0"
       id="path1657-3"
       d="m 190.14,824.86 v 5 h 131 v -5 z"
       class="ColorScheme-Highlight" />
    <path
       class="ColorScheme-Highlight"
       d="M 190.14,823.85997 V 825.86 h 131 v -2.00003 z"
       id="path1659-2"
       inkscape:connector-curvature="0"
       style="color:#3daee6;opacity:1;fill:none;stroke-width:0.70711237" />
    <path
       style="color:#3daee6;opacity:1;fill:none;fill-opacity:1;stroke-width:0.70711237"
       inkscape:connector-curvature="0"
       id="path1661-1"
       d="m 190.14,824.85994 v 2.00003 h 131 v -2.00003 z"
       class="ColorScheme-Highlight" />
  </g>
  <g
     transform="matrix(0.99999999,0,0,-0.99999999,-140.13999,860.85999)"
     id="base-bottomleft"
     style="opacity:1">
    <path
       style="color:#3daee6;opacity:0.15;fill:#ffffff;stroke-width:1.25000155;fill-opacity:1"
       d="m 190.14,824.86 c -2.77,0 -5,2.23 -5,5 h 5 z"
       id="path1665-1"
       inkscape:connector-curvature="0" />
    <path
       inkscape:connector-curvature="0"
       style="color:#3daee6;opacity:1;fill:none;stroke-width:1.5"
       d="m 109,65 c -3.324,0 -6,2.676 -6,6 h 2 c 0,-2.216 1.784,-4 4,-4 z"
       transform="translate(81.139996,758.86)"
       id="path1667-5" />
    <path
       inkscape:connector-curvature="0"
       style="color:#3daee6;opacity:1;fill:none;fill-opacity:1;stroke-width:1.25"
       d="m 109,66 c -2.77,0 -5,2.23 -5,5 h 2 c 0,-1.662 1.338,-3 3,-3 z"
       transform="translate(81.139996,758.86)"
       id="path1669-4" />
  </g>
  <g
     transform="rotate(180,145.07001,430.43)"
     id="base-bottomright"
     style="opacity:1">
    <path
       style="color:#3daee6;opacity:0.15;fill:#ffffff;stroke-width:1.25000143;fill-opacity:1"
       d="m 190.14,824.86 c -2.77,0 -5,2.23 -5,5 h 5 z"
       id="path1647-0"
       inkscape:connector-curvature="0" />
    <path
       inkscape:connector-curvature="0"
       style="color:#3daee6;opacity:1;fill:none;stroke-width:1.5"
       d="m 109,65 c -3.324,0 -6,2.676 -6,6 h 2 c 0,-2.216 1.784,-4 4,-4 z"
       transform="translate(81.139996,758.86)"
       id="path1649-6" />
    <path
       inkscape:connector-curvature="0"
       style="color:#3daee6;opacity:1;fill:none;fill-opacity:1;stroke-width:1.25"
       d="m 109,66 c -2.77,0 -5,2.23 -5,5 h 2 c 0,-1.662 1.338,-3 3,-3 z"
       transform="translate(81.139996,758.86)"
       id="path1651-0" />
  </g>
  <rect
     id="hover-hint-top-margin"
     x="150"
     y="56.899998"
     width="2"
     height="0.1"
     style="fill:#9a06ff;stroke-width:0.31622776" />
  <rect
     id="hover-hint-right-margin"
     transform="rotate(-90)"
     x="-83"
     y="183"
     width="2"
     height="0.1"
     style="fill:#9a06ff;stroke-width:0.2236068" />
  <rect
     id="hover-hint-left-margin"
     transform="rotate(-90)"
     x="-84"
     y="120"
     width="2"
     height="0.1"
     style="fill:#9a06ff;stroke-width:0.2236068" />
  <rect
     height="0.1"
     width="2"
     y="106.9"
     x="150"
     id="hover-hint-bottom-margin"
     style="fill:#9a06ff;stroke-width:0.1825742" />
  <rect
     id="focus-hint-top-margin"
     x="74"
     y="56.900002"
     width="1.9999999"
     height="0.1"
     style="fill:#9a06ff;stroke-width:0.31622773" />
  <rect
     id="focus-hint-right-margin"
     transform="rotate(-90)"
     x="-84.099998"
     y="106"
     width="1.9999999"
     height="0.1"
     style="fill:#9a06ff;stroke-width:0.22360681" />
  <rect
     id="focus-hint-left-margin"
     transform="rotate(-90)"
     x="-84.099998"
     y="44"
     width="1.9999999"
     height="0.1"
     style="fill:#9a06ff;stroke-width:0.2236068" />
  <rect
     height="0.1"
     width="2"
     y="107"
     x="74"
     id="focus-hint-bottom-margin"
     style="fill:#9a06ff;stroke-width:0.18257421" />
  <rect
     y="-13"
     x="75"
     height="6.0000038"
     width="2"
     id="base-hint-top-margin"
     style="fill:#4e9a06;fill-opacity:1;fill-rule:nonzero;stroke:none" />
  <rect
     style="fill:#4e9a06;fill-opacity:1;fill-rule:nonzero;stroke:none"
     id="base-hint-left-margin"
     width="6"
     height="1.9999999"
     x="44"
     y="11" />
  <rect
     y="11"
     x="100"
     height="2"
     width="5.9999914"
     id="base-hint-right-margin"
     style="fill:#4e9a06;fill-opacity:1;fill-rule:nonzero;stroke:none" />
  <rect
     style="fill:#4e9a06;fill-opacity:1;fill-rule:nonzero;stroke:none"
     id="base-hint-bottom-margin"
     width="2"
     height="6.0000062"
     x="75"
     y="31" />
</svg>
