<?xml version="1.0" encoding="UTF-8" standalone="no"?>
<svg
   width="22"
   height="22"
   version="1.1"
   id="svg21"
   sodipodi:docname="kdf.svg"
   inkscape:version="1.1.1 (3bf5ae0d25, 2021-09-20, custom)"
   xmlns:inkscape="http://www.inkscape.org/namespaces/inkscape"
   xmlns:sodipodi="http://sodipodi.sourceforge.net/DTD/sodipodi-0.dtd"
   xmlns="http://www.w3.org/2000/svg"
   xmlns:svg="http://www.w3.org/2000/svg"
   xmlns:rdf="http://www.w3.org/1999/02/22-rdf-syntax-ns#"
   xmlns:cc="http://creativecommons.org/ns#"
   xmlns:dc="http://purl.org/dc/elements/1.1/">
  <metadata
     id="metadata25">
    <rdf:RDF>
      <cc:Work
         rdf:about="">
        <dc:format>image/svg+xml</dc:format>
        <dc:type
           rdf:resource="http://purl.org/dc/dcmitype/StillImage" />
        <dc:title />
      </cc:Work>
    </rdf:RDF>
  </metadata>
  <sodipodi:namedview
     pagecolor="#329632"
     bordercolor="#666666"
     borderopacity="1"
     objecttolerance="10"
     gridtolerance="10"
     guidetolerance="10"
     inkscape:pageopacity="0"
     inkscape:pageshadow="2"
     inkscape:window-width="1920"
     inkscape:window-height="1005"
     id="namedview23"
     showgrid="true"
     inkscape:zoom="17.386364"
     inkscape:cx="0.25882352"
     inkscape:cy="2.3006535"
     inkscape:window-x="0"
     inkscape:window-y="0"
     inkscape:window-maximized="1"
     inkscape:current-layer="svg21"
     inkscape:document-rotation="0"
     inkscape:pagecheckerboard="0">
    <inkscape:grid
       type="xygrid"
       id="grid1064" />
  </sodipodi:namedview>
  <defs
     id="defs3">
    <style
       id="current-color-scheme"
       type="text/css">.ColorScheme-Text { color:#333333; } .ColorScheme-Highlight { color:#5294e2; } .ColorScheme-ButtonBackground { color:#333333; }</style>
  </defs>
  <rect
     class="ColorScheme-Text"
     x="-20.43"
     y="-19.39"
     width="16"
     height="16"
     ry="0"
     opacity="0"
     id="rect5" />
  <g
     id="kdf"
     transform="translate(22,21.999998)">
    <rect
       y="-21.999998"
       x="-22"
       height="22"
       width="22"
       id="rect817-1-2"
       style="clip-rule:evenodd;fill:#ffffff;fill-opacity:0;fill-rule:evenodd;stroke-width:0.546348;stroke-linejoin:round;stroke-miterlimit:1.41421" />
    <g
       id="g5546"
       transform="translate(-375,-528.3622)">
      <path
         id="path4888"
         style="color:#000000;fill:#333333;fill-rule:evenodd;-inkscape-stroke:none;paint-order:fill markers stroke;fill-opacity:1"
         d="M 6.5 2 C 5.12107 2 4.1650662 3.1498231 4.0039062 4.4394531 L 4.0039062 4.4453125 L 3 13.476562 L 3 17.5 C 3 18.87635 4.12365 20 5.5 20 L 16.5 20 C 17.87635 20 19 18.87635 19 17.5 L 19 13.476562 L 17.996094 4.4453125 L 17.996094 4.4394531 C 17.834894 3.1499631 16.87894 2 15.5 2 L 6.5 2 z M 8.8789062 4.4648438 L 9.5859375 5.171875 L 8.171875 6.5859375 L 7.4648438 5.8789062 L 8.8789062 4.4648438 z M 13.121094 4.4648438 L 14.535156 5.8789062 L 13.828125 6.5859375 L 12.414062 5.171875 L 13.121094 4.4648438 z M 11 6 A 2 2 0 0 1 13 8 A 2 2 0 0 1 11 10 A 2 2 0 0 1 9 8 A 2 2 0 0 1 11 6 z M 11 7 A 1 1 0 0 0 10 8 A 1 1 0 0 0 11 9 A 1 1 0 0 0 12 8 A 1 1 0 0 0 11 7 z M 10 11 L 12 11 L 12 12 L 10 12 L 10 11 z M 5 13.867188 C 5.15742 13.950987 5.3385875 14 5.5234375 14 L 16.476562 14 C 16.661412 14 16.84258 13.950997 17 13.867188 L 17 15.476562 L 17 17.5 C 17 17.78565 16.78565 18 16.5 18 L 5.5 18 C 5.21435 18 5 17.78565 5 17.5 L 5 15.476562 L 5 13.867188 z M 4.1835938 18.222656 C 4.3214049 18.470579 4.5294214 18.678595 4.7773438 18.816406 C 4.5256754 18.680264 4.3197359 18.474325 4.1835938 18.222656 z M 17.816406 18.222656 C 17.680264 18.474325 17.474325 18.680264 17.222656 18.816406 C 17.470579 18.678595 17.678595 18.470579 17.816406 18.222656 z "
         transform="translate(353,506.3622)" />
      <rect
         style="fill:#333333;fill-opacity:1;fill-rule:evenodd;stroke:none;stroke-width:1.1;stroke-linecap:round;stroke-linejoin:round;stroke-miterlimit:4;stroke-dasharray:none;stroke-opacity:1"
         id="rect5462"
         width="2"
         height="2"
         x="366"
         y="521.36218"
         ry="1" />
    </g>
  </g>
  <g
     id="16-16-kdf"
     transform="translate(22,22)">
    <rect
       style="opacity:0.00100002;fill:#ffffff;fill-opacity:1;fill-rule:evenodd;stroke:none;stroke-width:0.55;stroke-linecap:round;stroke-linejoin:round;stroke-miterlimit:4;stroke-dasharray:none;stroke-opacity:1"
       id="rect6376"
       width="16"
       height="16"
       x="-38"
       y="-16.000017" />
    <g
       transform="translate(-394,-526.36222)"
       id="g5988">
      <g
         transform="translate(-86,334.3622)"
         id="g5984"
         style="fill:#ebebeb;fill-opacity:1">
        <g
           style="fill:#ebebeb;fill-opacity:1;fill-rule:evenodd"
           id="g5982">
          <path
             id="path5976"
             style="fill:#333333;fill-opacity:1;paint-order:fill markers stroke"
             d="M -12 6 C -13.108 6 -13.8626 6.90056 -14 8 L -15 16 L -15 20 C -15 21.108 -14.108 22 -13 22 L -3 22 C -1.892 22 -1 21.108 -1 20 L -1 16 L -2 8 C -2.13743 6.9006 -2.892 6 -4 6 L -12 6 z M -10.121094 8.4648438 L -9.4140625 9.171875 L -10.828125 10.585938 L -11.535156 9.8789062 L -10.121094 8.4648438 z M -5.8789062 8.4648438 L -4.4648438 9.8789062 L -5.171875 10.585938 L -6.5859375 9.171875 L -5.8789062 8.4648438 z M -8 10 A 2 2 0 0 1 -6 12 A 2 2 0 0 1 -8 14 A 2 2 0 0 1 -10 12 A 2 2 0 0 1 -8 10 z M -8 11 A 1 1 0 0 0 -9 12 A 1 1 0 0 0 -8 13 A 1 1 0 0 0 -7 12 A 1 1 0 0 0 -8 11 z M -9 15 L -7 15 L -7 16 L -9 16 L -9 15 z M -14 17.548828 C -13.814397 17.820181 -13.471465 18 -13.113281 18 L -2.8867188 18 C -2.5285408 18 -2.185604 17.820181 -2 17.548828 L -2 20 C -2 20.554 -2.446 21 -3 21 L -13 21 C -13.554 21 -14 20.554 -14 20 L -14 17.548828 z "
             transform="translate(458,170.00002)" />
          <rect
             x="454"
             y="189"
             width="1"
             height="1"
             style="fill:#333333;fill-opacity:1;paint-order:fill markers stroke"
             id="rect5980"
             ry="0.5" />
        </g>
      </g>
    </g>
  </g>
</svg>
