<?xml version="1.0" encoding="UTF-8" standalone="no"?>
<svg
   width="22"
   height="22"
   version="1.1"
   id="svg21"
   sodipodi:docname="kdf.svg"
   inkscape:version="1.1.1 (3bf5ae0d25, 2021-09-20)"
   xmlns:inkscape="http://www.inkscape.org/namespaces/inkscape"
   xmlns:sodipodi="http://sodipodi.sourceforge.net/DTD/sodipodi-0.dtd"
   xmlns="http://www.w3.org/2000/svg"
   xmlns:svg="http://www.w3.org/2000/svg"
   xmlns:rdf="http://www.w3.org/1999/02/22-rdf-syntax-ns#"
   xmlns:cc="http://creativecommons.org/ns#"
   xmlns:dc="http://purl.org/dc/elements/1.1/">
  <metadata
     id="metadata25">
    <rdf:RDF>
      <cc:Work
         rdf:about="">
        <dc:format>image/svg+xml</dc:format>
        <dc:type
           rdf:resource="http://purl.org/dc/dcmitype/StillImage" />
        <dc:title />
      </cc:Work>
    </rdf:RDF>
  </metadata>
  <sodipodi:namedview
     pagecolor="#329632"
     bordercolor="#666666"
     borderopacity="1"
     objecttolerance="10"
     gridtolerance="10"
     guidetolerance="10"
     inkscape:pageopacity="0"
     inkscape:pageshadow="2"
     inkscape:window-width="1920"
     inkscape:window-height="963"
     id="namedview23"
     showgrid="true"
     inkscape:zoom="12.294016"
     inkscape:cx="-3.8636683"
     inkscape:cy="0.97608463"
     inkscape:window-x="0"
     inkscape:window-y="40"
     inkscape:window-maximized="1"
     inkscape:current-layer="svg21"
     inkscape:document-rotation="0"
     inkscape:pagecheckerboard="0">
    <inkscape:grid
       type="xygrid"
       id="grid1064" />
  </sodipodi:namedview>
  <defs
     id="defs3">
    <style
       id="current-color-scheme"
       type="text/css">.ColorScheme-Text { color:#333333; } .ColorScheme-Highlight { color:#5294e2; } .ColorScheme-ButtonBackground { color:#333333; }</style>
  </defs>
  <rect
     class="ColorScheme-Text"
     x="-20.43"
     y="-19.39"
     width="16"
     height="16"
     ry="0"
     opacity="0"
     id="rect5" />
  <g
     id="kdf"
     transform="translate(22,21.999998)">
    <rect
       y="-21.999998"
       x="-22"
       height="22"
       width="22"
       id="rect817-1-2"
       style="clip-rule:evenodd;fill:#ffffff;fill-opacity:0;fill-rule:evenodd;stroke-width:0.546348;stroke-linejoin:round;stroke-miterlimit:1.41421" />
    <g
       id="g5546"
       transform="translate(-375,-528.3622)">
      <path
         id="path4888"
         style="color:#000000;fill:#333333;fill-rule:evenodd;-inkscape-stroke:none;paint-order:fill markers stroke;fill-opacity:1"
         d="m 359.5,508.36218 c -1.37893,0 -2.33493,1.14983 -2.49609,2.43946 v 0.006 L 356,519.83874 v 4.02344 c 0,1.37635 1.12365,2.5 2.5,2.5 h 11 c 1.37635,0 2.5,-1.12365 2.5,-2.5 v -4.02344 l -1.00391,-9.03124 v -0.006 c -0.1612,-1.28949 -1.11715,-2.43942 -2.49609,-2.43942 z m -1.5,11.86719 c 0.15742,0.0838 0.33859,0.13281 0.52344,0.13281 h 10.95312 c 0.18485,0 0.36602,-0.049 0.52344,-0.13281 v 1.60937 2.02344 c 0,0.28565 -0.21435,0.5 -0.5,0.5 h -11 c -0.28565,0 -0.5,-0.21435 -0.5,-0.5 v -2.02344 z m -0.87891,4.22656 c 0.1525,0.34977 0.43539,0.63266 0.78516,0.78516 -0.35516,-0.14978 -0.63538,-0.43 -0.78516,-0.78516 z m 13.75782,0 c -0.14978,0.35516 -0.43,0.63538 -0.78516,0.78516 0.34977,-0.1525 0.63266,-0.43539 0.78516,-0.78516 z"
         sodipodi:nodetypes="scccsssscccsscssccsssscccccccc" />
      <rect
         style="fill:#333333;fill-opacity:1;fill-rule:evenodd;stroke:none;stroke-width:1.1;stroke-linecap:round;stroke-linejoin:round;stroke-miterlimit:4;stroke-dasharray:none;stroke-opacity:1"
         id="rect5462"
         width="2"
         height="2"
         x="366"
         y="521.36218"
         ry="1" />
    </g>
    <rect
       style="fill:#3296fe;fill-opacity:1;fill-rule:evenodd;stroke-width:0.816497;stroke-linecap:round;stroke-linejoin:round"
       id="rect2467"
       width="2"
       height="1"
       x="-12"
       y="-11" />
    <path
       id="path2605"
       style="fill:#3296fe;fill-opacity:1;fill-rule:evenodd;stroke-linecap:round;stroke-linejoin:round"
       d="m -11,-16 a 2,2 0 0 0 -2,2 2,2 0 0 0 2,2 2,2 0 0 0 2,-2 2,2 0 0 0 -2,-2 z m 0,1 a 1,1 0 0 1 1,1 1,1 0 0 1 -1,1 1,1 0 0 1 -1,-1 1,1 0 0 1 1,-1 z" />
    <rect
       style="fill:#3296fe;fill-opacity:1;fill-rule:evenodd;stroke-width:0.816497;stroke-linecap:round;stroke-linejoin:round"
       id="rect3344"
       width="2"
       height="1"
       x="-18.67767"
       y="-6.1213202"
       transform="rotate(45)" />
    <rect
       style="fill:#3296fe;fill-opacity:1;fill-rule:evenodd;stroke-width:0.816497;stroke-linecap:round;stroke-linejoin:round"
       id="rect3348"
       width="2"
       height="1"
       x="-3.1213205"
       y="-21.67767"
       transform="matrix(-0.70710678,0.70710678,0.70710678,0.70710678,0,0)" />
  </g>
  <g
     id="16-16-kdf"
     transform="translate(22,22)">
    <rect
       style="opacity:0.00100002;fill:#ffffff;fill-opacity:1;fill-rule:evenodd;stroke:none;stroke-width:0.55;stroke-linecap:round;stroke-linejoin:round;stroke-miterlimit:4;stroke-dasharray:none;stroke-opacity:1"
       id="rect6376"
       width="16"
       height="16"
       x="-38"
       y="-16.000017" />
    <g
       transform="translate(-394,-526.36222)"
       id="g5988">
      <g
         transform="translate(-86,334.3622)"
         id="g5984"
         style="fill:#ebebeb;fill-opacity:1">
        <g
           style="fill:#ebebeb;fill-opacity:1;fill-rule:evenodd"
           id="g5982">
          <path
             id="path5976"
             style="fill:#333333;fill-opacity:1;paint-order:fill markers stroke"
             d="m 62.113281,14 c -1.108,0 -1.8626,0.90056 -2,2 l -1,8 v 4 c 0,1.108 0.892,2 2,2 h 10 c 1.108,0 2,-0.892 2,-2 v -4 l -1,-8 c -0.13743,-1.0994 -0.892,-2 -2,-2 z m -2,11.548828 C 60.298884,25.820181 60.641816,26 61,26 h 10.226562 c 0.358178,0 0.701115,-0.179819 0.886719,-0.451172 V 28 c 0,0.554 -0.446,1 -1,1 h -10 c -0.554,0 -1,-0.446 -1,-1 z"
             transform="translate(383.88712,162.00002)" />
          <rect
             x="454"
             y="189"
             width="1"
             height="1"
             style="fill:#333333;fill-opacity:1;paint-order:fill markers stroke"
             id="rect5980"
             ry="0.5" />
        </g>
      </g>
    </g>
    <rect
       style="fill:#3296fe;fill-opacity:1;fill-rule:evenodd;stroke-width:0.816497;stroke-linecap:round;stroke-linejoin:round"
       id="rect3590"
       width="2"
       height="1"
       x="-31"
       y="-7" />
    <path
       id="path3592"
       style="fill:#3296fe;fill-opacity:1;fill-rule:evenodd;stroke-linecap:round;stroke-linejoin:round"
       d="m -30,-12 a 2,2 0 0 0 -2,2 2,2 0 0 0 2,2 2,2 0 0 0 2,-2 2,2 0 0 0 -2,-2 z m 0,1 a 1,1 0 0 1 1,1 1,1 0 0 1 -1,1 1,1 0 0 1 -1,-1 1,1 0 0 1 1,-1 z" />
    <rect
       style="fill:#3296fe;fill-opacity:1;fill-rule:evenodd;stroke-width:0.816497;stroke-linecap:round;stroke-linejoin:round"
       id="rect3594"
       width="2"
       height="1"
       x="-29.284271"
       y="10.142136"
       transform="rotate(45)" />
    <rect
       style="fill:#3296fe;fill-opacity:1;fill-rule:evenodd;stroke-width:0.816497;stroke-linecap:round;stroke-linejoin:round"
       id="rect3596"
       width="2"
       height="1"
       x="13.142136"
       y="-32.284271"
       transform="matrix(-0.70710678,0.70710678,0.70710678,0.70710678,0,0)" />
  </g>
</svg>
