<?xml version="1.0" encoding="UTF-8" standalone="no"?>
<svg
   id="svg"
   inkscape:version="1.1.1 (3bf5ae0d25, 2021-09-20, custom)"
   sodipodi:docname="preferences.svg"
   version="1.1"
   viewBox="0 0 22 22"
   xmlns:inkscape="http://www.inkscape.org/namespaces/inkscape"
   xmlns:sodipodi="http://sodipodi.sourceforge.net/DTD/sodipodi-0.dtd"
   xmlns="http://www.w3.org/2000/svg"
   xmlns:svg="http://www.w3.org/2000/svg"
   xmlns:rdf="http://www.w3.org/1999/02/22-rdf-syntax-ns#"
   xmlns:cc="http://creativecommons.org/ns#"
   xmlns:dc="http://purl.org/dc/elements/1.1/">
  <metadata
     id="metadata27">
    <rdf:RDF>
      <cc:Work
         rdf:about="">
        <dc:format>image/svg+xml</dc:format>
        <dc:type
           rdf:resource="http://purl.org/dc/dcmitype/StillImage" />
      </cc:Work>
    </rdf:RDF>
  </metadata>
  <sodipodi:namedview
     id="namedview21"
     bordercolor="#666666"
     borderopacity="1"
     gridtolerance="10"
     guidetolerance="10"
     inkscape:bbox-nodes="true"
     inkscape:current-layer="svg"
     inkscape:cx="12.6875"
     inkscape:cy="32.625"
     inkscape:object-paths="true"
     inkscape:pageopacity="0"
     inkscape:pageshadow="2"
     inkscape:snap-bbox="true"
     inkscape:snap-bbox-edge-midpoints="true"
     inkscape:snap-intersection-paths="true"
     inkscape:snap-nodes="true"
     inkscape:snap-smooth-nodes="true"
     inkscape:window-height="1005"
     inkscape:window-maximized="1"
     inkscape:window-width="1920"
     inkscape:window-x="0"
     inkscape:window-y="0"
     inkscape:zoom="8"
     objecttolerance="10"
     pagecolor="#383838"
     showgrid="true"
     inkscape:document-rotation="0"
     inkscape:pagecheckerboard="0">
    <inkscape:grid
       id="grid855"
       type="xygrid" />
  </sodipodi:namedview>
  <defs
     id="defs7386">
    <style
       id="current-color-scheme"
       type="text/css">.ColorScheme-Text { color:#dedede; } .ColorScheme-Highlight { color:#5294e2; } .ColorScheme-ButtonBackground { color:#dedede; }</style>
    <filter
       color-interpolation-filters="sRGB"
       height="1.0962"
       width="1.1593"
       y="-.048123"
       x="-.07966"
       id="c">
      <feGaussianBlur
         id="feGaussianBlur845"
         stdDeviation="0.79660366" />
    </filter>
    <linearGradient
       gradientUnits="userSpaceOnUse"
       gradientTransform="matrix(3.4646,0,0,3.4646,66.680927,11.651707)"
       y2="2.6458"
       y1="16.404"
       x2="3.9687"
       x1="3.9687"
       id="linearGradient1448">
      <stop
         id="stop848"
         offset="0"
         stop-color="#1964f0" />
      <stop
         id="stop850"
         offset="1"
         stop-color="#14c3fa" />
    </linearGradient>
    <filter
       color-interpolation-filters="sRGB"
       height="1.054"
       width="1.054"
       y="-.027"
       x="-.027"
       id="filter861">
      <feGaussianBlur
         id="feGaussianBlur853"
         stdDeviation="0.16371" />
    </filter>
    <linearGradient
       gradientUnits="userSpaceOnUse"
       gradientTransform="translate(-57.000498,10.864133)"
       y2="53.559"
       y1="11.048"
       x2="29.728"
       x1="29.565"
       id="linearGradient917">
      <stop
         id="stop856"
         offset="0"
         stop-color="#fff" />
      <stop
         id="stop858"
         offset="1"
         stop-color="#dbf6f8" />
    </linearGradient>
  </defs>
  <g
     id="preferences-system-bluetooth-inactive"
     inkscape:label="#g1013"
     transform="translate(23)">
    <rect
       id="rect906"
       style="opacity:0"
       y="77"
       x="-23"
       height="22"
       width="22" />
    <path
       style="color:#dedede;fill:#323232;fill-opacity:1;stroke-width:0.019531;opacity:0.5"
       inkscape:connector-curvature="0"
       id="path55"
       p-id="5683"
       d="m -11.000152,93.76299 v -3.672 l 2.278,1.836 z m 0,-11.525 2.278,1.836 -2.278,1.836 v -3.673 z m 0.593,5.763 3.906,-3.148 a 1.002,1.002 0 0 0 0,-1.558 l -4.872,-3.926 a 1,1 0 0 0 -1.627,0.778 v 5.762 l -3.244,-2.614 a 1.0003,1.0003 0 0 0 -1.255,1.558 l 3.905,3.147 -3.905,3.147 a 1,1 0 0 0 1.255,1.557 l 3.244,-2.614 v 5.762 a 1.001,1.001 0 0 0 1,1 0.998,0.998 0 0 0 0.627,-0.221 l 4.872,-3.926 a 1.002,1.002 0 0 0 0,-1.557 l -3.906,-3.148 z" />
  </g>
  <g
     inkscape:label="#g1013"
     id="preferences-system-bluetooth"
     transform="translate(23,-48.514717)">
    <rect
       width="22"
       height="22"
       x="-23"
       y="77"
       style="opacity:0"
       id="rect1015" />
    <path
       d="m -11.000152,93.76299 v -3.672 l 2.278,1.836 z m 0,-11.525 2.278,1.836 -2.278,1.836 v -3.673 z m 0.593,5.763 3.906,-3.148 a 1.002,1.002 0 0 0 0,-1.558 l -4.872,-3.926 a 1,1 0 0 0 -1.627,0.778 v 5.762 l -3.244,-2.614 a 1.0003,1.0003 0 0 0 -1.255,1.558 l 3.905,3.147 -3.905,3.147 a 1,1 0 0 0 1.255,1.557 l 3.244,-2.614 v 5.762 a 1.001,1.001 0 0 0 1,1 0.998,0.998 0 0 0 0.627,-0.221 l 4.872,-3.926 a 1.002,1.002 0 0 0 0,-1.557 l -3.906,-3.148 z"
       p-id="5683"
       id="path1017"
       inkscape:connector-curvature="0"
       style="color:#dedede;fill:#323232;fill-opacity:1;stroke-width:0.019531" />
  </g>
  <g
     id="16-16-preferences-system-bluetooth-inactive"
     inkscape:label="#g1039"
     transform="translate(-35.62936,0.57400504)">
    <rect
       ry="0.28211999"
       y="79.425995"
       x="63.62936"
       height="16"
       width="16"
       id="rect1023"
       style="opacity:0;fill:#000000;fill-opacity:1;stroke:none;stroke-width:1.43544865;stroke-linecap:round;stroke-linejoin:round;stroke-miterlimit:4;stroke-dasharray:none;stroke-opacity:1;paint-order:stroke fill markers" />
    <path
       style="color:#dedede;fill:#323232;fill-opacity:1;stroke-width:0.01765117;opacity:0.5"
       inkscape:connector-curvature="0"
       id="path1029"
       p-id="5683"
       d="m 72.532976,92.634307 v -3.318576 l 2.058746,1.659288 z m 0,-10.415737 2.058746,1.659288 -2.058746,1.659288 v -3.319479 z m 0.535925,5.20832 3.530053,-2.845009 a 0.90555902,0.90555902 0 0 0 0,-1.408045 l -4.403077,-3.548129 a 0.90375151,0.90375151 0 0 0 -1.470404,0.703119 v 5.207416 l -2.93177,-2.362406 a 0.90402264,0.90402264 0 0 0 -1.134208,1.408045 l 3.52915,2.844106 -3.52915,2.844106 a 0.90375151,0.90375151 0 0 0 1.134208,1.407141 l 2.93177,-2.362407 v 5.207417 a 0.90465527,0.90465527 0 0 0 0.903751,0.903751 0.90194401,0.90194401 0 0 0 0.566653,-0.199729 l 4.403077,-3.548129 a 0.90555902,0.90555902 0 0 0 0,-1.407141 l -3.530053,-2.845009 z" />
  </g>
  <g
     transform="translate(-35.62936,-47.940712)"
     inkscape:label="#g1039"
     id="16-16-preferences-system-bluetooth">
    <rect
       style="opacity:0;fill:#000000;fill-opacity:1;stroke:none;stroke-width:1.43544865;stroke-linecap:round;stroke-linejoin:round;stroke-miterlimit:4;stroke-dasharray:none;stroke-opacity:1;paint-order:stroke fill markers"
       id="rect1041"
       width="16"
       height="16"
       x="63.62936"
       y="79.425995"
       ry="0.28211999" />
    <path
       d="m 72.532976,92.634307 v -3.318576 l 2.058746,1.659288 z m 0,-10.415737 2.058746,1.659288 -2.058746,1.659288 v -3.319479 z m 0.535925,5.20832 3.530053,-2.845009 a 0.90555902,0.90555902 0 0 0 0,-1.408045 l -4.403077,-3.548129 a 0.90375151,0.90375151 0 0 0 -1.470404,0.703119 v 5.207416 l -2.93177,-2.362406 a 0.90402264,0.90402264 0 0 0 -1.134208,1.408045 l 3.52915,2.844106 -3.52915,2.844106 a 0.90375151,0.90375151 0 0 0 1.134208,1.407141 l 2.93177,-2.362407 v 5.207417 a 0.90465527,0.90465527 0 0 0 0.903751,0.903751 0.90194401,0.90194401 0 0 0 0.566653,-0.199729 l 4.403077,-3.548129 a 0.90555902,0.90555902 0 0 0 0,-1.407141 l -3.530053,-2.845009 z"
       p-id="5683"
       id="path1043"
       inkscape:connector-curvature="0"
       style="color:#dedede;fill:#323232;fill-opacity:1;stroke-width:0.01765117" />
  </g>
  <g
     id="preferences-system-bluetooth-activated"
     inkscape:label="#g1138"
     transform="translate(42,0.74264145)">
    <rect
       id="rect1107"
       style="opacity:0"
       y="52"
       x="-42"
       height="22"
       width="22" />
    <path
       style="color:#dedede;fill:#323232;fill-opacity:1;stroke-width:0.019531"
       inkscape:connector-curvature="0"
       id="path1109"
       p-id="5683"
       d="m -30.000152,68.76299 v -3.672 l 2.278,1.836 z m 0,-11.525 2.278,1.836 -2.278,1.836 v -3.673 z m 0.593,5.763 3.906,-3.148 a 1.002,1.002 0 0 0 0,-1.558 l -4.872,-3.926 a 1,1 0 0 0 -1.627,0.778 v 5.762 l -3.244,-2.614 a 1.0003,1.0003 0 0 0 -1.255,1.558 l 3.905,3.147 -3.905,3.147 a 1,1 0 0 0 1.255,1.557 l 3.244,-2.614 v 5.762 a 1.001,1.001 0 0 0 1,1 0.998,0.998 0 0 0 0.627,-0.221 l 4.872,-3.926 a 1.002,1.002 0 0 0 0,-1.557 l -3.906,-3.148 z" />
    <circle
       style="fill:#3296ff;fill-opacity:1;stroke-width:0.5"
       id="circle1117"
       cx="-24"
       cy="63"
       r="1" />
    <circle
       r="1"
       cy="63"
       cx="-21"
       id="circle1126"
       style="fill:#3296ff;fill-opacity:1;stroke-width:0.5" />
    <circle
       r="1"
       cy="63"
       cx="-41"
       id="circle1128"
       style="fill:#3296ff;fill-opacity:1;stroke-width:0.5" />
    <circle
       style="fill:#3296ff;fill-opacity:1;stroke-width:0.5"
       id="circle1130"
       cx="-38"
       cy="63"
       r="1" />
  </g>
  <g
     id="16-16-preferences-system-bluetooth-activated"
     inkscape:label="#g1171"
     transform="translate(-31,1.7426412)">
    <rect
       ry="0.28211999"
       y="54"
       x="59"
       height="16"
       width="16"
       id="rect1140"
       style="opacity:0;fill:#000000;fill-opacity:1;stroke:none;stroke-width:1.43544865;stroke-linecap:round;stroke-linejoin:round;stroke-miterlimit:4;stroke-dasharray:none;stroke-opacity:1;paint-order:stroke fill markers" />
    <path
       style="color:#dedede;fill:#323232;fill-opacity:1;stroke-width:0.01765117"
       inkscape:connector-curvature="0"
       id="path1142"
       p-id="5683"
       d="m 67.903616,67.208312 v -3.318576 l 2.058746,1.659288 z m 0,-10.415737 2.058746,1.659288 -2.058746,1.659288 v -3.319479 z m 0.535925,5.20832 3.530053,-2.845009 a 0.90555902,0.90555902 0 0 0 0,-1.408045 l -4.403077,-3.548129 a 0.90375151,0.90375151 0 0 0 -1.470404,0.703119 v 5.207416 l -2.93177,-2.362406 a 0.90402264,0.90402264 0 0 0 -1.134208,1.408045 l 3.52915,2.844106 -3.52915,2.844106 a 0.90375151,0.90375151 0 0 0 1.134208,1.407141 l 2.93177,-2.362407 v 5.207417 A 0.90465527,0.90465527 0 0 0 66.999864,70 0.90194401,0.90194401 0 0 0 67.566517,69.800271 l 4.403077,-3.548129 a 0.90555902,0.90555902 0 0 0 0,-1.407141 l -3.530053,-2.845009 z" />
    <circle
       r="0.5"
       cy="62"
       cx="72.5075"
       id="circle1150"
       style="fill:#5294e2;stroke-width:0.25" />
    <circle
       style="fill:#5294e2;stroke-width:0.25"
       id="circle1159"
       cx="74.5"
       cy="62"
       r="0.5" />
    <circle
       style="fill:#5294e2;stroke-width:0.25"
       id="circle1161"
       cx="59.5075"
       cy="62"
       r="0.5" />
    <circle
       r="0.5"
       cy="62"
       cx="61.5"
       id="circle1163"
       style="fill:#5294e2;stroke-width:0.25" />
  </g>
  <g
     id="preferences-desktop-notification">
    <path
       id="path1239"
       style="opacity:1;fill:#323232;fill-opacity:1;fill-rule:evenodd;stroke:none;stroke-width:3;stroke-linecap:round;stroke-linejoin:round;stroke-miterlimit:4;stroke-dasharray:none;stroke-opacity:1;paint-order:stroke fill markers"
       d="M 36 1 A 10 10 0 0 0 26 11 A 10 10 0 0 0 36 21 A 10 10 0 0 0 46 11 A 10 10 0 0 0 36 1 z M 36 6 C 36.554 6 37 6.446 37 7 L 37 12 C 37 12.554 36.554 13 36 13 C 35.446 13 35 12.554 35 12 L 35 7 C 35 6.446 35.446 6 36 6 z M 36 14 A 1 1 0 0 1 37 15 A 1 1 0 0 1 36 16 A 1 1 0 0 1 35 15 A 1 1 0 0 1 36 14 z " />
    <rect
       style="color:#dedede;fill:#dedede;fill-opacity:0"
       id="rect20"
       height="22"
       width="22"
       y="0"
       x="25" />
  </g>
  <g
     id="preferences-desktop-display-randr">
    <rect
       id="rect23"
       transform="scale(-1,1)"
       x="-22"
       width="22"
       height="22"
       y="0"
       style="color:#bebebe;opacity:0;stroke-width:2" />
    <path
       style="color:#31363b;fill:#323232;fill-rule:evenodd;stroke-width:3;-inkscape-stroke:none;fill-opacity:1"
       d="M 10.999996,13 4.999978,20 H 17.000022 Z"
       id="path1127" />
    <path
       id="rect1293"
       style="fill:#323232;fill-opacity:1;stroke-width:1.05409"
       d="M 3 4 C 1.892 4 1 4.892 1 6 L 1 15 C 1 16.108 1.892 17 3 17 L 5.5859375 17 L 5.6523438 16.933594 L 9.8613281 12.023438 L 11 10.695312 L 16.345703 16.931641 L 16.414062 17 L 19 17 C 20.108 17 21 16.108 21 15 L 21 6 C 21 4.892 20.108 4 19 4 L 3 4 z M 11 15.304688 L 9.546875 17 L 12.453125 17 L 11 15.304688 z " />
  </g>
</svg>
