<?xml version="1.0" encoding="UTF-8" standalone="no"?>
<svg
   xmlns:dc="http://purl.org/dc/elements/1.1/"
   xmlns:cc="http://creativecommons.org/ns#"
   xmlns:rdf="http://www.w3.org/1999/02/22-rdf-syntax-ns#"
   xmlns:svg="http://www.w3.org/2000/svg"
   xmlns="http://www.w3.org/2000/svg"
   xmlns:sodipodi="http://sodipodi.sourceforge.net/DTD/sodipodi-0.dtd"
   xmlns:inkscape="http://www.inkscape.org/namespaces/inkscape"
   id="svg"
   version="1.1"
   viewBox="0 0 22 22"
   sodipodi:docname="video.svg"
   inkscape:version="1.0.2 (e86c870879, 2021-01-15)">
  <sodipodi:namedview
     pagecolor="#ffffff"
     bordercolor="#666666"
     borderopacity="1"
     objecttolerance="10"
     gridtolerance="10"
     guidetolerance="10"
     inkscape:pageopacity="0"
     inkscape:pageshadow="2"
     inkscape:window-width="1920"
     inkscape:window-height="960"
     id="namedview86"
     showgrid="true"
     inkscape:zoom="25.487985"
     inkscape:cx="9.5014835"
     inkscape:cy="10.700718"
     inkscape:window-x="0"
     inkscape:window-y="38"
     inkscape:window-maximized="1"
     inkscape:current-layer="svg"
     inkscape:snap-bbox="true"
     inkscape:bbox-nodes="true"
     inkscape:snap-bbox-edge-midpoints="true"
     inkscape:snap-smooth-nodes="true"
     inkscape:document-rotation="0">
    <inkscape:grid
       type="xygrid"
       id="grid913" />
  </sodipodi:namedview>
  <defs
     id="defs9">
    <style
       id="current-color-scheme"
       type="text/css">.ColorScheme-Text {
        color:#7B7C7E;
      }
      .ColorScheme-Background{
        color:#EFF0F1;
      }
      .ColorScheme-Highlight{
        color:#3DAEE6;
      }
      .ColorScheme-ViewText {
        color:#7B7C7E;
      }
      .ColorScheme-ViewBackground{
        color:#FCFCFC;
      }
      .ColorScheme-ViewHover {
        color:#3DAEE6;
      }
      .ColorScheme-ViewFocus{
        color:#1E92FF;
      }
      .ColorScheme-ButtonText {
        color:#7B7C7E;
      }
      .ColorScheme-ButtonBackground{
        color:#EFF0F1;
      }
      .ColorScheme-ButtonHover {
        color:#3DAEE6;
      }
      .ColorScheme-ButtonFocus{
        color:#1E92FF;
      }</style>
    <style
       type="text/css"
       id="style3">.ColorScheme-Text { color:#dedede; } .ColorScheme-Highlight { color:#5294e2; } .ColorScheme-ButtonBackground { color:#dedede; }</style>
    <style
       type="text/css"
       id="style5" />
    <style
       type="text/css"
       id="style7">.ColorScheme-Text {
            color:#232629;
        }
        .ColorScheme-Background {
            color:#eff0f1;
        }
        .ColorScheme-ViewBackground {
            color:#fcfcfc;
        }
        .ColorScheme-ButtonFocus {
            color:#3daee9;
        }
        .ColorScheme-PositiveText {
            color:#27ae60;
        }
        .ColorScheme-NeutralText {
            color:#f67400;
        }
        .ColorScheme-NegativeText {
            color:#da4453;
        }</style>
  </defs>
  <metadata
     id="metadata11">
    <rdf:RDF>
      <cc:Work
         rdf:about="">
        <dc:format>image/svg+xml</dc:format>
        <dc:type
           rdf:resource="http://purl.org/dc/dcmitype/StillImage" />
        <dc:title />
      </cc:Work>
    </rdf:RDF>
  </metadata>
  <g
     id="22-22-video-display-brightness"
     transform="translate(-40)">
    <rect
       x="40"
       width="22"
       height="22"
       fill-opacity="0"
       id="rect52" />
    <path
       id="path54"
       style="fill:#323232;fill-opacity:1"
       d="M 3 4 L 3 16 L 19 16 L 19 4 L 3 4 z M 4 5 L 18 5 L 18 14 L 4 14 L 4 5 z "
       transform="translate(40)" />
    <g
       transform="translate(60)"
       fill="#eaeaea"
       id="g60"
       style="fill:#323232;fill-opacity:1">
      <rect
         x="-11"
         y="16"
         width="1"
         height="2"
         id="rect56"
         style="fill:#323232;fill-opacity:1" />
      <rect
         x="-8"
         y="16"
         width="1"
         height="2"
         id="rect58"
         style="fill:#323232;fill-opacity:1" />
    </g>
    <path
       id="rect62"
       style="fill:#323232;fill-opacity:1"
       d="M 7 18 L 7 19 L 15 19 L 15 18 L 7 18 z "
       transform="translate(40)" />
    <g
       transform="translate(.5)"
       fill="#eaeaea"
       id="g82"
       style="fill:#323232;fill-opacity:1">
      <circle
         cx="50.5"
         cy="9.5"
         r="1.5"
         id="circle64"
         style="fill:#323232;fill-opacity:1" />
      <rect
         x="50"
         y="6"
         width="1"
         height="1"
         ry=".5"
         id="rect66"
         style="fill:#323232;fill-opacity:1" />
      <rect
         x="50"
         y="12"
         width="1"
         height="1"
         ry=".5"
         id="rect68"
         style="fill:#323232;fill-opacity:1" />
      <rect
         transform="rotate(45)"
         x="41.926"
         y="-32.491"
         width="1"
         height="1"
         ry=".5"
         id="rect70"
         style="fill:#323232;fill-opacity:1" />
      <rect
         transform="rotate(45)"
         x="41.926"
         y="-26.491"
         width="1"
         height="1"
         ry=".5"
         id="rect72"
         style="fill:#323232;fill-opacity:1" />
      <rect
         transform="rotate(90)"
         x="9"
         y="-54"
         width="1"
         height="1"
         ry=".5"
         id="rect74"
         style="fill:#323232;fill-opacity:1" />
      <rect
         transform="rotate(90)"
         x="9"
         y="-48"
         width="1"
         height="1"
         ry=".5"
         id="rect76"
         style="fill:#323232;fill-opacity:1" />
      <rect
         transform="rotate(-45)"
         x="28.491"
         y="38.926"
         width="1"
         height="1"
         ry=".5"
         id="rect78"
         style="fill:#323232;fill-opacity:1" />
      <rect
         transform="rotate(-45)"
         x="28.491"
         y="44.926"
         width="1"
         height="1"
         ry=".5"
         id="rect80"
         style="fill:#323232;fill-opacity:1" />
    </g>
  </g>
  <g
     id="video-display-brightness">
    <rect
       x="-2"
       y="-34"
       width="32"
       height="32"
       fill-opacity="0"
       id="rect13" />
    <g
       transform="matrix(1,0,0,1.5,-47,-29.9067)"
       id="g21"
       style="fill:#323232;fill-opacity:1">
      <rect
         x="58"
         y="13.271133"
         width="2"
         height="2"
         id="rect17"
         style="stroke-width:1.41421;fill:#323232;fill-opacity:1" />
      <rect
         x="62"
         y="13.271133"
         width="2"
         height="2"
         id="rect19"
         style="stroke-width:1.41421;fill:#323232;fill-opacity:1" />
    </g>
    <rect
       x="8"
       y="-6.9993"
       width="12"
       height="1.9993"
       id="rect23"
       style="fill:#323232;stroke-width:1.41397;fill-opacity:1"
       ry="0.99965" />
    <g
       transform="translate(-39.5)"
       fill="#eaeaea"
       id="g49"
       style="fill:#323232;fill-opacity:1">
      <g
         transform="translate(-0.5)"
         id="g31"
         style="fill:#323232;fill-opacity:1">
        <path
           d="m 55.23,-22.733 a 3,3 0 0 1 0.26953,1.2334 3,3 0 0 1 -3,3 3,3 0 0 1 -1.2305,-0.2666 3,3 0 0 0 2.7305,1.7666 3,3 0 0 0 3,-3 3,3 0 0 0 -1.7695,-2.7334 z"
           id="path27"
           style="fill:#323232;fill-opacity:1" />
        <path
           d="m 54,-23 a 3,3 0 0 0 -3,3 3,3 0 0 0 3,3 3,3 0 0 0 3,-3 3,3 0 0 0 -3,-3 z m 0,0.75 A 2.25,2.25 0 0 1 56.25,-20 2.25,2.25 0 0 1 54,-17.75 2.25,2.25 0 0 1 51.75,-20 2.25,2.25 0 0 1 54,-22.25 Z"
           id="path29"
           style="fill:#323232;fill-opacity:1" />
      </g>
      <rect
         x="53"
         y="-26"
         width="1"
         height="2"
         ry="0.5"
         id="rect33"
         style="fill:#323232;fill-opacity:1" />
      <rect
         x="53"
         y="-16"
         width="1"
         height="2"
         ry="0.5"
         id="rect35"
         style="fill:#323232;fill-opacity:1" />
      <rect
         transform="rotate(45)"
         x="23.188"
         y="-57.972"
         width="1"
         height="2"
         ry="0.5"
         id="rect37"
         style="fill:#323232;fill-opacity:1" />
      <rect
         transform="rotate(45)"
         x="23.188"
         y="-47.972"
         width="1"
         height="2"
         ry="0.5"
         id="rect39"
         style="fill:#323232;fill-opacity:1" />
      <rect
         transform="rotate(90)"
         x="-20.5"
         y="-59.5"
         width="1"
         height="2"
         ry="0.5"
         id="rect41"
         style="fill:#323232;fill-opacity:1" />
      <rect
         transform="rotate(90)"
         x="-20.5"
         y="-49.5"
         width="1"
         height="2"
         ry="0.5"
         id="rect43"
         style="fill:#323232;fill-opacity:1" />
      <rect
         transform="rotate(135)"
         x="-52.472"
         y="-29.688"
         width="1"
         height="2"
         ry="0.5"
         id="rect45"
         style="fill:#323232;fill-opacity:1" />
      <rect
         transform="rotate(135)"
         x="-52.472"
         y="-19.688"
         width="1"
         height="2"
         ry="0.5"
         id="rect47"
         style="fill:#323232;fill-opacity:1" />
    </g>
    <path
       id="rect915"
       style="opacity:1;fill:#323232;fill-opacity:1;stroke:none;stroke-linecap:round;paint-order:stroke fill markers"
       d="m 4,-29 c -1.108,0 -2,0.892 -2,2 v 15 c 0,1.108 0.892,2 2,2 h 20 c 1.108,0 2,-0.892 2,-2 v -15 c 0,-1.108 -0.892,-2 -2,-2 z m 1,2 h 18 c 0.554,0 1,0.446 1,1 v 12 c 0,0.554 -0.446,1 -1,1 H 5 c -0.554,0 -1,-0.446 -1,-1 v -12 c 0,-0.554 0.446,-1 1,-1 z" />
  </g>
</svg>
