<?xml version="1.0" encoding="UTF-8" standalone="no"?>
<svg
   xmlns:dc="http://purl.org/dc/elements/1.1/"
   xmlns:cc="http://creativecommons.org/ns#"
   xmlns:rdf="http://www.w3.org/1999/02/22-rdf-syntax-ns#"
   xmlns:svg="http://www.w3.org/2000/svg"
   xmlns="http://www.w3.org/2000/svg"
   xmlns:sodipodi="http://sodipodi.sourceforge.net/DTD/sodipodi-0.dtd"
   xmlns:inkscape="http://www.inkscape.org/namespaces/inkscape"
   width="24"
   height="16"
   version="1.1"
   viewBox="0 0 24 16"
   id="svg35"
   sodipodi:docname="window.svg"
   inkscape:version="1.0.2 (e86c870879, 2021-01-15)">
  <metadata
     id="metadata39">
    <rdf:RDF>
      <cc:Work
         rdf:about="">
        <dc:format>image/svg+xml</dc:format>
        <dc:type
           rdf:resource="http://purl.org/dc/dcmitype/StillImage" />
      </cc:Work>
    </rdf:RDF>
  </metadata>
  <sodipodi:namedview
     pagecolor="#ffffff"
     bordercolor="#666666"
     borderopacity="1"
     objecttolerance="10"
     gridtolerance="10"
     guidetolerance="10"
     inkscape:pageopacity="0"
     inkscape:pageshadow="2"
     inkscape:window-width="1920"
     inkscape:window-height="960"
     id="namedview37"
     showgrid="true"
     inkscape:zoom="47.958333"
     inkscape:cx="15.608507"
     inkscape:cy="12.938354"
     inkscape:window-x="0"
     inkscape:window-y="38"
     inkscape:window-maximized="1"
     inkscape:current-layer="svg35">
    <inkscape:grid
       type="xygrid"
       id="grid864" />
  </sodipodi:namedview>
  <defs
     id="defs3">
    <style
       id="current-color-scheme"
       type="text/css">.ColorScheme-Text {
        color:#31363b;
      }
      .ColorScheme-Background {
        color:#eff0f1;
      }
      .ColorScheme-Highlight {
        color:#3daee9;
      }
      .ColorScheme-ViewText {
        color:#31363b;
      }
      .ColorScheme-ViewBackground {
        color:#fcfcfc;
      }
      .ColorScheme-ViewHover {
        color:#93cee9;
      }
      .ColorScheme-ViewFocus{
        color:#3daee9;
      }
      .ColorScheme-ButtonText {
        color:#31363b;
      }
      .ColorScheme-ButtonBackground {
        color:#eff0f1;
      }
      .ColorScheme-ButtonHover {
        color:#93cee9;
      }
      .ColorScheme-ButtonFocus{
        color:#3daee9;
      }
      .ColorScheme-NegativeText {
        color:#da4453;
      }</style>
  </defs>
  <g
     id="edit-delete"
     transform="matrix(.72727 0 0 .72727 -237.09 -388.63)">
    <rect
       x="326"
       y="534.36"
       width="22"
       height="22"
       fill="none"
       id="rect5" />
    <circle
       cx="277.56"
       cy="-509.56"
       r="0"
       id="circle7" />
    <path
       class="ColorScheme-NegativeText"
       d="m337 535.74a9.625 9.625 0 0 0-9.625 9.625 9.625 9.625 0 0 0 9.625 9.625 9.625 9.625 0 0 0 9.625-9.625 9.625 9.625 0 0 0-9.625-9.625zm-3.9619 4.8125 3.9619 3.9619 3.9619-3.9619 0.85065 0.85064-3.9619 3.9619 3.9619 3.9619-0.85065 0.85064-3.9619-3.9619-3.9619 3.9619-0.85063-0.85064 3.9618-3.9619-3.9618-3.9619 0.85063-0.85064z"
       fill="currentColor"
       id="path9" />
    <path
       transform="matrix(1.375 0 0 1.375 326 534.36)"
       d="m5.1191 4.5-0.61914 0.61914 2.8809 2.8809-2.8809 2.8809 0.61914 0.61914 2.8809-2.8809 2.8809 2.8809 0.61914-0.61914-2.8809-2.8809 2.8809-2.8809-0.61914-0.61914-2.8809 2.8809-2.8809-2.8809z"
       fill="#fff"
       fill-opacity=".71176"
       id="path11" />
  </g>
  <g
     id="window-pin"
     transform="translate(62,-36)">
    <rect
       x="-46"
       y="44"
       width="8"
       height="8"
       fill="none"
       id="rect14" />
    <path
       class="ColorScheme-Text"
       d="m -41.249975,45 c -0.291938,0.291938 -0.351264,0.813228 -0.01172,1.382855 l -1.593755,1.066428 c -0.198151,-0.07995 -0.410851,-0.139568 -0.621092,-0.140625 -0.273286,-0.0014 -0.539057,0.08203 -0.773403,0.316411 l 1.125004,1.125004 -1.500005,1.500005 -0.375001,0.750002 0.750002,-0.375001 1.500005,-1.500005 1.125004,1.125004 c 0.415112,-0.415112 0.361779,-0.940429 0.175786,-1.394555 l 1.066428,-1.593755 c 0.56956,0.339548 1.090879,0.280223 1.382855,-0.01172 z"
       fill="currentColor"
       id="path16"
       style="stroke-width:0.750003" />
  </g>
  <g
     id="window-unpin"
     transform="translate(82,-44)">
    <path
       class="ColorScheme-Highlight"
       d="m-61 44c-0.38925 0.38925-0.46835 1.0843-0.01563 1.8438l-2.125 1.4219c-0.2642-0.1066-0.5478-0.18609-0.82812-0.1875-0.36438-0.00185-0.71874 0.10938-1.0312 0.42188l1.5 1.5-2 2-0.5 1 1-0.5 2-2 1.5 1.5c0.55348-0.55348 0.48237-1.2539 0.23438-1.8594l1.4219-2.125c0.75941 0.45273 1.4545 0.37363 1.8438-0.015625z"
       fill="currentColor"
       id="path19" />
    <rect
       x="-66"
       y="44"
       width="8"
       height="8"
       fill="none"
       id="rect21" />
  </g>
  <g
     id="window-list"
     transform="translate(-292 -542.36)">
    <rect
       x="286"
       y="561.36"
       width="32"
       height="32"
       ry="0"
       opacity="0"
       id="rect24" />
    <path
       class="ColorScheme-Text"
       transform="translate(326 534.36)"
       d="m-36 31v10h10v-10h-10zm1 1h8v8h-8v-8z"
       fill="currentColor"
       id="path26" />
    <path
       class="ColorScheme-Text"
       transform="translate(326 534.36)"
       d="m-22 31v10h10v-10h-10zm1 1h8v8h-8v-8z"
       fill="currentColor"
       id="path28" />
    <path
       class="ColorScheme-Text"
       transform="translate(326 534.36)"
       d="m-36 45v10h10v-10h-10zm1 1h8v8h-8v-8z"
       fill="currentColor"
       id="path30" />
    <path
       class="ColorScheme-Text"
       transform="translate(326 534.36)"
       d="m-22 45v10h10v-10h-10zm1 1h8v8h-8v-8z"
       fill="currentColor"
       id="path32" />
  </g>
</svg>
