<?xml version="1.0" encoding="UTF-8" standalone="no"?>
<svg
   xmlns:dc="http://purl.org/dc/elements/1.1/"
   xmlns:cc="http://creativecommons.org/ns#"
   xmlns:rdf="http://www.w3.org/1999/02/22-rdf-syntax-ns#"
   xmlns:svg="http://www.w3.org/2000/svg"
   xmlns="http://www.w3.org/2000/svg"
   xmlns:sodipodi="http://sodipodi.sourceforge.net/DTD/sodipodi-0.dtd"
   xmlns:inkscape="http://www.inkscape.org/namespaces/inkscape"
   viewBox="0 0 200 200"
   version="1.1"
   sodipodi:docname="kde.svg"
   inkscape:version="1.0.2 (e86c870879, 2021-01-15)"
   height="200"
   width="200"
   id="svg4379">
  <metadata
     id="metadata10">
    <rdf:RDF>
      <cc:Work
         rdf:about="">
        <dc:format>image/svg+xml</dc:format>
        <dc:type
           rdf:resource="http://purl.org/dc/dcmitype/StillImage" />
      </cc:Work>
    </rdf:RDF>
  </metadata>
  <defs
     id="defs8">
    <style
       type="text/css"
       id="current-color-scheme">
      .ColorScheme-Text {
        color:#31363b;
      }
      </style>
  </defs>
  <sodipodi:namedview
     inkscape:document-rotation="0"
     inkscape:snap-bbox-edge-midpoints="true"
     inkscape:bbox-nodes="true"
     inkscape:snap-bbox="true"
     showgrid="true"
     pagecolor="#dfe2e4"
     objecttolerance="10"
     inkscape:zoom="2.8248916"
     inkscape:window-y="0"
     inkscape:window-x="0"
     inkscape:window-width="1920"
     inkscape:window-maximized="1"
     inkscape:window-height="998"
     inkscape:pageshadow="2"
     inkscape:pageopacity="0"
     inkscape:cy="81.372415"
     inkscape:cx="83.705908"
     inkscape:current-layer="svg4379"
     guidetolerance="10"
     gridtolerance="10"
     borderopacity="1"
     bordercolor="#666666"
     id="namedview39">
    <inkscape:grid
       type="xygrid"
       id="grid839" />
  </sodipodi:namedview>
  <path
     inkscape:connector-curvature="0"
     style="fill:#191919;fill-opacity:1;stroke:none;stroke-width:4.61538;stroke-linecap:round;stroke-linejoin:round;stroke-miterlimit:4;stroke-dasharray:none;stroke-opacity:1"
     d="m 66.346156,19.943635 c -15.98077,0 -28.846154,12.865384 -28.846154,28.846153 0,0.175337 0.01971,0.343798 0.0226,0.518308 -0.0024,0.02115 -0.0226,0.03413 -0.0226,0.05654 v 27.696817 c 0,0.319437 0.255053,0.57449 0.574668,0.57449 h 28.271486 1.149341 26.547471 0.574673 c 0.319616,0 0.574668,-0.255053 0.574668,-0.574668 V 76.486601 49.364457 48.789788 21.092974 c 0,-0.639232 -0.51011,-1.149339 -1.149341,-1.149339 H 67.495497 c -0.04962,0 -0.07615,0.05036 -0.123942,0.05636 -0.343971,-0.01206 -0.678399,-0.05636 -1.025399,-0.05636 z"
     id="rect825" />
  <path
     id="path848"
     d="m 133.65385,19.943635 c 15.98077,0 28.84615,12.865384 28.84615,28.846153 0,0.175337 -0.0197,0.343798 -0.0226,0.518308 0.002,0.02115 0.0226,0.03413 0.0226,0.05654 v 27.696817 c 0,0.319437 -0.25505,0.57449 -0.57467,0.57449 h -28.27148 -1.14934 -26.54747 -0.57468 c -0.31961,0 -0.57467,-0.255053 -0.57467,-0.574668 V 76.486601 49.364457 48.789788 21.092974 c 0,-0.639232 0.51011,-1.149339 1.14935,-1.149339 h 26.54747 c 0.0496,0 0.0761,0.05036 0.12394,0.05636 0.34397,-0.01206 0.6784,-0.05636 1.0254,-0.05636 z"
     style="fill:#191919;fill-opacity:1;stroke:none;stroke-width:4.61538;stroke-linecap:round;stroke-linejoin:round;stroke-miterlimit:4;stroke-dasharray:none;stroke-opacity:1"
     inkscape:connector-curvature="0" />
  <path
     id="path850"
     d="m 66.346156,144.94363 c -15.98077,0 -28.846154,-12.86538 -28.846154,-28.84615 0,-0.17534 0.01971,-0.3438 0.0226,-0.51831 -0.0025,-0.0213 -0.0226,-0.034 -0.0226,-0.0565 V 87.825817 c 0,-0.319437 0.255053,-0.57449 0.574668,-0.57449 h 28.271486 1.149341 26.547471 0.574673 c 0.319616,0 0.574668,0.255053 0.574668,0.574668 v 0.574673 27.122142 0.57467 27.69681 c 0,0.63923 -0.51011,1.14934 -1.149341,1.14934 H 67.495497 c -0.04962,0 -0.07615,-0.0502 -0.123942,-0.0565 -0.343971,0.0122 -0.678399,0.0565 -1.025399,0.0565 z"
     style="fill:#191919;fill-opacity:1;stroke:none;stroke-width:4.61538;stroke-linecap:round;stroke-linejoin:round;stroke-miterlimit:4;stroke-dasharray:none;stroke-opacity:1"
     inkscape:connector-curvature="0" />
  <path
     inkscape:connector-curvature="0"
     style="fill:#191919;fill-opacity:1;stroke:none;stroke-width:4.61538;stroke-linecap:round;stroke-linejoin:round;stroke-miterlimit:4;stroke-dasharray:none;stroke-opacity:1"
     d="m 133.65385,144.94363 c 15.98077,0 28.84615,-12.86538 28.84615,-28.84615 0,-0.17534 -0.0197,-0.3438 -0.0226,-0.51831 0.002,-0.0212 0.0226,-0.0341 0.0226,-0.0565 V 87.825817 c 0,-0.319437 -0.25505,-0.57449 -0.57467,-0.57449 h -28.27148 -1.14934 -26.54747 -0.57468 c -0.31961,0 -0.57467,0.255053 -0.57467,0.574668 v 0.574673 27.122142 0.57467 27.69681 c 0,0.63923 0.51011,1.14934 1.14935,1.14934 h 26.54747 c 0.0496,0 0.0761,-0.0502 0.12394,-0.0565 0.34397,0.0122 0.6784,0.0565 1.0254,0.0565 z"
     id="path852" />
</svg>
