<?xml version="1.0" encoding="UTF-8" standalone="no"?>
<svg
   xmlns:dc="http://purl.org/dc/elements/1.1/"
   xmlns:cc="http://creativecommons.org/ns#"
   xmlns:rdf="http://www.w3.org/1999/02/22-rdf-syntax-ns#"
   xmlns:svg="http://www.w3.org/2000/svg"
   xmlns="http://www.w3.org/2000/svg"
   xmlns:sodipodi="http://sodipodi.sourceforge.net/DTD/sodipodi-0.dtd"
   xmlns:inkscape="http://www.inkscape.org/namespaces/inkscape"
   id="svg19"
   viewBox="0 0 54 32"
   version="1.1"
   sodipodi:docname="apport.svg"
   inkscape:version="1.0.1 (3bc2e813f5, 2020-09-07)">
  <sodipodi:namedview
     pagecolor="#329632"
     bordercolor="#666666"
     borderopacity="1"
     objecttolerance="10"
     gridtolerance="10"
     guidetolerance="10"
     inkscape:pageopacity="0"
     inkscape:pageshadow="2"
     inkscape:window-width="1920"
     inkscape:window-height="932"
     id="namedview13"
     showgrid="false"
     inkscape:zoom="10.657407"
     inkscape:cx="32.851412"
     inkscape:cy="16.459564"
     inkscape:window-x="0"
     inkscape:window-y="36"
     inkscape:window-maximized="1"
     inkscape:current-layer="svg19"
     inkscape:document-rotation="0" />
  <metadata
     id="metadata21">
    <rdf:RDF>
      <cc:Work
         rdf:about="">
        <dc:format>image/svg+xml</dc:format>
        <dc:type
           rdf:resource="http://purl.org/dc/dcmitype/StillImage" />
        <dc:title />
      </cc:Work>
    </rdf:RDF>
  </metadata>
  <defs
     id="defs5">
    <style
       type="text/css"
       id="current-color-scheme"> .ColorScheme-Text { color:#363636; } </style>
  </defs>
  <g
     id="apport">
    <path
       id="rect839"
       style="fill:#ffffff;stroke-width:4.648;stroke-linecap:round"
       d="M 29 4 C 27.338 4 26 5.338 26 7 L 26 25 C 26 26.662 27.338 28 29 28 L 47 28 C 48.662 28 50 26.662 50 25 L 50 7 C 50 5.338 48.662 4 47 4 L 29 4 z M 29 6 L 47 6 C 47.554 6 48 6.446 48 7 L 48 25 C 48 25.554 47.554 26 47 26 L 29 26 C 28.446 26 28 25.554 28 25 L 28 7 C 28 6.446 28.446 6 29 6 z M 37 8 C 36.446 8 36 8.446 36 9 L 36 17 C 36 17.554 36.446 18 37 18 L 39 18 C 39.554 18 40 17.554 40 17 L 40 9 C 40 8.446 39.554 8 39 8 L 37 8 z M 37 20 C 36.446 20 36 20.446 36 21 L 36 23 C 36 23.554 36.446 24 37 24 L 39 24 C 39.554 24 40 23.554 40 23 L 40 21 C 40 20.446 39.554 20 39 20 L 37 20 z " />
    <path
       id="path7"
       fill="none"
       d="M 22,0 V 32 H 54 V 0 Z" />
  </g>
  <g
     id="22-22-apport">
    <path
       id="path12"
       fill="none"
       d="m0 10v22h22v-22z" />
    <g
       id="g16"
       fill="currentColor"
       class="ColorScheme-Text">
      <path
         id="path14"
         d="m5 13c-1.108 0-2 0.892-2 2v12c0 1.108 0.892 2 2 2h12c1.108 0 2-0.892 2-2v-12c0-1.108-0.892-2-2-2h-12zm0 2h12v12h-12v-12zm6 1c-0.554 0-1 0.446-1 1v5c0 0.554 0.446 1 1 1s1-0.446 1-1v-5c0-0.554-0.446-1-1-1zm0 8a1 1 0 0 0-1 1 1 1 0 0 0 1 1 1 1 0 0 0 1-1 1 1 0 0 0-1-1z"
         style="fill:#ffffff;fill-opacity:1" />
    </g>
  </g>
</svg>
