<?xml version="1.0" encoding="UTF-8" standalone="no"?>
<svg
   width="32"
   height="32"
   version="1.1"
   viewBox="0 0 32 32"
   id="svg33"
   sodipodi:docname="compass.svg"
   inkscape:version="1.1.1 (3bf5ae0d25, 2021-09-20, custom)"
   xmlns:inkscape="http://www.inkscape.org/namespaces/inkscape"
   xmlns:sodipodi="http://sodipodi.sourceforge.net/DTD/sodipodi-0.dtd"
   xmlns:xlink="http://www.w3.org/1999/xlink"
   xmlns="http://www.w3.org/2000/svg"
   xmlns:svg="http://www.w3.org/2000/svg">
  <sodipodi:namedview
     id="namedview35"
     pagecolor="#c8c8c8"
     bordercolor="#999999"
     borderopacity="1"
     inkscape:pageshadow="0"
     inkscape:pageopacity="0"
     inkscape:pagecheckerboard="0"
     showgrid="true"
     inkscape:zoom="9.2954546"
     inkscape:cx="-8.3374083"
     inkscape:cy="4.6259168"
     inkscape:window-width="1920"
     inkscape:window-height="965"
     inkscape:window-x="0"
     inkscape:window-y="40"
     inkscape:window-maximized="1"
     inkscape:current-layer="svg33"
     inkscape:snap-bbox="true"
     inkscape:snap-bbox-edge-midpoints="true"
     inkscape:bbox-nodes="true"
     inkscape:snap-nodes="false">
    <inkscape:grid
       type="xygrid"
       id="grid852" />
  </sodipodi:namedview>
  <defs
     id="defs16">
    <linearGradient
       id="linearGradient860">
      <stop
         stop-color="#4deb47"
         offset="0"
         id="stop2" />
      <stop
         stop-color="#ffa000"
         offset="1"
         id="stop4" />
    </linearGradient>
    <linearGradient
       id="linearGradient11">
      <stop
         stop-color="#5df240"
         offset="0"
         id="stop7" />
      <stop
         stop-color="#fff400"
         offset="1"
         id="stop9" />
    </linearGradient>
    <style
       id="current-color-scheme"
       type="text/css">.ColorScheme-Text { color:#565656; } .ColorScheme-Highlight { color:#5294e2; }</style>
    <linearGradient
       id="linearGradient848"
       x2="22"
       y1="11"
       y2="11"
       gradientTransform="matrix(1.27272,0,0,1.27272,2,2.0546)"
       gradientUnits="userSpaceOnUse"
       xlink:href="#linearGradient860" />
    <linearGradient
       id="linearGradient877"
       x1="3"
       x2="19"
       y1="11"
       y2="11"
       gradientUnits="userSpaceOnUse"
       xlink:href="#linearGradient860"
       gradientTransform="translate(-24,10)" />
  </defs>
  <g
     id="compass">
    <path
       id="rect978"
       style="fill:#fbfbfb;fill-opacity:1;fill-rule:evenodd;stroke-width:0.107143;stroke-linecap:round;stroke-linejoin:round;paint-order:stroke fill markers"
       d="m 16.625697,1 v 1.5506421 c 0,0.518204 -0.419182,0.9395925 -0.9375,0.9395925 -0.518191,0 -0.939592,-0.4213885 -0.939592,-0.9395925 V 1.0376671 C 7.4551836,1.6393686 1.6393675,7.4551718 1.0376671,14.748605 h 1.512975 c 0.518205,0 0.9395925,0.4214 0.9395925,0.939592 0,0.518192 -0.4213875,0.9375 -0.9395925,0.9375 H 1 c 0.3108396,7.584219 6.2478439,13.717733 13.748605,14.336636 v -1.512975 c 0,-0.518192 0.421401,-0.939593 0.939592,-0.939593 0.518318,0 0.9375,0.421401 0.9375,0.939593 V 31 C 24.419595,30.680603 30.680603,24.41947 31,16.625697 h -1.550642 c -0.518192,0 -0.939593,-0.419308 -0.939593,-0.9375 0,-0.518192 0.421401,-0.939592 0.939593,-0.939592 h 1.512975 C 30.34343,7.2478193 24.209917,1.3108525 16.625697,1 Z m -6.533203,8.4312225 c 0.06161,0.00403 0.125114,0.017561 0.188337,0.041852 l 6.248606,2.4002515 c 1.653534,0.635292 2.959727,1.943701 3.595144,3.597237 l 2.402344,6.248606 c 0.194416,0.505806 -0.30195,1.002047 -0.807756,0.807756 L 15.470563,20.126674 C 13.817027,19.491258 12.508744,18.182973 11.873326,16.529437 L 9.4730746,10.280831 C 9.3030271,9.8382839 9.6612218,9.4030493 10.092494,9.4312225 Z" />
    <rect
       x="0"
       width="32"
       height="32"
       fill="none"
       stroke-linecap="round"
       stroke-linejoin="round"
       stroke-miterlimit="2"
       stroke-width="4.2666"
       id="rect23"
       y="0" />
  </g>
  <g
     id="22-22-compass">
    <rect
       style="opacity:0.00100002;fill:#000000;fill-opacity:1;fill-rule:evenodd;stroke-width:0.175709;stroke-linecap:round;stroke-linejoin:round;paint-order:stroke fill markers"
       id="rect35320"
       width="22"
       height="22"
       x="-24"
       y="10"
       ry="0" />
    <path
       id="rect1083"
       style="fill:#fbfbfb;fill-opacity:1;fill-rule:evenodd;stroke-width:0.114285;stroke-linecap:round;stroke-linejoin:round;paint-order:stroke fill markers"
       d="m -13,13 c -4.030252,0 -7.365093,2.98024 -7.919644,6.857143 h 1.633929 c 0.31559,0 0.57143,0.25584 0.57143,0.571429 0,0.315588 -0.25584,0.571428 -0.57143,0.571428 H -21 c 0,4.418285 3.581725,8 8,8 v -1.714285 c 0,-0.315543 0.25584,-0.57143 0.571428,-0.57143 0.315589,0 0.571429,0.255887 0.571429,0.57143 v 1.633928 C -7.9802285,28.365128 -5,25.030285 -5,21 h -1.7142857 c -0.3155428,0 -0.5714286,-0.25584 -0.5714286,-0.571428 0,-0.315589 0.2558858,-0.571429 0.5714286,-0.571429 h 1.6339285 C -5.5815,16.353497 -8.3534857,13.581512 -11.857143,13.080357 v 1.633928 c 0,0.31559 -0.25584,0.57143 -0.571429,0.57143 -0.315588,0 -0.571428,-0.25584 -0.571428,-0.57143 z m -2.279019,5.160715 c 0.08995,-0.002 0.183968,0.01888 0.276787,0.06696 l 2.180804,1.129464 c 0.626913,0.324788 1.138343,0.835745 1.464285,1.462053 l 1.142857,2.196428 c 0.2578288,0.495429 -0.274603,1.027919 -0.770089,0.770089 l -2.196429,-1.142857 c -0.626376,-0.325931 -1.137231,-0.837336 -1.462053,-1.464285 l -1.129464,-2.180803 c -0.208371,-0.402201 0.103485,-0.828844 0.493302,-0.837055 z" />
  </g>
</svg>
