<?xml version="1.0" encoding="UTF-8" standalone="no"?>
<svg
   id="svg"
   inkscape:version="1.1.1 (3bf5ae0d25, 2021-09-20, custom)"
   sodipodi:docname="device.svg"
   version="1.1"
   viewBox="0 0 22 22"
   xmlns:inkscape="http://www.inkscape.org/namespaces/inkscape"
   xmlns:sodipodi="http://sodipodi.sourceforge.net/DTD/sodipodi-0.dtd"
   xmlns="http://www.w3.org/2000/svg"
   xmlns:svg="http://www.w3.org/2000/svg"
   xmlns:rdf="http://www.w3.org/1999/02/22-rdf-syntax-ns#"
   xmlns:cc="http://creativecommons.org/ns#"
   xmlns:dc="http://purl.org/dc/elements/1.1/">
  <metadata
     id="metadata28">
    <rdf:RDF>
      <cc:Work
         rdf:about="">
        <dc:format>image/svg+xml</dc:format>
        <dc:type
           rdf:resource="http://purl.org/dc/dcmitype/StillImage" />
        <dc:title />
      </cc:Work>
    </rdf:RDF>
  </metadata>
  <sodipodi:namedview
     id="namedview33"
     bordercolor="#666666"
     borderopacity="1"
     gridtolerance="10"
     guidetolerance="10"
     inkscape:bbox-nodes="true"
     inkscape:current-layer="svg"
     inkscape:cx="-4.15625"
     inkscape:cy="35.5"
     inkscape:object-nodes="true"
     inkscape:object-paths="true"
     inkscape:pageopacity="0"
     inkscape:pageshadow="2"
     inkscape:snap-bbox="true"
     inkscape:snap-bbox-edge-midpoints="true"
     inkscape:snap-intersection-paths="true"
     inkscape:snap-midpoints="true"
     inkscape:snap-nodes="true"
     inkscape:snap-smooth-nodes="true"
     inkscape:window-height="1005"
     inkscape:window-maximized="1"
     inkscape:window-width="1920"
     inkscape:window-x="0"
     inkscape:window-y="0"
     inkscape:zoom="16"
     objecttolerance="10"
     pagecolor="#c8c8c8"
     showgrid="true"
     showguides="true"
     inkscape:document-rotation="0"
     inkscape:pagecheckerboard="0"
     inkscape:lockguides="false">
    <inkscape:grid
       id="grid842"
       type="xygrid" />
  </sodipodi:namedview>
  <defs
     id="defs3">
    <style
       id="current-color-scheme"
       type="text/css">.ColorScheme-Text { color:#dedede; } .ColorScheme-Highlight { color:#5294e2; } .ColorScheme-ButtonBackground { color:#dedede; }</style>
  </defs>
  <g
     id="device-notifier">
    <rect
       y="-35.999996"
       x="-4.9999924"
       height="31.999985"
       width="31.999985"
       id="rect4151"
       style="opacity:0.2;fill:none;fill-opacity:1;stroke:none" />
    <path
       id="path839"
       d="M 2.5,-30 C 1.11929,-30 0,-28.88071 0,-27.5 v 18 C 0,-8.1193 1.11929,-7 2.5,-7 h 17 C 20.8807,-7 22,-8.1193 22,-9.5 V -24 H 11.5 C 10.67157,-24 10,-24.67157 10,-25.5 V -30 Z m 8.5,0 v 4.5 c 0,0.27614 0.22386,0.5 0.5,0.5 H 22 v -0.5 C 22,-28 22,-30 19.5,-30 Z"
       style="fill:#ffffff;fill-opacity:1"
       sodipodi:nodetypes="sssssscsscscsscssc" />
  </g>
  <g
     id="22-22-device-notifier">
    <rect
       y="1.2617187e-05"
       x="9.9999997e-06"
       height="21.999985"
       width="21.999985"
       id="rect4157"
       style="opacity:0.2;fill:none;fill-opacity:1;stroke:none" />
    <g
       id="g1588"
       transform="translate(-18,-1)">
      <path
         id="rect877"
         style="fill:#fffffe;stroke:none;stroke-width:2.17423;stroke-linecap:round;stroke-linejoin:round"
         d="m 25,7 c -1.108,0 -2,0.892 -2,2 v 10 c 0,1.108 0.892,2 2,2 h 8 c 1.108,0 2,-0.892 2,-2 V 9 C 35,7.892 34.108,7 33,7 Z m 0,1 h 8 c 0.554,0 1,0.446 1,1 v 10 c 0,0.554 -0.446,1 -1,1 h -8 c -0.554,0 -1,-0.446 -1,-1 V 9 c 0,-0.554 0.446,-1 1,-1 z"
         sodipodi:nodetypes="ssssssssssssssssss" />
      <path
         id="rect1303"
         style="fill:#fffffe;stroke:none;stroke-width:2;stroke-linecap:round;stroke-linejoin:round"
         d="m 27,3 c -0.554,0 -1,0.446 -1,1 v 3 c 0,0.554 0.446,1 1,1 h 4 c 0.554,0 1,-0.446 1,-1 V 4 C 32,3.446 31.554,3 31,3 Z m 0,1 h 4 v 3 h -4 z"
         sodipodi:nodetypes="sssssssssccccc" />
    </g>
    <path
       id="rect3929"
       style="fill:#ffffff;fill-opacity:1;fill-rule:evenodd;stroke-linecap:round;stroke-linejoin:round"
       d="M 7,6 C 5.892,6 5,6.892 5,8 v 10 c 0,1.108 0.892,2 2,2 h 8 c 1.108,0 2,-0.892 2,-2 V 8 C 17,6.892 16.108,6 15,6 Z m 4,10 a 1,1 0 0 1 1,1 1,1 0 0 1 -1,1 1,1 0 0 1 -1,-1 1,1 0 0 1 1,-1 z" />
    <circle
       style="opacity:0.45;fill:#ffffff;fill-opacity:1;fill-rule:evenodd;stroke-linecap:round;stroke-linejoin:round"
       id="path4594"
       cx="11"
       cy="17"
       r="1" />
    <rect
       style="opacity:1;fill:#ffffff;fill-opacity:1;fill-rule:evenodd;stroke-linecap:round;stroke-linejoin:round"
       id="rect4856"
       width="2"
       height="1"
       x="10"
       y="4"
       ry="0.5" />
  </g>
  <g
     id="16-16-device-notifier">
    <rect
       style="opacity:0.2;fill:none;fill-opacity:1;stroke:none"
       id="rect4182"
       width="15.999985"
       height="15.999985"
       x="0"
       y="26.000002" />
    <g
       id="g999">
      <path
         inkscape:connector-curvature="0"
         style="opacity:1;fill:#fbfbfb;fill-opacity:1;stroke:none;stroke-width:1.28901;stroke-miterlimit:4;stroke-dasharray:none;stroke-opacity:1"
         d="m 5,31 v 9 h 6 v -9 z m 1,1 h 4 v 7.076172 H 6 Z"
         id="rect945" />
      <path
         style="opacity:1;fill:#fbfbfb;fill-opacity:1;stroke:none;stroke-width:0.701646;stroke-miterlimit:4;stroke-dasharray:none;stroke-opacity:1"
         d="m 6,29 v 3 h 4 v -3 z m 1,1 h 2 v 1 H 7 Z"
         transform="translate(7.6293945e-6)"
         id="rect979" />
    </g>
    <path
       id="rect5323"
       style="opacity:1;fill:#ffffff;fill-opacity:1;fill-rule:evenodd;stroke-linecap:round;stroke-linejoin:round"
       d="M 5 31 L 5 40 L 11 40 L 11 31 L 5 31 z M 7 37 L 9 37 L 9 38 L 7 38 L 7 37 z " />
    <rect
       style="opacity:0.45;fill:#ffffff;fill-opacity:1;fill-rule:evenodd;stroke-linecap:round;stroke-linejoin:round"
       id="rect5635"
       width="2"
       height="1"
       x="7"
       y="37" />
  </g>
</svg>
