<?xml version="1.0" encoding="UTF-8" standalone="no"?>
<svg
   width="22"
   height="22"
   version="1.1"
   id="svg8"
   sodipodi:docname="kleopatra.svg"
   inkscape:version="1.2.1 (9c6d41e410, 2022-07-14, custom)"
   xmlns:inkscape="http://www.inkscape.org/namespaces/inkscape"
   xmlns:sodipodi="http://sodipodi.sourceforge.net/DTD/sodipodi-0.dtd"
   xmlns="http://www.w3.org/2000/svg"
   xmlns:svg="http://www.w3.org/2000/svg"
   xmlns:rdf="http://www.w3.org/1999/02/22-rdf-syntax-ns#"
   xmlns:cc="http://creativecommons.org/ns#"
   xmlns:dc="http://purl.org/dc/elements/1.1/">
  <metadata
     id="metadata14">
    <rdf:RDF>
      <cc:Work
         rdf:about="">
        <dc:format>image/svg+xml</dc:format>
        <dc:type
           rdf:resource="http://purl.org/dc/dcmitype/StillImage" />
      </cc:Work>
    </rdf:RDF>
  </metadata>
  <defs
     id="defs12" />
  <sodipodi:namedview
     pagecolor="#c8c8c8"
     bordercolor="#666666"
     borderopacity="1"
     objecttolerance="10"
     gridtolerance="10"
     guidetolerance="10"
     inkscape:pageopacity="0"
     inkscape:pageshadow="2"
     inkscape:window-width="1920"
     inkscape:window-height="1005"
     id="namedview10"
     showgrid="true"
     inkscape:zoom="10.727273"
     inkscape:cx="3.6355931"
     inkscape:cy="13.283898"
     inkscape:window-x="0"
     inkscape:window-y="0"
     inkscape:window-maximized="1"
     inkscape:current-layer="svg8"
     inkscape:pagecheckerboard="0"
     inkscape:snap-bbox="true"
     inkscape:bbox-nodes="true"
     inkscape:showpageshadow="0"
     inkscape:deskcolor="#c8c8c8">
    <inkscape:grid
       type="xygrid"
       id="grid938" />
  </sodipodi:namedview>
  <g
     id="g1068"
     transform="translate(0,23)">
    <path
       style="fill:none;fill-rule:evenodd;stroke:#fbfbfb;stroke-width:1.99972;stroke-linecap:round;stroke-linejoin:round;stroke-miterlimit:4;stroke-dasharray:none;stroke-opacity:1;paint-order:stroke fill markers"
       id="path869"
       sodipodi:type="arc"
       sodipodi:cx="11"
       sodipodi:cy="14.209672"
       sodipodi:rx="8.5375185"
       sodipodi:ry="8.5375185"
       sodipodi:start="3.403392"
       sodipodi:end="6.0213859"
       sodipodi:open="true"
       sodipodi:arc-type="arc"
       d="M 2.7533903,12 A 8.5375185,8.5375185 0 0 1 11,5.6721535 8.5375185,8.5375185 0 0 1 19.24661,11.999999" />
    <circle
       style="fill:#ffffff;fill-rule:evenodd;stroke-width:1.5;stroke-linecap:round;stroke-linejoin:round;paint-order:stroke fill markers"
       id="path848"
       cx="11"
       cy="13"
       r="3" />
  </g>
  <g
     id="kleopatra">
    <rect
       style="fill:none;fill-opacity:1;stroke:none;stroke-width:1;stroke-linecap:round;stroke-linejoin:round;stroke-miterlimit:4;stroke-dasharray:none;stroke-opacity:1"
       id="rect4764"
       width="22"
       height="22"
       x="0"
       y="-1.7382812e-05" />
    <path
       clip-rule="evenodd"
       d="m 19.77028,11 c 0,-0.3588 -0.1941,-0.5944 -0.5823,-1.0657 C 17.76798,8.21014 14.63568,5 10.99998,5 7.36426,5 4.23205,8.21014 2.81196,9.9343 2.4238,10.4056 2.22972,10.6412 2.22972,11 c 0,0.3588 0.19408,0.5944 0.58224,1.0657 C 4.23205,13.7899 7.36426,17 10.99998,17 c 3.6357,0 6.768,-3.2101 8.188,-4.9343 0.3882,-0.4713 0.5823,-0.7069 0.5823,-1.0657 z m -8.7703,3 c 1.6569,0 3,-1.3431 3,-3 0,-1.6569 -1.3431,-3 -3,-3 C 9.34318,8 8,9.3431 8,11 c 0,1.6569 1.34318,3 2.99998,3 z"
       id="path135"
       style="fill:#fbfbfb;fill-opacity:1"
       fill-rule="evenodd" />
  </g>
</svg>
