<?xml version="1.0" encoding="UTF-8" standalone="no"?>
<svg
   xmlns:dc="http://purl.org/dc/elements/1.1/"
   xmlns:cc="http://creativecommons.org/ns#"
   xmlns:rdf="http://www.w3.org/1999/02/22-rdf-syntax-ns#"
   xmlns:svg="http://www.w3.org/2000/svg"
   xmlns="http://www.w3.org/2000/svg"
   xmlns:sodipodi="http://sodipodi.sourceforge.net/DTD/sodipodi-0.dtd"
   xmlns:inkscape="http://www.inkscape.org/namespaces/inkscape"
   width="32"
   height="32"
   version="1"
   id="svg12"
   sodipodi:docname="knotes.svg"
   inkscape:version="1.0.2 (e86c870879, 2021-01-15)">
  <metadata
     id="metadata18">
    <rdf:RDF>
      <cc:Work
         rdf:about="">
        <dc:format>image/svg+xml</dc:format>
        <dc:type
           rdf:resource="http://purl.org/dc/dcmitype/StillImage" />
        <dc:title />
      </cc:Work>
    </rdf:RDF>
  </metadata>
  <defs
     id="defs16" />
  <sodipodi:namedview
     pagecolor="#c8c8c8"
     bordercolor="#666666"
     borderopacity="1"
     objecttolerance="10"
     gridtolerance="10"
     guidetolerance="10"
     inkscape:pageopacity="0"
     inkscape:pageshadow="2"
     inkscape:window-width="1920"
     inkscape:window-height="992"
     id="namedview14"
     showgrid="true"
     inkscape:zoom="13.876971"
     inkscape:cx="41.602478"
     inkscape:cy="13.833069"
     inkscape:window-x="0"
     inkscape:window-y="0"
     inkscape:window-maximized="1"
     inkscape:current-layer="svg12"
     inkscape:document-rotation="0">
    <inkscape:grid
       type="xygrid"
       id="grid857"
       originx="0"
       originy="0" />
  </sodipodi:namedview>
  <g
     id="knotes">
    <rect
       y="-1e-06"
       x="-2.8953547e-08"
       height="32"
       width="32.000004"
       id="rect4230"
       style="fill:none;fill-opacity:1;stroke:none" />
    <g
       transform="translate(-26.999998,-31.999999)"
       id="g927">
      <path
         id="rect863-3"
         style="opacity:1;fill:#ffffff;fill-opacity:1;stroke-linecap:round"
         d="m 36,39 c -1.662001,0 -3,1.337999 -3,3 v 15 c 0,1.662001 1.337999,3 3,3 h 14 c 1.662001,0 3,-1.337999 3,-3 V 42 c 0,-1.662001 -1.337999,-3 -3,-3 z m 0,2 h 14 c 0.554001,0 1,0.445999 1,1 v 15 c 0,0.554001 -0.445999,1 -1,1 H 36 c -0.554001,0 -1,-0.445999 -1,-1 V 42 c 0,-0.554001 0.445999,-1 1,-1 z" />
      <path
         id="rect869"
         style="fill:#ffffff;fill-opacity:1;fill-rule:evenodd;stroke:none;stroke-width:2;stroke-linecap:round;stroke-linejoin:round;stroke-miterlimit:4;stroke-dasharray:none;stroke-opacity:1;paint-order:fill markers stroke"
         d="m 41,36 c -0.554,0 -1,0.446 -1,1 v 1 h -1 c -0.554,0 -1,0.446 -1,1 v 1 c 0,0.186367 0.06427,0.350945 0.152344,0.5 C 38.064267,40.649055 38,40.813633 38,41 v 1 c 0,0.554 0.446,1 1,1 h 8 c 0.554,0 1,-0.446 1,-1 V 41 C 48,40.813633 47.935733,40.649055 47.847656,40.5 47.935733,40.350945 48,40.186367 48,40 v -1 c 0,-0.554 -0.446,-1 -1,-1 h -1 v -1 c 0,-0.554 -0.446,-1 -1,-1 z" />
      <rect
         style="opacity:1;fill:#ffffff;fill-opacity:1;stroke-linecap:round"
         id="rect916"
         width="10"
         height="2"
         x="38"
         y="46"
         ry="1" />
      <rect
         ry="1"
         y="50"
         x="38"
         height="2"
         width="10"
         id="rect918"
         style="opacity:1;fill:#ffffff;fill-opacity:1;stroke-linecap:round" />
      <rect
         style="opacity:1;fill:#ffffff;fill-opacity:1;stroke-linecap:round"
         id="rect920"
         width="10"
         height="2"
         x="38"
         y="54"
         ry="1" />
    </g>
  </g>
  <g
     id="22-22-knotes"
     transform="translate(-16,5.000001)">
    <rect
       style="fill:none;fill-opacity:1;stroke:none;stroke-width:0.1;stroke-linecap:square;stroke-linejoin:miter;stroke-miterlimit:4;stroke-dasharray:none;stroke-dashoffset:0;stroke-opacity:1"
       id="rect4148"
       width="22"
       height="22"
       x="49"
       y="4.999999" />
    <g
       transform="translate(-15,0.99999909)"
       id="g1010">
      <path
         id="rect887"
         style="opacity:1;fill:#ffffff;fill-opacity:1;stroke-width:0.707107;stroke-linecap:round"
         d="m 70,8.0000019 c -1.108,0 -2,0.892 -2,2.0000001 V 22 c 0,1.108 0.892,2 2,2 h 10 c 1.108,0 2,-0.892 2,-2 V 10.000002 C 82,8.8920019 81.108,8.0000019 80,8.0000019 Z m 1,2.0000001 h 8 c 0.554,0 1,0.446 1,1 V 21 c 0,0.554 -0.446,1 -1,1 h -8 c -0.554,0 -1,-0.446 -1,-1 v -9.999998 c 0,-0.554 0.446,-1 1,-1 z"
         sodipodi:nodetypes="ssssssssssssssssss" />
      <rect
         style="fill:#ffffff;fill-opacity:1;fill-rule:evenodd;stroke:none;stroke-width:2;stroke-linecap:round;stroke-linejoin:round;stroke-miterlimit:4;stroke-dasharray:none;stroke-opacity:1;paint-order:fill markers stroke"
         id="rect980"
         width="6"
         height="3"
         x="72"
         y="5.0000019"
         ry="0.99999994" />
      <rect
         ry="0.99999994"
         y="7.0000019"
         x="71"
         height="3"
         width="8"
         id="rect982"
         style="fill:#ffffff;fill-opacity:1;fill-rule:evenodd;stroke:none;stroke-width:2;stroke-linecap:round;stroke-linejoin:round;stroke-miterlimit:4;stroke-dasharray:none;stroke-opacity:1;paint-order:fill markers stroke" />
      <rect
         style="fill:#ffffff;fill-opacity:1;fill-rule:evenodd;stroke:none;stroke-width:2;stroke-linecap:round;stroke-linejoin:round;stroke-miterlimit:4;stroke-dasharray:none;stroke-opacity:1;paint-order:fill markers stroke"
         id="rect998"
         width="8"
         height="3"
         x="71"
         y="8.0000019"
         ry="0.99999994" />
      <rect
         style="opacity:1;fill:#ffffff;fill-opacity:1;stroke-linecap:round"
         id="rect1000"
         width="6"
         height="2"
         x="72"
         y="14.000001"
         ry="1" />
      <rect
         ry="1"
         y="18.000002"
         x="72"
         height="2"
         width="6"
         id="rect1002"
         style="opacity:1;fill:#ffffff;fill-opacity:1;stroke-linecap:round" />
    </g>
  </g>
</svg>
