<?xml version="1.0" encoding="UTF-8" standalone="no"?>
<svg
   xmlns:dc="http://purl.org/dc/elements/1.1/"
   xmlns:cc="http://creativecommons.org/ns#"
   xmlns:rdf="http://www.w3.org/1999/02/22-rdf-syntax-ns#"
   xmlns:svg="http://www.w3.org/2000/svg"
   xmlns="http://www.w3.org/2000/svg"
   xmlns:sodipodi="http://sodipodi.sourceforge.net/DTD/sodipodi-0.dtd"
   xmlns:inkscape="http://www.inkscape.org/namespaces/inkscape"
   inkscape:version="1.0 (4035a4fb49, 2020-05-01)"
   sodipodi:docname="media.svg"
   id="svg53"
   viewBox="0 0 20.108389 8.4667"
   version="1.1"
   height="32"
   width="76">
  <sodipodi:namedview
     inkscape:current-layer="svg53"
     inkscape:window-maximized="1"
     inkscape:window-y="36"
     inkscape:window-x="0"
     inkscape:cy="41.897203"
     inkscape:cx="43.591052"
     inkscape:zoom="5.3544731"
     showgrid="false"
     id="namedview36"
     inkscape:window-height="932"
     inkscape:window-width="1920"
     inkscape:pageshadow="2"
     inkscape:pageopacity="0"
     guidetolerance="10"
     gridtolerance="10"
     objecttolerance="10"
     borderopacity="1"
     bordercolor="#666666"
     pagecolor="#c8c8c8" />
  <metadata
     id="metadata57">
    <rdf:RDF>
      <cc:Work
         rdf:about="">
        <dc:format>image/svg+xml</dc:format>
        <dc:type
           rdf:resource="http://purl.org/dc/dcmitype/StillImage" />
        <dc:title></dc:title>
      </cc:Work>
    </rdf:RDF>
  </metadata>
  <defs
     id="defs3">
    <style
       id="current-color-scheme"
       type="text/css">.ColorScheme-Text { color:#363636; } </style>
  </defs>
  <g
     transform="matrix(0.26458,0,0,0.26458,0.86025506,1.3229103)"
     id="media-record">
    <rect
       id="rect20"
       fill-opacity="0"
       height="22"
       width="22"
       y="4.3869e-05"
       x="73" />
    <path
       id="path22"
       fill="currentColor"
       d="m 83.99,2 a 9,9 0 0 0 -8.9902,9 9,9 0 0 0 9,9 9,9 0 0 0 9,-9 9,9 0 0 0 -9,-9 9,9 0 0 0 -0.0098,0 z m -0.08594,2 a 7,7 0 0 1 0.002,0 7,7 0 0 1 0.09371,0 7,7 0 0 1 7,7 7,7 0 0 1 -7,7 7,7 0 0 1 -7,-7 7,7 0 0 1 6.9043,-7 z m 0.03516,3 a 4,4 0 0 0 -3.9395,4 4,4 0 0 0 4,4 4,4 0 0 0 4,-4 4,4 0 0 0 -4,-4 4,4 0 0 0 -0.06055,0 z"
       class="ColorScheme-Text" />
  </g>
  <g
     transform="matrix(0.26458,0,0,0.26458,33.271468,7.4082619)"
     id="media-seek-forward">
    <rect
       id="rect25"
       fill-opacity="0"
       height="22"
       width="22"
       y="-23"
       x="0.00021085" />
    <path
       id="path27"
       fill="currentColor"
       d="m 133.99,2 a 9,9 0 0 0 -8.9902,9 9,9 0 0 0 9,9 9,9 0 0 0 9,-9 9,9 0 0 0 -9,-9 9,9 0 0 0 -0.01,0 z m -0.0859,2 a 7,7 0 0 1 0.002,0 7,7 0 0 1 0.0937,0 7,7 0 0 1 7,7 7,7 0 0 1 -7,7 7,7 0 0 1 -7,-7 7,7 0 0 1 6.9043,-7 z m -3.3418,3.8027 c -0.16096,0.01995 -0.29457,0.089885 -0.40234,0.21094 -0.10776,0.12106 -0.16211,0.26348 -0.16211,0.42578 v 5.1211 c 0,0.1623 0.0544,0.30472 0.16211,0.42578 0.10776,0.12106 0.24138,0.19098 0.40234,0.21094 0.16097,0.01996 0.30705,-0.01563 0.44141,-0.10742 l 2.9941,-2.0645 v 1.5352 c 0,0.1623 0.0543,0.30472 0.16211,0.42578 0.10776,0.12106 0.24138,0.19098 0.40234,0.21094 0.16097,0.01996 0.30705,-0.01563 0.44141,-0.10742 l 3.7148,-2.5605 c 0.1184,-0.08115 0.20088,-0.19181 0.2461,-0.32617 0.0452,-0.13569 0.0452,-0.26992 0,-0.4043 -0.0452,-0.13436 -0.12707,-0.2437 -0.24414,-0.32617 l -3.7168,-2.5625 c -0.13392,-0.093122 -0.28088,-0.12782 -0.44141,-0.10742 -0.16096,0.01995 -0.29457,0.089885 -0.40234,0.21094 -0.10775,0.12106 -0.16211,0.26348 -0.16211,0.42578 v 1.5352 l -2.9941,-2.0645 c -0.13392,-0.093122 -0.28088,-0.12782 -0.44141,-0.10742 z"
       transform="translate(-123,-23)"
       class="ColorScheme-Text" />
  </g>
  <g
     transform="matrix(-0.26458,0,0,0.26458,32.543874,7.4082619)"
     id="media-seek-backward">
    <rect
       id="rect30"
       fill-opacity="0"
       height="22"
       width="22"
       y="-23"
       x="0.00021085" />
    <path
       id="path32"
       fill="currentColor"
       d="m 109,2 a 9,9 0 0 0 -9,9 9,9 0 0 0 9,9 9,9 0 0 0 9,-9 9,9 0 0 0 -8.9902,-9 9,9 0 0 0 -0.01,0 z m 0,2 a 7,7 0 0 1 0.0937,0 7,7 0 0 1 6.9062,7 7,7 0 0 1 -7,7 7,7 0 0 1 -7,-7 7,7 0 0 1 7,-7 z m -0.5625,3.8027 c -0.16052,-0.020399 -0.30748,0.0143 -0.4414,0.10742 l -3.7168,2.5625 c -0.11708,0.08247 -0.1989,0.19181 -0.24414,0.32617 -0.0452,0.13438 -0.0452,0.2686 0,0.4043 0.0452,0.13436 0.12769,0.24502 0.24609,0.32617 l 3.7148,2.5605 c 0.13435,0.0918 0.28044,0.12738 0.4414,0.10742 0.16097,-0.01996 0.29459,-0.08988 0.40235,-0.21094 0.10775,-0.12106 0.16211,-0.26348 0.16211,-0.42578 v -1.5352 l 2.9941,2.0645 c 0.13435,0.0918 0.28044,0.12738 0.4414,0.10742 0.16097,-0.01996 0.29459,-0.08988 0.40235,-0.21094 0.10775,-0.12106 0.16211,-0.26348 0.16211,-0.42578 v -5.1211 c 0,-0.1623 -0.0544,-0.30472 -0.16211,-0.42578 -0.10777,-0.12105 -0.24138,-0.19099 -0.40235,-0.21094 -0.16052,-0.020399 -0.30748,0.0143 -0.4414,0.10742 l -2.9941,2.0645 v -1.5352 c 0,-0.1623 -0.0544,-0.30472 -0.16211,-0.42578 -0.10777,-0.12105 -0.24138,-0.19099 -0.40235,-0.21094 z"
       transform="matrix(-1,0,0,1,120,-23)"
       class="ColorScheme-Text" />
  </g>
  <g
     transform="matrix(0.26458,0,0,0.26458,1.3898478,1.3229138)"
     id="media-skip-forward">
    <rect
       id="rect35"
       fill-opacity="0"
       height="22"
       width="22"
       y="3.0518e-05"
       x="170" />
    <path
       id="path37"
       fill="currentColor"
       d="m 180.99,2 a 9,9 0 0 0 -8.9902,9 9,9 0 0 0 9,9 9,9 0 0 0 9,-9 9,9 0 0 0 -9,-9 9,9 0 0 0 -0.01,0 z m -0.0859,2 a 7,7 0 0 1 0.002,0 7,7 0 0 1 0.0937,0 7,7 0 0 1 7,7 7,7 0 0 1 -7,7 7,7 0 0 1 -7,-7 7,7 0 0 1 6.9043,-7 z m -3.3418,3.8027 c -0.16097,0.01995 -0.29457,0.089885 -0.40234,0.21094 -0.1078,0.12106 -0.16215,0.26348 -0.16215,0.42578 v 5.1211 c 0,0.1623 0.0543,0.30472 0.16211,0.42578 0.10775,0.12106 0.24137,0.19098 0.40234,0.21094 0.16097,0.01996 0.30705,-0.01563 0.44141,-0.10742 l 3.7148,-2.5605 c 0.1184,-0.08115 0.20088,-0.19181 0.2461,-0.32617 0.0452,-0.13569 0.0452,-0.26992 0,-0.4043 -0.0452,-0.13436 -0.12706,-0.2437 -0.24414,-0.32617 l -3.7168,-2.5625 c -0.13392,-0.093122 -0.28089,-0.12782 -0.44141,-0.10742 z m 6.4355,0.19727 c -0.554,0 -1,0.446 -1,1 v 4 c 0,0.554 0.446,1 1,1 0.554,0 1,-0.446 1,-1 v -4 c 0,-0.554 -0.446,-1 -1,-1 z"
       class="ColorScheme-Text" />
  </g>
  <g
     transform="matrix(-0.26458,0,0,0.26458,90.619345,1.3229138)"
     id="media-skip-backward">
    <rect
       id="rect40"
       fill-opacity="0"
       height="22"
       width="22"
       y="3.0518e-05"
       x="170" />
    <path
       id="path42"
       fill="currentColor"
       d="m 158,2 a 9,9 0 0 0 -9,9 9,9 0 0 0 9,9 9,9 0 0 0 9,-9 9,9 0 0 0 -8.9902,-9 9,9 0 0 0 -0.01,0 z m 0,2 a 7,7 0 0 1 0.0937,0 7,7 0 0 1 6.9062,7 7,7 0 0 1 -7,7 7,7 0 0 1 -7,-7 7,7 0 0 1 7,-7 z m 3.4375,3.8027 c -0.16052,-0.020399 -0.30748,0.0143 -0.4414,0.10742 l -3.7168,2.5625 c -0.11708,0.08247 -0.19894,0.19181 -0.24414,0.32617 -0.0452,0.13438 -0.0452,0.2686 0,0.4043 0.0452,0.13436 0.12769,0.24502 0.24609,0.32617 l 3.7148,2.5605 c 0.13436,0.0918 0.28043,0.12738 0.4414,0.10742 0.16097,-0.01996 0.2946,-0.08988 0.40235,-0.21094 0.1078,-0.12106 0.16211,-0.26348 0.16211,-0.42578 v -5.1211 c 0,-0.1623 -0.0543,-0.30472 -0.16211,-0.42578 -0.10777,-0.12105 -0.24138,-0.19099 -0.40235,-0.21094 z m -6.4355,0.19727 c -0.554,0 -1,0.446 -1,1 v 4 c 0,0.554 0.446,1 1,1 0.554,0 1,-0.446 1,-1 v -4 c 0,-0.554 -0.446,-1 -1,-1 z"
       transform="matrix(-1,0,0,1,339,0)"
       class="ColorScheme-Text" />
  </g>
  <g
     transform="matrix(0,-0.26458,0.26458,0,52.916903,52.122282)"
     id="media-eject">
    <rect
       id="rect45"
       fill-opacity="0"
       height="22"
       width="22"
       y="3.0518e-05"
       x="170" />
    <path
       id="path47"
       fill="currentColor"
       d="m 208,2 a 9,9 0 0 0 -9,9 9,9 0 0 0 0,0.0098 9,9 0 0 0 9,8.9902 9,9 0 0 0 9,-9 9,9 0 0 0 -9,-9 z m -0.0937,2 A 7,7 0 0 1 208,4 a 7,7 0 0 1 7,7 7,7 0 0 1 -7,7 7,7 0 0 1 -7,-6.9062 7,7 0 0 1 0,-0.09375 7,7 0 0 1 6.9062,-7 z M 208,5.7559 c -0.0845,0 -0.16806,0.014769 -0.25195,0.042969 -0.16777,0.0564 -0.30328,0.15849 -0.40625,0.30469 l -3.1992,4.6406 c -0.11628,0.16722 -0.16024,0.35035 -0.13477,0.55078 0.0249,0.201 0.11252,0.36738 0.26367,0.50195 0.15116,0.13456 0.3286,0.20312 0.53125,0.20312 h 6.3945 c 0.20265,0 0.38008,-0.06846 0.53125,-0.20312 0.15116,-0.13454 0.2407,-0.30095 0.26562,-0.50195 0.0249,-0.20099 -0.0221,-0.38301 -0.13672,-0.55078 l -3.1973,-4.6387 c -0.10133,-0.14784 -0.23848,-0.25018 -0.40625,-0.30664 -0.0847,-0.0282 -0.1694,-0.042969 -0.25391,-0.042969 z M 205,13 c -0.55398,0 -1,0.446 -1,1 0,0.554 0.44602,1 1,1 h 6 c 0.55398,0 1,-0.446 1,-1 0,-0.554 -0.44602,-1 -1,-1 z"
       transform="rotate(90,194.5,-2.4991)"
       class="ColorScheme-Text" />
  </g>
  <g
     id="media-playback-pause"
     transform="matrix(0.26458,0,0,0.26458,0.79373371,1.322914)">
    <rect
       x="0.00021085"
       y="3.0110999e-05"
       width="22"
       height="22"
       fill-opacity="0"
       id="rect927" />
    <path
       class="ColorScheme-Text"
       d="m 10.99,2 a 9,9 0 0 0 -8.9902,9 9,9 0 0 0 9,9 9,9 0 0 0 9,-9 9,9 0 0 0 -9,-9 9,9 0 0 0 -0.0098,0 z m -0.08398,2 a 7,7 0 0 1 0.09375,0 7,7 0 0 1 7,7 7,7 0 0 1 -7,7 7,7 0 0 1 -7,-7 7,7 0 0 1 6.9062,-7 z m -1.9062,4 c -0.554,0 -1,0.446 -1,1 v 4 c 0,0.554 0.446,1 1,1 0.554,0 1,-0.446 1,-1 V 9 c 0,-0.554 -0.446,-1 -1,-1 z m 4,0 c -0.554,0 -1,0.446 -1,1 v 4 c 0,0.554 0.446,1 1,1 0.554,0 1,-0.446 1,-1 V 9 c 0,-0.554 -0.446,-1 -1,-1 z"
       fill="currentColor"
       id="path929" />
  </g>
  <g
     id="media-playback-start"
     transform="matrix(0.26458,0,0,0.26458,7.1436258,7.408262)">
    <rect
       x="0.00021085"
       y="-23"
       width="22"
       height="22"
       fill-opacity="0"
       id="rect933" />
    <path
       class="ColorScheme-Text"
       transform="translate(-25.002,-23)"
       d="m 35.992,2 a 9,9 0 0 0 -8.9902,9 9,9 0 0 0 9,9 9,9 0 0 0 9,-9 9,9 0 0 0 -9,-9 9,9 0 0 0 -0.0098,0 z m -0.08594,2 a 7,7 0 0 1 0.002,0 7,7 0 0 1 0.09375,0 7,7 0 0 1 7,7 7,7 0 0 1 -7,7 7,7 0 0 1 -7,-7 7,7 0 0 1 6.9043,-7 z m -1.3477,3.8027 C 34.39739,7.82265 34.26379,7.892585 34.15602,8.01364 34.04826,8.1347 33.99391,8.27712 33.99391,8.43942 v 5.1211 c 0,0.1623 0.05436,0.30472 0.16211,0.42578 0.10776,0.12106 0.24138,0.19098 0.40234,0.21094 0.16097,0.01996 0.30705,-0.01563 0.44141,-0.10742 l 3.7148,-2.5605 c 0.1184,-0.08115 0.20087,-0.19181 0.24609,-0.32617 0.04524,-0.13569 0.04524,-0.26992 0,-0.4043 -0.04524,-0.13436 -0.12706,-0.2437 -0.24414,-0.32617 l -3.7168,-2.5625 C 34.8658,7.817058 34.71884,7.78236 34.55831,7.80276 Z"
       fill="currentColor"
       id="path935" />
  </g>
  <g
     id="media-playback-stop"
     transform="matrix(0.26458,0,0,0.26458,0.79373372,8.202002)">
    <rect
       x="48"
       y="-26"
       width="22"
       height="22"
       fill-opacity="0"
       id="rect939" />
    <path
       class="ColorScheme-Text"
       transform="translate(0,-26)"
       d="m 58.99,2 a 9,9 0 0 0 -8.9902,9 9,9 0 0 0 9,9 9,9 0 0 0 9,-9 9,9 0 0 0 -9,-9 9,9 0 0 0 -0.0098,0 z m -0.08594,2 a 7,7 0 0 1 0.002,0 7,7 0 0 1 0.09371,0 7,7 0 0 1 7,7 7,7 0 0 1 -7,7 7,7 0 0 1 -7,-7 7,7 0 0 1 6.9043,-7 z m -1.9043,4 c -0.554,0 -1,0.446 -1,1 v 4 c 0,0.554 0.446,1 1,1 h 4 c 0.554,0 1,-0.446 1,-1 V 9 c 0,-0.554 -0.446,-1 -1,-1 z"
       fill="currentColor"
       id="path941" />
  </g>
  <g
     transform="translate(-1.3300706e-4,-11.844829)"
     id="media-playback-playing">
    <path
       id="path861"
       style="fill:#ffffff;fill-opacity:1;stroke-width:0.0515334;stroke-linecap:round"
       d="m 10.051094,24.173587 a 2.3812594,2.3812594 0 0 0 -2.3781587,2.38126 2.3812594,2.3812594 0 0 0 2.3812597,2.381259 2.3812594,2.3812594 0 0 0 2.381259,-2.381259 2.3812594,2.3812594 0 0 0 -2.381259,-2.38126 2.3812594,2.3812594 0 0 0 -0.0031,0 z M 9.5415624,25.7089 c 0.042468,-0.0054 0.081359,0.0038 0.1167892,0.02842 l 0.9834064,0.677998 c 0.03097,0.02182 0.05263,0.05075 0.0646,0.0863 0.01197,0.03555 0.01197,0.07107 0,0.10697 -0.01196,0.03555 -0.03378,0.06483 -0.06511,0.0863 l -0.9828904,0.677481 c -0.035549,0.02432 -0.074199,0.03372 -0.1167892,0.02842 -0.042591,-0.0053 -0.077944,-0.02378 -0.1064539,-0.05581 -0.02851,-0.03203 -0.042891,-0.06971 -0.042891,-0.112655 v -1.354961 c 0,-0.04294 0.014381,-0.08063 0.042891,-0.112655 0.028511,-0.03203 0.063864,-0.05051 0.1064539,-0.05581 z" />
    <rect
       x="7.1438146"
       y="23.644466"
       width="5.8207598"
       height="5.8207598"
       fill-opacity="0"
       id="rect899"
       style="stroke-width:0.26458" />
  </g>
  <g
     transform="translate(-1.0185122,-12.103051)"
     id="media-playback-stopped">
    <path
       id="circle885"
       style="fill:#ffffff;fill-opacity:1;stroke-width:0.0515334;stroke-linecap:round"
       d="m 17.419882,24.43181 a 2.3812594,2.3812594 0 0 0 -2.378676,2.38126 2.3812594,2.3812594 0 0 0 2.381259,2.381259 2.3812594,2.3812594 0 0 0 2.38126,-2.381259 2.3812594,2.3812594 0 0 0 -2.38126,-2.38126 2.3812594,2.3812594 0 0 0 -0.0026,0 z m -0.526585,1.587507 h 1.058337 c 0.146577,0 0.264585,0.118007 0.264585,0.264584 v 1.058337 c 0,0.146578 -0.118008,0.264585 -0.264585,0.264585 h -1.058337 c -0.146578,0 -0.264585,-0.118007 -0.264585,-0.264585 v -1.058337 c 0,-0.146577 0.118007,-0.264584 0.264585,-0.264584 z" />
    <rect
       style="stroke-width:0.26458"
       id="rect909"
       fill-opacity="0"
       height="5.8207598"
       width="5.8207598"
       y="23.902689"
       x="14.512086" />
  </g>
  <g
     transform="translate(0.22088298,-13.286451)"
     id="media-playback-paused">
    <path
       id="circle873"
       style="fill:#ffffff;fill-opacity:1;stroke-width:0.0515334;stroke-linecap:round"
       d="m 3.4807034,25.615209 a 2.3812594,2.3812594 0 0 0 -2.3786759,2.381259 2.3812594,2.3812594 0 0 0 2.3812599,2.381259 2.3812594,2.3812594 0 0 0 2.381259,-2.381259 2.3812594,2.3812594 0 0 0 -2.381259,-2.381259 2.3812594,2.3812594 0 0 0 -0.0026,0 z m -0.5265852,1.587506 c 0.1465774,0 0.2645844,0.118007 0.2645844,0.264584 v 1.058338 c 0,0.146577 -0.118007,0.264584 -0.2645844,0.264584 -0.1465773,0 -0.2645844,-0.118007 -0.2645844,-0.264584 v -1.058338 c 0,-0.146577 0.1180071,-0.264584 0.2645844,-0.264584 z m 1.0583372,0 c 0.146578,0 0.264585,0.118007 0.264585,0.264584 v 1.058338 c 0,0.146577 -0.118007,0.264584 -0.264585,0.264584 -0.146577,0 -0.264584,-0.118007 -0.264584,-0.264584 v -1.058338 c 0,-0.146577 0.118007,-0.264584 0.264584,-0.264584 z" />
    <rect
       x="0.57290697"
       y="25.086088"
       width="5.8207598"
       height="5.8207598"
       fill-opacity="0"
       id="rect917"
       style="stroke-width:0.26458" />
  </g>
</svg>
