<?xml version="1.0" encoding="UTF-8" standalone="no"?>
<svg
   width="22"
   height="22"
   version="1.1"
   id="svg21"
   sodipodi:docname="pamac.svg"
   inkscape:version="1.1.1 (3bf5ae0d25, 2021-09-20, custom)"
   xmlns:inkscape="http://www.inkscape.org/namespaces/inkscape"
   xmlns:sodipodi="http://sodipodi.sourceforge.net/DTD/sodipodi-0.dtd"
   xmlns="http://www.w3.org/2000/svg"
   xmlns:svg="http://www.w3.org/2000/svg">
  <sodipodi:namedview
     id="namedview23"
     pagecolor="#c8c8c8"
     bordercolor="#666666"
     borderopacity="1.0"
     inkscape:pageshadow="2"
     inkscape:pageopacity="0"
     inkscape:pagecheckerboard="0"
     showgrid="true"
     inkscape:snap-bbox="true"
     inkscape:bbox-nodes="true"
     inkscape:snap-bbox-edge-midpoints="true"
     inkscape:snap-nodes="true"
     inkscape:zoom="8"
     inkscape:cx="15.4375"
     inkscape:cy="28.9375"
     inkscape:window-width="1920"
     inkscape:window-height="936"
     inkscape:window-x="0"
     inkscape:window-y="40"
     inkscape:window-maximized="1"
     inkscape:current-layer="svg21"
     inkscape:object-paths="true"
     inkscape:snap-intersection-paths="true"
     inkscape:snap-global="true">
    <inkscape:grid
       type="xygrid"
       id="grid1777" />
  </sodipodi:namedview>
  <defs
     id="defs3">
    <style
       id="current-color-scheme"
       type="text/css">.ColorScheme-Text{color:#dfdfdf;}.ColorScheme-Highlight{color:#5294e2;}</style>
  </defs>
  <defs
     id="defs7">
    <style
       type="text/css"
       id="style5" />
  </defs>
  <g
     id="22-22-pamac-tray-no-update">
    <rect
       width="22"
       height="22"
       opacity="0"
       id="rect9"
       x="0"
       y="0" />
    <path
       id="path1339"
       style="color:#000000;fill:#fbfbfb;fill-opacity:1;stroke-width:0.940301;stroke-linejoin:round;-inkscape-stroke:none"
       d="m 11,2 a 0.46671333,0.47370786 0 0 0 -0.34375,0.15625 l -0.363281,0.4042969 c -0.01411,0.014661 -0.03447,0.034027 -0.05469,0.052734 -0.04552,0.042181 -0.117454,0.1030801 -0.216797,0.1796876 -0.198687,0.1532149 -0.507832,0.361057 -0.935546,0.5664062 -0.85543,0.4106983 -2.186432,0.8162763 -4.09375,0.75 L 4.482422,4.0898438 A 0.46671333,0.47370786 0 0 0 4,4.5644531 v 7.6933589 c 0,1.059365 0.183732,2.420315 1.126953,3.783204 0.943221,1.362888 2.620459,2.708846 5.527344,3.855468 l 0.175781,0.07031 a 0.46671333,0.47370786 0 0 0 0.339844,0 l 0.175781,-0.07031 c 2.906885,-1.146622 4.584123,-2.492579 5.527344,-3.855468 C 17.816268,14.678127 18,13.31718 18,12.257812 V 4.5644531 A 0.46671333,0.47370786 0 0 0 17.517578,4.0898438 l -0.509766,0.019531 c -0.136516,0.00497 -0.271012,0.00781 -0.404296,0.00781 h -0.002 c -1.742249,0 -2.973749,-0.4041031 -3.769531,-0.8007813 -0.397892,-0.1983388 -0.684649,-0.3968428 -0.871093,-0.5410156 -0.09322,-0.072086 -0.162265,-0.1306107 -0.205079,-0.1699218 -0.01792,-0.016452 -0.03542,-0.03317 -0.04687,-0.044922 l -0.002,-0.00195 -0.002,-0.00195 v -0.00195 L 11.345703,2.15625 A 0.46671333,0.47370786 0 0 0 11,2 Z m 0,5.2070312 c 0.03195,0 0.06422,0.00368 0.0957,0.00977 0.03148,0.00608 0.06172,0.015154 0.0918,0.027344 0.03008,0.01219 0.06014,0.026598 0.08789,0.044922 0.02775,0.018324 0.05364,0.03997 0.07813,0.064453 l 2.828125,2.8281254 c 0.195868,0.195868 0.195868,0.511162 0,0.707031 -0.195869,0.195868 -0.511163,0.195868 -0.707032,0 L 11.5,8.9140625 V 14.5 c 0,0.277 -0.223,0.5 -0.5,0.5 -0.277,0 -0.5,-0.223 -0.5,-0.5 V 8.9140625 L 8.525391,10.888672 c -0.195869,0.195868 -0.511163,0.195868 -0.707032,0 -0.195868,-0.195869 -0.195868,-0.511163 0,-0.707031 l 2.792969,-2.791016 c 0.01071,-0.013116 0.02291,-0.024868 0.03516,-0.037109 0.02448,-0.024483 0.05038,-0.046129 0.07813,-0.064453 0.02775,-0.018324 0.05781,-0.032732 0.08789,-0.044922 0.03008,-0.01219 0.06031,-0.021262 0.0918,-0.027344 0.03148,-0.00608 0.06375,-0.00977 0.0957,-0.00977 z" />
  </g>
  <g
     id="g1685"
     transform="translate(-23,1)">
    <g
       id="g1683"
       transform="translate(0.70710691)" />
  </g>
  <g
     id="22-22-pamac-tray-update"
     transform="translate(-17.990082)">
    <rect
       width="22"
       height="22"
       opacity="0"
       id="rect3177"
       x="57.990082"
       y="0" />
    <path
       id="path3179"
       style="color:#000000;fill:#fbfbfb;fill-opacity:1;stroke-width:0.940301;stroke-linejoin:round;-inkscape-stroke:none"
       d="m 68.990234,2 a 0.46671333,0.47370786 0 0 0 -0.34375,0.15625 l -0.363281,0.4042969 c -0.01411,0.014661 -0.03447,0.034027 -0.05469,0.052734 -0.04552,0.042181 -0.117454,0.1030801 -0.216797,0.1796876 -0.198687,0.1532149 -0.507833,0.361057 -0.935547,0.5664062 -0.85543,0.4106983 -2.186432,0.8162763 -4.09375,0.75 L 62.472653,4.0898437 A 0.46671333,0.47370786 0 0 0 61.990231,4.564453 v 7.693359 c 0,1.059365 0.183732,2.420315 1.126954,3.783204 0.94322,1.362888 2.620458,2.708846 5.527343,3.855468 l 0.175781,0.07031 a 0.46671333,0.47370786 0 0 0 0.339844,0 l 0.175782,-0.07031 c 0.368503,-0.145356 0.716883,-0.29392 1.046874,-0.445312 A 3,3 0 0 1 70,18 a 3,3 0 0 1 3,-3 3,3 0 0 1 2.029297,0.789062 c 0.799332,-1.277623 0.960937,-2.537154 0.960937,-3.53125 V 4.5644531 A 0.46671333,0.47370786 0 0 0 75.507812,4.0898438 l -0.509765,0.019531 c -0.136516,0.00497 -0.271013,0.00781 -0.404297,0.00781 h -0.002 c -1.742249,0 -2.973749,-0.4041031 -3.769531,-0.8007813 -0.397892,-0.1983388 -0.68465,-0.3968428 -0.871094,-0.5410156 -0.09322,-0.072086 -0.162264,-0.1306107 -0.205078,-0.1699218 -0.01792,-0.016452 -0.03543,-0.03317 -0.04687,-0.044922 l -0.002,-0.00195 -0.002,-0.00195 v -0.00195 L 69.335938,2.15625 A 0.46671333,0.47370786 0 0 0 68.990234,2 Z m 0,5.2070312 c 0.03195,0 0.06422,0.00368 0.0957,0.00977 0.03148,0.00608 0.06172,0.015154 0.0918,0.027344 0.03008,0.01219 0.06014,0.026598 0.08789,0.044922 0.02775,0.018324 0.05363,0.03997 0.07813,0.064453 l 2.828125,2.8281258 c 0.195868,0.195868 0.195868,0.511162 0,0.707031 -0.195869,0.195868 -0.511162,0.195868 -0.707031,0 L 69.490234,8.9140625 V 14.5 c 0,0.277 -0.223,0.5 -0.5,0.5 -0.277,0 -0.5,-0.223 -0.5,-0.5 V 8.9140625 l -1.974609,1.9746095 c -0.195869,0.195868 -0.511162,0.195868 -0.707031,0 -0.195868,-0.195869 -0.195868,-0.511163 0,-0.707031 l 2.792968,-2.791016 c 0.01071,-0.013116 0.02291,-0.024868 0.03516,-0.037109 0.02448,-0.024483 0.05038,-0.046129 0.07813,-0.064453 0.02775,-0.018324 0.05781,-0.032732 0.08789,-0.044922 0.03008,-0.01219 0.06031,-0.021262 0.0918,-0.027344 0.03148,-0.00608 0.06375,-0.00977 0.0957,-0.00977 z" />
    <circle
       style="fill:#00a0ff;fill-opacity:1;fill-rule:evenodd;stroke:none;stroke-width:3;stroke-linecap:round;stroke-linejoin:round;paint-order:stroke fill markers"
       id="circle3199"
       cx="73"
       cy="18"
       r="2" />
  </g>
  <g
     id="pamac-tray-no-update">
    <rect
       style="fill:none;fill-opacity:1;stroke:none;stroke-width:2.11786;stroke-linecap:round;stroke-linejoin:round;stroke-miterlimit:4;stroke-dasharray:none;stroke-opacity:1;paint-order:stroke fill markers;stop-color:#000000"
       id="rect1079"
       width="32"
       height="32"
       x="-5"
       y="30.050793"
       rx="0"
       ry="0" />
    <path
       id="path3649"
       style="color:#000000;opacity:1;fill:#fbfbfb;fill-opacity:1;stroke-linejoin:round;-inkscape-stroke:none"
       d="m 11.001953,33 a 1.0001,1.0001 0 0 0 -0.716797,0.302734 l -0.55664,0.56836 c -0.0205,0.01968 -0.04131,0.03858 -0.0625,0.05664 -0.06318,0.05384 -0.165777,0.135625 -0.310547,0.238282 -0.28954,0.205313 -0.745263,0.488063 -1.382813,0.769531 C 6.697557,35.498482 4.695739,36.06094 1.810547,35.96875 L 1.03125,35.943359 a 1.0001,1.0001 0 0 0 -1.03125,1 v 10.826172 c 0,1.53583 0.300813,3.559716 1.794922,5.544922 1.494109,1.985206 4.112083,3.90247 8.591797,5.527344 l 0.271484,0.09766 a 1.0001,1.0001 0 0 0 0.683594,0 l 0.271484,-0.09766 c 4.479714,-1.624874 7.097688,-3.542138 8.591797,-5.527344 C 21.699187,51.329196 22,49.30536 22,47.769531 V 36.943359 a 1.0001,1.0001 0 0 0 -1.03125,-1 l -0.779297,0.02539 a 1.0001,1.0001 0 0 0 -0.002,0 c -0.205676,0.0069 -0.40939,0.0098 -0.611328,0.0098 h -0.002 c -2.633061,0 -4.480189,-0.561917 -5.666016,-1.105469 -0.592913,-0.271776 -1.021203,-0.539178 -1.292969,-0.732422 -0.135882,-0.09662 -0.231557,-0.174408 -0.291015,-0.224609 -0.02973,-0.0251 -0.07413,-0.06695 -0.0957,-0.08789 L 11.716797,33.302734 A 1.0001,1.0001 0 0 0 11.001953,33 Z m -0.002,8.080078 c 0.06391,0 0.128442,0.0054 0.191406,0.01758 0.188893,0.03649 0.368724,0.128489 0.515625,0.275391 l 3.535157,3.537109 c 0.391736,0.391737 0.391736,1.022326 0,1.414063 -0.391737,0.391737 -1.022326,0.391737 -1.414063,0 L 12,44.494141 V 51 c 0,0.554 -0.446,1 -1,1 -0.554,0 -1,-0.446 -1,-1 v -6.505859 l -1.828125,1.830078 c -0.391737,0.391737 -1.022325,0.391737 -1.414063,0 -0.391736,-0.391737 -0.391736,-1.022326 0,-1.414063 l 3.535157,-3.537109 c 0.146901,-0.146902 0.326732,-0.2389 0.515625,-0.275391 0.06296,-0.01216 0.127501,-0.01758 0.191406,-0.01758 z" />
  </g>
  <g
     id="pamac-tray-update">
    <rect
       style="fill:none;fill-opacity:1;stroke:none;stroke-width:2.11786;stroke-linecap:round;stroke-linejoin:round;stroke-miterlimit:4;stroke-dasharray:none;stroke-opacity:1;paint-order:stroke fill markers;stop-color:#000000"
       id="rect3729"
       width="32"
       height="32"
       x="35.000004"
       y="30.050793"
       rx="0"
       ry="0" />
    <path
       id="path9162"
       style="color:#000000;opacity:1;fill:#fbfbfb;fill-opacity:1;stroke-linejoin:round;-inkscape-stroke:none"
       d="M 51.001953 33 A 1.0001 1.0001 0 0 0 50.285156 33.302734 L 49.728516 33.871094 C 49.708016 33.890774 49.687206 33.909674 49.666016 33.927734 C 49.602836 33.981574 49.500239 34.063359 49.355469 34.166016 C 49.065929 34.371329 48.610206 34.654079 47.972656 34.935547 C 46.697557 35.498482 44.695739 36.06094 41.810547 35.96875 L 41.03125 35.943359 A 1.0001 1.0001 0 0 0 40 36.943359 L 40 47.769531 C 40 49.305361 40.300813 51.329247 41.794922 53.314453 C 43.289031 55.299659 45.907005 57.216923 50.386719 58.841797 L 50.658203 58.939453 A 1.0001 1.0001 0 0 0 51.341797 58.939453 L 51.613281 58.841797 C 52.335798 58.579727 53.004859 58.30933 53.632812 58.033203 A 5.5 5.5 0 0 1 53 55.5 A 5.5 5.5 0 0 1 58.5 50 A 5.5 5.5 0 0 1 61.496094 50.890625 C 61.889406 49.752843 62 48.675825 62 47.769531 L 62 36.943359 A 1.0001 1.0001 0 0 0 60.96875 35.943359 L 60.189453 35.96875 A 1.0001 1.0001 0 0 0 60.1875 35.96875 C 59.981824 35.97565 59.77811 35.978516 59.576172 35.978516 L 59.574219 35.978516 C 56.941158 35.978516 55.09403 35.416599 53.908203 34.873047 C 53.31529 34.601271 52.887 34.333869 52.615234 34.140625 C 52.479352 34.044005 52.383677 33.966217 52.324219 33.916016 C 52.294489 33.890916 52.250086 33.849065 52.228516 33.828125 L 51.716797 33.302734 A 1.0001 1.0001 0 0 0 51.001953 33 z M 51 41.080078 C 51.06391 41.080078 51.128442 41.085476 51.191406 41.097656 C 51.380299 41.134146 51.56013 41.226145 51.707031 41.373047 L 55.242188 44.910156 C 55.633924 45.301893 55.633922 45.932482 55.242188 46.324219 C 54.850451 46.715956 54.219862 46.715956 53.828125 46.324219 L 52 44.494141 L 52 51 C 52 51.554 51.554 52 51 52 C 50.446 52 50 51.554 50 51 L 50 44.494141 L 48.171875 46.324219 C 47.780138 46.715956 47.149551 46.715956 46.757812 46.324219 C 46.366076 45.932482 46.366077 45.301893 46.757812 44.910156 L 50.292969 41.373047 C 50.43987 41.226145 50.619701 41.134147 50.808594 41.097656 C 50.871554 41.085496 50.936095 41.080078 51 41.080078 z " />
    <circle
       style="fill:#00a0ff;fill-opacity:1;fill-rule:evenodd;stroke:none;stroke-width:4.2;stroke-linecap:round;stroke-linejoin:round;paint-order:stroke fill markers"
       id="path3769"
       cx="58.500004"
       cy="55.5"
       r="3.5" />
  </g>
</svg>
