<?xml version="1.0" encoding="UTF-8" standalone="no"?>
<svg
   id="svg"
   inkscape:version="1.1.1 (3bf5ae0d25, 2021-09-20, custom)"
   sodipodi:docname="phone.svg"
   version="1.1"
   viewBox="0 0 22 22"
   xmlns:inkscape="http://www.inkscape.org/namespaces/inkscape"
   xmlns:sodipodi="http://sodipodi.sourceforge.net/DTD/sodipodi-0.dtd"
   xmlns="http://www.w3.org/2000/svg"
   xmlns:svg="http://www.w3.org/2000/svg"
   xmlns:rdf="http://www.w3.org/1999/02/22-rdf-syntax-ns#"
   xmlns:cc="http://creativecommons.org/ns#"
   xmlns:dc="http://purl.org/dc/elements/1.1/">
  <metadata
     id="metadata46">
    <rdf:RDF>
      <cc:Work
         rdf:about="">
        <dc:format>image/svg+xml</dc:format>
        <dc:type
           rdf:resource="http://purl.org/dc/dcmitype/StillImage" />
        <dc:title />
      </cc:Work>
    </rdf:RDF>
  </metadata>
  <sodipodi:namedview
     id="namedview26"
     bordercolor="#666666"
     borderopacity="1"
     gridtolerance="10"
     guidetolerance="10"
     inkscape:current-layer="svg"
     inkscape:cx="32.407444"
     inkscape:cy="4.0257695"
     inkscape:pageopacity="0"
     inkscape:pageshadow="2"
     inkscape:window-height="1005"
     inkscape:window-maximized="1"
     inkscape:window-width="1920"
     inkscape:window-x="0"
     inkscape:window-y="0"
     inkscape:zoom="7.4519915"
     objecttolerance="10"
     pagecolor="#c8c8c8"
     showgrid="true"
     inkscape:document-rotation="0"
     inkscape:pagecheckerboard="0">
    <inkscape:grid
       id="grid835"
       type="xygrid" />
  </sodipodi:namedview>
  <defs
     id="defs81">
    <style
       id="current-color-scheme"
       type="text/css">.ColorScheme-Text { color:#dedede; } .ColorScheme-Highlight { color:#5294e2; } .ColorScheme-ButtonBackground { color:#dedede; }</style>
    <style
       id="current-color-scheme-9"
       type="text/css">.ColorScheme-Text { color:#dedede; } .ColorScheme-Highlight { color:#5294e2; } .ColorScheme-ButtonBackground { color:#dedede; }</style>
    <style
       id="current-color-scheme-3"
       type="text/css">
      .ColorScheme-Text {
        color:#31363b;
      }
      .ColorScheme-Background {
        color:#eff0f1;
      }
      .ColorScheme-Highlight {
        color:#3daee9;
      }
      .ColorScheme-ViewText {
        color:#31363b;
      }
      .ColorScheme-ViewBackground {
        color:#fcfcfc;
      }
      .ColorScheme-ViewHover {
        color:#93cee9;
      }
      .ColorScheme-ViewFocus{
        color:#3daee9;
      }
      .ColorScheme-ButtonText {
        color:#31363b;
      }
      .ColorScheme-ButtonBackground {
        color:#eff0f1;
      }
      .ColorScheme-ButtonHover {
        color:#93cee9;
      }
      .ColorScheme-ButtonFocus{
        color:#3daee9;
      }
      </style>
  </defs>
  <g
     id="22-22-phone-battery">
    <g
       id="g1270"
       transform="translate(-318,-534.36218)">
      <rect
         style="fill:none;fill-opacity:1;stroke:none;stroke-width:0.138587;stroke-linecap:square;stroke-linejoin:miter;stroke-miterlimit:4;stroke-dasharray:none;stroke-dashoffset:0;stroke-opacity:1"
         id="rect1266"
         width="22"
         height="22"
         x="355"
         y="534.36218" />
      <path
         id="path1268"
         style="fill:#fbfbfb;fill-opacity:1;fill-rule:evenodd;stroke-width:3;stroke-linecap:round;stroke-linejoin:round;paint-order:stroke fill markers"
         d="m 362,536.36216 c -1.10799,0 -2,0.89201 -2,2 v 14 c 0,1.10799 0.89201,2 2,2 h 8 c 1.10799,0 2,-0.89201 2,-2 v -14 c 0,-1.10799 -0.89201,-2 -2,-2 z m 3,12 h 2 c 0.554,0 1,0.446 1,1 0,0.554 -0.446,1 -1,1 h -2 c -0.554,0 -1,-0.446 -1,-1 0,-0.554 0.446,-1 1,-1 z"
         sodipodi:nodetypes="ssssssssssssssss" />
    </g>
    <path
       id="path4600"
       d="m 45,9 a 3,3 0 0 0 2,2.826 V 13 h 2 V 11.824 A 3,3 0 0 0 51,9 H 50 V 7 H 49 V 9 H 47 V 7 h -1 v 2 z"
       fill="#4caf50"
       inkscape:connector-curvature="0"
       style="fill:#3278ff;fill-opacity:1" />
  </g>
  <g
     id="phone-battery">
    <rect
       y="-33.999996"
       x="37"
       height="32"
       width="32"
       id="rect1272"
       style="fill:none;fill-opacity:1;stroke:none;stroke-width:0.1;stroke-linecap:square;stroke-linejoin:miter;stroke-miterlimit:4;stroke-dasharray:none;stroke-dashoffset:0;stroke-opacity:1" />
    <path
       id="path1274"
       style="fill:#fbfbfb;fill-opacity:1;fill-rule:evenodd;stroke-width:3;stroke-linecap:round;stroke-linejoin:round;paint-order:stroke fill markers"
       d="m 46,-32 c -1.108,0 -2,0.892 -2,2 v 24 c 0,1.108 0.892,2 2,2 h 14 c 1.108,0 2,-0.892 2,-2 v -24 c 0,-1.108 -0.892,-2 -2,-2 z m 5,22 h 4 c 0.55399,0 1,0.44601 1,1 0,0.554 -0.44601,1 -1,1 h -4 c -0.55399,0 -1,-0.446 -1,-1 0,-0.55399 0.44601,-1 1,-1 z"
       sodipodi:nodetypes="ssssssssssssssss" />
    <path
       id="path4472"
       d="m 50,-19 a 3,3 0 0 0 2,2.826 V -15 h 2 v -1.176 A 3,3 0 0 0 56,-19 h -1 v -2 h -1 v 2 h -2 v -2 h -1 v 2 z"
       fill="#4caf50"
       inkscape:connector-curvature="0"
       style="fill:#3278ff;fill-opacity:1" />
  </g>
  <g
     id="16-16-phone-battery">
    <rect
       y="25.000023"
       x="37"
       height="16"
       width="16"
       id="rect1278"
       style="fill:none;fill-opacity:1;stroke:none;stroke-width:0.10079;stroke-linecap:square;stroke-linejoin:miter;stroke-miterlimit:4;stroke-dasharray:none;stroke-dashoffset:0;stroke-opacity:1" />
    <path
       id="path1280"
       style="fill:#fbfbfb;fill-opacity:1;fill-rule:evenodd;stroke-width:3;stroke-linecap:round;stroke-linejoin:round;paint-order:stroke fill markers"
       d="m 42,26 c -1.10799,0 -2,0.89201 -2,2 v 10 c 0,1.10799 0.89201,2 2,2 h 6 c 1.10799,0 2,-0.89201 2,-2 V 28 c 0,-1.10799 -0.89201,-2 -2,-2 z m 2,10 h 2 c 0.277,0 0.5,0.223 0.5,0.5 0,0.277 -0.223,0.5 -0.5,0.5 h -2 c -0.277,0 -0.5,-0.223 -0.5,-0.5 0,-0.277 0.223,-0.5 0.5,-0.5 z"
       sodipodi:nodetypes="ssssssssssssssss" />
    <path
       id="path936"
       d="m 43,32.333333 a 2,2 0 0 0 1.333333,1.884 V 35 h 1.333334 V 34.216 A 2,2 0 0 0 47,32.333333 H 46.333333 V 31 h -0.666666 v 1.333333 H 44.333333 V 31 h -0.666666 v 1.333333 z"
       fill="#4caf50"
       inkscape:connector-curvature="0"
       style="fill:#3278ff;fill-opacity:1;stroke-width:0.666667" />
  </g>
  <g
     id="22-22-phone"
     transform="translate(-355,-534.36218)">
    <rect
       style="fill:none;fill-opacity:1;stroke:none;stroke-width:0.138587;stroke-linecap:square;stroke-linejoin:miter;stroke-miterlimit:4;stroke-dasharray:none;stroke-dashoffset:0;stroke-opacity:1"
       id="rect4444-3"
       width="22"
       height="22"
       x="355"
       y="534.36218" />
    <path
       id="rect1019"
       style="fill:#fbfbfb;fill-opacity:1;fill-rule:evenodd;stroke-width:3;stroke-linecap:round;stroke-linejoin:round;paint-order:stroke fill markers"
       d="m 362,536.36216 c -1.10799,0 -2,0.89201 -2,2 v 14 c 0,1.10799 0.89201,2 2,2 h 8 c 1.10799,0 2,-0.89201 2,-2 v -14 c 0,-1.10799 -0.89201,-2 -2,-2 z m 3,12 h 2 c 0.554,0 1,0.446 1,1 0,0.554 -0.446,1 -1,1 h -2 c -0.554,0 -1,-0.446 -1,-1 0,-0.554 0.446,-1 1,-1 z"
       sodipodi:nodetypes="ssssssssssssssss" />
  </g>
  <g
     id="phone"
     transform="translate(-326,-563.36218)">
    <rect
       y="529.36218"
       x="321"
       height="32"
       width="32"
       id="rect4436-6"
       style="fill:none;fill-opacity:1;stroke:none;stroke-width:0.1;stroke-linecap:square;stroke-linejoin:miter;stroke-miterlimit:4;stroke-dasharray:none;stroke-dashoffset:0;stroke-opacity:1" />
    <path
       id="rect1368"
       style="fill:#fbfbfb;fill-opacity:1;fill-rule:evenodd;stroke-width:3;stroke-linecap:round;stroke-linejoin:round;paint-order:stroke fill markers"
       d="m 330,531.36218 c -1.108,0 -2,0.892 -2,2 v 24 c 0,1.108 0.892,2 2,2 h 14 c 1.108,0 2,-0.892 2,-2 v -24 c 0,-1.108 -0.892,-2 -2,-2 z m 5,22 h 4 c 0.55399,0 1,0.44601 1,1 0,0.554 -0.44601,1 -1,1 h -4 c -0.55399,0 -1,-0.446 -1,-1 0,-0.55399 0.44601,-1 1,-1 z"
       sodipodi:nodetypes="ssssssssssssssss" />
  </g>
  <g
     id="16-16-phone"
     transform="translate(-300,-512.36216)">
    <rect
       y="537.36218"
       x="303"
       height="16"
       width="16"
       id="rect4442-7"
       style="fill:none;fill-opacity:1;stroke:none;stroke-width:0.10079;stroke-linecap:square;stroke-linejoin:miter;stroke-miterlimit:4;stroke-dasharray:none;stroke-dashoffset:0;stroke-opacity:1" />
    <path
       id="rect1615"
       style="fill:#fbfbfb;fill-opacity:1;fill-rule:evenodd;stroke-width:3;stroke-linecap:round;stroke-linejoin:round;paint-order:stroke fill markers"
       d="m 308,538.36216 c -1.10799,0 -2,0.89201 -2,2 v 10 c 0,1.10799 0.89201,2 2,2 h 6 c 1.10799,0 2,-0.89201 2,-2 v -10 c 0,-1.10799 -0.89201,-2 -2,-2 z m 2,10 h 2 c 0.277,0 0.5,0.223 0.5,0.5 0,0.277 -0.223,0.5 -0.5,0.5 h -2 c -0.277,0 -0.5,-0.223 -0.5,-0.5 0,-0.277 0.223,-0.5 0.5,-0.5 z"
       sodipodi:nodetypes="ssssssssssssssss" />
  </g>
</svg>
