<?xml version="1.0" encoding="UTF-8" standalone="no"?>
<svg
   id="svg"
   version="1.1"
   viewBox="0 0 22 22"
   sodipodi:docname="slc.svg"
   inkscape:version="1.1.1 (3bf5ae0d25, 2021-09-20, custom)"
   xmlns:inkscape="http://www.inkscape.org/namespaces/inkscape"
   xmlns:sodipodi="http://sodipodi.sourceforge.net/DTD/sodipodi-0.dtd"
   xmlns="http://www.w3.org/2000/svg"
   xmlns:svg="http://www.w3.org/2000/svg"
   xmlns:rdf="http://www.w3.org/1999/02/22-rdf-syntax-ns#"
   xmlns:cc="http://creativecommons.org/ns#"
   xmlns:dc="http://purl.org/dc/elements/1.1/">
  <metadata
     id="metadata23">
    <rdf:RDF>
      <cc:Work
         rdf:about="">
        <dc:format>image/svg+xml</dc:format>
        <dc:type
           rdf:resource="http://purl.org/dc/dcmitype/StillImage" />
        <dc:title />
      </cc:Work>
    </rdf:RDF>
  </metadata>
  <sodipodi:namedview
     pagecolor="#c8c8c8"
     bordercolor="#666666"
     borderopacity="1"
     objecttolerance="10"
     gridtolerance="10"
     guidetolerance="10"
     inkscape:pageopacity="0"
     inkscape:pageshadow="2"
     inkscape:window-width="1920"
     inkscape:window-height="1005"
     id="namedview21"
     showgrid="true"
     inkscape:zoom="5.3636365"
     inkscape:cx="-9.974576"
     inkscape:cy="-0.37288135"
     inkscape:window-x="0"
     inkscape:window-y="0"
     inkscape:window-maximized="1"
     inkscape:current-layer="svg"
     inkscape:pagecheckerboard="0"
     inkscape:snap-bbox="true"
     inkscape:bbox-nodes="true">
    <inkscape:grid
       type="xygrid"
       id="grid830" />
  </sodipodi:namedview>
  <defs
     id="defs3">
    <style
       id="current-color-scheme"
       type="text/css">.ColorScheme-Text { color:#dedede; } .ColorScheme-Highlight { color:#5294e2; } .ColorScheme-ButtonBackground { color:#dedede; }</style>
  </defs>
  <g
     id="slc-share">
    <rect
       class="ColorScheme-Text"
       x="40"
       y="0"
       width="22"
       height="22"
       fill-opacity="0"
       id="rect10" />
    <path
       id="path832"
       style="color:#000000;fill:#fbfbfb;-inkscape-stroke:none"
       d="M 54.5 3 C 52.2909 3 50.5 4.79086 50.5 7 C 50.5 7.46556 50.580343 7.912565 50.726562 8.328125 L 48.605469 9.3886719 C 48.124809 9.1402819 47.57836 9 47 9 C 45.067 9 43.5 10.567 43.5 12.5 C 43.5 14.433 45.067 16 47 16 C 48.20416 16 49.266724 15.392697 49.896484 14.466797 L 52.585938 15.849609 C 52.530138 16.057109 52.5 16.2748 52.5 16.5 C 52.5 17.8807 53.6193 19 55 19 C 56.3807 19 57.5 17.8807 57.5 16.5 C 57.5 15.1193 56.3807 14 55 14 C 54.2023 14 53.492856 14.373378 53.035156 14.955078 L 50.333984 13.566406 C 50.441534 13.230006 50.5 12.8721 50.5 12.5 C 50.5 11.5492 50.121169 10.687411 49.505859 10.056641 L 51.173828 9.2226562 C 51.891348 10.294646 53.1131 11 54.5 11 C 56.7091 11 58.5 9.20914 58.5 7 C 58.5 4.79086 56.7091 3 54.5 3 z " />
  </g>
  <g
     id="slc-connect">
    <path
       id="rect863"
       style="fill:#fbfbfb;fill-rule:evenodd;stroke-linecap:round;stroke-linejoin:round"
       d="m 12.334225,3.5187314 c -0.688042,0.03277 -1.351907,0.4167088 -1.695313,1.1035157 L 8.9084431,8.0792783 c -0.1643,0.32859 -0.444056,0.5862163 -0.785156,0.7226563 l -3.589844,1.4355464 c -0.66657,0.26663 -0.841624,1.129039 -0.333984,1.636719 l 2.609375,2.609375 -3.292969,3.292969 v 0.707031 h 0.707031 l 3.292969,-3.292969 2.6093749,2.611328 c 0.50763,0.5077 1.370019,0.330663 1.636719,-0.335937 l 1.435547,-3.589844 c 0.1365,-0.3411 0.394056,-0.620856 0.722656,-0.785156 l 3.457031,-1.728516 c 1.221,-0.6105 1.486685,-2.2378446 0.521485,-3.2031246 L 13.840084,4.1007627 C 13.417809,3.6784483 12.869368,3.4932435 12.334225,3.5187314 Z" />
    <rect
       class="ColorScheme-Text"
       x="0"
       y="0"
       width="22"
       height="22"
       fill-opacity="0"
       id="rect15" />
  </g>
  <g
     id="slc-like">
    <rect
       class="ColorScheme-Text"
       x="0"
       y="-40"
       width="22"
       height="22"
       fill-opacity="0"
       id="rect5" />
    <path
       id="path7113"
       style="color:#000000;fill:#fbfbfb;-inkscape-stroke:none"
       d="M 11.001953 -36.658203 C 10.645287 -36.658204 10.286921 -36.473188 10.103516 -36.101562 L 8.1738281 -32.189453 L 3.8574219 -31.5625 C 3.0372019 -31.44332 2.7092144 -30.435962 3.3027344 -29.857422 L 6.4257812 -26.8125 L 5.6894531 -22.513672 C 5.5493431 -21.696772 6.406995 -21.073284 7.140625 -21.458984 L 11.001953 -23.488281 L 14.861328 -21.458984 C 15.595028 -21.073284 16.4526 -21.696772 16.3125 -22.513672 L 15.576172 -26.8125 L 18.699219 -29.857422 C 19.292819 -30.435952 18.964831 -31.44332 18.144531 -31.5625 L 13.828125 -32.189453 L 11.898438 -36.101562 C 11.715038 -36.473183 11.358619 -36.658202 11.001953 -36.658203 z M 2.5410156 -35.998047 C 2.3810274 -36.010967 2.2171937 -35.947269 2.109375 -35.8125 C 1.936874 -35.59687 1.97187 -35.281875 2.1875 -35.109375 L 4.6875 -33.109375 C 4.90313 -32.936865 5.218125 -32.97186 5.390625 -33.1875 C 5.563135 -33.40313 5.52813 -33.718115 5.3125 -33.890625 L 2.8125 -35.890625 C 2.731635 -35.955312 2.6370085 -35.990295 2.5410156 -35.998047 z M 19.458984 -35.998047 C 19.36299 -35.990295 19.268387 -35.955312 19.1875 -35.890625 L 16.6875 -33.890625 C 16.4719 -33.718115 16.436875 -33.40313 16.609375 -33.1875 C 16.781975 -32.97186 17.0969 -32.936865 17.3125 -33.109375 L 19.8125 -35.109375 C 20.0282 -35.281875 20.063125 -35.59687 19.890625 -35.8125 C 19.782812 -35.947269 19.618975 -36.010967 19.458984 -35.998047 z M 4.9589844 -26.498047 C 4.8629917 -26.490283 4.7683612 -26.455312 4.6875 -26.390625 L 2.1875 -24.390625 C 1.97187 -24.218125 1.936874 -23.9031 2.109375 -23.6875 C 2.281885 -23.4718 2.59686 -23.436875 2.8125 -23.609375 L 5.3125 -25.609375 C 5.52813 -25.781875 5.563135 -26.0968 5.390625 -26.3125 C 5.2828125 -26.44725 5.1189722 -26.510987 4.9589844 -26.498047 z M 17.041016 -26.498047 C 16.881041 -26.510987 16.71725 -26.44725 16.609375 -26.3125 C 16.436875 -26.0968 16.4719 -25.781875 16.6875 -25.609375 L 19.1875 -23.609375 C 19.4032 -23.436875 19.718125 -23.4718 19.890625 -23.6875 C 20.063125 -23.9031 20.0282 -24.218125 19.8125 -24.390625 L 17.3125 -26.390625 C 17.23165 -26.455312 17.137 -26.490283 17.041016 -26.498047 z " />
  </g>
</svg>
