<?xml version="1.0" encoding="UTF-8" standalone="no"?>
<svg
   width="22"
   height="22"
   version="1.1"
   id="svg15"
   sodipodi:docname="sogoupinyin.svg"
   inkscape:version="1.1.2 (0a00cf5339, 2022-02-04, custom)"
   xmlns:inkscape="http://www.inkscape.org/namespaces/inkscape"
   xmlns:sodipodi="http://sodipodi.sourceforge.net/DTD/sodipodi-0.dtd"
   xmlns:xlink="http://www.w3.org/1999/xlink"
   xmlns="http://www.w3.org/2000/svg"
   xmlns:svg="http://www.w3.org/2000/svg">
  <sodipodi:namedview
     id="namedview17"
     pagecolor="#c8c8c8"
     bordercolor="#666666"
     borderopacity="1.0"
     inkscape:pageshadow="2"
     inkscape:pageopacity="0"
     inkscape:pagecheckerboard="0"
     showgrid="true"
     inkscape:snap-bbox="true"
     inkscape:bbox-nodes="true"
     inkscape:snap-bbox-edge-midpoints="true"
     inkscape:snap-global="true"
     inkscape:zoom="16.272728"
     inkscape:cx="34.136871"
     inkscape:cy="83.298881"
     inkscape:window-width="1920"
     inkscape:window-height="1001"
     inkscape:window-x="0"
     inkscape:window-y="0"
     inkscape:window-maximized="1"
     inkscape:current-layer="svg15"
     inkscape:snap-nodes="false">
    <inkscape:grid
       type="xygrid"
       id="grid834" />
  </sodipodi:namedview>
  <defs
     id="defs3">
    <style
       id="current-color-scheme"
       type="text/css">.ColorScheme-Text { color:#dedede; } .ColorScheme-Highlight { color:#5294e2; } .ColorScheme-ButtonBackground { color:#dedede; }</style>
  </defs>
  <g
     id="sogoupinyin">
    <path
       d="M 0,32 H 32.000001 V 64.000001 H 0 Z"
       fill="none"
       id="path5642"
       style="stroke-width:1.45455" />
    <g
       id="g6786"
       class="ColorScheme-Text"
       fill="currentColor">
      <path
         d="m 15.620852,42.002306 c 0.445962,-0.0075 0.898892,0.0031 1.249864,0.03515 1.763405,0.166982 3.298638,0.715941 4.622493,1.665817 0.44495,0.315475 0.45396,0.27709 -0.353482,1.202968 -0.657448,0.751927 -0.757367,0.816341 -0.919819,0.773355 -0.0415,-0.0085 -0.229295,-0.09805 -0.423783,-0.205057 -1.008891,-0.564448 -2.152164,-0.972454 -3.042667,-1.081881 -0.477928,-0.05799 -0.847426,0.01155 -1.038987,0.205057 -0.09749,0.09698 -0.135311,0.354011 -0.0703,0.497995 0.11747,0.27048 0.575348,0.530082 1.792804,1.015489 1.742309,0.697943 2.46733,1.069683 3.183251,1.630721 0.713442,0.560448 1.156673,1.223866 1.322154,1.958785 0.10017,0.453461 0.06384,1.201869 -0.07227,1.581826 -0.138504,0.390968 -0.318254,0.669516 -0.613213,0.995981 -0.824938,0.91942 -2.391737,1.548431 -4.314026,1.702913 -0.350952,0.026 -1.348752,0.02349 -1.628722,0 -1.22836,-0.104987 -1.882788,-0.225594 -2.663803,-0.515562 -0.465459,-0.171482 -0.743218,-0.308237 -1.156073,-0.550721 -0.380479,-0.221474 -1.072682,-0.73393 -1.320155,-0.978413 -0.250543,-0.244983 -0.245284,-0.317325 0.117177,-0.671805 0.556949,-0.543451 1.312256,-1.215366 1.415845,-1.271361 0.136964,-0.07349 0.17422,-0.06276 0.63665,0.240203 0.45949,0.302978 1.016988,0.575877 1.579927,0.773356 0.798423,0.285479 1.372649,0.407565 2.027077,0.412065 0.35697,0.002 0.424723,-0.01943 0.613213,-0.08593 0.282969,-0.102983 0.405335,-0.221865 0.425733,-0.462839 0.01184,-0.151983 -0.0188,-0.217226 -0.09569,-0.343712 -0.196962,-0.311468 -0.618306,-0.56251 -2.003685,-1.185363 -1.155372,-0.521452 -1.556429,-0.723709 -2.075972,-1.031087 -1.223366,-0.72494 -1.872295,-1.44754 -2.146264,-2.388437 -0.08229,-0.266981 -0.05556,-0.968364 0.02344,-1.27326 0.143995,-0.504956 0.3619,-0.892813 0.730391,-1.253764 0.672935,-0.665947 1.715811,-1.124576 3.019168,-1.324054 0.290989,-0.0435 0.73358,-0.06025 1.179571,-0.06835 z"
         id="path5640"
         style="opacity:0.45;fill:#fbfbfb;fill-opacity:1" />
      <path
         id="rect5693"
         style="fill:#fbfbfb;fill-opacity:1"
         d="M 9 36 C 6.23 36 4 38.23 4 41 L 4 55 C 4 57.77 6.23 60 9 60 L 23 60 C 25.77 60 28 57.77 28 55 L 28 41 C 28 38.23 25.77 36 23 36 L 22.958984 36 L 9.0410156 36 L 9 36 z M 15.621094 42.001953 C 16.067056 41.994453 16.520122 42.005059 16.871094 42.037109 C 18.634499 42.204091 20.170286 42.753249 21.494141 43.703125 C 21.939091 44.0186 21.948067 43.980372 21.140625 44.90625 C 20.483177 45.658177 20.383155 45.722674 20.220703 45.679688 C 20.179203 45.671188 19.991363 45.581616 19.796875 45.474609 C 18.787984 44.910161 17.644409 44.502005 16.753906 44.392578 C 16.275978 44.334588 15.906405 44.404149 15.714844 44.597656 C 15.617354 44.694636 15.57952 44.951719 15.644531 45.095703 C 15.762001 45.366183 16.220044 45.625921 17.4375 46.111328 C 19.179809 46.809271 19.905173 47.181149 20.621094 47.742188 C 21.334536 48.302636 21.775925 48.966253 21.941406 49.701172 C 22.041576 50.154633 22.005251 50.903246 21.869141 51.283203 C 21.730637 51.674171 21.552772 51.952832 21.257812 52.279297 C 20.432875 53.198717 18.865648 53.825987 16.943359 53.980469 C 16.592407 54.006469 15.594423 54.003959 15.314453 53.980469 C 14.086093 53.875482 13.431406 53.756765 12.650391 53.466797 C 12.184932 53.295315 11.906996 53.1585 11.494141 52.916016 C 11.113662 52.694542 10.421301 52.181983 10.173828 51.9375 C 9.9232851 51.692517 9.9285546 51.620105 10.291016 51.265625 C 10.847965 50.722174 11.603442 50.050136 11.707031 49.994141 C 11.843995 49.920651 11.88132 49.931412 12.34375 50.234375 C 12.80324 50.537353 13.360889 50.810334 13.923828 51.007812 C 14.722251 51.293292 15.296744 51.415422 15.951172 51.419922 C 16.308142 51.421922 16.375963 51.400484 16.564453 51.333984 C 16.847422 51.231001 16.969836 51.112068 16.990234 50.871094 C 17.002074 50.719111 16.971421 50.65383 16.894531 50.527344 C 16.697569 50.215876 16.276004 49.96465 14.890625 49.341797 C 13.735253 48.820345 13.333996 48.617925 12.814453 48.310547 C 11.591087 47.585607 10.941938 46.862772 10.667969 45.921875 C 10.585679 45.654894 10.612406 44.953334 10.691406 44.648438 C 10.835401 44.143482 11.053384 43.755482 11.421875 43.394531 C 12.09481 42.728584 13.138049 42.269791 14.441406 42.070312 C 14.732395 42.026812 15.175103 42.010053 15.621094 42.001953 z " />
    </g>
  </g>
  <use
     x="0"
     y="0"
     xlink:href="#sogoupinyin"
     id="fcitx-sogoupinyin"
     transform="translate(0,42.997609)"
     width="100%"
     height="100%" />
  <use
     x="0"
     y="0"
     xlink:href="#sogoupinyin"
     id="sogou_notify"
     transform="translate(0,87.997609)"
     width="100%"
     height="100%" />
  <g
     id="22-22-fcitx-sogoupinyin">
    <path
       d="M 0,0 H 22 V 22 H 0 Z"
       fill="none"
       id="path7" />
    <g
       id="g1874"
       transform="translate(46)">
      <path
         id="rect965"
         style="font-variation-settings:'wght' 700;fill:#fbfbfb;fill-opacity:1;fill-rule:evenodd;stroke:#fbfbfb;stroke-width:0.02;stroke-linecap:round;stroke-linejoin:round;paint-order:stroke fill markers"
         d="m -40,3 c -1.662,0 -3,1.338 -3,3 v 10 c 0,1.662 1.338,3 3,3 h 10 c 1.662,0 3,-1.338 3,-3 V 6 c 0,-1.662 -1.338,-3 -3,-3 z m 4.748047,4 c 0.297448,-0.005 0.597939,0.00206 0.832031,0.023437 1.176159,0.1113738 2.200998,0.4777783 3.083984,1.1113281 0.296774,0.2104163 0.302221,0.1851904 -0.236328,0.8027344 -0.438506,0.5015219 -0.504929,0.5442954 -0.613281,0.515625 -0.02768,-0.00567 -0.15153,-0.065345 -0.28125,-0.1367188 -0.672911,-0.3764766 -1.437301,-0.6496697 -2.03125,-0.7226562 -0.318769,-0.038681 -0.563639,0.00766 -0.691406,0.1367188 -0.06502,0.06469 -0.09023,0.2359964 -0.04687,0.3320312 0.07835,0.1804054 0.383291,0.353977 1.195312,0.6777344 1.162088,0.4655146 1.645541,0.7136886 2.123047,1.0878906 0.475853,0.373809 0.770487,0.816463 0.88086,1.306641 0.06681,0.30245 0.04391,0.801262 -0.04687,1.054687 -0.09238,0.260768 -0.213425,0.446317 -0.410157,0.664063 -0.550219,0.613236 -1.594821,1.033681 -2.876953,1.136718 -0.234078,0.01734 -0.899203,0.01567 -1.085937,0 -0.819294,-0.07003 -1.256422,-0.150347 -1.777344,-0.34375 -0.310453,-0.114375 -0.496117,-0.205455 -0.771484,-0.367187 -0.253772,-0.14772 -0.713847,-0.489278 -0.878907,-0.652344 -0.167107,-0.163399 -0.163624,-0.212787 0.07813,-0.449219 0.371475,-0.362472 0.874268,-0.810309 0.94336,-0.847656 0.09135,-0.04902 0.117349,-0.04191 0.425781,0.160156 0.306471,0.20208 0.677264,0.38391 1.052734,0.515625 0.532533,0.190409 0.915072,0.272389 1.351563,0.275391 0.238093,0.0013 0.284437,-0.01423 0.410156,-0.05859 0.188735,-0.06869 0.269598,-0.147868 0.283203,-0.308594 0.0079,-0.101369 -0.01317,-0.144151 -0.06445,-0.228515 -0.13137,-0.207743 -0.411915,-0.375585 -1.335937,-0.791016 -0.770613,-0.347799 -1.038241,-0.482485 -1.384766,-0.6875 -0.815963,-0.483522 -1.248908,-0.966189 -1.431641,-1.5937498 -0.05489,-0.1780712 -0.03706,-0.6442957 0.01563,-0.8476562 0.09604,-0.3367954 0.242506,-0.5951902 0.488282,-0.8359375 0.448836,-0.4441744 1.144356,-0.7517174 2.013672,-0.8847656 0.194083,-0.029011 0.489641,-0.03952 0.787109,-0.044922 z" />
      <path
         d="m -35.252596,7 c 0.297448,-0.005 0.599544,0.00207 0.833636,0.023446 1.176159,0.1113738 2.200131,0.4775199 3.083118,1.1110697 0.296774,0.2104163 0.302783,0.1848136 -0.235766,0.8023576 -0.438506,0.5015219 -0.50515,0.5444842 -0.613502,0.5158138 -0.02768,-0.00567 -0.152936,-0.065396 -0.282656,-0.1367696 -0.672911,-0.3764766 -1.435454,-0.6486086 -2.029403,-0.7215951 -0.318769,-0.038681 -0.565218,0.00771 -0.692985,0.1367696 -0.06502,0.06469 -0.09025,0.236119 -0.04689,0.3321538 0.07835,0.1804054 0.383746,0.3535549 1.195767,0.6773123 1.162088,0.4655149 1.645664,0.7134589 2.12317,1.0876609 0.475853,0.373809 0.77148,0.816296 0.881853,1.306474 0.06681,0.30245 0.04258,0.801624 -0.0482,1.055049 -0.09238,0.260768 -0.21227,0.446555 -0.409002,0.664301 -0.550219,0.613236 -1.595245,1.032775 -2.877377,1.135812 -0.234078,0.01734 -0.899593,0.01567 -1.086327,0 -0.819294,-0.07003 -1.255786,-0.150468 -1.776708,-0.343871 -0.310453,-0.114375 -0.495713,-0.205588 -0.77108,-0.36732 -0.253772,-0.14772 -0.715459,-0.489518 -0.880519,-0.652584 -0.167107,-0.163399 -0.163599,-0.21165 0.07815,-0.448082 0.371475,-0.362472 0.875251,-0.810627 0.944343,-0.847974 0.09135,-0.04902 0.116202,-0.04186 0.424634,0.160211 0.306471,0.20208 0.678312,0.384099 1.053782,0.515814 0.532533,0.190409 0.915532,0.271838 1.352023,0.27484 0.238093,0.0013 0.283283,-0.01296 0.409002,-0.05732 0.188735,-0.06869 0.270351,-0.14798 0.283956,-0.308705 0.0079,-0.10137 -0.01254,-0.144886 -0.06382,-0.22925 -0.13137,-0.207743 -0.412399,-0.375184 -1.336421,-0.790615 -0.770613,-0.347799 -1.03811,-0.482701 -1.384635,-0.687716 -0.815963,-0.483522 -1.248787,-0.965483 -1.43152,-1.5930442 -0.05489,-0.1780713 -0.03705,-0.6458809 0.01563,-0.8492414 0.09604,-0.3367954 0.241381,-0.5954893 0.487157,-0.8362366 0.448836,-0.4441744 1.144415,-0.750072 2.01373,-0.8831202 0.194084,-0.029011 0.489284,-0.040187 0.786752,-0.045589 z"
         id="path849"
         style="color:#dedede;opacity:0.45;fill:#fbfbfb;fill-opacity:1" />
    </g>
  </g>
  <g
     id="22-22-fcitx-sogouwubi">
    <rect
       id="rect5389"
       width="22"
       height="22"
       x="25"
       y="0"
       style="fill:none" />
    <g
       id="g5487"
       transform="translate(-31)">
      <path
         id="rect2122"
         style="font-variation-settings:'wght' 700;fill:#fbfbfb;fill-opacity:1;fill-rule:evenodd;stroke:#fbfbfb;stroke-width:0.02;stroke-linecap:round;stroke-linejoin:round;paint-order:stroke fill markers"
         d="m 62,3 c -1.662,0 -3,1.338 -3,3 v 10 c 0,1.662 1.338,3 3,3 h 5.148438 c -0.03739,-0.06254 -0.08076,-0.141148 -0.117188,-0.289062 -0.05042,-0.204739 -0.02617,-0.380833 -0.01563,-0.445313 0.01195,-0.07299 0.04536,-0.218156 0.115234,-0.351563 0.06702,-0.127974 0.112232,-0.175264 0.138672,-0.208984 0.08073,-0.102972 0.15071,-0.171871 0.22461,-0.24414 0.10288,-0.100387 0.209583,-0.201216 0.3125,-0.296876 0.104782,-0.09739 0.20989,-0.192856 0.30664,-0.279296 0.09392,-0.08391 0.1783,-0.15932 0.25586,-0.22461 0.03706,-0.03121 0.07111,-0.0575 0.107421,-0.08594 0.01929,-0.01511 0.07342,-0.04718 0.09961,-0.06641 -0.04601,-0.03872 -0.09413,-0.07434 -0.138672,-0.115234 -0.09258,-0.08499 -0.179222,-0.172405 -0.257812,-0.259766 -0.07883,-0.08762 -0.154543,-0.179636 -0.226563,-0.279296 -0.06933,-0.09594 -0.133559,-0.196172 -0.193359,-0.302735 -0.05897,-0.105079 -0.112873,-0.213588 -0.158204,-0.322265 -0.04455,-0.106797 -0.08022,-0.21336 -0.111328,-0.31836 -0.02655,-0.08614 -0.04019,-0.153916 -0.05078,-0.222656 -0.01333,-0.08642 -0.01683,-0.142098 -0.01953,-0.179688 -0.0073,-0.101422 -0.01091,-0.21274 -0.0078,-0.333984 0.0028,-0.10838 0.0097,-0.216722 0.02148,-0.324219 0.01247,-0.114181 0.02812,-0.216391 0.05859,-0.333984 0.0025,-0.0078 0.0051,-0.01566 0.0078,-0.02344 0.0188,-0.06593 0.03778,-0.124479 0.05469,-0.173829 0.01822,-0.05319 0.03782,-0.109741 0.0625,-0.169921 0.01764,-0.04302 0.04176,-0.101376 0.07617,-0.171876 0.03791,-0.07768 0.06916,-0.131582 0.08789,-0.164062 0.02494,-0.04327 0.05838,-0.0962 0.101562,-0.160156 0.03997,-0.05921 0.07777,-0.111437 0.111329,-0.154297 0.03398,-0.0434 0.0735,-0.0916 0.121093,-0.144531 0.04006,-0.04456 0.08362,-0.09024 0.128907,-0.134766 l 0.002,-0.002 0.002,-0.002 c 0.07958,-0.07849 0.162793,-0.15303 0.251953,-0.22461 0.0867,-0.0696 0.180387,-0.138185 0.279297,-0.203125 0.100626,-0.06607 0.199968,-0.124564 0.298828,-0.177734 0.10001,-0.05379 0.205659,-0.105717 0.316406,-0.154297 0.11129,-0.04882 0.222107,-0.09198 0.332031,-0.130859 0.110012,-0.0389 0.226103,-0.07542 0.347657,-0.109375 0.12398,-0.03463 0.243224,-0.06315 0.359375,-0.08789 0.119493,-0.02546 0.246488,-0.04839 0.376953,-0.06836 h 0.002 c 0.08689,-0.01299 0.159189,-0.01979 0.224609,-0.02539 0.06673,-0.0057 0.144376,-0.01133 0.228516,-0.01563 0.152607,-0.0078 0.310079,-0.01283 0.464844,-0.01563 0.162753,-0.0027 0.326854,-0.0022 0.484375,0.002 0.157511,0.0042 0.310642,0.01204 0.457031,0.02539 h 0.002 c 0.161625,0.01531 0.326203,0.03503 0.492188,0.06055 0.164126,0.02523 0.32458,0.05598 0.480468,0.08984 0.156775,0.03405 0.31345,0.07286 0.46875,0.117187 0.159664,0.04558 0.309571,0.09494 0.453125,0.146484 0.144108,0.05174 0.288645,0.10953 0.431641,0.171875 V 6 C 75,4.338 73.662,3 72,3 Z m 1,4 H 66.4375 71 v 1 h -3.794922 l -0.535156,2 h 2.710937 L 69.427734,9.8261719 70.394531,10.085938 70.150391,11 H 69.113281 69 66.402344 l -0.804688,3 H 67 v 1 h -4 v -1 h 1.5625 l 0.802734,-3 H 64 v -1 h 1.634766 L 66.169922,8 H 63 Z"
         sodipodi:nodetypes="sssscsssscsssscsssssccccsccssssssscccsssssssccccccccsssscssscccccccccccccccccccccccccc" />
      <path
         id="path2006"
         d="m 63,7 v 1 h 3.169922 l -0.535156,2 H 64 v 1 h 1.365234 L 64.5625,14 H 63 v 1 h 4 v -1 h -1.402344 l 0.804688,-3 H 69 h 0.113281 1.03711 L 70.394531,10.085938 69.427734,9.8261719 69.380859,10 H 66.669922 L 67.205078,8 H 71 V 7 h -4.5625 z"
         style="color:#dedede;opacity:0.45;fill:#fbfbfb;fill-opacity:1" />
      <path
         style="color:#000000;opacity:0.45;fill:#fbfbfb;fill-opacity:1;fill-rule:evenodd;stroke-width:2;stroke-linecap:round;stroke-linejoin:round;-inkscape-stroke:none;paint-order:stroke fill markers"
         d="m 71.748047,12.001953 c -0.148664,0.0027 -0.296278,0.0067 -0.431641,0.01367 -0.06768,0.0035 -0.133703,0.0085 -0.193359,0.01367 -0.05966,0.0051 -0.113612,0.01033 -0.162109,0.01758 -0.108613,0.01662 -0.215292,0.03664 -0.31836,0.05859 -0.103068,0.02196 -0.201597,0.04511 -0.298828,0.07226 -0.09723,0.02716 -0.192101,0.05763 -0.283203,0.08984 -0.0911,0.03222 -0.17899,0.06637 -0.263672,0.103516 -0.08468,0.03715 -0.166172,0.0772 -0.244141,0.11914 -0.07797,0.04194 -0.153645,0.08622 -0.224609,0.132813 -0.07096,0.04659 -0.137505,0.09537 -0.201172,0.146484 -0.06367,0.05111 -0.123609,0.104661 -0.179687,0.160157 -0.03071,0.03008 -0.06024,0.06104 -0.08789,0.0918 -0.02765,0.03076 -0.05332,0.06208 -0.07813,0.09375 -0.02481,0.03168 -0.04815,0.06288 -0.07031,0.0957 -0.02216,0.03282 -0.04278,0.06736 -0.0625,0.101562 -0.01972,0.03421 -0.03916,0.06769 -0.05664,0.103516 -0.01748,0.03582 -0.03338,0.07365 -0.04883,0.111328 -0.01545,0.03768 -0.02935,0.07547 -0.04297,0.115234 -0.01362,0.03976 -0.02706,0.08097 -0.03906,0.123047 -0.01317,0.05082 -0.02498,0.118086 -0.0332,0.193359 -0.0082,0.07527 -0.01353,0.157862 -0.01563,0.240235 -0.0021,0.08237 6.39e-4,0.164214 0.0059,0.236328 0.0026,0.03606 0.0051,0.06937 0.0098,0.09961 0.0047,0.03024 0.01072,0.05783 0.01758,0.08008 0.02283,0.07841 0.04915,0.154382 0.08008,0.228516 0.03092,0.07413 0.06594,0.146359 0.105468,0.216797 0.03953,0.07044 0.08416,0.13971 0.132813,0.207031 0.04865,0.06732 0.101873,0.132483 0.160156,0.197266 0.05828,0.06478 0.121024,0.128584 0.189453,0.191406 0.06843,0.06282 0.141615,0.124107 0.220703,0.185547 0.07909,0.06144 0.163645,0.122957 0.253907,0.183594 0.09026,0.06064 0.187115,0.121228 0.289062,0.18164 0.08659,0.05123 0.168208,0.09763 0.253906,0.144531 0.0857,0.0469 0.176234,0.09508 0.279297,0.146485 0.103064,0.0514 0.218738,0.107136 0.357422,0.171875 0.138685,0.06474 0.299625,0.137701 0.492188,0.224609 0.230896,0.103809 0.421799,0.192315 0.580078,0.269531 0.07914,0.03861 0.150971,0.07376 0.214844,0.107422 0.06387,0.03366 0.119391,0.06585 0.169921,0.0957 0.05053,0.02985 0.09565,0.05876 0.134766,0.08594 0.03911,0.02717 0.07194,0.05249 0.101563,0.07813 0.02962,0.02563 0.05607,0.05094 0.07812,0.07617 0.02206,0.02523 0.04023,0.05022 0.05664,0.07617 0.01282,0.02108 0.02414,0.039 0.0332,0.05664 0.0091,0.01764 0.01614,0.03553 0.02148,0.05273 0.0053,0.01721 0.0081,0.03492 0.0098,0.05469 0.0017,0.01977 0.002,0.04108 0,0.06641 -0.0017,0.02008 -0.0039,0.03896 -0.0078,0.05664 -0.0039,0.01768 -0.0094,0.03328 -0.01563,0.04883 -0.0062,0.01555 -0.01276,0.03122 -0.02148,0.04492 -0.0087,0.0137 -0.01987,0.02694 -0.03125,0.03906 -0.01138,0.01212 -0.02487,0.02238 -0.03906,0.0332 -0.01419,0.01082 -0.02971,0.02145 -0.04687,0.03125 -0.03433,0.0196 -0.07393,0.03752 -0.121094,0.05469 -0.03141,0.01108 -0.05823,0.01985 -0.08398,0.02734 -0.02575,0.0075 -0.04958,0.01319 -0.07813,0.01758 -0.02854,0.0044 -0.06177,0.008 -0.101563,0.0098 -0.03979,0.0018 -0.08699,0.0023 -0.146484,0.002 -0.05454,-3.75e-4 -0.108844,-0.003 -0.162109,-0.0059 -0.05327,-0.0029 -0.105416,-0.0062 -0.158204,-0.01172 -0.05279,-0.0055 -0.105102,-0.01318 -0.158203,-0.02148 -0.0531,-0.0083 -0.107904,-0.01813 -0.162109,-0.0293 -0.0542,-0.01117 -0.107962,-0.02295 -0.164063,-0.03711 -0.0561,-0.01415 -0.113087,-0.02962 -0.171875,-0.04687 -0.117575,-0.0345 -0.241929,-0.07547 -0.375,-0.123047 -0.09382,-0.03291 -0.186943,-0.06869 -0.279296,-0.107422 -0.09235,-0.03873 -0.184447,-0.07945 -0.273438,-0.123046 -0.08899,-0.0436 -0.176033,-0.09115 -0.259766,-0.138672 -0.08373,-0.04752 -0.163652,-0.09599 -0.240234,-0.146485 -0.07707,-0.05049 -0.136543,-0.08888 -0.183594,-0.117187 -0.04705,-0.02831 -0.08137,-0.04618 -0.109375,-0.05664 -0.014,-0.0052 -0.02581,-0.0082 -0.03711,-0.0098 -0.0113,-0.0016 -0.02324,-0.0015 -0.0332,0 -0.01993,0.0031 -0.03772,0.01119 -0.06055,0.02344 -0.01726,0.0093 -0.06215,0.04474 -0.125,0.09766 -0.06285,0.05291 -0.143733,0.124098 -0.234375,0.205078 -0.09064,0.08098 -0.190383,0.172091 -0.291016,0.265625 -0.100632,0.09353 -0.202097,0.188722 -0.294922,0.279297 -0.06041,0.05908 -0.105018,0.106052 -0.136718,0.146485 -0.01585,0.02022 -0.02999,0.03933 -0.03906,0.05664 -0.0091,0.01731 -0.01307,0.03324 -0.01563,0.04883 -0.0026,0.01559 -0.0037,0.02989 0,0.04492 0.0037,0.01503 0.01179,0.03122 0.02148,0.04687 0.0097,0.01565 0.02169,0.03138 0.03711,0.04883 0.01542,0.01745 0.03381,0.03623 0.05469,0.05664 0.04125,0.04075 0.101378,0.09313 0.171875,0.150391 0.0705,0.05726 0.150432,0.119512 0.234375,0.18164 0.08394,0.06213 0.172325,0.124343 0.253907,0.179688 0.08158,0.05534 0.15729,0.103712 0.220703,0.140625 0.06881,0.04041 0.132373,0.07631 0.193359,0.109375 0.06099,0.03307 0.119849,0.06315 0.179688,0.0918 0.05984,0.02865 0.120177,0.05683 0.185547,0.08398 0.06537,0.02715 0.135314,0.05345 0.21289,0.08203 0.06508,0.02416 0.12806,0.04752 0.191406,0.06836 0.06335,0.02084 0.12797,0.03873 0.191407,0.05664 0.06344,0.01791 0.126052,0.0354 0.191406,0.05078 0.06535,0.01538 0.132072,0.02971 0.201172,0.04297 0.0691,0.01326 0.14017,0.02558 0.214843,0.03711 0.07467,0.01153 0.154253,0.02105 0.236329,0.03125 0.164151,0.02041 0.344101,0.03914 0.548828,0.05664 0.04666,0.0039 0.122567,0.0077 0.214843,0.0098 0.09228,0.0021 0.201094,0.0018 0.310547,0.002 0.109454,1.04e-4 0.220168,8.3e-5 0.31836,-0.002 0.09819,-0.002 0.183695,-0.0054 0.242187,-0.0098 0.0801,-0.0064 0.160108,-0.01455 0.238282,-0.02344 0.07817,-0.0089 0.154341,-0.01802 0.230468,-0.0293 0.07613,-0.01128 0.150654,-0.0235 0.22461,-0.03711 0.07395,-0.01361 0.14709,-0.02904 0.21875,-0.04492 0.07166,-0.01588 0.141699,-0.0327 0.210937,-0.05078 0.06924,-0.01808 0.138386,-0.03836 0.205078,-0.05859 0.06669,-0.02023 0.131291,-0.04019 0.195313,-0.0625 0.06402,-0.02231 0.126273,-0.04598 0.1875,-0.07031 0.06123,-0.02434 0.121381,-0.04987 0.179687,-0.07617 0.05831,-0.0263 0.116613,-0.05383 0.171875,-0.08203 0.05526,-0.0282 0.108064,-0.05785 0.160156,-0.08789 0.05209,-0.03004 0.101593,-0.05998 0.150391,-0.0918 0.0488,-0.03181 0.0972,-0.06413 0.142578,-0.09766 0.04538,-0.03353 0.08902,-0.06833 0.13086,-0.103515 0.04183,-0.03518 0.08097,-0.07064 0.11914,-0.107422 0.03817,-0.03678 0.075,-0.07497 0.109375,-0.113282 0.04916,-0.05441 0.09431,-0.106108 0.134766,-0.158203 0.04045,-0.0521 0.07617,-0.105088 0.109375,-0.158203 0.03321,-0.05312 0.06243,-0.106592 0.08984,-0.164062 0.02742,-0.05747 0.05309,-0.118433 0.07617,-0.183594 0.01134,-0.03166 0.02207,-0.06704 0.03125,-0.105469 0.0092,-0.03843 0.0165,-0.07957 0.02344,-0.123047 0.0069,-0.04347 0.01298,-0.08991 0.01758,-0.136718 0.0046,-0.04681 0.0076,-0.09415 0.0098,-0.142578 0.0022,-0.04843 0.0042,-0.09814 0.0039,-0.146485 -3.23e-4,-0.04834 -0.0029,-0.09604 -0.0059,-0.142578 -0.0029,-0.04654 -0.0061,-0.09175 -0.01172,-0.134766 -0.0056,-0.04302 -0.01314,-0.0833 -0.02148,-0.121093 -0.01379,-0.06124 -0.03123,-0.121907 -0.05078,-0.181641 -0.01955,-0.05973 -0.04111,-0.117644 -0.06641,-0.175781 -0.0253,-0.05814 -0.05296,-0.115424 -0.08398,-0.171875 -0.03103,-0.05645 -0.06482,-0.113291 -0.101563,-0.167969 -0.03674,-0.05468 -0.0767,-0.107339 -0.119141,-0.160156 -0.04244,-0.05282 -0.08859,-0.105383 -0.136718,-0.15625 -0.04813,-0.05087 -0.09855,-0.101561 -0.152344,-0.150391 -0.0538,-0.04883 -0.110468,-0.09587 -0.169922,-0.142578 -0.05966,-0.04675 -0.118501,-0.09126 -0.179687,-0.134766 -0.06119,-0.0435 -0.124122,-0.08537 -0.189453,-0.126953 -0.06533,-0.04159 -0.134937,-0.08399 -0.207032,-0.125 -0.0721,-0.04101 -0.147038,-0.08128 -0.228515,-0.123047 -0.08148,-0.04176 -0.168241,-0.08505 -0.261719,-0.128906 -0.09348,-0.04386 -0.194637,-0.08748 -0.302734,-0.134765 -0.216196,-0.09458 -0.463522,-0.19813 -0.753907,-0.314454 -0.202909,-0.0809 -0.373773,-0.152361 -0.517578,-0.216796 -0.0719,-0.03222 -0.136527,-0.06276 -0.195312,-0.0918 -0.05879,-0.02904 -0.111429,-0.0575 -0.158203,-0.08399 -0.04677,-0.02649 -0.08913,-0.05161 -0.125,-0.07617 -0.03587,-0.02456 -0.06573,-0.04705 -0.0918,-0.07031 -0.02607,-0.02326 -0.04708,-0.04577 -0.06445,-0.06836 -0.01738,-0.02259 -0.03123,-0.04582 -0.04102,-0.06836 -0.0054,-0.012 -0.01034,-0.02506 -0.01367,-0.03906 -0.0033,-0.014 -0.0045,-0.02963 -0.0059,-0.04492 -0.0027,-0.03058 -0.0026,-0.06229 0.002,-0.09375 0.0045,-0.03146 0.01261,-0.06123 0.02344,-0.08789 0.0054,-0.01333 0.01271,-0.02605 0.01953,-0.03711 0.0068,-0.01106 0.01336,-0.02121 0.02148,-0.0293 0.01596,-0.01613 0.03319,-0.03138 0.05273,-0.04492 0.01955,-0.01354 0.0415,-0.02617 0.06445,-0.03711 0.02296,-0.01094 0.04802,-0.01901 0.07422,-0.02734 0.0262,-0.0083 0.05277,-0.01576 0.08203,-0.02149 0.02927,-0.0057 0.06159,-0.01057 0.09375,-0.01367 0.03216,-0.0031 0.06472,-0.0054 0.09961,-0.0059 0.03489,-4.63e-4 0.07193,0.0017 0.109375,0.0039 0.03744,0.0022 0.07541,0.0049 0.115234,0.0098 0.07421,0.0091 0.151475,0.02197 0.230469,0.03711 0.07899,0.01514 0.159423,0.03194 0.242187,0.05274 0.08276,0.02079 0.168387,0.04423 0.253907,0.07031 0.08552,0.02608 0.170552,0.05493 0.257812,0.08594 0.08726,0.03101 0.175686,0.06405 0.263672,0.09961 0.08799,0.03556 0.175975,0.07353 0.263672,0.113282 0.0877,0.03975 0.175326,0.08142 0.261719,0.125 0.08639,0.04358 0.171785,0.08968 0.255859,0.136718 0.06483,0.03567 0.129041,0.0692 0.179688,0.09375 0.05065,0.02455 0.08773,0.04012 0.101562,0.04297 0.01354,0.0036 0.02602,0.0053 0.03906,0.0059 0.01305,5.88e-4 0.02685,1.1e-5 0.04102,-0.0039 0.01417,-0.0039 0.02997,-0.0096 0.04687,-0.01953 0.0169,-0.0099 0.03539,-0.02356 0.05664,-0.04102 0.0425,-0.03491 0.09448,-0.08608 0.164062,-0.160156 0.06958,-0.07408 0.15605,-0.171554 0.265625,-0.296875 0.134574,-0.154313 0.236078,-0.26771 0.306641,-0.355469 0.03528,-0.04388 0.06127,-0.08285 0.08203,-0.115234 0.02076,-0.03238 0.03575,-0.05968 0.04297,-0.08399 0.0036,-0.01215 0.0054,-0.02242 0.0059,-0.0332 4.1e-4,-0.01078 -0.0012,-0.02142 -0.0039,-0.03125 -0.0027,-0.0098 -0.0061,-0.01998 -0.01172,-0.0293 -0.0056,-0.0093 -0.01303,-0.01812 -0.02148,-0.02734 -0.0169,-0.01845 -0.03892,-0.03599 -0.06641,-0.05664 -0.02748,-0.02065 -0.06058,-0.04402 -0.09766,-0.07031 -0.110321,-0.07916 -0.223133,-0.153813 -0.33789,-0.22461 -0.05738,-0.0354 -0.115333,-0.0702 -0.173828,-0.103515 -0.05849,-0.03332 -0.118118,-0.06641 -0.177735,-0.09766 -0.119233,-0.06249 -0.23953,-0.119575 -0.363281,-0.173828 -0.123751,-0.05425 -0.250597,-0.104322 -0.378906,-0.15039 -0.128309,-0.04607 -0.257717,-0.08901 -0.390625,-0.126954 -0.132908,-0.03794 -0.268702,-0.07169 -0.40625,-0.101562 -0.137548,-0.02988 -0.277693,-0.05626 -0.419922,-0.07813 -0.142229,-0.02187 -0.286643,-0.03882 -0.433594,-0.05273 -0.116991,-0.01067 -0.250982,-0.01767 -0.392578,-0.02149 -0.141596,-0.0038 -0.290799,-0.0045 -0.439453,-0.002 z"
         id="path4206" />
    </g>
  </g>
  <g
     id="sogouwubi">
    <rect
       id="rect5648"
       width="32"
       height="32"
       x="37"
       y="32"
       style="fill:none" />
    <g
       id="g6782"
       class="ColorScheme-Text"
       fill="currentColor">
      <path
         id="path5654"
         d="m 46.999999,42 v 1.500001 h 4.754882 l -0.802733,3 h -2.45215 V 48 h 2.047852 l -1.204101,4.500001 h -2.34375 V 54 h 5.999999 V 52.500001 H 50.896482 L 52.103515,48 h 3.896484 0.169921 1.555665 l 0.36621,-1.371092 -1.450196,-0.38965 -0.07031,0.260743 h -4.066405 l 0.802734,-3 h 5.692383 V 42 h -6.84375 z"
         style="opacity:0.45;fill:#fbfbfb;fill-opacity:1" />
      <path
         id="path6290"
         style="fill:#fbfbfb;fill-opacity:1"
         d="m 46,36 c -2.77,0 -5,2.23 -5,5 v 14 c 0,2.77 2.23,5 5,5 h 7.173828 0.900391 c -0.105347,-0.0857 -0.205963,-0.169088 -0.328125,-0.289062 -0.0013,-0.0012 -0.0046,-0.0047 -0.0059,-0.0059 l -0.002,-0.002 c -0.03586,-0.03498 -0.08463,-0.08065 -0.160156,-0.166016 -0.09355,-0.105734 -0.175257,-0.216697 -0.248047,-0.333984 -0.0839,-0.13519 -0.196888,-0.344705 -0.267578,-0.630859 -0.0698,-0.282576 -0.07482,-0.607828 -0.0332,-0.861328 0.04383,-0.266931 0.137056,-0.503001 0.222656,-0.666016 0.08755,-0.166729 0.171104,-0.281483 0.246094,-0.376953 0.142223,-0.181068 0.245611,-0.279063 0.345703,-0.376953 l 0.002,-0.002 c 0.128427,-0.125314 0.265101,-0.255164 0.402344,-0.382812 0.126042,-0.117231 0.242988,-0.223022 0.351562,-0.320312 -0.09654,-0.112639 -0.188645,-0.227371 -0.265625,-0.333985 -0.09699,-0.134318 -0.195402,-0.282216 -0.289062,-0.449219 -0.09477,-0.168995 -0.170212,-0.33126 -0.232422,-0.480468 -0.0615,-0.147519 -0.121608,-0.311896 -0.173828,-0.490235 -7e-4,-0.0022 -0.0013,-0.0038 -0.002,-0.0059 -0.04337,-0.148147 -0.06392,-0.261446 -0.07813,-0.353516 -0.01599,-0.103678 -0.02475,-0.195496 -0.03125,-0.285156 -0.01219,-0.168164 -0.01582,-0.327273 -0.01172,-0.488281 0.0039,-0.154608 0.01376,-0.306858 0.03125,-0.466797 0.01793,-0.163918 0.03947,-0.31785 0.09375,-0.527344 0.0037,-0.01567 0.0076,-0.0313 0.01172,-0.04687 0.05056,-0.17729 0.110524,-0.348418 0.177734,-0.511719 0.02648,-0.06435 0.06236,-0.151923 0.113281,-0.255859 0.03728,-0.07609 0.082,-0.159336 0.136719,-0.253906 0.04526,-0.07822 0.0957,-0.160501 0.152344,-0.244141 0.07247,-0.107001 0.130755,-0.181985 0.171875,-0.234375 0.04719,-0.06013 0.109177,-0.135853 0.185547,-0.220703 0.06896,-0.07662 0.132363,-0.141186 0.189453,-0.197266 0.126322,-0.12501 0.253743,-0.235404 0.378906,-0.335937 0.125807,-0.101048 0.261266,-0.201605 0.40625,-0.296875 0.140812,-0.09252 0.284333,-0.17761 0.429688,-0.25586 0.144913,-0.07801 0.293115,-0.151069 0.447265,-0.21875 0.148073,-0.06501 0.303574,-0.125823 0.466797,-0.183593 0.160349,-0.05675 0.321117,-0.107264 0.482422,-0.152344 0.165127,-0.04615 0.332219,-0.08771 0.498047,-0.123047 0.168256,-0.03586 0.337494,-0.06543 0.509766,-0.0918 0.0026,-6.56e-4 0.0052,-0.0013 0.0078,-0.002 0.109201,-0.01633 0.214979,-0.02761 0.324219,-0.03711 0.115828,-0.01008 0.218027,-0.01669 0.310547,-0.02148 0.201686,-0.01053 0.4048,-0.01593 0.605468,-0.01953 h 0.0039 c 0.210301,-0.0035 0.42356,-0.0037 0.636718,0.002 0.213158,0.0057 0.419791,0.01679 0.621094,0.03516 0.0026,6.46e-4 0.0052,0.0013 0.0078,0.002 0.215476,0.02041 0.434551,0.04562 0.658203,0.08008 0.221656,0.03415 0.436379,0.07381 0.644531,0.11914 0.207976,0.04529 0.419343,0.09905 0.632812,0.160157 0.213263,0.06105 0.418111,0.128268 0.615235,0.199218 0.209196,0.0753 0.408838,0.154472 0.599609,0.238282 0.194838,0.08559 0.388279,0.178618 0.580078,0.279297 0.117456,0.06165 0.235859,0.128615 0.353516,0.197265 V 48.173828 41 c 0,-2.77 -2.23,-5 -5,-5 z m 1,6 H 52.15625 59 v 1.5 h -5.691406 l -0.802735,3 h 4.064453 l 0.07031,-0.259766 1.451172,0.388672 L 57.724609,48 H 56.169922 56 52.103516 l -1.207032,4.5 H 53 V 54 h -6 v -1.5 h 2.34375 L 50.546875,48 H 48.5 v -1.5 h 2.451172 l 0.802734,-3 H 47 Z"
         sodipodi:nodetypes="sssscccccssssssccscsssccssssccsssssscsssssssccsccccccssssssccssscccccccccccccccccccccccccc" />
    </g>
    <path
       style="color:#000000;opacity:0.45;fill:#fbfbfb;fill-rule:evenodd;stroke-width:4;stroke-linecap:round;stroke-linejoin:round;-inkscape-stroke:none;paint-order:stroke fill markers;fill-opacity:1"
       d="m 59.683594,50.001953 c -0.18583,0.0034 -0.370226,0.0088 -0.539063,0.01758 -0.08442,0.0044 -0.165801,0.0091 -0.240234,0.01563 -0.07443,0.0065 -0.142502,0.01438 -0.203125,0.02344 -0.135767,0.02078 -0.267689,0.04482 -0.396484,0.07227 -0.128796,0.02745 -0.25353,0.05785 -0.375,0.0918 -0.121471,0.03395 -0.239724,0.07106 -0.353516,0.111328 -0.113793,0.04027 -0.224318,0.08443 -0.330078,0.13086 -0.105761,0.04643 -0.207313,0.09602 -0.304688,0.148437 -0.09737,0.05242 -0.19066,0.107775 -0.279297,0.166016 -0.08864,0.05824 -0.172409,0.119704 -0.251953,0.183594 -0.07954,0.06389 -0.154512,0.129849 -0.224609,0.199218 -0.03838,0.0376 -0.07477,0.07483 -0.109375,0.113282 -0.03461,0.03845 -0.06658,0.07759 -0.09766,0.117187 -0.03108,0.03959 -0.06206,0.08006 -0.08984,0.121094 -0.02779,0.04103 -0.05338,0.08224 -0.07813,0.125 -0.02474,0.04276 -0.04837,0.08803 -0.07031,0.132812 -0.02194,0.04478 -0.04116,0.08963 -0.06055,0.136719 -0.03876,0.09419 -0.07352,0.193629 -0.103516,0.298828 -0.01646,0.06352 -0.03074,0.148233 -0.04102,0.242188 -0.01027,0.09395 -0.01692,0.197998 -0.01953,0.300781 -0.0026,0.102783 -6.67e-4,0.202963 0.0059,0.292969 0.0033,0.045 0.0078,0.08724 0.01367,0.125 0.0058,0.03776 0.01291,0.0718 0.02148,0.09961 0.02854,0.09801 0.06292,0.192476 0.101562,0.285156 0.03864,0.09268 0.08147,0.183414 0.130859,0.271485 0.04939,0.08807 0.105232,0.173632 0.166016,0.257812 0.06078,0.08418 0.126396,0.167039 0.199219,0.248047 0.07282,0.08101 0.152773,0.161678 0.238281,0.240234 0.08551,0.07856 0.176553,0.155599 0.275391,0.232422 0.09884,0.07682 0.205546,0.152707 0.318359,0.228516 0.112813,0.07581 0.231941,0.151048 0.359375,0.226562 0.108238,0.06404 0.211053,0.123016 0.318359,0.181641 0.107307,0.05862 0.218583,0.117387 0.347657,0.181641 0.129073,0.06425 0.27568,0.133919 0.449219,0.214844 0.173538,0.08092 0.374531,0.172613 0.615234,0.28125 0.288621,0.12976 0.526944,0.239233 0.724609,0.335937 0.09883,0.04835 0.187852,0.09453 0.267578,0.136719 0.07973,0.04219 0.14985,0.0817 0.212891,0.11914 0.06304,0.03744 0.119191,0.07334 0.167969,0.107422 0.04878,0.03408 0.09002,0.06552 0.126953,0.09766 0.03694,0.03213 0.06819,0.06412 0.0957,0.0957 0.02752,0.03159 0.05175,0.06326 0.07227,0.0957 0.01602,0.02635 0.02973,0.0503 0.04102,0.07227 0.01128,0.02196 0.02072,0.04111 0.02734,0.0625 0.0066,0.02139 0.0097,0.04374 0.01172,0.06836 0.002,0.02462 0.0025,0.05232 0,0.08398 -0.0021,0.0251 -0.0049,0.04824 -0.0098,0.07031 -0.0048,0.02207 -0.01177,0.04311 -0.01953,0.0625 -0.0078,0.01939 -0.01647,0.03762 -0.02734,0.05469 -0.01088,0.01706 -0.02291,0.03374 -0.03711,0.04883 -0.0142,0.01509 -0.03111,0.02755 -0.04883,0.04102 -0.01771,0.01347 -0.03716,0.02686 -0.05859,0.03906 -0.04287,0.02441 -0.09339,0.04691 -0.152344,0.06836 -0.03927,0.01385 -0.07142,0.02565 -0.103515,0.03516 -0.0321,0.0095 -0.06405,0.01581 -0.09961,0.02148 -0.03556,0.0057 -0.07535,0.01131 -0.125,0.01367 -0.04965,0.0024 -0.109225,0.0024 -0.183594,0.002 -0.06817,-4.68e-4 -0.134589,-0.0022 -0.201172,-0.0059 -0.06658,-0.0036 -0.133234,-0.0087 -0.199218,-0.01563 -0.06598,-0.0069 -0.132843,-0.01504 -0.199219,-0.02539 -0.06638,-0.01035 -0.131463,-0.02318 -0.199219,-0.03711 -0.135512,-0.02787 -0.274906,-0.06238 -0.421875,-0.105469 -0.146968,-0.04308 -0.302412,-0.09482 -0.46875,-0.154297 -0.117279,-0.04114 -0.234121,-0.08635 -0.349609,-0.134765 -0.115488,-0.04841 -0.230498,-0.0998 -0.341797,-0.154297 -0.111299,-0.0545 -0.219507,-0.112472 -0.324219,-0.171875 -0.104712,-0.0594 -0.205054,-0.120473 -0.300781,-0.183594 -0.09634,-0.06312 -0.171517,-0.111189 -0.230469,-0.146484 -0.05895,-0.0353 -0.101531,-0.05736 -0.136718,-0.07031 -0.01759,-0.0065 -0.03267,-0.01176 -0.04688,-0.01367 -0.01421,-0.0019 -0.02849,-5e-6 -0.04102,0.002 -0.02505,0.0039 -0.04764,0.01399 -0.07617,0.0293 -0.02158,0.01167 -0.07787,0.05504 -0.15625,0.121094 -0.07838,0.06605 -0.177958,0.154756 -0.291016,0.255859 -0.113057,0.101104 -0.239627,0.215205 -0.365234,0.332032 -0.125607,0.116826 -0.251156,0.23639 -0.367187,0.349609 -0.07551,0.07385 -0.13225,0.133145 -0.171876,0.183594 -0.01981,0.02522 -0.03554,0.04873 -0.04687,0.07031 -0.01134,0.02159 -0.0183,0.04112 -0.02148,0.06055 -0.0032,0.01942 -0.0027,0.03791 0.002,0.05664 0.0046,0.01873 0.01328,0.03712 0.02539,0.05664 0.01212,0.01952 0.0276,0.04072 0.04687,0.0625 0.01927,0.02178 0.04226,0.04479 0.06836,0.07031 0.05156,0.05093 0.126676,0.116014 0.214844,0.1875 0.08817,0.07149 0.189932,0.149025 0.294922,0.226562 0.104989,0.07754 0.212431,0.15552 0.314453,0.22461 0.102022,0.06909 0.198077,0.129641 0.277344,0.175781 0.08601,0.05052 0.164139,0.09538 0.240234,0.136719 0.0761,0.04134 0.149994,0.07942 0.22461,0.115234 0.07462,0.03581 0.150847,0.06957 0.232421,0.103516 0.08158,0.03394 0.168655,0.06779 0.265625,0.103516 0.08136,0.03021 0.161065,0.05794 0.240235,0.08398 0.07917,0.02605 0.157055,0.04988 0.236328,0.07227 0.07927,0.02239 0.160523,0.04327 0.242187,0.0625 0.08166,0.01923 0.163656,0.03812 0.25,0.05469 0.172689,0.03314 0.357357,0.06043 0.5625,0.08594 0.205144,0.02551 0.431592,0.04844 0.6875,0.07031 0.05833,0.0049 0.154185,0.0091 0.269532,0.01172 0.115346,0.0026 0.249901,0.0038 0.386718,0.0039 0.136818,1.31e-4 0.275698,-0.0014 0.398438,-0.0039 0.12274,-0.0025 0.229619,-0.0063 0.302734,-0.01172 0.200239,-0.01609 0.395567,-0.03823 0.585938,-0.06641 0.09519,-0.01409 0.188768,-0.02988 0.28125,-0.04687 0.09248,-0.01699 0.183817,-0.03486 0.273437,-0.05469 0.08962,-0.01982 0.179025,-0.04187 0.265625,-0.06445 0.0866,-0.02258 0.170484,-0.04701 0.253906,-0.07227 0.08342,-0.02526 0.166007,-0.05026 0.246094,-0.07813 0.08009,-0.02786 0.157781,-0.0575 0.234375,-0.08789 0.07659,-0.03039 0.151666,-0.06286 0.22461,-0.0957 0.07294,-0.03284 0.143756,-0.06634 0.21289,-0.101563 0.06914,-0.03522 0.136004,-0.07186 0.201172,-0.109375 0.06517,-0.03752 0.12841,-0.07549 0.189453,-0.115234 0.06104,-0.03974 0.120974,-0.08115 0.177735,-0.123047 0.05676,-0.04189 0.109789,-0.08494 0.162109,-0.128906 0.05232,-0.04397 0.102669,-0.0888 0.150391,-0.134766 0.04772,-0.04596 0.09375,-0.09274 0.136718,-0.140625 0.06145,-0.06801 0.117491,-0.134283 0.167969,-0.199219 0.05048,-0.06493 0.09533,-0.129163 0.136719,-0.195312 0.04139,-0.06615 0.0791,-0.133424 0.113281,-0.205078 0.03418,-0.07165 0.06489,-0.147064 0.09375,-0.228516 0.01418,-0.03958 0.02759,-0.08471 0.03906,-0.132812 0.01148,-0.0481 0.02063,-0.09984 0.0293,-0.154297 0.01733,-0.108916 0.0297,-0.228222 0.03516,-0.34961 0.0055,-0.121387 0.0053,-0.244755 -0.002,-0.361328 -0.0036,-0.05829 -0.01059,-0.114127 -0.01758,-0.167969 -0.007,-0.05384 -0.01496,-0.105108 -0.02539,-0.152343 -0.01724,-0.07655 -0.03805,-0.151908 -0.0625,-0.226563 -0.02445,-0.07465 -0.05234,-0.148055 -0.08398,-0.220703 -0.03164,-0.07265 -0.06666,-0.144308 -0.105469,-0.214844 -0.03881,-0.07053 -0.08099,-0.140667 -0.126953,-0.208984 -0.04596,-0.06832 -0.09535,-0.13518 -0.148438,-0.201172 -0.05308,-0.06599 -0.109738,-0.131751 -0.169922,-0.195312 -0.06018,-0.06356 -0.124144,-0.124523 -0.191406,-0.185547 -0.06726,-0.06102 -0.138574,-0.121308 -0.212891,-0.179688 -0.07458,-0.05844 -0.150119,-0.113606 -0.226562,-0.167968 -0.07644,-0.05436 -0.154733,-0.108198 -0.236328,-0.160157 -0.0816,-0.05196 -0.165827,-0.103067 -0.25586,-0.154297 -0.09003,-0.05123 -0.185354,-0.102122 -0.287109,-0.154296 -0.101755,-0.05217 -0.20941,-0.105362 -0.326172,-0.160157 -0.116762,-0.05479 -0.2419,-0.110832 -0.376953,-0.169922 -0.270107,-0.118179 -0.580378,-0.247173 -0.943359,-0.392578 -0.253637,-0.101126 -0.468453,-0.190848 -0.648438,-0.271484 -0.08999,-0.04032 -0.170516,-0.07888 -0.24414,-0.115235 -0.07362,-0.03636 -0.138646,-0.07034 -0.197266,-0.103515 -0.05862,-0.03317 -0.111271,-0.06494 -0.15625,-0.0957 -0.04498,-0.03076 -0.08253,-0.06072 -0.115234,-0.08984 -0.0327,-0.02912 -0.06025,-0.05768 -0.08203,-0.08594 -0.02179,-0.02826 -0.03854,-0.05581 -0.05078,-0.08398 -0.01355,-0.03 -0.022,-0.0652 -0.02539,-0.103516 -0.0034,-0.03831 -0.0017,-0.07969 0.0039,-0.11914 0.0056,-0.03945 0.01576,-0.07791 0.0293,-0.111328 0.01353,-0.03342 0.03047,-0.06183 0.05078,-0.08203 0.01995,-0.02016 0.04195,-0.03779 0.06641,-0.05469 0.02446,-0.0169 0.05134,-0.03324 0.08008,-0.04687 0.02874,-0.01363 0.05899,-0.02479 0.0918,-0.03516 0.0328,-0.01036 0.06883,-0.02025 0.105469,-0.02734 0.03664,-0.0071 0.07497,-0.01181 0.115234,-0.01563 0.04026,-0.0038 0.08134,-0.0053 0.125,-0.0059 0.08731,-0.0011 0.181682,0.0035 0.28125,0.01563 0.09276,0.0114 0.188354,0.02601 0.287109,0.04492 0.09876,0.01891 0.20121,0.04239 0.304688,0.06836 0.103478,0.02597 0.207525,0.05532 0.314453,0.08789 0.106928,0.03258 0.217066,0.0687 0.326172,0.107422 0.109106,0.03873 0.218114,0.08058 0.328125,0.125 0.110011,0.04442 0.220434,0.09096 0.330078,0.140625 0.109644,0.04967 0.218167,0.101791 0.326172,0.15625 0.108005,0.05446 0.21522,0.111126 0.320312,0.169922 0.08104,0.04459 0.159348,0.08625 0.222657,0.117188 0.06331,0.03093 0.111616,0.05114 0.128906,0.05469 0.01692,0.0045 0.0325,0.0071 0.04883,0.0078 0.01633,7.35e-4 0.03303,-9.64e-4 0.05078,-0.0059 0.01775,-0.0049 0.03741,-0.01298 0.05859,-0.02539 0.02118,-0.01241 0.04369,-0.02896 0.07031,-0.05078 0.05324,-0.04364 0.119965,-0.108577 0.207031,-0.201172 0.08707,-0.0926 0.195063,-0.212489 0.332031,-0.369141 0.168217,-0.192891 0.294655,-0.335751 0.382813,-0.445313 0.04408,-0.05478 0.0776,-0.100234 0.103515,-0.140624 0.02592,-0.04039 0.04374,-0.07517 0.05273,-0.105469 0.0045,-0.01515 0.0073,-0.02954 0.0078,-0.04297 4.97e-4,-0.01343 -0.0025,-0.02681 -0.0059,-0.03906 -0.0033,-0.01225 -0.0086,-0.02355 -0.01563,-0.03516 -0.007,-0.0116 -0.01482,-0.02366 -0.02539,-0.03516 -0.02115,-0.02299 -0.04962,-0.04649 -0.08398,-0.07227 -0.03437,-0.02578 -0.07474,-0.05307 -0.121094,-0.08594 -0.137902,-0.09895 -0.278456,-0.192701 -0.421875,-0.28125 -0.143419,-0.08855 -0.290457,-0.171789 -0.439453,-0.25 -0.148996,-0.07821 -0.300447,-0.15082 -0.455078,-0.21875 -0.154632,-0.06793 -0.312331,-0.131746 -0.472657,-0.189453 -0.160325,-0.05771 -0.322203,-0.110661 -0.488281,-0.158203 -0.166078,-0.04754 -0.335923,-0.08952 -0.507812,-0.126954 -0.17189,-0.03743 -0.345678,-0.07027 -0.523438,-0.09766 -0.177759,-0.02739 -0.35928,-0.04901 -0.542969,-0.06641 -0.146238,-0.01335 -0.314459,-0.02258 -0.492187,-0.02734 -0.177728,-0.0048 -0.364964,-0.0051 -0.550781,-0.002 z"
       id="path6725" />
  </g>
  <g
     id="fcitx-sogouwubi"
     transform="translate(0,43)">
    <rect
       id="rect10657"
       width="32"
       height="32"
       x="37"
       y="32"
       style="fill:none" />
    <g
       id="g10663"
       class="ColorScheme-Text"
       fill="currentColor">
      <path
         id="path10659"
         d="m 46.999999,42 v 1.500001 h 4.754882 l -0.802733,3 h -2.45215 V 48 h 2.047852 l -1.204101,4.500001 h -2.34375 V 54 h 5.999999 V 52.500001 H 50.896482 L 52.103515,48 h 3.896484 0.169921 1.555665 l 0.36621,-1.371092 -1.450196,-0.38965 -0.07031,0.260743 h -4.066405 l 0.802734,-3 h 5.692383 V 42 h -6.84375 z"
         style="opacity:0.45;fill:#fbfbfb;fill-opacity:1" />
      <path
         id="path10661"
         style="fill:#fbfbfb;fill-opacity:1"
         d="m 46,36 c -2.77,0 -5,2.23 -5,5 v 14 c 0,2.77 2.23,5 5,5 h 7.173828 0.900391 c -0.105347,-0.0857 -0.205963,-0.169088 -0.328125,-0.289062 -0.0013,-0.0012 -0.0046,-0.0047 -0.0059,-0.0059 l -0.002,-0.002 c -0.03586,-0.03498 -0.08463,-0.08065 -0.160156,-0.166016 -0.09355,-0.105734 -0.175257,-0.216697 -0.248047,-0.333984 -0.0839,-0.13519 -0.196888,-0.344705 -0.267578,-0.630859 -0.0698,-0.282576 -0.07482,-0.607828 -0.0332,-0.861328 0.04383,-0.266931 0.137056,-0.503001 0.222656,-0.666016 0.08755,-0.166729 0.171104,-0.281483 0.246094,-0.376953 0.142223,-0.181068 0.245611,-0.279063 0.345703,-0.376953 l 0.002,-0.002 c 0.128427,-0.125314 0.265101,-0.255164 0.402344,-0.382812 0.126042,-0.117231 0.242988,-0.223022 0.351562,-0.320312 -0.09654,-0.112639 -0.188645,-0.227371 -0.265625,-0.333985 -0.09699,-0.134318 -0.195402,-0.282216 -0.289062,-0.449219 -0.09477,-0.168995 -0.170212,-0.33126 -0.232422,-0.480468 -0.0615,-0.147519 -0.121608,-0.311896 -0.173828,-0.490235 -7e-4,-0.0022 -0.0013,-0.0038 -0.002,-0.0059 -0.04337,-0.148147 -0.06392,-0.261446 -0.07813,-0.353516 -0.01599,-0.103678 -0.02475,-0.195496 -0.03125,-0.285156 -0.01219,-0.168164 -0.01582,-0.327273 -0.01172,-0.488281 0.0039,-0.154608 0.01376,-0.306858 0.03125,-0.466797 0.01793,-0.163918 0.03947,-0.31785 0.09375,-0.527344 0.0037,-0.01567 0.0076,-0.0313 0.01172,-0.04687 0.05056,-0.17729 0.110524,-0.348418 0.177734,-0.511719 0.02648,-0.06435 0.06236,-0.151923 0.113281,-0.255859 0.03728,-0.07609 0.082,-0.159336 0.136719,-0.253906 0.04526,-0.07822 0.0957,-0.160501 0.152344,-0.244141 0.07247,-0.107001 0.130755,-0.181985 0.171875,-0.234375 0.04719,-0.06013 0.109177,-0.135853 0.185547,-0.220703 0.06896,-0.07662 0.132363,-0.141186 0.189453,-0.197266 0.126322,-0.12501 0.253743,-0.235404 0.378906,-0.335937 0.125807,-0.101048 0.261266,-0.201605 0.40625,-0.296875 0.140812,-0.09252 0.284333,-0.17761 0.429688,-0.25586 0.144913,-0.07801 0.293115,-0.151069 0.447265,-0.21875 0.148073,-0.06501 0.303574,-0.125823 0.466797,-0.183593 0.160349,-0.05675 0.321117,-0.107264 0.482422,-0.152344 0.165127,-0.04615 0.332219,-0.08771 0.498047,-0.123047 0.168256,-0.03586 0.337494,-0.06543 0.509766,-0.0918 0.0026,-6.56e-4 0.0052,-0.0013 0.0078,-0.002 0.109201,-0.01633 0.214979,-0.02761 0.324219,-0.03711 0.115828,-0.01008 0.218027,-0.01669 0.310547,-0.02148 0.201686,-0.01053 0.4048,-0.01593 0.605468,-0.01953 h 0.0039 c 0.210301,-0.0035 0.42356,-0.0037 0.636718,0.002 0.213158,0.0057 0.419791,0.01679 0.621094,0.03516 0.0026,6.46e-4 0.0052,0.0013 0.0078,0.002 0.215476,0.02041 0.434551,0.04562 0.658203,0.08008 0.221656,0.03415 0.436379,0.07381 0.644531,0.11914 0.207976,0.04529 0.419343,0.09905 0.632812,0.160157 0.213263,0.06105 0.418111,0.128268 0.615235,0.199218 0.209196,0.0753 0.408838,0.154472 0.599609,0.238282 0.194838,0.08559 0.388279,0.178618 0.580078,0.279297 0.117456,0.06165 0.235859,0.128615 0.353516,0.197265 V 48.173828 41 c 0,-2.77 -2.23,-5 -5,-5 z m 1,6 H 52.15625 59 v 1.5 h -5.691406 l -0.802735,3 h 4.064453 l 0.07031,-0.259766 1.451172,0.388672 L 57.724609,48 H 56.169922 56 52.103516 l -1.207032,4.5 H 53 V 54 h -6 v -1.5 h 2.34375 L 50.546875,48 H 48.5 v -1.5 h 2.451172 l 0.802734,-3 H 47 Z"
         sodipodi:nodetypes="sssscccccssssssccscsssccssssccsssssscsssssssccsccccccssssssccssscccccccccccccccccccccccccc" />
    </g>
    <path
       style="color:#000000;opacity:0.45;fill:#fbfbfb;fill-opacity:1;fill-rule:evenodd;stroke-width:4;stroke-linecap:round;stroke-linejoin:round;-inkscape-stroke:none;paint-order:stroke fill markers"
       d="m 59.683594,50.001953 c -0.18583,0.0034 -0.370226,0.0088 -0.539063,0.01758 -0.08442,0.0044 -0.165801,0.0091 -0.240234,0.01563 -0.07443,0.0065 -0.142502,0.01438 -0.203125,0.02344 -0.135767,0.02078 -0.267689,0.04482 -0.396484,0.07227 -0.128796,0.02745 -0.25353,0.05785 -0.375,0.0918 -0.121471,0.03395 -0.239724,0.07106 -0.353516,0.111328 -0.113793,0.04027 -0.224318,0.08443 -0.330078,0.13086 -0.105761,0.04643 -0.207313,0.09602 -0.304688,0.148437 -0.09737,0.05242 -0.19066,0.107775 -0.279297,0.166016 -0.08864,0.05824 -0.172409,0.119704 -0.251953,0.183594 -0.07954,0.06389 -0.154512,0.129849 -0.224609,0.199218 -0.03838,0.0376 -0.07477,0.07483 -0.109375,0.113282 -0.03461,0.03845 -0.06658,0.07759 -0.09766,0.117187 -0.03108,0.03959 -0.06206,0.08006 -0.08984,0.121094 -0.02779,0.04103 -0.05338,0.08224 -0.07813,0.125 -0.02474,0.04276 -0.04837,0.08803 -0.07031,0.132812 -0.02194,0.04478 -0.04116,0.08963 -0.06055,0.136719 -0.03876,0.09419 -0.07352,0.193629 -0.103516,0.298828 -0.01646,0.06352 -0.03074,0.148233 -0.04102,0.242188 -0.01027,0.09395 -0.01692,0.197998 -0.01953,0.300781 -0.0026,0.102783 -6.67e-4,0.202963 0.0059,0.292969 0.0033,0.045 0.0078,0.08724 0.01367,0.125 0.0058,0.03776 0.01291,0.0718 0.02148,0.09961 0.02854,0.09801 0.06292,0.192476 0.101562,0.285156 0.03864,0.09268 0.08147,0.183414 0.130859,0.271485 0.04939,0.08807 0.105232,0.173632 0.166016,0.257812 0.06078,0.08418 0.126396,0.167039 0.199219,0.248047 0.07282,0.08101 0.152773,0.161678 0.238281,0.240234 0.08551,0.07856 0.176553,0.155599 0.275391,0.232422 0.09884,0.07682 0.205546,0.152707 0.318359,0.228516 0.112813,0.07581 0.231941,0.151048 0.359375,0.226562 0.108238,0.06404 0.211053,0.123016 0.318359,0.181641 0.107307,0.05862 0.218583,0.117387 0.347657,0.181641 0.129073,0.06425 0.27568,0.133919 0.449219,0.214844 0.173538,0.08092 0.374531,0.172613 0.615234,0.28125 0.288621,0.12976 0.526944,0.239233 0.724609,0.335937 0.09883,0.04835 0.187852,0.09453 0.267578,0.136719 0.07973,0.04219 0.14985,0.0817 0.212891,0.11914 0.06304,0.03744 0.119191,0.07334 0.167969,0.107422 0.04878,0.03408 0.09002,0.06552 0.126953,0.09766 0.03694,0.03213 0.06819,0.06412 0.0957,0.0957 0.02752,0.03159 0.05175,0.06326 0.07227,0.0957 0.01602,0.02635 0.02973,0.0503 0.04102,0.07227 0.01128,0.02196 0.02072,0.04111 0.02734,0.0625 0.0066,0.02139 0.0097,0.04374 0.01172,0.06836 0.002,0.02462 0.0025,0.05232 0,0.08398 -0.0021,0.0251 -0.0049,0.04824 -0.0098,0.07031 -0.0048,0.02207 -0.01177,0.04311 -0.01953,0.0625 -0.0078,0.01939 -0.01647,0.03762 -0.02734,0.05469 -0.01088,0.01706 -0.02291,0.03374 -0.03711,0.04883 -0.0142,0.01509 -0.03111,0.02755 -0.04883,0.04102 -0.01771,0.01347 -0.03716,0.02686 -0.05859,0.03906 -0.04287,0.02441 -0.09339,0.04691 -0.152344,0.06836 -0.03927,0.01385 -0.07142,0.02565 -0.103515,0.03516 -0.0321,0.0095 -0.06405,0.01581 -0.09961,0.02148 -0.03556,0.0057 -0.07535,0.01131 -0.125,0.01367 -0.04965,0.0024 -0.109225,0.0024 -0.183594,0.002 -0.06817,-4.68e-4 -0.134589,-0.0022 -0.201172,-0.0059 -0.06658,-0.0036 -0.133234,-0.0087 -0.199218,-0.01563 -0.06598,-0.0069 -0.132843,-0.01504 -0.199219,-0.02539 -0.06638,-0.01035 -0.131463,-0.02318 -0.199219,-0.03711 -0.135512,-0.02787 -0.274906,-0.06238 -0.421875,-0.105469 -0.146968,-0.04308 -0.302412,-0.09482 -0.46875,-0.154297 -0.117279,-0.04114 -0.234121,-0.08635 -0.349609,-0.134765 -0.115488,-0.04841 -0.230498,-0.0998 -0.341797,-0.154297 -0.111299,-0.0545 -0.219507,-0.112472 -0.324219,-0.171875 -0.104712,-0.0594 -0.205054,-0.120473 -0.300781,-0.183594 -0.09634,-0.06312 -0.171517,-0.111189 -0.230469,-0.146484 -0.05895,-0.0353 -0.101531,-0.05736 -0.136718,-0.07031 -0.01759,-0.0065 -0.03267,-0.01176 -0.04688,-0.01367 -0.01421,-0.0019 -0.02849,-5e-6 -0.04102,0.002 -0.02505,0.0039 -0.04764,0.01399 -0.07617,0.0293 -0.02158,0.01167 -0.07787,0.05504 -0.15625,0.121094 -0.07838,0.06605 -0.177958,0.154756 -0.291016,0.255859 -0.113057,0.101104 -0.239627,0.215205 -0.365234,0.332032 -0.125607,0.116826 -0.251156,0.23639 -0.367187,0.349609 -0.07551,0.07385 -0.13225,0.133145 -0.171876,0.183594 -0.01981,0.02522 -0.03554,0.04873 -0.04687,0.07031 -0.01134,0.02159 -0.0183,0.04112 -0.02148,0.06055 -0.0032,0.01942 -0.0027,0.03791 0.002,0.05664 0.0046,0.01873 0.01328,0.03712 0.02539,0.05664 0.01212,0.01952 0.0276,0.04072 0.04687,0.0625 0.01927,0.02178 0.04226,0.04479 0.06836,0.07031 0.05156,0.05093 0.126676,0.116014 0.214844,0.1875 0.08817,0.07149 0.189932,0.149025 0.294922,0.226562 0.104989,0.07754 0.212431,0.15552 0.314453,0.22461 0.102022,0.06909 0.198077,0.129641 0.277344,0.175781 0.08601,0.05052 0.164139,0.09538 0.240234,0.136719 0.0761,0.04134 0.149994,0.07942 0.22461,0.115234 0.07462,0.03581 0.150847,0.06957 0.232421,0.103516 0.08158,0.03394 0.168655,0.06779 0.265625,0.103516 0.08136,0.03021 0.161065,0.05794 0.240235,0.08398 0.07917,0.02605 0.157055,0.04988 0.236328,0.07227 0.07927,0.02239 0.160523,0.04327 0.242187,0.0625 0.08166,0.01923 0.163656,0.03812 0.25,0.05469 0.172689,0.03314 0.357357,0.06043 0.5625,0.08594 0.205144,0.02551 0.431592,0.04844 0.6875,0.07031 0.05833,0.0049 0.154185,0.0091 0.269532,0.01172 0.115346,0.0026 0.249901,0.0038 0.386718,0.0039 0.136818,1.31e-4 0.275698,-0.0014 0.398438,-0.0039 0.12274,-0.0025 0.229619,-0.0063 0.302734,-0.01172 0.200239,-0.01609 0.395567,-0.03823 0.585938,-0.06641 0.09519,-0.01409 0.188768,-0.02988 0.28125,-0.04687 0.09248,-0.01699 0.183817,-0.03486 0.273437,-0.05469 0.08962,-0.01982 0.179025,-0.04187 0.265625,-0.06445 0.0866,-0.02258 0.170484,-0.04701 0.253906,-0.07227 0.08342,-0.02526 0.166007,-0.05026 0.246094,-0.07813 0.08009,-0.02786 0.157781,-0.0575 0.234375,-0.08789 0.07659,-0.03039 0.151666,-0.06286 0.22461,-0.0957 0.07294,-0.03284 0.143756,-0.06634 0.21289,-0.101563 0.06914,-0.03522 0.136004,-0.07186 0.201172,-0.109375 0.06517,-0.03752 0.12841,-0.07549 0.189453,-0.115234 0.06104,-0.03974 0.120974,-0.08115 0.177735,-0.123047 0.05676,-0.04189 0.109789,-0.08494 0.162109,-0.128906 0.05232,-0.04397 0.102669,-0.0888 0.150391,-0.134766 0.04772,-0.04596 0.09375,-0.09274 0.136718,-0.140625 0.06145,-0.06801 0.117491,-0.134283 0.167969,-0.199219 0.05048,-0.06493 0.09533,-0.129163 0.136719,-0.195312 0.04139,-0.06615 0.0791,-0.133424 0.113281,-0.205078 0.03418,-0.07165 0.06489,-0.147064 0.09375,-0.228516 0.01418,-0.03958 0.02759,-0.08471 0.03906,-0.132812 0.01148,-0.0481 0.02063,-0.09984 0.0293,-0.154297 0.01733,-0.108916 0.0297,-0.228222 0.03516,-0.34961 0.0055,-0.121387 0.0053,-0.244755 -0.002,-0.361328 -0.0036,-0.05829 -0.01059,-0.114127 -0.01758,-0.167969 -0.007,-0.05384 -0.01496,-0.105108 -0.02539,-0.152343 -0.01724,-0.07655 -0.03805,-0.151908 -0.0625,-0.226563 -0.02445,-0.07465 -0.05234,-0.148055 -0.08398,-0.220703 -0.03164,-0.07265 -0.06666,-0.144308 -0.105469,-0.214844 -0.03881,-0.07053 -0.08099,-0.140667 -0.126953,-0.208984 -0.04596,-0.06832 -0.09535,-0.13518 -0.148438,-0.201172 -0.05308,-0.06599 -0.109738,-0.131751 -0.169922,-0.195312 -0.06018,-0.06356 -0.124144,-0.124523 -0.191406,-0.185547 -0.06726,-0.06102 -0.138574,-0.121308 -0.212891,-0.179688 -0.07458,-0.05844 -0.150119,-0.113606 -0.226562,-0.167968 -0.07644,-0.05436 -0.154733,-0.108198 -0.236328,-0.160157 -0.0816,-0.05196 -0.165827,-0.103067 -0.25586,-0.154297 -0.09003,-0.05123 -0.185354,-0.102122 -0.287109,-0.154296 -0.101755,-0.05217 -0.20941,-0.105362 -0.326172,-0.160157 -0.116762,-0.05479 -0.2419,-0.110832 -0.376953,-0.169922 -0.270107,-0.118179 -0.580378,-0.247173 -0.943359,-0.392578 -0.253637,-0.101126 -0.468453,-0.190848 -0.648438,-0.271484 -0.08999,-0.04032 -0.170516,-0.07888 -0.24414,-0.115235 -0.07362,-0.03636 -0.138646,-0.07034 -0.197266,-0.103515 -0.05862,-0.03317 -0.111271,-0.06494 -0.15625,-0.0957 -0.04498,-0.03076 -0.08253,-0.06072 -0.115234,-0.08984 -0.0327,-0.02912 -0.06025,-0.05768 -0.08203,-0.08594 -0.02179,-0.02826 -0.03854,-0.05581 -0.05078,-0.08398 -0.01355,-0.03 -0.022,-0.0652 -0.02539,-0.103516 -0.0034,-0.03831 -0.0017,-0.07969 0.0039,-0.11914 0.0056,-0.03945 0.01576,-0.07791 0.0293,-0.111328 0.01353,-0.03342 0.03047,-0.06183 0.05078,-0.08203 0.01995,-0.02016 0.04195,-0.03779 0.06641,-0.05469 0.02446,-0.0169 0.05134,-0.03324 0.08008,-0.04687 0.02874,-0.01363 0.05899,-0.02479 0.0918,-0.03516 0.0328,-0.01036 0.06883,-0.02025 0.105469,-0.02734 0.03664,-0.0071 0.07497,-0.01181 0.115234,-0.01563 0.04026,-0.0038 0.08134,-0.0053 0.125,-0.0059 0.08731,-0.0011 0.181682,0.0035 0.28125,0.01563 0.09276,0.0114 0.188354,0.02601 0.287109,0.04492 0.09876,0.01891 0.20121,0.04239 0.304688,0.06836 0.103478,0.02597 0.207525,0.05532 0.314453,0.08789 0.106928,0.03258 0.217066,0.0687 0.326172,0.107422 0.109106,0.03873 0.218114,0.08058 0.328125,0.125 0.110011,0.04442 0.220434,0.09096 0.330078,0.140625 0.109644,0.04967 0.218167,0.101791 0.326172,0.15625 0.108005,0.05446 0.21522,0.111126 0.320312,0.169922 0.08104,0.04459 0.159348,0.08625 0.222657,0.117188 0.06331,0.03093 0.111616,0.05114 0.128906,0.05469 0.01692,0.0045 0.0325,0.0071 0.04883,0.0078 0.01633,7.35e-4 0.03303,-9.64e-4 0.05078,-0.0059 0.01775,-0.0049 0.03741,-0.01298 0.05859,-0.02539 0.02118,-0.01241 0.04369,-0.02896 0.07031,-0.05078 0.05324,-0.04364 0.119965,-0.108577 0.207031,-0.201172 0.08707,-0.0926 0.195063,-0.212489 0.332031,-0.369141 0.168217,-0.192891 0.294655,-0.335751 0.382813,-0.445313 0.04408,-0.05478 0.0776,-0.100234 0.103515,-0.140624 0.02592,-0.04039 0.04374,-0.07517 0.05273,-0.105469 0.0045,-0.01515 0.0073,-0.02954 0.0078,-0.04297 4.97e-4,-0.01343 -0.0025,-0.02681 -0.0059,-0.03906 -0.0033,-0.01225 -0.0086,-0.02355 -0.01563,-0.03516 -0.007,-0.0116 -0.01482,-0.02366 -0.02539,-0.03516 -0.02115,-0.02299 -0.04962,-0.04649 -0.08398,-0.07227 -0.03437,-0.02578 -0.07474,-0.05307 -0.121094,-0.08594 -0.137902,-0.09895 -0.278456,-0.192701 -0.421875,-0.28125 -0.143419,-0.08855 -0.290457,-0.171789 -0.439453,-0.25 -0.148996,-0.07821 -0.300447,-0.15082 -0.455078,-0.21875 -0.154632,-0.06793 -0.312331,-0.131746 -0.472657,-0.189453 -0.160325,-0.05771 -0.322203,-0.110661 -0.488281,-0.158203 -0.166078,-0.04754 -0.335923,-0.08952 -0.507812,-0.126954 -0.17189,-0.03743 -0.345678,-0.07027 -0.523438,-0.09766 -0.177759,-0.02739 -0.35928,-0.04901 -0.542969,-0.06641 -0.146238,-0.01335 -0.314459,-0.02258 -0.492187,-0.02734 -0.177728,-0.0048 -0.364964,-0.0051 -0.550781,-0.002 z"
       id="path10665" />
  </g>
</svg>
