<?xml version="1.0" encoding="UTF-8" standalone="no"?>
<svg
   xmlns:dc="http://purl.org/dc/elements/1.1/"
   xmlns:cc="http://creativecommons.org/ns#"
   xmlns:rdf="http://www.w3.org/1999/02/22-rdf-syntax-ns#"
   xmlns:svg="http://www.w3.org/2000/svg"
   xmlns="http://www.w3.org/2000/svg"
   xmlns:sodipodi="http://sodipodi.sourceforge.net/DTD/sodipodi-0.dtd"
   xmlns:inkscape="http://www.inkscape.org/namespaces/inkscape"
   id="svg4143"
   width="22"
   height="22"
   version="1.1"
   viewBox="0 0 22 22"
   sodipodi:docname="update.svg"
   inkscape:version="1.0.1 (3bc2e813f5, 2020-09-07)">
  <metadata
     id="metadata23">
    <rdf:RDF>
      <cc:Work
         rdf:about="">
        <dc:format>image/svg+xml</dc:format>
        <dc:type
           rdf:resource="http://purl.org/dc/dcmitype/StillImage" />
        <dc:title></dc:title>
      </cc:Work>
    </rdf:RDF>
  </metadata>
  <sodipodi:namedview
     pagecolor="#329632"
     bordercolor="#666666"
     borderopacity="1"
     objecttolerance="10"
     gridtolerance="10"
     guidetolerance="10"
     inkscape:pageopacity="0"
     inkscape:pageshadow="2"
     inkscape:window-width="1920"
     inkscape:window-height="1004"
     id="namedview21"
     showgrid="true"
     inkscape:zoom="7.4519915"
     inkscape:cx="29.236298"
     inkscape:cy="36.131331"
     inkscape:window-x="0"
     inkscape:window-y="0"
     inkscape:window-maximized="1"
     inkscape:current-layer="svg4143"
     inkscape:document-rotation="0"
     inkscape:snap-bbox="true"
     inkscape:bbox-nodes="true"
     inkscape:snap-bbox-edge-midpoints="true">
    <inkscape:grid
       type="xygrid"
       id="grid864" />
  </sodipodi:namedview>
  <defs
     id="defs4157">
    <style
       id="current-color-scheme"
       type="text/css">
   .ColorScheme-Text { color:#333333; } .ColorScheme-Highlight { color:#5294e2; } .ColorScheme-ButtonBackground { color:#333333; }
  </style>
  </defs>
  <g
     id="update-none">
    <rect
       y="0"
       x="0"
       height="22"
       width="22"
       id="rect817-1-0"
       style="clip-rule:evenodd;fill:#ffffff;fill-opacity:0;fill-rule:evenodd;stroke-width:0.546348;stroke-linejoin:round;stroke-miterlimit:1.41421" />
    <g
       id="g899"
       transform="translate(0,-22.525125)">
      <path
         id="path874"
         style="fill:#ffffff;fill-opacity:1;stroke-width:2.76923;stroke-linecap:round"
         d="m 10.990234,24.525126 a 9,9 0 0 0 -8.990234,9 9,9 0 0 0 9,9 9,9 0 0 0 9,-9 9,9 0 0 0 -9,-9 9,9 0 0 0 -0.0098,0 z m -0.08398,2 a 7,7 0 0 1 0.09375,0 7,7 0 0 1 7,7 7,7 0 0 1 -7,7 7,7 0 0 1 -7,-7 7,7 0 0 1 6.90625,-7 z" />
      <g
         id="g891"
         transform="translate(-6.4142133,-15.978922)">
        <rect
           style="fill:#ffffff;fill-opacity:1;stroke-width:2;stroke-linecap:round"
           id="rect885"
           width="5"
           height="2"
           x="44.053452"
           y="24.455845"
           ry="0.95119798"
           transform="rotate(45)" />
        <rect
           style="fill:#ffffff;fill-opacity:1;stroke-width:2.68328;stroke-linecap:round"
           id="rect887"
           width="9"
           height="2"
           x="-26.426033"
           y="47.08326"
           ry="0.95119798"
           transform="rotate(-45)" />
      </g>
    </g>
  </g>
  <g
     id="update-low">
    <rect
       y="0"
       x="35"
       height="22"
       width="22"
       id="rect928"
       style="clip-rule:evenodd;fill:#ffffff;fill-opacity:0;fill-rule:evenodd;stroke-width:0.546348;stroke-linejoin:round;stroke-miterlimit:1.41421" />
    <g
       id="g931"
       transform="translate(35,-25)">
      <path
         id="path893"
         style="fill:#969696;fill-opacity:1;stroke-width:2.76923;stroke-linecap:round"
         d="m 10.990234,27.000001 a 9,9 0 0 0 -8.990234,9 9,9 0 0 0 9,9 9,9 0 0 0 9,-9 9,9 0 0 0 -9,-9 9,9 0 0 0 -0.0098,0 z m -0.08398,2 a 7,7 0 0 1 0.09375,0 7,7 0 0 1 7,7 7,7 0 0 1 -7,7 7,7 0 0 1 -7,-7 7,7 0 0 1 6.90625,-7 z" />
      <g
         id="g924"
         transform="translate(2.8443407e-7,-16)">
        <rect
           style="fill:#969696;fill-opacity:1;stroke-width:2;stroke-linecap:round"
           id="rect915"
           width="5"
           height="2"
           x="-30.192762"
           y="40.719299"
           ry="0.95119798"
           transform="rotate(-45)" />
        <rect
           style="fill:#969696;fill-opacity:1;stroke-width:2;stroke-linecap:round"
           id="rect917"
           width="5"
           height="2"
           x="-45.749111"
           y="25.162951"
           ry="0.95119798"
           transform="matrix(-0.70710678,-0.70710678,-0.70710678,0.70710678,0,0)" />
        <rect
           style="fill:#969696;fill-opacity:1;stroke-width:2.68328;stroke-linecap:round"
           id="rect919"
           width="9"
           height="2"
           x="-57"
           y="10"
           ry="0.95119798"
           transform="rotate(-90)" />
      </g>
    </g>
  </g>
  <g
     id="update-medium">
    <rect
       y="29"
       x="35"
       height="22"
       width="22"
       id="rect988"
       style="clip-rule:evenodd;fill:#ffffff;fill-opacity:0;fill-rule:evenodd;stroke-width:0.546348;stroke-linejoin:round;stroke-miterlimit:1.41421" />
    <g
       id="g943"
       transform="translate(35,3.9999997)">
      <path
         id="path933"
         style="fill:#c8c8c8;fill-opacity:1;stroke-width:2.76923;stroke-linecap:round"
         d="m 10.990234,27.000001 a 9,9 0 0 0 -8.990234,9 9,9 0 0 0 9,9 9,9 0 0 0 9,-9 9,9 0 0 0 -9,-9 9,9 0 0 0 -0.0098,0 z m -0.08398,2 a 7,7 0 0 1 0.09375,0 7,7 0 0 1 7,7 7,7 0 0 1 -7,7 7,7 0 0 1 -7,-7 7,7 0 0 1 6.90625,-7 z" />
      <g
         id="g941"
         transform="translate(2.8443407e-7,-16)">
        <rect
           style="fill:#c8c8c8;fill-opacity:1;stroke-width:2;stroke-linecap:round"
           id="rect935"
           width="5"
           height="2"
           x="-30.192762"
           y="40.719299"
           ry="0.95119798"
           transform="rotate(-45)" />
        <rect
           style="fill:#c8c8c8;fill-opacity:1;stroke-width:2;stroke-linecap:round"
           id="rect937"
           width="5"
           height="2"
           x="-45.749111"
           y="25.162951"
           ry="0.95119798"
           transform="matrix(-0.70710678,-0.70710678,-0.70710678,0.70710678,0,0)" />
        <rect
           style="fill:#c8c8c8;fill-opacity:1;stroke-width:2.68328;stroke-linecap:round"
           id="rect939"
           width="9"
           height="2"
           x="-57"
           y="10"
           ry="0.95119798"
           transform="rotate(-90)" />
      </g>
    </g>
  </g>
  <g
     id="update-high">
    <rect
       y="58"
       x="35"
       height="22"
       width="22"
       id="rect999"
       style="clip-rule:evenodd;fill:#ffffff;fill-opacity:0;fill-rule:evenodd;stroke-width:0.546348;stroke-linejoin:round;stroke-miterlimit:1.41421" />
    <g
       id="g955"
       transform="translate(35,33)">
      <path
         id="path945"
         style="fill:#ffffff;fill-opacity:1;stroke-width:2.76923;stroke-linecap:round"
         d="m 10.990234,27.000001 a 9,9 0 0 0 -8.990234,9 9,9 0 0 0 9,9 9,9 0 0 0 9,-9 9,9 0 0 0 -9,-9 9,9 0 0 0 -0.0098,0 z m -0.08398,2 a 7,7 0 0 1 0.09375,0 7,7 0 0 1 7,7 7,7 0 0 1 -7,7 7,7 0 0 1 -7,-7 7,7 0 0 1 6.90625,-7 z" />
      <g
         id="g953"
         transform="translate(2.8443407e-7,-16)">
        <rect
           style="fill:#ffffff;fill-opacity:1;stroke-width:2;stroke-linecap:round"
           id="rect947"
           width="5"
           height="2"
           x="-30.192762"
           y="40.719299"
           ry="0.95119798"
           transform="rotate(-45)" />
        <rect
           style="fill:#ffffff;fill-opacity:1;stroke-width:2;stroke-linecap:round"
           id="rect949"
           width="5"
           height="2"
           x="-45.749111"
           y="25.162951"
           ry="0.95119798"
           transform="matrix(-0.70710678,-0.70710678,-0.70710678,0.70710678,0,0)" />
        <rect
           style="fill:#ffffff;fill-opacity:1;stroke-width:2.68328;stroke-linecap:round"
           id="rect951"
           width="9"
           height="2"
           x="-57"
           y="10"
           ry="0.95119798"
           transform="rotate(-90)" />
      </g>
    </g>
  </g>
</svg>
