<?xml version="1.0" encoding="UTF-8" standalone="no"?>
<svg
   xmlns:dc="http://purl.org/dc/elements/1.1/"
   xmlns:cc="http://creativecommons.org/ns#"
   xmlns:rdf="http://www.w3.org/1999/02/22-rdf-syntax-ns#"
   xmlns:svg="http://www.w3.org/2000/svg"
   xmlns="http://www.w3.org/2000/svg"
   xmlns:xlink="http://www.w3.org/1999/xlink"
   xmlns:sodipodi="http://sodipodi.sourceforge.net/DTD/sodipodi-0.dtd"
   xmlns:inkscape="http://www.inkscape.org/namespaces/inkscape"
   inkscape:version="1.0 (4035a4fb49, 2020-05-01)"
   sodipodi:docname="panel-background.svg"
   id="svg200"
   viewBox="0 0 173 56"
   version="1.1"
   height="56"
   width="173">
  <metadata
     id="metadata204">
    <rdf:RDF>
      <cc:Work
         rdf:about="">
        <dc:format>image/svg+xml</dc:format>
        <dc:type
           rdf:resource="http://purl.org/dc/dcmitype/StillImage" />
        <dc:title />
      </cc:Work>
    </rdf:RDF>
  </metadata>
  <sodipodi:namedview
     inkscape:document-rotation="0"
     inkscape:snap-nodes="true"
     inkscape:snap-bbox-edge-midpoints="true"
     inkscape:bbox-nodes="true"
     inkscape:snap-bbox="true"
     inkscape:guide-bbox="true"
     showguides="true"
     inkscape:current-layer="svg200"
     inkscape:window-maximized="1"
     inkscape:window-y="30"
     inkscape:window-x="0"
     inkscape:cy="28.943849"
     inkscape:cx="54.337971"
     inkscape:zoom="9.7768748"
     showgrid="true"
     id="namedview202"
     inkscape:window-height="970"
     inkscape:window-width="1920"
     inkscape:pageshadow="2"
     inkscape:pageopacity="0"
     guidetolerance="10"
     gridtolerance="10"
     objecttolerance="10"
     borderopacity="1"
     bordercolor="#666666"
     pagecolor="#c8c8c8">
    <inkscape:grid
       id="grid914"
       type="xygrid" />
  </sodipodi:namedview>
  <defs
     id="defs24">
    <style
       type="text/css"
       id="current-color-scheme">.ColorScheme-Text {
        color:#31363b;
        stop-color:#31363b;
      }
      .ColorScheme-Background {
        color:#eff0f1;
        stop-color:#eff0f1;
      }
      .ColorScheme-Highlight {
        color:#3daee9;
        stop-color:#3daee9;
      }
      .ColorScheme-ViewText {
        color:#31363b;
        stop-color:#31363b;
      }
      .ColorScheme-ViewBackground {
        color:#fcfcfc;
        stop-color:#fcfcfc;
      }
      .ColorScheme-ViewHover {
        color:#93cee9;
        stop-color:#93cee9;
      }
      .ColorScheme-ViewFocus{
        color:#3daee9;
        stop-color:#3daee9;
      }
      .ColorScheme-ButtonText {
        color:#31363b;
        stop-color:#31363b;
      }
      .ColorScheme-ButtonBackground {
        color:#eff0f1;
        stop-color:#eff0f1;
      }
      .ColorScheme-ButtonHover {
        color:#93cee9;
        stop-color:#93cee9;
      }
      .ColorScheme-ButtonFocus{
        color:#3daee9;
        stop-color:#3daee9;
      }</style>
    <radialGradient
       xlink:href="#a"
       gradientUnits="userSpaceOnUse"
       gradientTransform="matrix(2.1666e-7,1,-0.99999,2.1665e-7,1058.1,-6.2502)"
       r="6"
       cy="945.11"
       cx="54.25"
       id="b" />
    <radialGradient
       xlink:href="#a"
       gradientUnits="userSpaceOnUse"
       gradientTransform="rotate(-179.99991,40.320888,499.17997)"
       r="6"
       cy="950.36"
       cx="7.6429"
       id="c" />
    <radialGradient
       xlink:href="#a"
       gradientUnits="userSpaceOnUse"
       gradientTransform="translate(59.107,-903.77)"
       r="6"
       cy="911.76"
       cx="53.893"
       id="d" />
    <radialGradient
       xlink:href="#a"
       gradientUnits="userSpaceOnUse"
       gradientTransform="rotate(-90.000007,-405.39,435.58995)"
       r="6"
       cy="913.97"
       cx="22.2"
       id="e" />
    <linearGradient
       xlink:href="#a"
       gradientUnits="userSpaceOnUse"
       y2="932.36"
       y1="932.36"
       x2="61"
       x1="55"
       id="f" />
    <linearGradient
       id="a">
      <stop
         id="stop8"
         offset="0"
         stop-opacity=".66663" />
      <stop
         id="stop10"
         offset="1"
         stop-opacity="0" />
    </linearGradient>
    <linearGradient
       xlink:href="#a"
       gradientUnits="userSpaceOnUse"
       y2="932.36"
       y1="932.36"
       x2="-9"
       x1="-15"
       id="g" />
    <linearGradient
       xlink:href="#a"
       gradientUnits="userSpaceOnUse"
       gradientTransform="translate(58)"
       y2="54"
       y1="48"
       x2="51"
       x1="51"
       id="i" />
    <linearGradient
       xlink:href="#a"
       gradientUnits="userSpaceOnUse"
       y2="44"
       y1="44"
       x2="61"
       x1="55"
       id="h" />
    <linearGradient
       xlink:href="#a"
       gradientUnits="userSpaceOnUse"
       gradientTransform="translate(58)"
       y2="54"
       y1="48"
       x2="19"
       x1="19"
       id="k" />
    <linearGradient
       xlink:href="#a"
       gradientUnits="userSpaceOnUse"
       y2="44"
       y1="44"
       x2="9"
       x1="15"
       id="j" />
    <linearGradient
       xlink:href="#a"
       gradientUnits="userSpaceOnUse"
       y2="-35"
       y1="-35"
       x2="958.36"
       x1="952.36"
       id="l" />
    <linearGradient
       xlink:href="#a"
       gradientUnits="userSpaceOnUse"
       y2="12"
       y1="12"
       x2="61"
       x1="55"
       id="n" />
    <linearGradient
       xlink:href="#a"
       gradientUnits="userSpaceOnUse"
       gradientTransform="translate(58)"
       y2="2"
       y1="8"
       x2="51"
       x1="51"
       id="m" />
    <linearGradient
       xlink:href="#a"
       gradientUnits="userSpaceOnUse"
       y2="12"
       y1="12"
       x2="9"
       x1="15"
       id="p" />
    <linearGradient
       xlink:href="#a"
       gradientUnits="userSpaceOnUse"
       gradientTransform="translate(58)"
       y2="2"
       y1="8"
       x2="19"
       x1="19"
       id="o" />
    <linearGradient
       xlink:href="#a"
       gradientUnits="userSpaceOnUse"
       y2="-35"
       y1="-35"
       x2="-906.36"
       x1="-912.36"
       id="q" />
    <radialGradient
       gradientTransform="matrix(-3.5113632e-7,-1.8333334,1.8333333,-3.5113629e-7,55.000064,153.16665)"
       gradientUnits="userSpaceOnUse"
       r="6"
       fy="11.99998"
       fx="77"
       cy="11.99998"
       cx="77"
       id="radialGradient1033"
       xlink:href="#linearGradient4270"
       inkscape:collect="always" />
    <linearGradient
       inkscape:collect="always"
       id="linearGradient4270">
      <stop
         style="stop-color:#000000;stop-opacity:0.66663194"
         offset="0"
         id="stop4272" />
      <stop
         style="stop-color:#000000;stop-opacity:0;"
         offset="1"
         id="stop4274" />
    </linearGradient>
    <radialGradient
       gradientTransform="matrix(-3.5113632e-7,-1.8333334,1.8333333,-3.5113629e-7,55.000064,153.16665)"
       gradientUnits="userSpaceOnUse"
       r="6"
       fy="11.99998"
       fx="77"
       cy="11.99998"
       cx="77"
       id="radialGradient984"
       xlink:href="#linearGradient4270"
       inkscape:collect="always" />
    <radialGradient
       gradientTransform="matrix(-3.5113632e-7,-1.8333334,1.8333333,-3.5113629e-7,55.000064,153.16665)"
       gradientUnits="userSpaceOnUse"
       r="6"
       fy="11.99998"
       fx="77"
       cy="11.99998"
       cx="77"
       id="radialGradient992"
       xlink:href="#linearGradient4270"
       inkscape:collect="always" />
    <radialGradient
       gradientTransform="matrix(-3.5113632e-7,-1.8333334,1.8333333,-3.5113629e-7,55.000064,153.16665)"
       gradientUnits="userSpaceOnUse"
       r="6"
       fy="11.99998"
       fx="77"
       cy="11.99998"
       cx="77"
       id="radialGradient1000"
       xlink:href="#linearGradient4270"
       inkscape:collect="always" />
    <radialGradient
       gradientTransform="matrix(-3.5113632e-7,-1.8333334,1.8333333,-3.5113629e-7,55.000064,153.16665)"
       gradientUnits="userSpaceOnUse"
       r="6"
       fy="11.99998"
       fx="77"
       cy="11.99998"
       cx="77"
       id="radialGradient1029"
       xlink:href="#linearGradient4270"
       inkscape:collect="always" />
    <linearGradient
       gradientTransform="matrix(0.85714472,0,0,1,8.9998803,0)"
       y2="932.362"
       x2="61.470825"
       y1="932.362"
       x1="48.999989"
       gradientUnits="userSpaceOnUse"
       id="linearGradient4950"
       xlink:href="#linearGradient4270"
       inkscape:collect="always" />
    <linearGradient
       gradientTransform="matrix(0.85714301,0,0,1,-0.99999929,0)"
       y2="932.362"
       x2="-8.5054998"
       y1="932.362"
       x1="-21.000002"
       gradientUnits="userSpaceOnUse"
       id="linearGradient4948"
       xlink:href="#linearGradient4270"
       inkscape:collect="always" />
    <linearGradient
       gradientTransform="matrix(0.857139,0,0,1,137.1983,0)"
       y2="-34.999985"
       x2="958.86218"
       y1="-34.999985"
       x1="946.36212"
       gradientUnits="userSpaceOnUse"
       id="linearGradient4934"
       xlink:href="#linearGradient4270"
       inkscape:collect="always" />
    <linearGradient
       gradientTransform="matrix(1.2857281,0,0,1,264.40173,0)"
       y2="-34.999985"
       x2="-905.86224"
       y1="-34.999985"
       x1="-918.36206"
       gradientUnits="userSpaceOnUse"
       id="linearGradient4920"
       xlink:href="#linearGradient4270"
       inkscape:collect="always" />
    <radialGradient
       gradientTransform="matrix(0,-1.7857142,1.7857143,0,135,129.14286)"
       gradientUnits="userSpaceOnUse"
       r="14"
       fy="-42"
       fx="60.000004"
       cy="-42"
       cx="60.000004"
       id="radialGradient2055"
       xlink:href="#linearGradient4270"
       inkscape:collect="always" />
    <radialGradient
       r="14"
       fy="-42"
       fx="60.000004"
       cy="-42"
       cx="60.000004"
       gradientTransform="matrix(0,-1.7857142,-1.7857143,0,-3,129.14286)"
       gradientUnits="userSpaceOnUse"
       id="radialGradient2066"
       xlink:href="#linearGradient4270"
       inkscape:collect="always" />
    <radialGradient
       r="14"
       fy="-42"
       fx="60.000004"
       cy="-42"
       cx="60.000004"
       gradientTransform="matrix(0,1.7857142,1.7857143,0,135,-73.14286)"
       gradientUnits="userSpaceOnUse"
       id="radialGradient2072"
       xlink:href="#linearGradient4270"
       inkscape:collect="always" />
    <radialGradient
       r="14"
       fy="-42"
       fx="60.000004"
       cy="-42"
       cx="60.000004"
       gradientTransform="matrix(0,1.7857142,-1.7857143,0,-3,-73.14286)"
       gradientUnits="userSpaceOnUse"
       id="radialGradient2074"
       xlink:href="#linearGradient4270"
       inkscape:collect="always" />
  </defs>
  <path
     inkscape:connector-curvature="0"
     id="shadow-topleft"
     d="M 40.75,-6 C 35.9025,-6 32,-2.0975 32,2.75 V 22 H 44 V 11 c 0,-0.6925 0.140234,-1.350625 0.392578,-1.949219 0.252344,-0.598593 0.616484,-1.137968 1.06836,-1.589843 0.451875,-0.451876 0.99125,-0.816016 1.589843,-1.06836 C 47.649375,6.140234 48.3075,6 49,6 H 60 V -1.333984 -6 Z"
     style="opacity:0.1;fill:url(#radialGradient2055);fill-opacity:1;stroke:none;stroke-width:2.78852654;stroke-opacity:1" />
  <rect
     id="hint-tile-center"
     y="-1.4648437e-05"
     width="5"
     height="5"
     x="0"
     style="fill:#ff6600" />
  <g
     transform="matrix(0.37500096,0,0,2.6666657,52.874957,-2421.6316)"
     id="top">
    <rect
       class="ColorScheme-Background"
       transform="matrix(0,-1,-1,0,0,0)"
       style="color:#eff0f1;opacity:0.2;fill:#000000;fill-opacity:1;stroke:none"
       id="rect4152"
       width="6"
       height="32"
       x="-916.36218"
       y="-50.999985" />
  </g>
  <g
     transform="matrix(0.37500096,0,0,2.6666653,52.874957,-2494.9645)"
     id="bottom">
    <rect
       class="ColorScheme-Background"
       y="-50.999985"
       x="948.36218"
       height="32"
       width="6"
       id="rect4148"
       style="color:#eff0f1;opacity:0.2;fill:#000000;fill-opacity:1;stroke:none"
       transform="rotate(90)" />
  </g>
  <g
     transform="matrix(2.6666662,0,0,0.37500318,9.3333311,-321.63873)"
     id="left">
    <rect
       class="ColorScheme-Background"
       y="916.36218"
       x="-19.000004"
       height="32"
       width="5.9999995"
       id="rect4144"
       style="color:#eff0f1;opacity:0.2;fill:#000000;fill-opacity:1;stroke:none"
       transform="scale(-1,1)" />
  </g>
  <g
     transform="matrix(2.6666639,0,0,0.37500318,-63.999817,-321.63873)"
     id="right">
    <rect
       class="ColorScheme-Background"
       style="color:#eff0f1;opacity:0.2;fill:#000000;fill-opacity:1;stroke:none"
       id="rect4140"
       width="5.9999995"
       height="32"
       x="50.999985"
       y="916.36218" />
  </g>
  <rect
     style="color:#eff0f1;opacity:0.2;fill:#000000;fill-opacity:1;stroke:none;stroke-width:0.3750031"
     id="center"
     width="12.000099"
     height="12.000099"
     x="59.999954"
     y="22"
     class="ColorScheme-Background" />
  <rect
     y="6.0000515"
     x="64"
     height="3.9999485"
     width="4"
     id="hint-top-margin"
     style="fill:#ff00ff;fill-opacity:1;stroke:none;stroke-width:0.81648964" />
  <rect
     style="fill:#ff00ff;fill-opacity:1;stroke:none;stroke-width:0.81650317"
     id="hint-bottom-margin"
     width="4"
     height="4.0000477"
     x="64"
     y="46" />
  <rect
     transform="rotate(90)"
     style="fill:#ff00ff;fill-opacity:1;stroke:none;stroke-width:0.81649715"
     id="hint-right-margin"
     width="4"
     height="4.0000153"
     x="26.000051"
     y="-88.000015" />
  <rect
     transform="rotate(90)"
     y="-48"
     x="26.000051"
     height="4"
     width="4"
     id="hint-left-margin"
     style="fill:#ff00ff;fill-opacity:1;stroke:none;stroke-width:0.81649631" />
  <g
     style="opacity:0.1"
     transform="matrix(0.37500332,0,0,1.5555601,52.874889,-1403.4565)"
     id="shadow-top">
    <rect
       y="-50.999985"
       x="-916.36218"
       height="32"
       width="6"
       id="rect4820"
       style="opacity:1;fill:none;fill-opacity:1;stroke:none"
       transform="matrix(0,-1,-1,0,0,0)" />
    <rect
       y="-50.999985"
       x="-906.07654"
       height="32"
       width="7.7143688"
       id="rect4822"
       style="opacity:0.9;fill:url(#linearGradient4920);fill-opacity:1;stroke:none;stroke-width:1.13389957"
       transform="matrix(0,-1,-1,0,0,0)" />
    <rect
       transform="matrix(0,-1,-1,0,0,0)"
       style="opacity:1;fill:none;fill-opacity:1;stroke:none"
       id="rect4824"
       width="0.99997741"
       height="32"
       x="-911.36218"
       y="-50.999985" />
  </g>
  <g
     style="opacity:0.1"
     transform="matrix(0.37500332,0,0,2.3333314,52.874889,-2178.8433)"
     id="shadow-bottom">
    <rect
       transform="rotate(90)"
       style="opacity:1;fill:none;fill-opacity:1;stroke:none"
       id="rect4856"
       width="6"
       height="32"
       x="948.36218"
       y="-50.999985" />
    <rect
       transform="rotate(90)"
       style="opacity:0.9;fill:url(#linearGradient4934);fill-opacity:1;stroke:none;stroke-width:0.92581803"
       id="rect4858"
       width="5.1428342"
       height="32"
       x="955.21936"
       y="-50.999985" />
    <rect
       y="-50.999985"
       x="953.36218"
       height="31.999971"
       width="1.0000226"
       id="rect4860"
       style="opacity:1;fill:none;fill-opacity:1;stroke:none"
       transform="rotate(90)" />
  </g>
  <path
     inkscape:connector-curvature="0"
     id="topleft"
     d="M 44,11 V 22 H 54.666016 57.333984 60 V 19.333984 8.666016 6 H 49 c -2.77,0 -5,2.23 -5,5 z"
     style="opacity:0.2;fill:#000000;fill-opacity:1;stroke:none;stroke-width:1.59344375;stroke-opacity:1" />
  <g
     style="opacity:0.1"
     transform="matrix(2.333333,0,0,0.3750037,15.666664,-321.63921)"
     id="shadow-left">
    <rect
       transform="scale(-1,1)"
       style="opacity:1;fill:none;fill-opacity:1;stroke:none"
       id="rect4892"
       width="5.9999995"
       height="32"
       x="-19.000004"
       y="916.36218" />
    <rect
       transform="scale(-1,1)"
       style="opacity:0.9;fill:url(#linearGradient4948);fill-opacity:1;stroke:none;stroke-width:0.92582017"
       id="rect4894"
       width="5.1428576"
       height="32"
       x="-12.14286"
       y="916.36218" />
    <rect
       y="916.36218"
       x="-14.000002"
       height="32.000023"
       width="1.0000019"
       id="rect4896"
       style="opacity:1;fill:none;fill-opacity:1;stroke:none"
       transform="scale(-1,1)" />
  </g>
  <g
     style="opacity:0.1"
     transform="matrix(2.3333292,0,0,0.37500392,-46.999699,-321.63941)"
     id="shadow-right">
    <rect
       y="916.36218"
       x="50.999985"
       height="32"
       width="5.9999995"
       id="rect4900"
       style="opacity:1;fill:none;fill-opacity:1;stroke:none" />
    <rect
       y="916.36218"
       x="57.857117"
       height="32"
       width="5.142868"
       id="rect4902"
       style="opacity:0.9;fill:url(#linearGradient4950);fill-opacity:1;stroke:none;stroke-width:0.92582113" />
    <rect
       style="opacity:1;fill:none;fill-opacity:1;stroke:none"
       id="rect4904"
       width="1"
       height="32.000023"
       x="55.999985"
       y="916.36218" />
  </g>
  <rect
     style="fill:#ff6600;fill-opacity:1;stroke:none;stroke-width:1.41421628"
     id="shadow-hint-top-margin"
     width="4"
     height="12"
     x="64"
     y="-5.999948" />
  <rect
     y="50.00005"
     x="64"
     height="11.999977"
     width="4"
     id="shadow-hint-bottom-margin"
     style="fill:#ff6600;fill-opacity:1;stroke:none;stroke-width:1.41420949" />
  <rect
     y="-100"
     x="26.000051"
     height="12"
     width="3.9999769"
     id="shadow-hint-right-margin"
     style="fill:#ff6600;fill-opacity:1;stroke:none;stroke-width:1.41421628"
     transform="rotate(90)" />
  <rect
     style="fill:#ff6600;fill-opacity:1;stroke:none;stroke-width:1.41421354"
     id="shadow-hint-left-margin"
     width="4.0000229"
     height="12"
     x="26.000051"
     y="-44"
     transform="rotate(90)" />
  <g
     transform="matrix(0.37500035,0,0,1.2499972,137.87498,-1131.9501)"
     id="mask-top">
    <rect
       y="-51"
       x="-922.36218"
       height="32.000015"
       width="11.999931"
       id="rect4265"
       style="opacity:1;fill:#000000;fill-opacity:1;stroke:none;stroke-width:1.54919255"
       transform="matrix(0,-1,-1,0,0,0)" />
  </g>
  <g
     transform="matrix(0.37500035,0,0,1.5000009,137.87498,-1381.5442)"
     id="mask-bottom">
    <rect
       transform="rotate(90)"
       style="opacity:1;fill:#000000;fill-opacity:1;stroke:none;stroke-width:1.41420829"
       id="rect4291"
       width="9.9999723"
       height="32.000015"
       x="944.36224"
       y="-51" />
  </g>
  <g
     transform="matrix(1.2500005,0,0,0.60000604,112.74999,-531.42288)"
     id="mask-left">
    <rect
       transform="scale(-1,1)"
       style="opacity:0.97000002;fill:#000000;fill-opacity:1;stroke:none;stroke-width:1.2247467"
       id="rect4317"
       width="11.999996"
       height="20.000069"
       x="-25"
       y="922.36218" />
  </g>
  <g
     transform="matrix(1.5000009,0,0,0.37500479,87.499958,-321.64022)"
     id="mask-right">
    <rect
       y="916.36218"
       x="47"
       height="32.000023"
       width="9.9999828"
       id="rect4323"
       style="opacity:1;fill:#000000;fill-opacity:1;stroke:none;stroke-width:1.41421449" />
  </g>
  <rect
     y="22"
     x="144.99997"
     height="12.000025"
     width="12.000025"
     id="mask-center"
     style="opacity:1;fill:#000000;fill-opacity:1;stroke:none;stroke-width:0.37500077" />
  <path
     inkscape:connector-curvature="0"
     style="opacity:0.2;fill:#000000;fill-opacity:1;stroke:none;stroke-width:1.59344375;stroke-opacity:1"
     d="M 44,45 V 34 H 54.666016 57.333984 60 V 36.666016 47.333984 50 H 49 c -2.77,0 -5,-2.23 -5,-5 z"
     id="bottomleft" />
  <path
     inkscape:connector-curvature="0"
     style="opacity:0.2;fill:#000000;fill-opacity:1;stroke:none;stroke-width:1.59344375;stroke-opacity:1"
     d="M 88,11 V 22 H 77.333984 74.666016 72 V 19.333984 8.666016 6 h 11 c 2.77,0 5,2.230001 5,5 z"
     id="topright" />
  <path
     inkscape:transform-center-y="-29.252701"
     id="bottomright"
     d="M 88,45 V 34 H 77.333984 74.666016 72 V 36.666016 47.333984 50 h 11 c 2.77,0 5,-2.230001 5,-5 z"
     style="opacity:0.2;fill:#000000;fill-opacity:1;stroke:none;stroke-width:1.59344375;stroke-opacity:1"
     inkscape:connector-curvature="0" />
  <path
     inkscape:connector-curvature="0"
     style="opacity:0.1;fill:url(#radialGradient2066);fill-opacity:1;stroke:none;stroke-width:2.78852654;stroke-opacity:1"
     d="m 91.25,-6 c 4.8475,0 8.75,3.9025 8.75,8.75 V 22 H 88 V 11 C 88,10.3075 87.859766,9.649375 87.607422,9.050781 87.355078,8.452188 86.990938,7.912813 86.539062,7.460938 86.087187,7.009062 85.547812,6.644922 84.949219,6.392578 84.350625,6.140234 83.6925,6 83,6 H 72 V -1.333984 -6 Z"
     id="shadow-topright" />
  <path
     inkscape:connector-curvature="0"
     style="opacity:0.1;fill:url(#radialGradient2072);fill-opacity:1;stroke:none;stroke-width:2.78852654;stroke-opacity:1"
     d="M 40.75,62 C 35.9025,62 32,58.0975 32,53.25 V 34 h 12 v 11 c 0,0.6925 0.140234,1.350625 0.392578,1.949219 0.252344,0.598593 0.616484,1.137968 1.06836,1.589843 0.451875,0.451876 0.99125,0.816016 1.589843,1.06836 C 47.649375,49.859766 48.3075,50 49,50 H 60 V 57.333984 62 Z"
     id="shadow-bottomleft" />
  <path
     id="shadow-bottomright"
     d="M 91.25,62 C 96.0975,62 100,58.0975 100,53.25 V 34 H 88 v 11 c 0,0.6925 -0.140234,1.350625 -0.392578,1.949219 -0.252344,0.598593 -0.616484,1.137968 -1.06836,1.589843 -0.451875,0.451876 -0.99125,0.816016 -1.589843,1.06836 C 84.350625,49.859766 83.6925,50 83,50 H 72 V 57.333984 62 Z"
     style="opacity:0.1;fill:url(#radialGradient2074);fill-opacity:1;stroke:none;stroke-width:2.78852654;stroke-opacity:1"
     inkscape:connector-curvature="0" />
  <path
     inkscape:connector-curvature="0"
     id="mask-topleft"
     d="m 134,6 c -2.77,0 -5,2.23 -5,5 v 10 h 15 V 6 Z"
     style="opacity:1;fill:#000000;fill-opacity:1;stroke:none;stroke-width:1.59344375;stroke-opacity:1" />
  <path
     inkscape:connector-curvature="0"
     id="mask-bottomleft"
     d="m 129,35 v 10 c 0,2.77 2.23,5 5,5 h 10 V 35 Z"
     style="opacity:1;fill:#000000;fill-opacity:1;stroke:none;stroke-width:1.59344375;stroke-opacity:1" />
  <path
     inkscape:connector-curvature="0"
     id="mask-topright"
     d="m 158,6 v 15 h 15 V 11 c 0,-2.769999 -2.23,-5 -5,-5 z"
     style="opacity:1;fill:#000000;fill-opacity:1;stroke:none;stroke-width:1.59344375;stroke-opacity:1" />
  <path
     inkscape:connector-curvature="0"
     id="mask-bottomright"
     d="m 158,35 v 15 h 10 c 2.77,0 5,-2.230001 5,-5 V 35 Z"
     style="opacity:1;fill:#000000;fill-opacity:1;stroke:none;stroke-width:1.59344375;stroke-opacity:1" />
</svg>
