<?xml version="1.0" encoding="UTF-8" standalone="no"?>
<svg
   xmlns:dc="http://purl.org/dc/elements/1.1/"
   xmlns:cc="http://creativecommons.org/ns#"
   xmlns:rdf="http://www.w3.org/1999/02/22-rdf-syntax-ns#"
   xmlns:svg="http://www.w3.org/2000/svg"
   xmlns="http://www.w3.org/2000/svg"
   xmlns:sodipodi="http://sodipodi.sourceforge.net/DTD/sodipodi-0.dtd"
   xmlns:inkscape="http://www.inkscape.org/namespaces/inkscape"
   id="svg4379"
   width="200"
   height="200"
   inkscape:version="0.92.4 5da689c313, 2019-01-14"
   sodipodi:docname="kde.svg"
   version="1.1"
   viewBox="0 0 200 200">
  <metadata
     id="metadata10">
    <rdf:RDF>
      <cc:Work
         rdf:about="">
        <dc:format>image/svg+xml</dc:format>
        <dc:type
           rdf:resource="http://purl.org/dc/dcmitype/StillImage" />
      </cc:Work>
    </rdf:RDF>
  </metadata>
  <defs
     id="defs8">
    <style
       type="text/css"
       id="current-color-scheme">
      .ColorScheme-Text {
        color:#31363b;
      }
      </style>
  </defs>
  <sodipodi:namedview
     id="namedview39"
     bordercolor="#666666"
     borderopacity="1"
     gridtolerance="10"
     guidetolerance="10"
     inkscape:current-layer="svg4379"
     inkscape:cx="-67.327224"
     inkscape:cy="172.6149"
     inkscape:pageopacity="0"
     inkscape:pageshadow="2"
     inkscape:window-height="981"
     inkscape:window-maximized="1"
     inkscape:window-width="1920"
     inkscape:window-x="0"
     inkscape:window-y="28"
     inkscape:zoom="1.4124458"
     objecttolerance="10"
     pagecolor="#dfe2e4"
     showgrid="true"
     inkscape:snap-bbox="true"
     inkscape:bbox-nodes="true"
     inkscape:snap-bbox-edge-midpoints="true">
    <inkscape:grid
       id="grid839"
       type="xygrid" />
  </sodipodi:namedview>
  <g
     style="fill:#fafafa;fill-opacity:1"
     transform="matrix(4.8076923,0,0,4.8076923,-217.30769,5.9051731)"
     id="g858">
    <path
       inkscape:connector-curvature="0"
       style="opacity:1;fill:#fafafa;fill-opacity:1;stroke:none;stroke-width:0.96000004;stroke-linecap:round;stroke-linejoin:round;stroke-miterlimit:4;stroke-dasharray:none;stroke-opacity:1"
       d="m 59,5 c -3.324,0 -6,2.676 -6,6 0,0.03647 0.0041,0.07151 0.0047,0.107808 -4.97e-4,0.0044 -0.0047,0.0071 -0.0047,0.01176 v 5.760938 C 53,16.946949 53.053051,17 53.119531,17 H 59 h 0.239063 5.521874 0.119532 C 64.946949,17 65,16.946949 65,16.880469 V 16.760937 11.119531 11 5.2390626 C 65,5.1061024 64.893897,5 64.760937,5 h -5.521874 c -0.01032,0 -0.01584,0.010476 -0.02578,0.011724 C 59.141737,5.0092161 59.072176,5 59,5 Z"
       id="rect825" />
    <path
       id="path848"
       d="m 73,5 c 3.324,0 6,2.676 6,6 0,0.03647 -0.0041,0.07151 -0.0047,0.107808 4.97e-4,0.0044 0.0047,0.0071 0.0047,0.01176 v 5.760938 C 79,16.946949 78.946949,17 78.880469,17 H 73 72.760937 67.239063 67.119531 C 67.053051,17 67,16.946949 67,16.880469 V 16.760937 11.119531 11 5.2390626 C 67,5.1061024 67.106103,5 67.239063,5 h 5.521874 c 0.01032,0 0.01584,0.010476 0.02578,0.011724 C 72.858263,5.0092161 72.927824,5 73,5 Z"
       style="opacity:1;fill:#fafafa;fill-opacity:1;stroke:none;stroke-width:0.96000004;stroke-linecap:round;stroke-linejoin:round;stroke-miterlimit:4;stroke-dasharray:none;stroke-opacity:1"
       inkscape:connector-curvature="0" />
    <path
       id="path850"
       d="m 59,31 c -3.324,0 -6,-2.676 -6,-6 0,-0.03647 0.0041,-0.07151 0.0047,-0.107808 C 53.004183,24.887752 53,24.885112 53,24.880432 V 19.119494 C 53,19.053051 53.053051,19 53.119531,19 H 59 h 0.239063 5.521874 0.119532 C 64.946949,19 65,19.053051 65,19.119531 V 19.239063 24.880469 25 30.760937 C 65,30.893897 64.893897,31 64.760937,31 h -5.521874 c -0.01032,0 -0.01584,-0.01044 -0.02578,-0.01176 C 59.141737,30.990784 59.072176,31 59,31 Z"
       style="opacity:1;fill:#fafafa;fill-opacity:1;stroke:none;stroke-width:0.96000004;stroke-linecap:round;stroke-linejoin:round;stroke-miterlimit:4;stroke-dasharray:none;stroke-opacity:1"
       inkscape:connector-curvature="0" />
    <path
       inkscape:connector-curvature="0"
       style="opacity:1;fill:#fafafa;fill-opacity:1;stroke:none;stroke-width:0.96000004;stroke-linecap:round;stroke-linejoin:round;stroke-miterlimit:4;stroke-dasharray:none;stroke-opacity:1"
       d="m 73,31 c 3.324,0 6,-2.676 6,-6 0,-0.03647 -0.0041,-0.07151 -0.0047,-0.107808 4.97e-4,-0.0044 0.0047,-0.0071 0.0047,-0.01176 V 19.119494 C 79,19.053051 78.946949,19 78.880469,19 H 73 72.760937 67.239063 67.119531 C 67.053051,19 67,19.053051 67,19.119531 V 19.239063 24.880469 25 30.760937 C 67,30.893897 67.106103,31 67.239063,31 h 5.521874 c 0.01032,0 0.01584,-0.01044 0.02578,-0.01176 C 72.858263,30.990784 72.927824,31 73,31 Z"
       id="path852" />
  </g>
</svg>
