<?xml version="1.0" encoding="UTF-8" standalone="no"?>
<svg
   xmlns:dc="http://purl.org/dc/elements/1.1/"
   xmlns:cc="http://creativecommons.org/ns#"
   xmlns:rdf="http://www.w3.org/1999/02/22-rdf-syntax-ns#"
   xmlns:svg="http://www.w3.org/2000/svg"
   xmlns="http://www.w3.org/2000/svg"
   xmlns:xlink="http://www.w3.org/1999/xlink"
   xmlns:sodipodi="http://sodipodi.sourceforge.net/DTD/sodipodi-0.dtd"
   xmlns:inkscape="http://www.inkscape.org/namespaces/inkscape"
   id="svg4306"
   width="22"
   height="22"
   version="1.1"
   style="enable-background:new"
   sodipodi:docname="maximize.svg"
   inkscape:version="0.92.5 (2060ec1f9f, 2020-04-08)">
  <metadata
     id="metadata24">
    <rdf:RDF>
      <cc:Work
         rdf:about="">
        <dc:format>image/svg+xml</dc:format>
        <dc:type
           rdf:resource="http://purl.org/dc/dcmitype/StillImage" />
        <dc:title />
      </cc:Work>
    </rdf:RDF>
  </metadata>
  <defs
     id="defs22">
    <filter
       color-interpolation-filters="sRGB"
       height="1.048"
       width="1.048"
       y="-.024"
       x="-.024"
       id="filter11290">
      <feGaussianBlur
         id="feGaussianBlur879"
         stdDeviation="0.15875313" />
    </filter>
    <linearGradient
       gradientUnits="userSpaceOnUse"
       gradientTransform="translate(-0.0078552,-5.0139e-5)"
       y2=".64687"
       y1="16.296"
       x2="16.388"
       x1=".73911"
       id="linearGradient1005">
      <stop
         id="stop882"
         offset="0"
         stop-color="#00dc96" />
      <stop
         id="stop884"
         offset="1"
         stop-color="#14d29b" />
    </linearGradient>
  </defs>
  <sodipodi:namedview
     pagecolor="#c8c8c8"
     bordercolor="#666666"
     borderopacity="1"
     objecttolerance="10"
     gridtolerance="10"
     guidetolerance="10"
     inkscape:pageopacity="0"
     inkscape:pageshadow="2"
     inkscape:window-width="1920"
     inkscape:window-height="975"
     id="namedview20"
     showgrid="true"
     inkscape:zoom="7.9999995"
     inkscape:cx="-6.8664991"
     inkscape:cy="-18.709929"
     inkscape:window-x="0"
     inkscape:window-y="30"
     inkscape:window-maximized="1"
     inkscape:current-layer="svg4306"
     inkscape:snap-bbox="true"
     inkscape:bbox-nodes="true"
     inkscape:snap-bbox-edge-midpoints="true">
    <inkscape:grid
       type="xygrid"
       id="grid949" />
  </sodipodi:namedview>
  <use
     x="0"
     y="0"
     xlink:href="#g1000"
     id="use1002"
     transform="translate(28.476029)"
     width="100%"
     height="100%" />
  <g
     id="g938"
     transform="translate(-36.001097,-4)">
    <rect
       transform="rotate(45)"
       style="opacity:1;fill:#ebebeb;fill-opacity:1;stroke:none;stroke-width:1;stroke-linecap:round;stroke-linejoin:round;stroke-miterlimit:4;stroke-dasharray:none;stroke-opacity:1"
       id="rect918"
       width="8"
       height="1"
       x="4.5212708"
       y="17.884323"
       ry="0.5" />
    <rect
       ry="0.5"
       y="3.9993567"
       x="16.999357"
       height="1"
       width="5"
       id="rect920"
       style="opacity:1;fill:#ebebeb;fill-opacity:1;stroke:none;stroke-width:0.79056942;stroke-linecap:round;stroke-linejoin:round;stroke-miterlimit:4;stroke-dasharray:none;stroke-opacity:1"
       transform="rotate(90)" />
    <rect
       transform="scale(1,-1)"
       style="opacity:1;fill:#ebebeb;fill-opacity:1;stroke:none;stroke-width:0.79056942;stroke-linecap:round;stroke-linejoin:round;stroke-miterlimit:4;stroke-dasharray:none;stroke-opacity:1"
       id="rect922"
       width="5"
       height="1"
       x="-9"
       y="-22"
       ry="0.5" />
  </g>
  <g
     id="g933"
     transform="translate(-35.976425,-2.9753291)">
    <rect
       ry="0.5"
       y="-18.177216"
       x="-0.39358678"
       height="1"
       width="8"
       id="rect924"
       style="opacity:1;fill:#ebebeb;fill-opacity:1;stroke:none;stroke-width:1;stroke-linecap:round;stroke-linejoin:round;stroke-miterlimit:4;stroke-dasharray:none;stroke-opacity:1"
       transform="rotate(-135)" />
    <rect
       transform="rotate(-90)"
       style="opacity:1;fill:#ebebeb;fill-opacity:1;stroke:none;stroke-width:0.79056942;stroke-linecap:round;stroke-linejoin:round;stroke-miterlimit:4;stroke-dasharray:none;stroke-opacity:1"
       id="rect926"
       width="5"
       height="1"
       x="-11.975329"
       y="-18.024672"
       ry="0.5" />
    <rect
       ry="0.5"
       y="6.9746857"
       x="13.024029"
       height="1"
       width="5"
       id="rect928"
       style="opacity:1;fill:#ebebeb;fill-opacity:1;stroke:none;stroke-width:0.79056942;stroke-linecap:round;stroke-linejoin:round;stroke-miterlimit:4;stroke-dasharray:none;stroke-opacity:1"
       transform="scale(-1,1)" />
  </g>
  <g
     id="active-center">
    <rect
       ry="0"
       rx="0"
       y="9.5367432e-07"
       x="9.5367432e-07"
       height="21.999998"
       width="21.999998"
       id="rect962"
       style="opacity:0;fill:#000000;fill-opacity:1;fill-rule:evenodd;stroke:none;stroke-width:2.99999976;stroke-linecap:round;stroke-linejoin:round;stroke-miterlimit:4;stroke-dasharray:none;stroke-opacity:1;paint-order:fill markers stroke" />
    <g
       id="g1098">
      <g
         id="g1072"
         transform="translate(0.53735326,0.53735326)">
        <rect
           transform="rotate(45)"
           style="opacity:1;fill:#ebebeb;fill-opacity:1;stroke:none;stroke-width:1.32287562;stroke-linecap:round;stroke-linejoin:round;stroke-miterlimit:4;stroke-dasharray:none;stroke-opacity:1"
           id="rect952"
           width="7"
           height="2"
           x="15.211917"
           y="-1"
           ry="1" />
        <rect
           transform="scale(1,-1)"
           style="opacity:1;fill:#ebebeb;fill-opacity:1;stroke:none;stroke-width:1.22474492;stroke-linecap:round;stroke-linejoin:round;stroke-miterlimit:4;stroke-dasharray:none;stroke-opacity:1"
           id="rect954"
           width="6"
           height="2"
           x="11"
           y="-17"
           ry="1" />
        <rect
           ry="1"
           y="15"
           x="10.999999"
           height="2"
           width="6"
           id="rect956"
           style="opacity:1;fill:#ebebeb;fill-opacity:1;stroke:none;stroke-width:1.22474492;stroke-linecap:round;stroke-linejoin:round;stroke-miterlimit:4;stroke-dasharray:none;stroke-opacity:1"
           transform="matrix(0,1,1,0,0,0)" />
      </g>
      <g
         id="g1088"
         transform="translate(-6.0000004,-6.0000004)">
        <rect
           ry="1"
           y="-1"
           x="-23.626131"
           height="2"
           width="7"
           id="rect1074"
           style="opacity:1;fill:#ebebeb;fill-opacity:1;stroke:none;stroke-width:1.32287562;stroke-linecap:round;stroke-linejoin:round;stroke-miterlimit:4;stroke-dasharray:none;stroke-opacity:1"
           transform="rotate(-135)" />
        <rect
           ry="1"
           y="10.462646"
           x="-16.462646"
           height="2"
           width="6"
           id="rect1076"
           style="opacity:1;fill:#ebebeb;fill-opacity:1;stroke:none;stroke-width:1.22474492;stroke-linecap:round;stroke-linejoin:round;stroke-miterlimit:4;stroke-dasharray:none;stroke-opacity:1"
           transform="scale(-1,1)" />
        <rect
           transform="matrix(0,-1,-1,0,0,0)"
           style="opacity:1;fill:#ebebeb;fill-opacity:1;stroke:none;stroke-width:1.22474492;stroke-linecap:round;stroke-linejoin:round;stroke-miterlimit:4;stroke-dasharray:none;stroke-opacity:1"
           id="rect1078"
           width="6"
           height="2"
           x="-16.462648"
           y="-12.462646"
           ry="1" />
      </g>
    </g>
  </g>
  <g
     id="hover-center">
    <rect
       style="display:inline;opacity:1;fill:none;fill-opacity:1;stroke:none;stroke-width:1.375;stroke-linecap:butt;stroke-linejoin:miter;stroke-miterlimit:4;stroke-dasharray:none;stroke-dashoffset:0;stroke-opacity:0"
       id="rect6284"
       width="22"
       height="22"
       x="2.4397067e-07"
       y="27" />
    <rect
       ry="4"
       y="28"
       x="1.0000005"
       height="20"
       width="20"
       id="rect867"
       style="opacity:1;fill:#64c83c;fill-opacity:1;stroke:none;stroke-width:1.17647064;stroke-linecap:round;stroke-miterlimit:4;stroke-dasharray:none;stroke-opacity:1" />
    <g
       transform="translate(1.0486203e-6,27.000001)"
       id="g1130">
      <g
         transform="translate(0.53735326,0.53735326)"
         id="g1120">
        <rect
           ry="1"
           y="-1"
           x="15.211917"
           height="2"
           width="7"
           id="rect1114"
           style="opacity:1;fill:#ebebeb;fill-opacity:1;stroke:none;stroke-width:1.32287562;stroke-linecap:round;stroke-linejoin:round;stroke-miterlimit:4;stroke-dasharray:none;stroke-opacity:1"
           transform="rotate(45)" />
        <rect
           ry="1"
           y="-17"
           x="11"
           height="2"
           width="6"
           id="rect1116"
           style="opacity:1;fill:#ebebeb;fill-opacity:1;stroke:none;stroke-width:1.22474492;stroke-linecap:round;stroke-linejoin:round;stroke-miterlimit:4;stroke-dasharray:none;stroke-opacity:1"
           transform="scale(1,-1)" />
        <rect
           transform="matrix(0,1,1,0,0,0)"
           style="opacity:1;fill:#ebebeb;fill-opacity:1;stroke:none;stroke-width:1.22474492;stroke-linecap:round;stroke-linejoin:round;stroke-miterlimit:4;stroke-dasharray:none;stroke-opacity:1"
           id="rect1118"
           width="6"
           height="2"
           x="10.999999"
           y="15"
           ry="1" />
      </g>
      <g
         transform="translate(-6.0000004,-6.0000004)"
         id="g1128">
        <rect
           transform="rotate(-135)"
           style="opacity:1;fill:#ebebeb;fill-opacity:1;stroke:none;stroke-width:1.32287562;stroke-linecap:round;stroke-linejoin:round;stroke-miterlimit:4;stroke-dasharray:none;stroke-opacity:1"
           id="rect1122"
           width="7"
           height="2"
           x="-23.626131"
           y="-1"
           ry="1" />
        <rect
           transform="scale(-1,1)"
           style="opacity:1;fill:#ebebeb;fill-opacity:1;stroke:none;stroke-width:1.22474492;stroke-linecap:round;stroke-linejoin:round;stroke-miterlimit:4;stroke-dasharray:none;stroke-opacity:1"
           id="rect1124"
           width="6"
           height="2"
           x="-16.462646"
           y="10.462646"
           ry="1" />
        <rect
           ry="1"
           y="-12.462646"
           x="-16.462648"
           height="2"
           width="6"
           id="rect1126"
           style="opacity:1;fill:#ebebeb;fill-opacity:1;stroke:none;stroke-width:1.22474492;stroke-linecap:round;stroke-linejoin:round;stroke-miterlimit:4;stroke-dasharray:none;stroke-opacity:1"
           transform="matrix(0,-1,-1,0,0,0)" />
      </g>
    </g>
  </g>
  <g
     id="inactive-center">
    <rect
       style="opacity:0;fill:#000000;fill-opacity:1;fill-rule:evenodd;stroke:none;stroke-width:2.99999976;stroke-linecap:round;stroke-linejoin:round;stroke-miterlimit:4;stroke-dasharray:none;stroke-opacity:1;paint-order:fill markers stroke"
       id="rect959"
       width="21.999998"
       height="21.999998"
       x="29.999357"
       y="0.00064373016"
       rx="0"
       ry="0" />
    <g
       style="opacity:0.3"
       id="g1160"
       transform="translate(29.998713,0.00128657)">
      <g
         id="g1150"
         transform="translate(0.53735326,0.53735326)">
        <path
           inkscape:connector-curvature="0"
           id="rect1144"
           transform="translate(-30.53671,-0.53799684)"
           d="m 42,11 c -0.255619,0 -0.511163,0.09905 -0.707031,0.294922 -0.391737,0.391737 -0.391737,1.022325 0,1.414062 l 2.828125,2.828125 h -1.583985 c -0.554,0 -1,0.446 -1,1 0,0.554 0.446,1 1,1 h 4 c 0.554,0 1,-0.446 1,-1 v -4 c 0,-0.554 -0.446,-1 -1,-1 -0.554,0 -1,0.446 -1,1 V 14.125 L 42.707031,11.294922 C 42.511163,11.099053 42.255619,11 42,11 Z"
           style="opacity:1;fill:#ebebeb;fill-opacity:1;stroke:none;stroke-width:1.32287562;stroke-linecap:round;stroke-linejoin:round;stroke-miterlimit:4;stroke-dasharray:none;stroke-opacity:1" />
      </g>
      <g
         id="g1158"
         transform="translate(-6.0000004,-6.0000004)">
        <path
           inkscape:connector-curvature="0"
           id="rect1152"
           transform="translate(-23.999357,5.9993568)"
           d="m 35.462891,4.4628906 c -0.554,0 -1,0.446 -1,1 v 4 c 0,0.5540004 0.446,1.0000004 1,1.0000004 0.554,0 1,-0.446 1,-1.0000004 V 7.8789062 l 2.828125,2.8281248 c 0.391737,0.391737 1.022325,0.391737 1.414062,0 0.391737,-0.391737 0.391737,-1.0223251 0,-1.4140622 L 37.875,6.4628906 h 1.587891 c 0.554,0 1,-0.446 1,-1 0,-0.554 -0.446,-1 -1,-1 z"
           style="opacity:1;fill:#ebebeb;fill-opacity:1;stroke:none;stroke-width:1.32287562;stroke-linecap:round;stroke-linejoin:round;stroke-miterlimit:4;stroke-dasharray:none;stroke-opacity:1" />
      </g>
    </g>
  </g>
  <g
     id="pressed-center">
    <rect
       y="57"
       x="2.4156952e-07"
       height="22"
       width="22"
       id="rect6380"
       style="display:inline;opacity:1;fill:none;fill-opacity:1;stroke:none;stroke-width:1.375;stroke-linecap:butt;stroke-linejoin:miter;stroke-miterlimit:4;stroke-dasharray:none;stroke-dashoffset:0;stroke-opacity:0" />
    <rect
       style="opacity:1;fill:#64c83c;fill-opacity:1;stroke:none;stroke-width:1.17647064;stroke-linecap:round;stroke-miterlimit:4;stroke-dasharray:none;stroke-opacity:1"
       id="rect869"
       width="20"
       height="20"
       x="1.0000002"
       y="58"
       ry="4" />
    <g
       transform="translate(1.0462192e-6,57.000001)"
       id="g1202">
      <g
         transform="translate(0.53735326,0.53735326)"
         id="g1192">
        <rect
           ry="1"
           y="-1"
           x="15.211917"
           height="2"
           width="7"
           id="rect1186"
           style="opacity:1;fill:#ebebeb;fill-opacity:1;stroke:none;stroke-width:1.32287562;stroke-linecap:round;stroke-linejoin:round;stroke-miterlimit:4;stroke-dasharray:none;stroke-opacity:1"
           transform="rotate(45)" />
        <rect
           ry="1"
           y="-17"
           x="11"
           height="2"
           width="6"
           id="rect1188"
           style="opacity:1;fill:#ebebeb;fill-opacity:1;stroke:none;stroke-width:1.22474492;stroke-linecap:round;stroke-linejoin:round;stroke-miterlimit:4;stroke-dasharray:none;stroke-opacity:1"
           transform="scale(1,-1)" />
        <rect
           transform="matrix(0,1,1,0,0,0)"
           style="opacity:1;fill:#ebebeb;fill-opacity:1;stroke:none;stroke-width:1.22474492;stroke-linecap:round;stroke-linejoin:round;stroke-miterlimit:4;stroke-dasharray:none;stroke-opacity:1"
           id="rect1190"
           width="6"
           height="2"
           x="10.999999"
           y="15"
           ry="1" />
      </g>
      <g
         transform="translate(-6.0000004,-6.0000004)"
         id="g1200">
        <rect
           transform="rotate(-135)"
           style="opacity:1;fill:#ebebeb;fill-opacity:1;stroke:none;stroke-width:1.32287562;stroke-linecap:round;stroke-linejoin:round;stroke-miterlimit:4;stroke-dasharray:none;stroke-opacity:1"
           id="rect1194"
           width="7"
           height="2"
           x="-23.626131"
           y="-1"
           ry="1" />
        <rect
           transform="scale(-1,1)"
           style="opacity:1;fill:#ebebeb;fill-opacity:1;stroke:none;stroke-width:1.22474492;stroke-linecap:round;stroke-linejoin:round;stroke-miterlimit:4;stroke-dasharray:none;stroke-opacity:1"
           id="rect1196"
           width="6"
           height="2"
           x="-16.462646"
           y="10.462646"
           ry="1" />
        <rect
           ry="1"
           y="-12.462646"
           x="-16.462648"
           height="2"
           width="6"
           id="rect1198"
           style="opacity:1;fill:#ebebeb;fill-opacity:1;stroke:none;stroke-width:1.22474492;stroke-linecap:round;stroke-linejoin:round;stroke-miterlimit:4;stroke-dasharray:none;stroke-opacity:1"
           transform="matrix(0,-1,-1,0,0,0)" />
      </g>
    </g>
  </g>
  <g
     id="deactivated-center">
    <rect
       ry="0"
       rx="0"
       y="0.00064373016"
       x="54.950531"
       height="21.999998"
       width="21.999998"
       id="rect981"
       style="opacity:0;fill:#000000;fill-opacity:1;fill-rule:evenodd;stroke:none;stroke-width:2.99999976;stroke-linecap:round;stroke-linejoin:round;stroke-miterlimit:4;stroke-dasharray:none;stroke-opacity:1;paint-order:fill markers stroke" />
    <g
       transform="translate(54.949887,0.00128657)"
       id="g1244"
       style="opacity:0.3">
      <g
         transform="translate(0.53735326,0.53735326)"
         id="g1238">
        <path
           inkscape:connector-curvature="0"
           style="opacity:1;fill:#ebebeb;fill-opacity:1;stroke:none;stroke-width:1.32287562;stroke-linecap:round;stroke-linejoin:round;stroke-miterlimit:4;stroke-dasharray:none;stroke-opacity:1"
           d="m 42,11 c -0.255619,0 -0.511163,0.09905 -0.707031,0.294922 -0.391737,0.391737 -0.391737,1.022325 0,1.414062 l 2.828125,2.828125 h -1.583985 c -0.554,0 -1,0.446 -1,1 0,0.554 0.446,1 1,1 h 4 c 0.554,0 1,-0.446 1,-1 v -4 c 0,-0.554 -0.446,-1 -1,-1 -0.554,0 -1,0.446 -1,1 V 14.125 L 42.707031,11.294922 C 42.511163,11.099053 42.255619,11 42,11 Z"
           transform="translate(-30.53671,-0.53799684)"
           id="path1236" />
      </g>
      <g
         transform="translate(-6.0000004,-6.0000004)"
         id="g1242">
        <path
           inkscape:connector-curvature="0"
           style="opacity:1;fill:#ebebeb;fill-opacity:1;stroke:none;stroke-width:1.32287562;stroke-linecap:round;stroke-linejoin:round;stroke-miterlimit:4;stroke-dasharray:none;stroke-opacity:1"
           d="m 35.462891,4.4628906 c -0.554,0 -1,0.446 -1,1 v 4 c 0,0.5540004 0.446,1.0000004 1,1.0000004 0.554,0 1,-0.446 1,-1.0000004 V 7.8789062 l 2.828125,2.8281248 c 0.391737,0.391737 1.022325,0.391737 1.414062,0 0.391737,-0.391737 0.391737,-1.0223251 0,-1.4140622 L 37.875,6.4628906 h 1.587891 c 0.554,0 1,-0.446 1,-1 0,-0.554 -0.446,-1 -1,-1 z"
           transform="translate(-23.999357,5.9993568)"
           id="path1240" />
      </g>
    </g>
  </g>
</svg>
