<?xml version="1.0" encoding="UTF-8" standalone="no"?>
<svg
   xmlns:dc="http://purl.org/dc/elements/1.1/"
   xmlns:cc="http://creativecommons.org/ns#"
   xmlns:rdf="http://www.w3.org/1999/02/22-rdf-syntax-ns#"
   xmlns:svg="http://www.w3.org/2000/svg"
   xmlns="http://www.w3.org/2000/svg"
   xmlns:xlink="http://www.w3.org/1999/xlink"
   xmlns:sodipodi="http://sodipodi.sourceforge.net/DTD/sodipodi-0.dtd"
   xmlns:inkscape="http://www.inkscape.org/namespaces/inkscape"
   id="svg4306"
   width="22"
   height="22"
   version="1.1"
   style="enable-background:new"
   sodipodi:docname="maximize.svg"
   inkscape:version="0.92.4 5da689c313, 2019-01-14">
  <metadata
     id="metadata24">
    <rdf:RDF>
      <cc:Work
         rdf:about="">
        <dc:format>image/svg+xml</dc:format>
        <dc:type
           rdf:resource="http://purl.org/dc/dcmitype/StillImage" />
        <dc:title />
      </cc:Work>
    </rdf:RDF>
  </metadata>
  <defs
     id="defs22">
    <filter
       color-interpolation-filters="sRGB"
       height="1.048"
       width="1.048"
       y="-.024"
       x="-.024"
       id="filter11290">
      <feGaussianBlur
         id="feGaussianBlur879"
         stdDeviation="0.15875313" />
    </filter>
    <linearGradient
       gradientUnits="userSpaceOnUse"
       gradientTransform="translate(-0.0078552,-5.0139e-5)"
       y2=".64687"
       y1="16.296"
       x2="16.388"
       x1=".73911"
       id="linearGradient1005">
      <stop
         id="stop882"
         offset="0"
         stop-color="#00dc96" />
      <stop
         id="stop884"
         offset="1"
         stop-color="#14d29b" />
    </linearGradient>
  </defs>
  <sodipodi:namedview
     pagecolor="#c8c8c8"
     bordercolor="#666666"
     borderopacity="1"
     objecttolerance="10"
     gridtolerance="10"
     guidetolerance="10"
     inkscape:pageopacity="0"
     inkscape:pageshadow="2"
     inkscape:window-width="1920"
     inkscape:window-height="981"
     id="namedview20"
     showgrid="true"
     inkscape:zoom="5.6568539"
     inkscape:cx="11.974408"
     inkscape:cy="-8.5031113"
     inkscape:window-x="0"
     inkscape:window-y="28"
     inkscape:window-maximized="1"
     inkscape:current-layer="svg4306"
     inkscape:snap-bbox="true"
     inkscape:bbox-nodes="true"
     inkscape:snap-bbox-edge-midpoints="true">
    <inkscape:grid
       type="xygrid"
       id="grid949" />
  </sodipodi:namedview>
  <use
     x="0"
     y="0"
     xlink:href="#g1000"
     id="use1002"
     transform="translate(28.476029)"
     width="100%"
     height="100%" />
  <g
     id="active-center">
    <rect
       ry="0"
       rx="0"
       y="9.5367432e-07"
       x="9.5367432e-07"
       height="21.999998"
       width="21.999998"
       id="rect962"
       style="opacity:0;fill:#000000;fill-opacity:1;fill-rule:evenodd;stroke:none;stroke-width:2.99999976;stroke-linecap:round;stroke-linejoin:round;stroke-miterlimit:4;stroke-dasharray:none;stroke-opacity:1;paint-order:fill markers stroke" />
    <g
       transform="translate(22,-4)"
       id="g938">
      <rect
         ry="0.5"
         y="17.884323"
         x="4.5212708"
         height="1"
         width="8"
         id="rect918"
         style="opacity:1;fill:#ebebeb;fill-opacity:1;stroke:none;stroke-width:1;stroke-linecap:round;stroke-linejoin:round;stroke-miterlimit:4;stroke-dasharray:none;stroke-opacity:1"
         transform="rotate(45)" />
      <rect
         transform="rotate(90)"
         style="opacity:1;fill:#ebebeb;fill-opacity:1;stroke:none;stroke-width:0.79056942;stroke-linecap:round;stroke-linejoin:round;stroke-miterlimit:4;stroke-dasharray:none;stroke-opacity:1"
         id="rect920"
         width="5"
         height="1"
         x="16.999357"
         y="3.9993567"
         ry="0.5" />
      <rect
         ry="0.5"
         y="-22"
         x="-9"
         height="1"
         width="5"
         id="rect922"
         style="opacity:1;fill:#ebebeb;fill-opacity:1;stroke:none;stroke-width:0.79056942;stroke-linecap:round;stroke-linejoin:round;stroke-miterlimit:4;stroke-dasharray:none;stroke-opacity:1"
         transform="scale(1,-1)" />
    </g>
    <g
       transform="translate(22.024672,-2.9753291)"
       id="g933">
      <rect
         transform="rotate(-135)"
         style="opacity:1;fill:#ebebeb;fill-opacity:1;stroke:none;stroke-width:1;stroke-linecap:round;stroke-linejoin:round;stroke-miterlimit:4;stroke-dasharray:none;stroke-opacity:1"
         id="rect924"
         width="8"
         height="1"
         x="-0.39358678"
         y="-18.177216"
         ry="0.5" />
      <rect
         ry="0.5"
         y="-18.024672"
         x="-11.975329"
         height="1"
         width="5"
         id="rect926"
         style="opacity:1;fill:#ebebeb;fill-opacity:1;stroke:none;stroke-width:0.79056942;stroke-linecap:round;stroke-linejoin:round;stroke-miterlimit:4;stroke-dasharray:none;stroke-opacity:1"
         transform="rotate(-90)" />
      <rect
         transform="scale(-1,1)"
         style="opacity:1;fill:#ebebeb;fill-opacity:1;stroke:none;stroke-width:0.79056942;stroke-linecap:round;stroke-linejoin:round;stroke-miterlimit:4;stroke-dasharray:none;stroke-opacity:1"
         id="rect928"
         width="5"
         height="1"
         x="13.024029"
         y="6.9746857"
         ry="0.5" />
    </g>
  </g>
  <g
     id="inactive-center"
     transform="translate(29.999357,6.4277649e-4)">
    <rect
       style="opacity:0;fill:#000000;fill-opacity:1;fill-rule:evenodd;stroke:none;stroke-width:2.99999976;stroke-linecap:round;stroke-linejoin:round;stroke-miterlimit:4;stroke-dasharray:none;stroke-opacity:1;paint-order:fill markers stroke"
       id="rect959"
       width="21.999998"
       height="21.999998"
       x="9.5367432e-07"
       y="9.5367432e-07"
       rx="0"
       ry="0" />
    <g
       id="g967"
       transform="translate(22,-4)">
      <path
         style="opacity:0.3;fill:#ebebeb;fill-opacity:1;stroke:none;stroke-width:1;stroke-linecap:round;stroke-linejoin:round;stroke-miterlimit:4;stroke-dasharray:none;stroke-opacity:1"
         d="M 42.550781 12.050781 C 42.422972 12.050781 42.2952 12.099331 42.197266 12.197266 C 42.001397 12.393134 42.001397 12.708428 42.197266 12.904297 L 46.292969 17 L 43.5 17 C 43.223 17 43 17.223 43 17.5 C 43 17.777 43.223 18 43.5 18 L 47.490234 18 C 47.559709 18.001387 47.628225 17.988497 47.693359 17.960938 C 47.693359 17.960938 47.695312 17.960938 47.695312 17.960938 C 47.755675 17.935491 47.808095 17.89923 47.853516 17.853516 C 47.899572 17.807459 47.935662 17.752652 47.960938 17.691406 C 47.961224 17.690713 47.962608 17.690148 47.962891 17.689453 C 47.987374 17.629283 48 17.563905 48 17.5 L 48 13.5 C 48 13.223 47.777 13 47.5 13 C 47.223 13 47 13.223 47 13.5 L 47 16.292969 L 42.904297 12.197266 C 42.806363 12.099331 42.678591 12.050781 42.550781 12.050781 z "
         transform="translate(-51.999357,3.9993572)"
         id="rect961" />
    </g>
    <g
       id="g975"
       transform="translate(22.024672,-2.9753291)">
      <path
         style="opacity:0.3;fill:#ebebeb;fill-opacity:1;stroke:none;stroke-width:1;stroke-linecap:round;stroke-linejoin:round;stroke-miterlimit:4;stroke-dasharray:none;stroke-opacity:1"
         d="M 34.548828 4.0253906 C 34.484053 4.0253906 34.420261 4.0392979 34.359375 4.0644531 C 34.35787 4.0650743 34.356967 4.0657709 34.355469 4.0664062 C 34.354966 4.0666196 34.354018 4.0661913 34.353516 4.0664062 C 34.293656 4.0916406 34.2405 4.1266875 34.195312 4.171875 C 34.150125 4.2170625 34.115078 4.2702187 34.089844 4.3300781 C 34.088993 4.3320648 34.088716 4.3339375 34.087891 4.3359375 C 34.087891 4.3359375 34.085938 4.3378906 34.085938 4.3378906 C 34.061454 4.398061 34.048828 4.4614858 34.048828 4.5253906 C 34.048828 4.5253906 34.048828 4.5273438 34.048828 4.5273438 L 34.048828 8.5273438 C 34.048828 8.8043438 34.271828 9.0273438 34.548828 9.0273438 C 34.825828 9.0273438 35.048828 8.8043438 35.048828 8.5273438 L 35.048828 5.7324219 L 39.144531 9.828125 C 39.3404 10.023994 39.655694 10.023994 39.851562 9.828125 C 40.047431 9.6322564 40.047431 9.3169623 39.851562 9.1210938 L 35.755859 5.0253906 L 38.548828 5.0253906 C 38.825828 5.0253906 39.048828 4.8023906 39.048828 4.5253906 C 39.048828 4.2483906 38.825828 4.0253906 38.548828 4.0253906 L 34.548828 4.0253906 z "
         transform="translate(-52.024029,2.9746863)"
         id="rect969" />
    </g>
  </g>
  <g
     transform="translate(54.950529,6.4277649e-4)"
     id="deactivated-center">
    <rect
       ry="0"
       rx="0"
       y="9.5367432e-07"
       x="9.5367432e-07"
       height="21.999998"
       width="21.999998"
       id="rect981"
       style="opacity:0;fill:#000000;fill-opacity:1;fill-rule:evenodd;stroke:none;stroke-width:2.99999976;stroke-linecap:round;stroke-linejoin:round;stroke-miterlimit:4;stroke-dasharray:none;stroke-opacity:1;paint-order:fill markers stroke" />
    <g
       transform="translate(22,-4)"
       id="g985">
      <path
         id="path983"
         transform="translate(-51.999357,3.9993572)"
         d="m 42.550781,12.050781 c -0.127809,0 -0.255581,0.04855 -0.353515,0.146485 -0.195869,0.195868 -0.195869,0.511162 0,0.707031 L 46.292969,17 H 43.5 c -0.277,0 -0.5,0.223 -0.5,0.5 0,0.277 0.223,0.5 0.5,0.5 h 3.990234 c 0.06947,0.0014 0.137991,-0.0115 0.203125,-0.03906 0,0 0.002,0 0.002,0 0.06036,-0.02545 0.112783,-0.06171 0.158204,-0.107422 0.04606,-0.04606 0.08215,-0.100864 0.107422,-0.16211 2.86e-4,-6.93e-4 0.0017,-0.0013 0.002,-0.002 C 47.987374,17.629283 48,17.563905 48,17.5 v -4 C 48,13.223 47.777,13 47.5,13 47.223,13 47,13.223 47,13.5 v 2.792969 l -4.095703,-4.095703 c -0.09793,-0.09794 -0.225706,-0.146485 -0.353516,-0.146485 z"
         style="opacity:0.3;fill:#ebebeb;fill-opacity:1;stroke:none;stroke-width:1;stroke-linecap:round;stroke-linejoin:round;stroke-miterlimit:4;stroke-dasharray:none;stroke-opacity:1"
         inkscape:connector-curvature="0" />
    </g>
    <g
       transform="translate(22.024672,-2.9753291)"
       id="g989">
      <path
         id="path987"
         transform="translate(-52.024029,2.9746863)"
         d="m 34.548828,4.0253906 c -0.06477,0 -0.128567,0.013907 -0.189453,0.039063 -0.0015,6.212e-4 -0.0024,0.00132 -0.0039,0.00195 -5.03e-4,2.134e-4 -0.0015,-2.149e-4 -0.002,0 -0.05986,0.025234 -0.113016,0.060281 -0.158204,0.1054688 -0.04519,0.045187 -0.08023,0.098344 -0.105468,0.1582031 -8.51e-4,0.00199 -0.0011,0.00386 -0.002,0.00586 0,0 -0.002,0.00195 -0.002,0.00195 -0.02448,0.06017 -0.03711,0.1235952 -0.03711,0.1875 0,0 0,0.00195 0,0.00195 v 4 c 0,0.277 0.223,0.5 0.5,0.5 0.277,0 0.5,-0.223 0.5,-0.5 V 5.7324219 l 4.095703,4.0957031 c 0.195869,0.195869 0.511163,0.195869 0.707031,0 0.195869,-0.1958686 0.195869,-0.5111627 0,-0.7070312 L 35.755859,5.0253906 h 2.792969 c 0.277,0 0.5,-0.223 0.5,-0.5 0,-0.277 -0.223,-0.5 -0.5,-0.5 z"
         style="opacity:0.3;fill:#ebebeb;fill-opacity:1;stroke:none;stroke-width:1;stroke-linecap:round;stroke-linejoin:round;stroke-miterlimit:4;stroke-dasharray:none;stroke-opacity:1"
         inkscape:connector-curvature="0" />
    </g>
  </g>
  <g
     id="hover-center">
    <rect
       style="display:inline;opacity:1;fill:none;fill-opacity:1;stroke:none;stroke-width:1.375;stroke-linecap:butt;stroke-linejoin:miter;stroke-miterlimit:4;stroke-dasharray:none;stroke-dashoffset:0;stroke-opacity:0"
       id="rect6284"
       width="22"
       height="22"
       x="4.8794135e-07"
       y="27" />
    <rect
       ry="5"
       y="27"
       x="0"
       height="22"
       width="22"
       id="rect867"
       style="opacity:0.1;fill:#ebebeb;fill-opacity:1;stroke:none;stroke-width:1.29411769;stroke-linecap:round;stroke-miterlimit:4;stroke-dasharray:none;stroke-opacity:1" />
    <g
       transform="translate(25)"
       id="g1033">
      <g
         id="g1002"
         transform="translate(-6.0508939,-6.0502551)">
        <rect
           style="opacity:1;fill:#ebebeb;fill-opacity:1;stroke:none;stroke-width:1;stroke-linecap:round;stroke-linejoin:round;stroke-miterlimit:4;stroke-dasharray:none;stroke-opacity:1"
           id="rect993"
           width="8"
           height="1"
           x="-23.834978"
           y="-37.2691"
           ry="0.5"
           transform="rotate(-135)" />
        <rect
           ry="0.5"
           y="-14.949106"
           x="-42.050896"
           height="1"
           width="5"
           id="rect995"
           style="opacity:1;fill:#ebebeb;fill-opacity:1;stroke:none;stroke-width:0.79056942;stroke-linecap:round;stroke-linejoin:round;stroke-miterlimit:4;stroke-dasharray:none;stroke-opacity:1"
           transform="rotate(-90)" />
        <rect
           transform="scale(-1,1)"
           style="opacity:1;fill:#ebebeb;fill-opacity:1;stroke:none;stroke-width:0.79056942;stroke-linecap:round;stroke-linejoin:round;stroke-miterlimit:4;stroke-dasharray:none;stroke-opacity:1"
           id="rect997"
           width="5"
           height="1"
           x="9.9484653"
           y="37.050255"
           ry="0.5" />
      </g>
      <g
         id="g1007"
         transform="translate(1.9993591,2.0006409)">
        <rect
           transform="rotate(45)"
           ry="0.5"
           y="36.2691"
           x="15.834978"
           height="1"
           width="8"
           id="rect840"
           style="opacity:1;fill:#ebebeb;fill-opacity:1;stroke:none;stroke-width:1;stroke-linecap:round;stroke-linejoin:round;stroke-miterlimit:4;stroke-dasharray:none;stroke-opacity:1" />
        <rect
           transform="rotate(90)"
           style="opacity:1;fill:#ebebeb;fill-opacity:1;stroke:none;stroke-width:0.79056942;stroke-linecap:round;stroke-linejoin:round;stroke-miterlimit:4;stroke-dasharray:none;stroke-opacity:1"
           id="rect844"
           width="5"
           height="1"
           x="37.999359"
           y="8.9993591"
           ry="0.5" />
        <rect
           ry="0.5"
           y="-43"
           x="-14"
           height="1"
           width="5"
           id="rect911"
           style="opacity:1;fill:#ebebeb;fill-opacity:1;stroke:none;stroke-width:0.79056942;stroke-linecap:round;stroke-linejoin:round;stroke-miterlimit:4;stroke-dasharray:none;stroke-opacity:1"
           transform="scale(1,-1)" />
      </g>
    </g>
  </g>
  <g
     id="pressed-center">
    <rect
       y="57"
       x="4.8313905e-07"
       height="22"
       width="22"
       id="rect6380"
       style="display:inline;opacity:1;fill:none;fill-opacity:1;stroke:none;stroke-width:1.375;stroke-linecap:butt;stroke-linejoin:miter;stroke-miterlimit:4;stroke-dasharray:none;stroke-dashoffset:0;stroke-opacity:0" />
    <rect
       style="opacity:0.2;fill:#ebebeb;fill-opacity:1;stroke:none;stroke-width:1.29411769;stroke-linecap:round;stroke-miterlimit:4;stroke-dasharray:none;stroke-opacity:1"
       id="rect869"
       width="22"
       height="22"
       x="0"
       y="57"
       ry="5" />
    <g
       transform="translate(24.999359,2.0000002)"
       id="g1081">
      <g
         transform="translate(-6.0508939,21.949745)"
         id="g1015">
        <rect
           transform="rotate(-135)"
           ry="0.5"
           y="-37.2691"
           x="-23.834978"
           height="1"
           width="8"
           id="rect1009"
           style="opacity:1;fill:#ebebeb;fill-opacity:1;stroke:none;stroke-width:1;stroke-linecap:round;stroke-linejoin:round;stroke-miterlimit:4;stroke-dasharray:none;stroke-opacity:1" />
        <rect
           transform="rotate(-90)"
           style="opacity:1;fill:#ebebeb;fill-opacity:1;stroke:none;stroke-width:0.79056942;stroke-linecap:round;stroke-linejoin:round;stroke-miterlimit:4;stroke-dasharray:none;stroke-opacity:1"
           id="rect1011"
           width="5"
           height="1"
           x="-42.050896"
           y="-14.949106"
           ry="0.5" />
        <rect
           ry="0.5"
           y="37.050255"
           x="9.9484653"
           height="1"
           width="5"
           id="rect1013"
           style="opacity:1;fill:#ebebeb;fill-opacity:1;stroke:none;stroke-width:0.79056942;stroke-linecap:round;stroke-linejoin:round;stroke-miterlimit:4;stroke-dasharray:none;stroke-opacity:1"
           transform="scale(-1,1)" />
      </g>
      <g
         transform="translate(1.9993591,30.000641)"
         id="g1023">
        <rect
           style="opacity:1;fill:#ebebeb;fill-opacity:1;stroke:none;stroke-width:1;stroke-linecap:round;stroke-linejoin:round;stroke-miterlimit:4;stroke-dasharray:none;stroke-opacity:1"
           id="rect1017"
           width="8"
           height="1"
           x="15.834978"
           y="36.2691"
           ry="0.5"
           transform="rotate(45)" />
        <rect
           ry="0.5"
           y="8.9993591"
           x="37.999359"
           height="1"
           width="5"
           id="rect1019"
           style="opacity:1;fill:#ebebeb;fill-opacity:1;stroke:none;stroke-width:0.79056942;stroke-linecap:round;stroke-linejoin:round;stroke-miterlimit:4;stroke-dasharray:none;stroke-opacity:1"
           transform="rotate(90)" />
        <rect
           transform="scale(1,-1)"
           style="opacity:1;fill:#ebebeb;fill-opacity:1;stroke:none;stroke-width:0.79056942;stroke-linecap:round;stroke-linejoin:round;stroke-miterlimit:4;stroke-dasharray:none;stroke-opacity:1"
           id="rect1021"
           width="5"
           height="1"
           x="-14"
           y="-43"
           ry="0.5" />
      </g>
    </g>
  </g>
</svg>
