<?xml version="1.0" encoding="UTF-8" standalone="no"?>
<svg
   xmlns:dc="http://purl.org/dc/elements/1.1/"
   xmlns:cc="http://creativecommons.org/ns#"
   xmlns:rdf="http://www.w3.org/1999/02/22-rdf-syntax-ns#"
   xmlns:svg="http://www.w3.org/2000/svg"
   xmlns="http://www.w3.org/2000/svg"
   xmlns:xlink="http://www.w3.org/1999/xlink"
   xmlns:sodipodi="http://sodipodi.sourceforge.net/DTD/sodipodi-0.dtd"
   xmlns:inkscape="http://www.inkscape.org/namespaces/inkscape"
   id="svg4306"
   width="22"
   height="22"
   version="1.1"
   style="enable-background:new"
   sodipodi:docname="restore.svg"
   inkscape:version="0.92.5 (2060ec1f9f, 2020-04-08)">
  <metadata
     id="metadata24">
    <rdf:RDF>
      <cc:Work
         rdf:about="">
        <dc:format>image/svg+xml</dc:format>
        <dc:type
           rdf:resource="http://purl.org/dc/dcmitype/StillImage" />
        <dc:title />
      </cc:Work>
    </rdf:RDF>
  </metadata>
  <defs
     id="defs22" />
  <sodipodi:namedview
     pagecolor="#c8c8c8"
     bordercolor="#666666"
     borderopacity="1"
     objecttolerance="10"
     gridtolerance="10"
     guidetolerance="10"
     inkscape:pageopacity="0"
     inkscape:pageshadow="2"
     inkscape:window-width="1920"
     inkscape:window-height="975"
     id="namedview20"
     showgrid="true"
     inkscape:zoom="4"
     inkscape:cx="18.662099"
     inkscape:cy="3.8516723"
     inkscape:window-x="0"
     inkscape:window-y="30"
     inkscape:window-maximized="1"
     inkscape:current-layer="svg4306"
     inkscape:snap-bbox="true"
     inkscape:bbox-nodes="true">
    <inkscape:grid
       type="xygrid"
       id="grid74" />
  </sodipodi:namedview>
  <use
     x="0"
     y="0"
     xlink:href="#g1000"
     id="use1002"
     transform="translate(28.476029)"
     width="100%"
     height="100%" />
  <g
     id="g1048"
     transform="translate(-0.45020268,-1)">
    <g
       transform="translate(-10.550894,-4.5684e-4)"
       id="g884">
      <rect
         ry="0.5"
         y="-26.662498"
         x="0.91375828"
         height="1"
         width="8"
         id="rect918"
         style="opacity:1;fill:#ebebeb;fill-opacity:1;stroke:none;stroke-width:1;stroke-linecap:round;stroke-linejoin:round;stroke-miterlimit:4;stroke-dasharray:none;stroke-opacity:1"
         transform="rotate(-135)" />
      <rect
         transform="rotate(-90)"
         style="opacity:1;fill:#ebebeb;fill-opacity:1;stroke:none;stroke-width:0.79056942;stroke-linecap:round;stroke-linejoin:round;stroke-miterlimit:4;stroke-dasharray:none;stroke-opacity:1"
         id="rect920"
         width="5"
         height="1"
         x="-17.0509"
         y="-24.949106"
         ry="0.5" />
      <rect
         ry="0.5"
         y="12.050257"
         x="19.948463"
         height="1"
         width="5"
         id="rect922"
         style="opacity:1;fill:#ebebeb;fill-opacity:1;stroke:none;stroke-width:0.79056942;stroke-linecap:round;stroke-linejoin:round;stroke-miterlimit:4;stroke-dasharray:none;stroke-opacity:1"
         transform="scale(-1,1)" />
    </g>
    <g
       transform="translate(-10.549342,0.00109735)"
       id="g892">
      <rect
         transform="rotate(45)"
         style="opacity:1;fill:#ebebeb;fill-opacity:1;stroke:none;stroke-width:1;stroke-linecap:round;stroke-linejoin:round;stroke-miterlimit:4;stroke-dasharray:none;stroke-opacity:1"
         id="rect924"
         width="8"
         height="1"
         x="-20.299444"
         y="25.662497"
         ry="0.5" />
      <rect
         ry="0.5"
         y="27.050253"
         x="4.9484625"
         height="1"
         width="5"
         id="rect926"
         style="opacity:1;fill:#ebebeb;fill-opacity:1;stroke:none;stroke-width:0.79056942;stroke-linecap:round;stroke-linejoin:round;stroke-miterlimit:4;stroke-dasharray:none;stroke-opacity:1"
         transform="rotate(90)" />
      <rect
         transform="scale(1,-1)"
         style="opacity:1;fill:#ebebeb;fill-opacity:1;stroke:none;stroke-width:0.79056942;stroke-linecap:round;stroke-linejoin:round;stroke-miterlimit:4;stroke-dasharray:none;stroke-opacity:1"
         id="rect928"
         width="5"
         height="1"
         x="-32.050896"
         y="-9.9491062"
         ry="0.5" />
    </g>
  </g>
  <g
     id="active-center">
    <rect
       ry="0"
       rx="0"
       y="9.5367432e-07"
       x="9.5367432e-07"
       height="21.999998"
       width="21.999998"
       id="rect962"
       style="opacity:0;fill:#000000;fill-opacity:1;fill-rule:evenodd;stroke:none;stroke-width:2.99999976;stroke-linecap:round;stroke-linejoin:round;stroke-miterlimit:4;stroke-dasharray:none;stroke-opacity:1;paint-order:fill markers stroke" />
    <g
       transform="translate(27)"
       id="g972">
      <g
         id="g954"
         transform="translate(0.53735256,0.53735161)">
        <rect
           transform="rotate(-135)"
           style="opacity:1;fill:#ebebeb;fill-opacity:1;stroke:none;stroke-width:1.32287562;stroke-linecap:round;stroke-linejoin:round;stroke-miterlimit:4;stroke-dasharray:none;stroke-opacity:1"
           id="rect952"
           width="7"
           height="2"
           x="-4.5342474"
           y="-20.091883"
           ry="1" />
        <rect
           transform="scale(-1,1)"
           style="opacity:1;fill:#ebebeb;fill-opacity:1;stroke:none;stroke-width:1.22474492;stroke-linecap:round;stroke-linejoin:round;stroke-miterlimit:4;stroke-dasharray:none;stroke-opacity:1"
           id="rect954"
           width="6"
           height="2"
           x="10.537353"
           y="10.462646"
           ry="1" />
        <rect
           ry="1"
           y="14.537353"
           x="-16.462648"
           height="2"
           width="6"
           id="rect956"
           style="opacity:1;fill:#ebebeb;fill-opacity:1;stroke:none;stroke-width:1.22474492;stroke-linecap:round;stroke-linejoin:round;stroke-miterlimit:4;stroke-dasharray:none;stroke-opacity:1"
           transform="matrix(0,-1,-1,0,0,0)" />
      </g>
      <g
         id="g962"
         transform="translate(0.53735352,0.53735638)">
        <rect
           ry="1"
           y="18.091883"
           x="-13.125181"
           height="2"
           width="7"
           id="rect1074-5"
           style="opacity:1;fill:#ebebeb;fill-opacity:1;stroke:none;stroke-width:1.32287562;stroke-linecap:round;stroke-linejoin:round;stroke-miterlimit:4;stroke-dasharray:none;stroke-opacity:1"
           transform="rotate(45)" />
        <rect
           ry="1"
           y="-10.462646"
           x="-22.537354"
           height="2"
           width="6"
           id="rect1076-3"
           style="opacity:1;fill:#ebebeb;fill-opacity:1;stroke:none;stroke-width:1.22474492;stroke-linecap:round;stroke-linejoin:round;stroke-miterlimit:4;stroke-dasharray:none;stroke-opacity:1"
           transform="scale(1,-1)" />
        <rect
           transform="matrix(0,1,1,0,0,0)"
           style="opacity:1;fill:#ebebeb;fill-opacity:1;stroke:none;stroke-width:1.22474492;stroke-linecap:round;stroke-linejoin:round;stroke-miterlimit:4;stroke-dasharray:none;stroke-opacity:1"
           id="rect1078-5"
           width="6"
           height="2"
           x="4.4626436"
           y="-18.537354"
           ry="1" />
      </g>
    </g>
  </g>
  <g
     id="inactive-center">
    <rect
       style="opacity:0;fill:#000000;fill-opacity:1;fill-rule:evenodd;stroke:none;stroke-width:2.99999976;stroke-linecap:round;stroke-linejoin:round;stroke-miterlimit:4;stroke-dasharray:none;stroke-opacity:1;paint-order:fill markers stroke"
       id="rect987"
       width="21.999998"
       height="21.999998"
       x="30"
       y="9.5367432e-07"
       rx="0"
       ry="0" />
    <g
       transform="translate(3.9990225,28.000417)"
       style="opacity:0.3"
       id="g1131">
      <g
         id="g1150"
         transform="translate(26.537544,-27.462003)">
        <path
           inkscape:connector-curvature="0"
           id="rect1144"
           d="m 15.999565,16.999112 c 0.255619,0 0.511163,-0.09905 0.707031,-0.294922 0.391737,-0.391737 0.391737,-1.022325 0,-1.414062 l -2.828125,-2.828125 h 1.583985 c 0.554,0 1,-0.446 1,-1 0,-0.554 -0.446,-1 -1,-1 h -4 c -0.554,0 -1,0.446 -1,1 v 4 c 0,0.554 0.446,1 1,1 0.554,0 1,-0.446 1,-1 v -1.587891 l 2.830078,2.830078 c 0.195868,0.195869 0.451412,0.294922 0.707031,0.294922 z"
           style="opacity:1;fill:#ebebeb;fill-opacity:1;stroke:none;stroke-width:1.32287562;stroke-linecap:round;stroke-linejoin:round;stroke-miterlimit:4;stroke-dasharray:none;stroke-opacity:1" />
      </g>
      <g
         id="g1158"
         transform="translate(20.000476,-34.000191)">
        <path
           inkscape:connector-curvature="0"
           id="rect1152"
           d="m 15.999524,17.000191 c 0.554,0 1,-0.446 1,-1 v -4 c 0,-0.554001 -0.446,-1.000001 -1,-1.000001 -0.554,0 -1,0.446 -1,1.000001 v 1.583984 L 12.171399,10.75605 c -0.391737,-0.391737 -1.022325,-0.391737 -1.414062,0 -0.391737,0.391737 -0.391737,1.022325 0,1.414062 l 2.830078,2.830079 h -1.587891 c -0.554,0 -1,0.446 -1,1 0,0.554 0.446,1 1,1 z"
           style="opacity:1;fill:#ebebeb;fill-opacity:1;stroke:none;stroke-width:1.32287562;stroke-linecap:round;stroke-linejoin:round;stroke-miterlimit:4;stroke-dasharray:none;stroke-opacity:1" />
      </g>
    </g>
  </g>
  <g
     id="pressed-center">
    <rect
       style="display:inline;opacity:1;fill:none;fill-opacity:1;stroke:none;stroke-width:1.375;stroke-linecap:butt;stroke-linejoin:miter;stroke-miterlimit:4;stroke-dasharray:none;stroke-dashoffset:0;stroke-opacity:0"
       id="rect969"
       width="22"
       height="22"
       x="0"
       y="57" />
    <rect
       ry="4"
       y="58"
       x="1"
       height="20"
       width="20"
       id="rect971"
       style="opacity:1;fill:#64c83c;fill-opacity:1;stroke:none;stroke-width:1.17647064;stroke-linecap:round;stroke-miterlimit:4;stroke-dasharray:none;stroke-opacity:1" />
    <g
       id="g1018"
       transform="translate(27,57)">
      <g
         transform="translate(0.53735256,0.53735161)"
         id="g1008">
        <rect
           ry="1"
           y="-20.091883"
           x="-4.5342474"
           height="2"
           width="7"
           id="rect1002"
           style="opacity:1;fill:#ebebeb;fill-opacity:1;stroke:none;stroke-width:1.32287562;stroke-linecap:round;stroke-linejoin:round;stroke-miterlimit:4;stroke-dasharray:none;stroke-opacity:1"
           transform="rotate(-135)" />
        <rect
           ry="1"
           y="10.462646"
           x="10.537353"
           height="2"
           width="6"
           id="rect1004"
           style="opacity:1;fill:#ebebeb;fill-opacity:1;stroke:none;stroke-width:1.22474492;stroke-linecap:round;stroke-linejoin:round;stroke-miterlimit:4;stroke-dasharray:none;stroke-opacity:1"
           transform="scale(-1,1)" />
        <rect
           transform="matrix(0,-1,-1,0,0,0)"
           style="opacity:1;fill:#ebebeb;fill-opacity:1;stroke:none;stroke-width:1.22474492;stroke-linecap:round;stroke-linejoin:round;stroke-miterlimit:4;stroke-dasharray:none;stroke-opacity:1"
           id="rect1006"
           width="6"
           height="2"
           x="-16.462648"
           y="14.537353"
           ry="1" />
      </g>
      <g
         transform="translate(0.53735352,0.53735638)"
         id="g1016">
        <rect
           transform="rotate(45)"
           style="opacity:1;fill:#ebebeb;fill-opacity:1;stroke:none;stroke-width:1.32287562;stroke-linecap:round;stroke-linejoin:round;stroke-miterlimit:4;stroke-dasharray:none;stroke-opacity:1"
           id="rect1010"
           width="7"
           height="2"
           x="-13.125181"
           y="18.091883"
           ry="1" />
        <rect
           transform="scale(1,-1)"
           style="opacity:1;fill:#ebebeb;fill-opacity:1;stroke:none;stroke-width:1.22474492;stroke-linecap:round;stroke-linejoin:round;stroke-miterlimit:4;stroke-dasharray:none;stroke-opacity:1"
           id="rect1012"
           width="6"
           height="2"
           x="-22.537354"
           y="-10.462646"
           ry="1" />
        <rect
           ry="1"
           y="-18.537354"
           x="4.4626436"
           height="2"
           width="6"
           id="rect1014"
           style="opacity:1;fill:#ebebeb;fill-opacity:1;stroke:none;stroke-width:1.22474492;stroke-linecap:round;stroke-linejoin:round;stroke-miterlimit:4;stroke-dasharray:none;stroke-opacity:1"
           transform="matrix(0,1,1,0,0,0)" />
      </g>
    </g>
  </g>
  <g
     id="hover-center">
    <rect
       y="32"
       x="0"
       height="22"
       width="22"
       id="rect909"
       style="display:inline;opacity:1;fill:none;fill-opacity:1;stroke:none;stroke-width:1.375;stroke-linecap:butt;stroke-linejoin:miter;stroke-miterlimit:4;stroke-dasharray:none;stroke-dashoffset:0;stroke-opacity:0" />
    <rect
       style="opacity:1;fill:#64c83c;fill-opacity:1;stroke:none;stroke-width:1.17647064;stroke-linecap:round;stroke-miterlimit:4;stroke-dasharray:none;stroke-opacity:1"
       id="rect911"
       width="20"
       height="20"
       x="1"
       y="33"
       ry="4" />
    <g
       transform="translate(27,32)"
       id="g1077">
      <g
         id="g1067"
         transform="translate(0.53735256,0.53735161)">
        <rect
           transform="rotate(-135)"
           style="opacity:1;fill:#ebebeb;fill-opacity:1;stroke:none;stroke-width:1.32287562;stroke-linecap:round;stroke-linejoin:round;stroke-miterlimit:4;stroke-dasharray:none;stroke-opacity:1"
           id="rect1061"
           width="7"
           height="2"
           x="-4.5342474"
           y="-20.091883"
           ry="1" />
        <rect
           transform="scale(-1,1)"
           style="opacity:1;fill:#ebebeb;fill-opacity:1;stroke:none;stroke-width:1.22474492;stroke-linecap:round;stroke-linejoin:round;stroke-miterlimit:4;stroke-dasharray:none;stroke-opacity:1"
           id="rect1063"
           width="6"
           height="2"
           x="10.537353"
           y="10.462646"
           ry="1" />
        <rect
           ry="1"
           y="14.537353"
           x="-16.462648"
           height="2"
           width="6"
           id="rect1065"
           style="opacity:1;fill:#ebebeb;fill-opacity:1;stroke:none;stroke-width:1.22474492;stroke-linecap:round;stroke-linejoin:round;stroke-miterlimit:4;stroke-dasharray:none;stroke-opacity:1"
           transform="matrix(0,-1,-1,0,0,0)" />
      </g>
      <g
         id="g1075"
         transform="translate(0.53735352,0.53735638)">
        <rect
           ry="1"
           y="18.091883"
           x="-13.125181"
           height="2"
           width="7"
           id="rect1069"
           style="opacity:1;fill:#ebebeb;fill-opacity:1;stroke:none;stroke-width:1.32287562;stroke-linecap:round;stroke-linejoin:round;stroke-miterlimit:4;stroke-dasharray:none;stroke-opacity:1"
           transform="rotate(45)" />
        <rect
           ry="1"
           y="-10.462646"
           x="-22.537354"
           height="2"
           width="6"
           id="rect1071"
           style="opacity:1;fill:#ebebeb;fill-opacity:1;stroke:none;stroke-width:1.22474492;stroke-linecap:round;stroke-linejoin:round;stroke-miterlimit:4;stroke-dasharray:none;stroke-opacity:1"
           transform="scale(1,-1)" />
        <rect
           transform="matrix(0,1,1,0,0,0)"
           style="opacity:1;fill:#ebebeb;fill-opacity:1;stroke:none;stroke-width:1.22474492;stroke-linecap:round;stroke-linejoin:round;stroke-miterlimit:4;stroke-dasharray:none;stroke-opacity:1"
           id="rect1073"
           width="6"
           height="2"
           x="4.4626436"
           y="-18.537354"
           ry="1" />
      </g>
    </g>
  </g>
  <g
     id="deactivated-center"
     transform="translate(27.000977)">
    <rect
       ry="0"
       rx="0"
       y="9.5367432e-07"
       x="30"
       height="21.999998"
       width="21.999998"
       id="rect1146"
       style="opacity:0;fill:#000000;fill-opacity:1;fill-rule:evenodd;stroke:none;stroke-width:2.99999976;stroke-linecap:round;stroke-linejoin:round;stroke-miterlimit:4;stroke-dasharray:none;stroke-opacity:1;paint-order:fill markers stroke" />
    <g
       id="g1157"
       style="opacity:0.3"
       transform="translate(3.9990225,28.000417)">
      <g
         transform="translate(26.537544,-27.462003)"
         id="g1151">
        <path
           style="opacity:1;fill:#ebebeb;fill-opacity:1;stroke:none;stroke-width:1.32287562;stroke-linecap:round;stroke-linejoin:round;stroke-miterlimit:4;stroke-dasharray:none;stroke-opacity:1"
           d="m 15.999565,16.999112 c 0.255619,0 0.511163,-0.09905 0.707031,-0.294922 0.391737,-0.391737 0.391737,-1.022325 0,-1.414062 l -2.828125,-2.828125 h 1.583985 c 0.554,0 1,-0.446 1,-1 0,-0.554 -0.446,-1 -1,-1 h -4 c -0.554,0 -1,0.446 -1,1 v 4 c 0,0.554 0.446,1 1,1 0.554,0 1,-0.446 1,-1 v -1.587891 l 2.830078,2.830078 c 0.195868,0.195869 0.451412,0.294922 0.707031,0.294922 z"
           id="path1148"
           inkscape:connector-curvature="0" />
      </g>
      <g
         transform="translate(20.000476,-34.000191)"
         id="g1155">
        <path
           style="opacity:1;fill:#ebebeb;fill-opacity:1;stroke:none;stroke-width:1.32287562;stroke-linecap:round;stroke-linejoin:round;stroke-miterlimit:4;stroke-dasharray:none;stroke-opacity:1"
           d="m 15.999524,17.000191 c 0.554,0 1,-0.446 1,-1 v -4 c 0,-0.554001 -0.446,-1.000001 -1,-1.000001 -0.554,0 -1,0.446 -1,1.000001 v 1.583984 L 12.171399,10.75605 c -0.391737,-0.391737 -1.022325,-0.391737 -1.414062,0 -0.391737,0.391737 -0.391737,1.022325 0,1.414062 l 2.830078,2.830079 h -1.587891 c -0.554,0 -1,0.446 -1,1 0,0.554 0.446,1 1,1 z"
           id="path1153"
           inkscape:connector-curvature="0" />
      </g>
    </g>
  </g>
</svg>
